
<svg version="1.1" viewBox="0.0 0.0 960.0 540.0" fill="none" stroke="none" stroke-linecap="square" stroke-miterlimit="10" xmlns:xlink="http://www.w3.org/1999/xlink" xmlns="http://www.w3.org/2000/svg"><clipPath id="p.0"><path d="m0 0l960.0 0l0 540.0l-960.0 0l0 -540.0z" clip-rule="nonzero"/></clipPath><g clip-path="url(#p.0)"><path fill="#ffffff" d="m0 0l960.0 0l0 540.0l-960.0 0z" fill-rule="evenodd"/><path fill="#000000" fill-opacity="0.0" d="m0.018224671 52.758648l286.26773 0l0 49.795277l-286.26773 0z" fill-rule="evenodd"/><path stroke="#000000" stroke-width="1.0" stroke-linejoin="round" stroke-linecap="butt" d="m0.018224671 52.758648l286.26773 0l0 49.795277l-286.26773 0z" fill-rule="evenodd"/><path fill="#000000" d="m55.343494 68.749405q2.84375 0 4.765625 1.484375q1.921875 1.46875 2.296875 4.078125l-2.28125 0q-0.375 -1.75 -1.65625 -2.6875q-1.265625 -0.953125 -3.140625 -0.953125q-2.71875 0 -4.265625 1.921875q-1.546875 1.921875 -1.546875 5.015625q0 3.28125 1.515625 5.234375q1.515625 1.9375 4.3125 1.9375q2.09375 0 3.4375 -1.328125q1.34375 -1.328125 1.515625 -3.609375l2.28125 0q-0.375 3.328125 -2.3125 5.09375q-1.9375 1.765625 -5.109375 1.765625q-3.671875 0 -5.796875 -2.4375q-2.125 -2.4375 -2.125 -6.484375q0 -4.0 2.1875 -6.515625q2.203125 -2.515625 5.921875 -2.515625zm14.507816 4.859375q2.53125 0 3.59375 0.90625q1.0625 0.890625 1.0625 2.40625q0 6.453125 0 7.15625q0 0.703125 0.640625 0.703125q0.140625 0 0.296875 -0.03125q0.171875 -0.03125 0.328125 -0.078125l0 1.578125q-0.28125 0.171875 -0.65625 0.25q-0.359375 0.09375 -0.796875 0.09375q-0.84375 0 -1.296875 -0.46875q-0.4375 -0.484375 -0.4375 -1.453125q-0.8125 0.953125 -1.921875 1.4375q-1.09375 0.484375 -2.453125 0.484375q-1.921875 0 -3.015625 -0.90625q-1.078125 -0.921875 -1.078125 -2.578125q0 -1.671875 1.0625 -2.65625q1.0625 -0.984375 5.015625 -1.46875q1.328125 -0.171875 1.796875 -0.515625q0.484375 -0.34375 0.484375 -1.015625q0 -1.03125 -0.671875 -1.546875q-0.65625 -0.515625 -2.09375 -0.515625q-1.515625 0 -2.265625 0.578125q-0.75 0.578125 -0.8125 1.78125l-2.046875 0q0.09375 -2.0625 1.453125 -3.09375q1.359375 -1.046875 3.8125 -1.046875zm-3.578125 9.34375q0 0.875 0.625 1.359375q0.640625 0.46875 1.765625 0.46875q1.734375 0 2.765625 -0.84375q1.03125 -0.859375 1.03125 -1.921875l0 -2.125q-0.515625 0.359375 -1.34375 0.484375q-0.8125 0.125 -2.171875 0.3125q-1.359375 0.203125 -2.015625 0.75q-0.65625 0.53125 -0.65625 1.515625zm17.578125 -9.359375q0.0625 0 0.125 0q0.0625 0 0.15625 0.015625l0 2.15625q-2.296875 0 -3.40625 1.21875q-1.09375 1.21875 -1.09375 3.75l0 5.5625l-2.03125 0l0 -12.40625l1.921875 0l0 2.609375l0.046875 0q0.71875 -1.484375 1.765625 -2.1875q1.046875 -0.71875 2.515625 -0.71875zm6.5273438 0.015625q2.671875 0 4.140625 1.921875q1.484375 1.921875 1.484375 4.921875l0 0.25l-9.28125 0l0 0.15625q0 1.765625 1.03125 2.84375q1.03125 1.078125 2.828125 1.078125q1.359375 0 2.15625 -0.625q0.8125 -0.640625 1.0625 -1.796875l2.015625 0q-0.421875 2.0625 -1.8125 3.15625q-1.390625 1.078125 -3.484375 1.078125q-1.96875 0 -3.328125 -0.890625q-1.34375 -0.890625 -1.984375 -2.453125q-0.640625 -1.578125 -0.640625 -3.234375q0 -2.75 1.640625 -4.578125q1.65625 -1.828125 4.171875 -1.828125zm-3.65625 5.296875l7.125 0q-0.09375 -1.515625 -1.109375 -2.515625q-1.0 -1.0 -2.5 -1.0q-1.40625 0 -2.40625 0.953125q-0.984375 0.953125 -1.109375 2.5625zm16.546875 -5.296875q2.671875 0 4.140625 1.921875q1.484375 1.921875 1.484375 4.921875l0 0.25l-9.28125 0l0 0.15625q0 1.765625 1.03125 2.84375q1.03125 1.078125 2.828125 1.078125q1.359375 0 2.15625 -0.625q0.8125 -0.640625 1.0625 -1.796875l2.015625 0q-0.421875 2.0625 -1.8125 3.15625q-1.390625 1.078125 -3.484375 1.078125q-1.96875 0 -3.328125 -0.890625q-1.34375 -0.890625 -1.984375 -2.453125q-0.640625 -1.578125 -0.640625 -3.234375q0 -2.75 1.640625 -4.578125q1.65625 -1.828125 4.171875 -1.828125zm-3.65625 5.296875l7.125 0q-0.09375 -1.515625 -1.109375 -2.515625q-1.0 -1.0 -2.5 -1.0q-1.40625 0 -2.40625 0.953125q-0.984375 0.953125 -1.109375 2.5625zm17.578125 -5.3125q0.0625 0 0.125 0q0.0625 0 0.15625 0.015625l0 2.15625q-2.296875 0 -3.40625 1.21875q-1.09375 1.21875 -1.09375 3.75l0 5.5625l-2.03125 0l0 -12.40625l1.921875 0l0 2.609375l0.046875 0q0.71875 -1.484375 1.765625 -2.1875q1.046875 -0.71875 2.515625 -0.71875zm14.566399 -4.84375q2.859375 0 4.53125 1.390625q1.6875 1.375 1.796875 4.03125l-2.15625 0q-0.203125 -1.75 -1.28125 -2.625q-1.0625 -0.875 -2.984375 -0.875q-1.828125 0 -2.84375 0.765625q-0.9999924 0.75 -0.9999924 2.15625q0 1.0 0.8593674 1.65625q0.875 0.640625 4.65625 1.40625q2.734375 0.5625 4.09375 1.71875q1.359375 1.15625 1.359375 3.21875q0 2.390625 -1.953125 3.75q-1.9375 1.359375 -4.75 1.359375q-3.09375 0 -5.0624924 -1.546875q-1.96875 -1.5625 -2.0 -4.5l2.15625 0q0.03125 1.953125 1.4062424 3.046875q1.375 1.078125 3.59375 1.078125q2.0625 0 3.203125 -0.796875q1.140625 -0.8125 1.140625 -2.3125q0 -1.21875 -1.046875 -1.953125q-1.046875 -0.75 -3.78125 -1.28125q-3.65625 -0.6875 -4.9062424 -1.78125q-1.234375 -1.09375 -1.234375 -2.890625q0 -2.3125 1.75 -3.65625q1.7499924 -1.359375 4.4531174 -1.359375zm12.230469 1.421875l0 3.71875l2.46875 0l0 1.796875l-2.46875 0l0 7.765625q0 0.9375 0.609375 0.984375q0.625 0.046875 1.28125 0.046875l0.578125 0l0 1.8125l-1.6875 0q-1.671875 0 -2.25 -0.59375q-0.578125 -0.609375 -0.578125 -2.015625l0 -8.0l-2.109375 0l0 -1.796875l2.109375 0l0 -3.71875l2.046875 0zm9.792969 3.4375q2.53125 0 3.59375 0.90625q1.0625 0.890625 1.0625 2.40625q0 6.453125 0 7.15625q0 0.703125 0.640625 0.703125q0.140625 0 0.296875 -0.03125q0.171875 -0.03125 0.328125 -0.078125l0 1.578125q-0.28125 0.171875 -0.65625 0.25q-0.359375 0.09375 -0.796875 0.09375q-0.84375 0 -1.296875 -0.46875q-0.4375 -0.484375 -0.4375 -1.453125q-0.8125 0.953125 -1.921875 1.4375q-1.09375 0.484375 -2.453125 0.484375q-1.921875 0 -3.015625 -0.90625q-1.078125 -0.921875 -1.078125 -2.578125q0 -1.671875 1.0625 -2.65625q1.0625 -0.984375 5.015625 -1.46875q1.328125 -0.171875 1.796875 -0.515625q0.484375 -0.34375 0.484375 -1.015625q0 -1.03125 -0.671875 -1.546875q-0.65625 -0.515625 -2.09375 -0.515625q-1.515625 0 -2.265625 0.578125q-0.75 0.578125 -0.8125 1.78125l-2.046875 0q0.09375 -2.0625 1.453125 -3.09375q1.359375 -1.046875 3.8125 -1.046875zm-3.578125 9.34375q0 0.875 0.625 1.359375q0.640625 0.46875 1.765625 0.46875q1.734375 0 2.765625 -0.84375q1.03125 -0.859375 1.03125 -1.921875l0 -2.125q-0.515625 0.359375 -1.34375 0.484375q-0.8125 0.125 -2.171875 0.3125q-1.359375 0.203125 -2.015625 0.75q-0.65625 0.53125 -0.65625 1.515625zm16.453125 -9.34375q1.296875 0 2.234375 0.5625q0.953125 0.5625 1.46875 1.5l0.03125 0l0 -1.78125l1.90625 0l0 11.484375q0 2.921875 -1.40625 4.4375q-1.40625 1.53125 -4.328125 1.53125q-2.140625 0 -3.609375 -0.9375q-1.453125 -0.9375 -1.546875 -2.71875l2.046875 0q0.046875 0.953125 1.015625 1.484375q0.96875 0.53125 2.1875 0.53125q1.8125 0 2.765625 -1.203125q0.96875 -1.1875 0.96875 -3.546875l0 -0.765625l-0.046875 0q-0.484375 1.03125 -1.53125 1.640625q-1.03125 0.609375 -2.34375 0.609375q-2.53125 0 -4.03125 -1.734375q-1.5 -1.734375 -1.5 -4.546875q0 -2.84375 1.5 -4.6875q1.5 -1.859375 4.21875 -1.859375zm-3.5625 6.296875q0 2.21875 0.921875 3.484375q0.921875 1.25 2.578125 1.25q1.6875 0 2.6875 -1.296875q1.0 -1.3125 1.0 -3.5q0 -2.0 -0.921875 -3.21875q-0.921875 -1.234375 -2.625 -1.234375q-1.71875 0 -2.6875 1.234375q-0.953125 1.234375 -0.953125 3.28125zm18.296875 -6.296875q2.234375 0 3.25 1.15625q1.015625 1.140625 1.015625 3.265625l0 8.265625l-2.03125 0l0 -8.46875q0 -1.0625 -0.6875 -1.75q-0.671875 -0.6875 -1.859375 -0.6875q-1.71875 0 -2.6875 1.0625q-0.96875 1.0625 -0.96875 2.75l0 7.09375l-2.046875 0l0 -12.40625l1.921875 0l0 1.96875l0.046875 0q0.6875 -1.171875 1.671875 -1.703125q1.0 -0.546875 2.375 -0.546875zm12.410156 0q2.53125 0 3.59375 0.90625q1.0625 0.890625 1.0625 2.40625q0 6.453125 0 7.15625q0 0.703125 0.640625 0.703125q0.140625 0 0.296875 -0.03125q0.171875 -0.03125 0.328125 -0.078125l0 1.578125q-0.28125 0.171875 -0.65625 0.25q-0.359375 0.09375 -0.796875 0.09375q-0.84375 0 -1.296875 -0.46875q-0.4375 -0.484375 -0.4375 -1.453125q-0.8125 0.953125 -1.921875 1.4375q-1.09375 0.484375 -2.453125 0.484375q-1.921875 0 -3.015625 -0.90625q-1.078125 -0.921875 -1.078125 -2.578125q0 -1.671875 1.0625 -2.65625q1.0625 -0.984375 5.015625 -1.46875q1.328125 -0.171875 1.796875 -0.515625q0.484375 -0.34375 0.484375 -1.015625q0 -1.03125 -0.671875 -1.546875q-0.65625 -0.515625 -2.09375 -0.515625q-1.515625 0 -2.265625 0.578125q-0.75 0.578125 -0.8125 1.78125l-2.046875 0q0.09375 -2.0625 1.453125 -3.09375q1.359375 -1.046875 3.8125 -1.046875zm-3.578125 9.34375q0 0.875 0.625 1.359375q0.640625 0.46875 1.765625 0.46875q1.734375 0 2.765625 -0.84375q1.03125 -0.859375 1.03125 -1.921875l0 -2.125q-0.515625 0.359375 -1.34375 0.484375q-0.8125 0.125 -2.171875 0.3125q-1.359375 0.203125 -2.015625 0.75q-0.65625 0.53125 -0.65625 1.515625zm14.234375 -12.78125l0 3.71875l2.46875 0l0 1.796875l-2.46875 0l0 7.765625q0 0.9375 0.609375 0.984375q0.625 0.046875 1.28125 0.046875l0.578125 0l0 1.8125l-1.6875 0q-1.671875 0 -2.25 -0.59375q-0.578125 -0.609375 -0.578125 -2.015625l0 -8.0l-2.109375 0l0 -1.796875l2.109375 0l0 -3.71875l2.046875 0zm6.8710938 -1.015625l0 2.5l-2.03125 0l0 -2.5l2.03125 0zm0 4.734375l0 12.40625l-2.03125 0l0 -12.40625l2.03125 0zm8.535156 -0.28125q2.8125 0 4.421875 1.8125q1.609375 1.8125 1.609375 4.6875q0 2.890625 -1.640625 4.6875q-1.640625 1.796875 -4.390625 1.796875q-2.6875 0 -4.359375 -1.765625q-1.65625 -1.765625 -1.65625 -4.71875q0 -2.953125 1.625 -4.71875q1.625 -1.78125 4.390625 -1.78125zm-3.859375 6.5q0 2.125 1.078125 3.40625q1.09375 1.265625 2.78125 1.265625q1.671875 0 2.765625 -1.265625q1.109375 -1.28125 1.109375 -3.40625q0 -2.125 -1.09375 -3.421875q-1.09375 -1.296875 -2.796875 -1.296875q-1.640625 0 -2.75 1.28125q-1.09375 1.265625 -1.09375 3.4375zm18.296875 -6.5q2.234375 0 3.25 1.15625q1.015625 1.140625 1.015625 3.265625l0 8.265625l-2.03125 0l0 -8.46875q0 -1.0625 -0.6875 -1.75q-0.671875 -0.6875 -1.859375 -0.6875q-1.71875 0 -2.6875 1.0625q-0.96875 1.0625 -0.96875 2.75l0 7.09375l-2.046875 0l0 -12.40625l1.921875 0l0 1.96875l0.046875 0q0.6875 -1.171875 1.671875 -1.703125q1.0 -0.546875 2.375 -0.546875z" fill-rule="nonzero"/><path fill="#000000" fill-opacity="0.0" d="m0 124.03092l286.26773 0l0 69.6063l-286.26773 0z" fill-rule="evenodd"/><path stroke="#000000" stroke-width="1.0" stroke-linejoin="round" stroke-linecap="butt" d="m0 124.03092l286.26773 0l0 69.6063l-286.26773 0z" fill-rule="evenodd"/><path fill="#000000" d="m73.79402 135.5272q2.84375 0 4.765625 1.484375q1.921875 1.46875 2.296875 4.078125l-2.28125 0q-0.375 -1.75 -1.65625 -2.6875q-1.265625 -0.953125 -3.140625 -0.953125q-2.71875 0 -4.265625 1.921875q-1.546875 1.921875 -1.546875 5.015625q0 3.28125 1.515625 5.234375q1.515625 1.9375 4.3125 1.9375q2.09375 0 3.4375 -1.328125q1.34375 -1.328125 1.515625 -3.609375l2.28125 0q-0.375 3.328125 -2.3125 5.09375q-1.9375 1.765625 -5.109375 1.765625q-3.671875 0 -5.796875 -2.4375q-2.125 -2.4375 -2.125 -6.484375q0 -4.0 2.1875 -6.515625q2.203125 -2.515625 5.921875 -2.515625zm15.082031 4.859375q2.8125 0 4.421875 1.8125q1.609375 1.8125 1.609375 4.6875q0 2.890625 -1.640625 4.6875q-1.640625 1.796875 -4.390625 1.796875q-2.6875 0 -4.359375 -1.765625q-1.65625 -1.765625 -1.65625 -4.71875q0 -2.953125 1.625 -4.71875q1.625 -1.78125 4.390625 -1.78125zm-3.859375 6.5q0 2.125 1.078125 3.40625q1.09375 1.265625 2.78125 1.265625q1.671875 0 2.765625 -1.265625q1.109375 -1.28125 1.109375 -3.40625q0 -2.125 -1.09375 -3.421875q-1.09375 -1.296875 -2.796875 -1.296875q-1.640625 0 -2.75 1.28125q-1.09375 1.265625 -1.09375 3.4375zm18.265625 -6.5q1.359375 0 2.21875 0.546875q0.859375 0.546875 1.1875 1.5625q0.640625 -1.0 1.65625 -1.546875q1.015625 -0.5625 2.25 -0.5625q2.09375 0 3.09375 0.953125q1.015625 0.9375 1.015625 2.5625l0 9.171875l-2.03125 0l0 -8.234375q0 -1.328125 -0.578125 -2.0q-0.5625 -0.671875 -1.828125 -0.671875q-1.53125 0 -2.390625 0.890625q-0.84375 0.890625 -0.84375 2.21875l0 7.796875l-2.046875 0l0 -8.234375q0 -1.328125 -0.5625 -2.0q-0.5625 -0.671875 -1.765625 -0.671875q-0.96875 0 -1.71875 0.46875q-0.75 0.46875 -1.171875 1.296875q-0.421875 0.8125 -0.421875 1.375l0 7.765625l-2.046875 0l0 -12.40625l1.921875 0l0 1.828125l0.046875 0q0.703125 -1.078125 1.703125 -1.59375q1.0 -0.515625 2.3125 -0.515625zm20.613281 0q2.65625 0 4.1875 1.828125q1.53125 1.828125 1.53125 4.6875q0 2.890625 -1.53125 4.6875q-1.515625 1.78125 -4.125 1.78125q-1.171875 0 -2.28125 -0.484375q-1.09375 -0.484375 -1.75 -1.46875l-0.046875 0l0 6.421875l-2.03125 0l0 -17.171875l2.03125 0l0 1.6875l0.046875 0q0.484375 -0.96875 1.515625 -1.46875q1.046875 -0.5 2.453125 -0.5zm-4.078125 6.46875q0 2.15625 1.03125 3.4375q1.046875 1.265625 2.875 1.265625q1.78125 0 2.75 -1.265625q0.96875 -1.265625 0.96875 -3.53125q0 -2.0 -1.03125 -3.296875q-1.015625 -1.296875 -2.828125 -1.296875q-1.78125 0 -2.78125 1.3125q-0.984375 1.3125 -0.984375 3.375zm17.335938 -6.46875q2.671875 0 4.140625 1.921875q1.484375 1.921875 1.484375 4.921875l0 0.25l-9.28125 0l0 0.15625q0 1.765625 1.03125 2.84375q1.03125 1.078125 2.828125 1.078125q1.359375 0 2.15625 -0.625q0.8125 -0.640625 1.0625 -1.796875l2.015625 0q-0.421875 2.0625 -1.8125 3.15625q-1.390625 1.078125 -3.484375 1.078125q-1.96875 0 -3.328125 -0.890625q-1.34375 -0.890625 -1.984375 -2.453125q-0.640625 -1.578125 -0.640625 -3.234375q0 -2.75 1.640625 -4.578125q1.65625 -1.828125 4.171875 -1.828125zm-3.65625 5.296875l7.125 0q-0.09375 -1.515625 -1.109375 -2.515625q-1.0 -1.0 -2.5 -1.0q-1.40625 0 -2.40625 0.953125q-0.984375 0.953125 -1.109375 2.5625zm17.40625 -5.296875q2.234375 0 3.25 1.15625q1.015625 1.140625 1.015625 3.265625l0 8.265625l-2.03125 0l0 -8.46875q0 -1.0625 -0.6875 -1.75q-0.671875 -0.6875 -1.859375 -0.6875q-1.71875 0 -2.6875 1.0625q-0.96875 1.0625 -0.96875 2.75l0 7.09375l-2.046875 0l0 -12.40625l1.921875 0l0 1.96875l0.046875 0q0.6875 -1.171875 1.671875 -1.703125q1.0 -0.546875 2.375 -0.546875zm11.457031 0q2.515625 0 3.734375 0.96875q1.21875 0.96875 1.328125 2.90625l-2.03125 0l0 -0.03125q-0.078125 -0.984375 -0.859375 -1.515625q-0.78125 -0.546875 -2.015625 -0.546875q-1.234375 0 -1.9375 0.421875q-0.703125 0.421875 -0.703125 1.171875q0 0.671875 0.625 1.109375q0.625 0.4375 1.890625 0.703125l1.921875 0.4375q1.796875 0.390625 2.734375 1.21875q0.9375 0.828125 0.9375 2.21875q0 1.828125 -1.421875 2.875q-1.40625 1.046875 -3.859375 1.046875q-2.375 0 -3.78125 -1.0625q-1.390625 -1.078125 -1.484375 -3.15625l2.0625 0q0.03125 1.171875 0.90625 1.796875q0.875 0.609375 2.421875 0.609375q1.46875 0 2.234375 -0.46875q0.765625 -0.46875 0.765625 -1.375q0 -0.84375 -0.765625 -1.328125q-0.75 -0.484375 -3.09375 -0.953125q-2.34375 -0.453125 -3.296875 -1.28125q-0.953125 -0.84375 -0.953125 -2.25q0 -1.625 1.3125 -2.5625q1.328125 -0.953125 3.328125 -0.953125zm12.953125 0q2.53125 0 3.59375 0.90625q1.0625 0.890625 1.0625 2.40625q0 6.453125 0 7.15625q0 0.703125 0.640625 0.703125q0.140625 0 0.296875 -0.03125q0.171875 -0.03125 0.328125 -0.078125l0 1.578125q-0.28125 0.171875 -0.65625 0.25q-0.359375 0.09375 -0.796875 0.09375q-0.84375 0 -1.296875 -0.46875q-0.4375 -0.484375 -0.4375 -1.453125q-0.8125 0.953125 -1.921875 1.4375q-1.09375 0.484375 -2.453125 0.484375q-1.921875 0 -3.015625 -0.90625q-1.078125 -0.921875 -1.078125 -2.578125q0 -1.671875 1.0625 -2.65625q1.0625 -0.984375 5.015625 -1.46875q1.328125 -0.171875 1.796875 -0.515625q0.484375 -0.34375 0.484375 -1.015625q0 -1.03125 -0.671875 -1.546875q-0.65625 -0.515625 -2.09375 -0.515625q-1.515625 0 -2.265625 0.578125q-0.75 0.578125 -0.8125 1.78125l-2.046875 0q0.09375 -2.0625 1.453125 -3.09375q1.359375 -1.046875 3.8125 -1.046875zm-3.578125 9.34375q0 0.875 0.625 1.359375q0.640625 0.46875 1.765625 0.46875q1.734375 0 2.765625 -0.84375q1.03125 -0.859375 1.03125 -1.921875l0 -2.125q-0.515625 0.359375 -1.34375 0.484375q-0.8125 0.125 -2.171875 0.3125q-1.359375 0.203125 -2.015625 0.75q-0.65625 0.53125 -0.65625 1.515625zm14.234375 -12.78125l0 3.71875l2.46875 0l0 1.796875l-2.46875 0l0 7.765625q0 0.9375 0.609375 0.984375q0.625 0.046875 1.28125 0.046875l0.578125 0l0 1.8125l-1.6875 0q-1.671875 0 -2.25 -0.59375q-0.578125 -0.609375 -0.578125 -2.015625l0 -8.0l-2.109375 0l0 -1.796875l2.109375 0l0 -3.71875l2.046875 0zm6.8710938 -1.015625l0 2.5l-2.03125 0l0 -2.5l2.03125 0zm0 4.734375l0 12.40625l-2.03125 0l0 -12.40625l2.03125 0zm8.535156 -0.28125q2.8125 0 4.421875 1.8125q1.609375 1.8125 1.609375 4.6875q0 2.890625 -1.640625 4.6875q-1.640625 1.796875 -4.390625 1.796875q-2.6875 0 -4.359375 -1.765625q-1.65625 -1.765625 -1.65625 -4.71875q0 -2.953125 1.625 -4.71875q1.625 -1.78125 4.390625 -1.78125zm-3.859375 6.5q0 2.125 1.078125 3.40625q1.09375 1.265625 2.78125 1.265625q1.671875 0 2.765625 -1.265625q1.109375 -1.28125 1.109375 -3.40625q0 -2.125 -1.09375 -3.421875q-1.09375 -1.296875 -2.796875 -1.296875q-1.640625 0 -2.75 1.28125q-1.09375 1.265625 -1.09375 3.4375zm18.296875 -6.5q2.234375 0 3.25 1.15625q1.015625 1.140625 1.015625 3.265625l0 8.265625l-2.03125 0l0 -8.46875q0 -1.0625 -0.6875 -1.75q-0.671875 -0.6875 -1.859375 -0.6875q-1.71875 0 -2.6875 1.0625q-0.96875 1.0625 -0.96875 2.75l0 7.09375l-2.046875 0l0 -12.40625l1.921875 0l0 1.96875l0.046875 0q0.6875 -1.171875 1.671875 -1.703125q1.0 -0.546875 2.375 -0.546875z" fill-rule="nonzero"/><path fill="#000000" d="m72.56746 164.73344q3.890625 0 5.984375 2.0625q2.109375 2.0625 2.109375 6.109375q0 4.53125 -2.078125 6.75q-2.078125 2.21875 -6.015625 2.21875l-6.015625 0l0 -17.140625l6.015625 0zm0.140625 15.21875q2.5625 0 4.109375 -1.671875q1.5625 -1.6875 1.5625 -5.0625q0 -3.40625 -1.421875 -4.984375q-1.40625 -1.578125 -4.171875 -1.578125l-3.953125 0l0 13.296875l3.875 0zm12.5546875 -15.21875l0 2.5l-2.03125 0l0 -2.5l2.03125 0zm0 4.734375l0 12.40625l-2.03125 0l0 -12.40625l2.03125 0zm7.3007812 -0.28125q2.515625 0 3.734375 0.96875q1.21875 0.96875 1.328125 2.90625l-2.03125 0l0 -0.03125q-0.078125 -0.984375 -0.859375 -1.515625q-0.78125 -0.546875 -2.015625 -0.546875q-1.234375 0 -1.9375 0.421875q-0.703125 0.421875 -0.703125 1.171875q0 0.671875 0.625 1.109375q0.625 0.4375 1.890625 0.703125l1.921875 0.4375q1.796875 0.390625 2.734375 1.21875q0.9375 0.828125 0.9375 2.21875q0 1.828125 -1.421875 2.875q-1.40625 1.046875 -3.859375 1.046875q-2.375 0 -3.78125 -1.0625q-1.390625 -1.078125 -1.484375 -3.15625l2.0625 0q0.03125 1.171875 0.90625 1.796875q0.875 0.609375 2.421875 0.609375q1.46875 0 2.234375 -0.46875q0.765625 -0.46875 0.765625 -1.375q0 -0.84375 -0.765625 -1.328125q-0.75 -0.484375 -3.09375 -0.953125q-2.34375 -0.453125 -3.296875 -1.28125q-0.953125 -0.84375 -0.953125 -2.25q0 -1.625 1.3125 -2.5625q1.328125 -0.953125 3.328125 -0.953125zm12.0 0q2.515625 0 3.734375 0.96875q1.21875 0.96875 1.328125 2.90625l-2.03125 0l0 -0.03125q-0.078125 -0.984375 -0.859375 -1.515625q-0.78125 -0.546875 -2.015625 -0.546875q-1.234375 0 -1.9375 0.421875q-0.703125 0.421875 -0.703125 1.171875q0 0.671875 0.625 1.109375q0.625 0.4375 1.890625 0.703125l1.921875 0.4375q1.796875 0.390625 2.734375 1.21875q0.9375 0.828125 0.9375 2.21875q0 1.828125 -1.421875 2.875q-1.40625 1.046875 -3.859375 1.046875q-2.375 0 -3.78125 -1.0625q-1.390625 -1.078125 -1.484375 -3.15625l2.0625 0q0.03125 1.171875 0.90625 1.796875q0.875 0.609375 2.421875 0.609375q1.46875 0 2.234375 -0.46875q0.765625 -0.46875 0.765625 -1.375q0 -0.84375 -0.765625 -1.328125q-0.75 -0.484375 -3.09375 -0.953125q-2.34375 -0.453125 -3.296875 -1.28125q-0.953125 -0.84375 -0.953125 -2.25q0 -1.625 1.3125 -2.5625q1.328125 -0.953125 3.328125 -0.953125zm12.953125 0q2.53125 0 3.59375 0.90625q1.0625 0.890625 1.0625 2.40625q0 6.453125 0 7.15625q0 0.703125 0.640625 0.703125q0.140625 0 0.296875 -0.03125q0.171875 -0.03125 0.328125 -0.078125l0 1.578125q-0.28125 0.171875 -0.65625 0.25q-0.359375 0.09375 -0.796875 0.09375q-0.84375 0 -1.296875 -0.46875q-0.4375 -0.484375 -0.4375 -1.453125q-0.8125 0.953125 -1.921875 1.4375q-1.09375 0.484375 -2.453125 0.484375q-1.921875 0 -3.015625 -0.90625q-1.078125 -0.921875 -1.078125 -2.578125q0 -1.671875 1.0625 -2.65625q1.0625 -0.984375 5.015625 -1.46875q1.328125 -0.171875 1.796875 -0.515625q0.484375 -0.34375 0.484375 -1.015625q0 -1.03125 -0.671875 -1.546875q-0.65625 -0.515625 -2.09375 -0.515625q-1.515625 0 -2.265625 0.578125q-0.75 0.578125 -0.8125 1.78125l-2.046875 0q0.09375 -2.0625 1.453125 -3.09375q1.359375 -1.046875 3.8125 -1.046875zm-3.578125 9.34375q0 0.875 0.625 1.359375q0.640625 0.46875 1.765625 0.46875q1.734375 0 2.765625 -0.84375q1.03125 -0.859375 1.03125 -1.921875l0 -2.125q-0.515625 0.359375 -1.34375 0.484375q-0.8125 0.125 -2.171875 0.3125q-1.359375 0.203125 -2.015625 0.75q-0.65625 0.53125 -0.65625 1.515625zm14.234375 -12.78125l0 3.71875l2.46875 0l0 1.796875l-2.46875 0l0 7.765625q0 0.9375 0.609375 0.984375q0.625 0.046875 1.28125 0.046875l0.578125 0l0 1.8125l-1.6875 0q-1.671875 0 -2.25 -0.59375q-0.578125 -0.609375 -0.578125 -2.015625l0 -8.0l-2.109375 0l0 -1.796875l2.109375 0l0 -3.71875l2.046875 0zm6.8710938 -1.015625l0 2.5l-2.03125 0l0 -2.5l2.03125 0zm0 4.734375l0 12.40625l-2.03125 0l0 -12.40625l2.03125 0zm7.3007812 -0.28125q2.515625 0 3.734375 0.96875q1.21875 0.96875 1.328125 2.90625l-2.03125 0l0 -0.03125q-0.078125 -0.984375 -0.859375 -1.515625q-0.78125 -0.546875 -2.015625 -0.546875q-1.234375 0 -1.9375 0.421875q-0.703125 0.421875 -0.703125 1.171875q0 0.671875 0.625 1.109375q0.625 0.4375 1.890625 0.703125l1.921875 0.4375q1.796875 0.390625 2.734375 1.21875q0.9375 0.828125 0.9375 2.21875q0 1.828125 -1.421875 2.875q-1.40625 1.046875 -3.859375 1.046875q-2.375 0 -3.78125 -1.0625q-1.390625 -1.078125 -1.484375 -3.15625l2.0625 0q0.03125 1.171875 0.90625 1.796875q0.875 0.609375 2.421875 0.609375q1.46875 0 2.234375 -0.46875q0.765625 -0.46875 0.765625 -1.375q0 -0.84375 -0.765625 -1.328125q-0.75 -0.484375 -3.09375 -0.953125q-2.34375 -0.453125 -3.296875 -1.28125q-0.953125 -0.84375 -0.953125 -2.25q0 -1.625 1.3125 -2.5625q1.328125 -0.953125 3.328125 -0.953125zm12.140625 -4.640625q0.25 0 0.65625 0.0625q0.421875 0.046875 0.671875 0.125l0 1.78125q-0.234375 -0.09375 -0.578125 -0.125q-0.328125 -0.046875 -0.5625 -0.046875q-0.859375 0 -1.21875 0.359375q-0.34375 0.34375 -0.34375 0.984375l0 1.78125l2.40625 0l0 1.796875l-2.40625 0l0 10.609375l-2.046875 0l0 -10.609375l-2.078125 0l0 -1.796875l2.078125 0l0 -1.9375q0 -1.375 0.859375 -2.171875q0.875 -0.8125 2.5625 -0.8125zm7.9140625 4.640625q2.53125 0 3.59375 0.90625q1.0625 0.890625 1.0625 2.40625q0 6.453125 0 7.15625q0 0.703125 0.640625 0.703125q0.140625 0 0.296875 -0.03125q0.171875 -0.03125 0.328125 -0.078125l0 1.578125q-0.28125 0.171875 -0.65625 0.25q-0.359375 0.09375 -0.796875 0.09375q-0.84375 0 -1.296875 -0.46875q-0.4375 -0.484375 -0.4375 -1.453125q-0.8125 0.953125 -1.921875 1.4375q-1.09375 0.484375 -2.453125 0.484375q-1.921875 0 -3.015625 -0.90625q-1.078125 -0.921875 -1.078125 -2.578125q0 -1.671875 1.0625 -2.65625q1.0625 -0.984375 5.015625 -1.46875q1.328125 -0.171875 1.796875 -0.515625q0.484375 -0.34375 0.484375 -1.015625q0 -1.03125 -0.671875 -1.546875q-0.65625 -0.515625 -2.09375 -0.515625q-1.515625 0 -2.265625 0.578125q-0.75 0.578125 -0.8125 1.78125l-2.046875 0q0.09375 -2.0625 1.453125 -3.09375q1.359375 -1.046875 3.8125 -1.046875zm-3.578125 9.34375q0 0.875 0.625 1.359375q0.640625 0.46875 1.765625 0.46875q1.734375 0 2.765625 -0.84375q1.03125 -0.859375 1.03125 -1.921875l0 -2.125q-0.515625 0.359375 -1.34375 0.484375q-0.8125 0.125 -2.171875 0.3125q-1.359375 0.203125 -2.015625 0.75q-0.65625 0.53125 -0.65625 1.515625zm16.578125 -9.34375q2.265625 0 3.6875 1.078125q1.421875 1.078125 1.671875 3.1875l-2.109375 0q-0.25 -1.21875 -1.0625 -1.84375q-0.796875 -0.640625 -2.015625 -0.640625q-1.890625 0 -2.875 1.28125q-0.984375 1.265625 -0.984375 3.578125q0 2.0625 0.96875 3.296875q0.96875 1.234375 2.640625 1.234375q1.5 0 2.359375 -0.796875q0.859375 -0.8125 1.0625 -2.21875l2.078125 0q-0.34375 2.3125 -1.75 3.578125q-1.40625 1.25 -3.71875 1.25q-2.703125 0 -4.25 -1.703125q-1.546875 -1.71875 -1.546875 -4.640625q0 -3.046875 1.5625 -4.84375q1.5625 -1.796875 4.28125 -1.796875zm10.546875 -3.4375l0 3.71875l2.46875 0l0 1.796875l-2.46875 0l0 7.765625q0 0.9375 0.609375 0.984375q0.625 0.046875 1.28125 0.046875l0.578125 0l0 1.8125l-1.6875 0q-1.671875 0 -2.25 -0.59375q-0.578125 -0.609375 -0.578125 -2.015625l0 -8.0l-2.109375 0l0 -1.796875l2.109375 0l0 -3.71875l2.046875 0zm6.8710938 -1.015625l0 2.5l-2.03125 0l0 -2.5l2.03125 0zm0 4.734375l0 12.40625l-2.03125 0l0 -12.40625l2.03125 0zm8.535156 -0.28125q2.8125 0 4.421875 1.8125q1.609375 1.8125 1.609375 4.6875q0 2.890625 -1.640625 4.6875q-1.640625 1.796875 -4.390625 1.796875q-2.6875 0 -4.359375 -1.765625q-1.65625 -1.765625 -1.65625 -4.71875q0 -2.953125 1.625 -4.71875q1.625 -1.78125 4.390625 -1.78125zm-3.859375 6.5q0 2.125 1.078125 3.40625q1.09375 1.265625 2.78125 1.265625q1.671875 0 2.765625 -1.265625q1.109375 -1.28125 1.109375 -3.40625q0 -2.125 -1.09375 -3.421875q-1.09375 -1.296875 -2.796875 -1.296875q-1.640625 0 -2.75 1.28125q-1.09375 1.265625 -1.09375 3.4375zm18.296875 -6.5q2.234375 0 3.25 1.15625q1.015625 1.140625 1.015625 3.265625l0 8.265625l-2.03125 0l0 -8.46875q0 -1.0625 -0.6875 -1.75q-0.671875 -0.6875 -1.859375 -0.6875q-1.71875 0 -2.6875 1.0625q-0.96875 1.0625 -0.96875 2.75l0 7.09375l-2.046875 0l0 -12.40625l1.921875 0l0 1.96875l0.046875 0q0.6875 -1.171875 1.671875 -1.703125q1.0 -0.546875 2.375 -0.546875z" fill-rule="nonzero"/><path fill="#000000" fill-opacity="0.0" d="m0 220.77663l286.26773 0l0 69.60631l-286.26773 0z" fill-rule="evenodd"/><path stroke="#000000" stroke-width="1.0" stroke-linejoin="round" stroke-linecap="butt" d="m0 220.77663l286.26773 0l0 69.60631l-286.26773 0z" fill-rule="evenodd"/><path fill="#000000" d="m20.454178 247.07915q3.890625 0 5.984375 2.0625q2.109375 2.0625 2.109375 6.109375q0 4.5312653 -2.078125 6.7500153q-2.078125 2.21875 -6.015625 2.21875l-6.015625 0l0 -17.14064l6.015625 0zm0.140625 15.218765q2.5625 0 4.109375 -1.671875q1.5625 -1.6875 1.5625 -5.0625153q0 -3.40625 -1.421875 -4.984375q-1.40625 -1.578125 -4.171875 -1.578125l-3.953125 0l0 13.29689l3.875 0zm15.5546875 -10.76564q2.671875 0 4.140625 1.921875q1.484375 1.921875 1.484375 4.9218903l0 0.25l-9.28125 0l0 0.15625q0 1.765625 1.03125 2.84375q1.03125 1.078125 2.828125 1.078125q1.359375 0 2.15625 -0.625q0.8125 -0.640625 1.0625 -1.796875l2.015625 0q-0.421875 2.0625 -1.8125 3.15625q-1.390625 1.078125 -3.484375 1.078125q-1.96875 0 -3.328125 -0.890625q-1.34375 -0.890625 -1.984375 -2.453125q-0.640625 -1.578125 -0.640625 -3.234375q0 -2.7500153 1.640625 -4.5781403q1.65625 -1.828125 4.171875 -1.828125zm-3.65625 5.2968903l7.125 0q-0.09375 -1.5156403 -1.109375 -2.5156403q-1.0 -1.0 -2.5 -1.0q-1.40625 0 -2.40625 0.953125q-0.984375 0.953125 -1.109375 2.5625153zm16.453125 -5.2968903q1.296875 0 2.234375 0.5625q0.953125 0.5625 1.46875 1.5l0.03125 0l0 -1.78125l1.90625 0l0 11.48439q0 2.921875 -1.40625 4.4375q-1.40625 1.53125 -4.328125 1.53125q-2.140625 0 -3.609375 -0.9375q-1.453125 -0.9375 -1.546875 -2.71875l2.046875 0q0.046875 0.953125 1.015625 1.484375q0.96875 0.53125 2.1875 0.53125q1.8125 0 2.765625 -1.203125q0.96875 -1.1875 0.96875 -3.546875l0 -0.765625l-0.046875 0q-0.484375 1.03125 -1.53125 1.640625q-1.03125 0.609375 -2.34375 0.609375q-2.53125 0 -4.03125 -1.734375q-1.5 -1.734375 -1.5 -4.546875q0 -2.8437653 1.5 -4.6875153q1.5 -1.859375 4.21875 -1.859375zm-3.5625 6.2968903q0 2.21875 0.921875 3.484375q0.921875 1.25 2.578125 1.25q1.6875 0 2.6875 -1.296875q1.0 -1.3125 1.0 -3.5q0 -2.0000153 -0.921875 -3.2187653q-0.921875 -1.234375 -2.625 -1.234375q-1.71875 0 -2.6875 1.234375q-0.953125 1.234375 -0.953125 3.2812653zm18.46875 -6.3125153q0.0625 0 0.125 0q0.0625 0 0.15625 0.015625l0 2.15625q-2.296875 0 -3.40625 1.21875q-1.09375 1.2187653 -1.09375 3.7500153l0 5.5625l-2.03125 0l0 -12.406265l1.921875 0l0 2.609375l0.046875 0q0.71875 -1.484375 1.765625 -2.1875q1.046875 -0.71875 2.515625 -0.71875zm6.5273438 0.015625q2.671875 0 4.140625 1.921875q1.484375 1.921875 1.484375 4.9218903l0 0.25l-9.28125 0l0 0.15625q0 1.765625 1.03125 2.84375q1.03125 1.078125 2.828125 1.078125q1.359375 0 2.15625 -0.625q0.8125 -0.640625 1.0625 -1.796875l2.015625 0q-0.421875 2.0625 -1.8125 3.15625q-1.390625 1.078125 -3.484375 1.078125q-1.96875 0 -3.328125 -0.890625q-1.34375 -0.890625 -1.984375 -2.453125q-0.640625 -1.578125 -0.640625 -3.234375q0 -2.7500153 1.640625 -4.5781403q1.65625 -1.828125 4.171875 -1.828125zm-3.65625 5.2968903l7.125 0q-0.09375 -1.5156403 -1.109375 -2.5156403q-1.0 -1.0 -2.5 -1.0q-1.40625 0 -2.40625 0.953125q-0.984375 0.953125 -1.109375 2.5625153zm16.546875 -5.2968903q2.671875 0 4.140625 1.921875q1.484375 1.921875 1.484375 4.9218903l0 0.25l-9.28125 0l0 0.15625q0 1.765625 1.03125 2.84375q1.03125 1.078125 2.828125 1.078125q1.359375 0 2.15625 -0.625q0.8125 -0.640625 1.0625 -1.796875l2.015625 0q-0.421875 2.0625 -1.8125 3.15625q-1.390625 1.078125 -3.484375 1.078125q-1.96875 0 -3.328125 -0.890625q-1.34375 -0.890625 -1.984375 -2.453125q-0.640625 -1.578125 -0.640625 -3.234375q0 -2.7500153 1.640625 -4.5781403q1.65625 -1.828125 4.171875 -1.828125zm-3.65625 5.2968903l7.125 0q-0.09375 -1.5156403 -1.109375 -2.5156403q-1.0 -1.0 -2.5 -1.0q-1.40625 0 -2.40625 0.953125q-0.984375 0.953125 -1.109375 2.5625153zm23.417969 -5.2968903q2.8125 0 4.421875 1.8125q1.609375 1.8125 1.609375 4.6875153q0 2.890625 -1.640625 4.6875q-1.640625 1.796875 -4.390625 1.796875q-2.6875 0 -4.359375 -1.765625q-1.65625 -1.765625 -1.65625 -4.71875q0 -2.9531403 1.625 -4.7187653q1.625 -1.78125 4.390625 -1.78125zm-3.859375 6.5000153q0 2.125 1.078125 3.40625q1.09375 1.265625 2.78125 1.265625q1.671875 0 2.765625 -1.265625q1.109375 -1.28125 1.109375 -3.40625q0 -2.1250153 -1.09375 -3.4218903q-1.09375 -1.296875 -2.796875 -1.296875q-1.640625 0 -2.75 1.28125q-1.09375 1.265625 -1.09375 3.4375153zm16.546875 -11.14064q0.25 0 0.65625 0.0625q0.421875 0.046875 0.671875 0.125l0 1.78125q-0.234375 -0.09375 -0.578125 -0.125q-0.328125 -0.046875 -0.5625 -0.046875q-0.859375 0 -1.21875 0.359375q-0.34375 0.34375 -0.34375 0.984375l0 1.78125l2.40625 0l0 1.796875l-2.40625 0l0 10.60939l-2.046875 0l0 -10.60939l-2.078125 0l0 -1.796875l2.078125 0l0 -1.9375q0 -1.375 0.859375 -2.171875q0.875 -0.8125 2.5625 -0.8125zm18.550781 0.1875l0 12.937515q0 2.03125 -1.28125 3.328125q-1.265625 1.28125 -3.78125 1.28125q-2.296875 0 -3.640625 -1.21875q-1.34375 -1.234375 -1.34375 -4.234375l0 -0.59375l2.28125 0l0 0.53125q0 2.109375 0.6875 2.859375q0.6875 0.734375 2.0625 0.734375q1.40625 0 2.078125 -0.734375q0.671875 -0.75 0.671875 -2.265625l0 -12.625015l2.265625 0zm8.769531 4.453125q2.8125 0 4.421875 1.8125q1.609375 1.8125 1.609375 4.6875153q0 2.890625 -1.640625 4.6875q-1.640625 1.796875 -4.390625 1.796875q-2.6875 0 -4.359375 -1.765625q-1.65625 -1.765625 -1.65625 -4.71875q0 -2.9531403 1.625 -4.7187653q1.625 -1.78125 4.390625 -1.78125zm-3.859375 6.5000153q0 2.125 1.078125 3.40625q1.09375 1.265625 2.78125 1.265625q1.671875 0 2.765625 -1.265625q1.109375 -1.28125 1.109375 -3.40625q0 -2.1250153 -1.09375 -3.4218903q-1.09375 -1.296875 -2.796875 -1.296875q-1.640625 0 -2.75 1.28125q-1.09375 1.265625 -1.09375 3.4375153zm14.390625 -10.95314l0 6.421875l0.046875 0q0.484375 -0.96875 1.5 -1.46875q1.03125 -0.5 2.46875 -0.5q2.65625 0 4.1875 1.828125q1.53125 1.828125 1.53125 4.6875153q0 2.890625 -1.53125 4.6875q-1.515625 1.78125 -4.125 1.78125q-1.171875 0 -2.28125 -0.484375q-1.09375 -0.484375 -1.75 -1.46875l-0.046875 0l0 1.65625l-2.03125 0l0 -17.14064l2.03125 0zm-0.0625 10.92189q0 2.15625 1.03125 3.4375q1.046875 1.265625 2.875 1.265625q1.78125 0 2.75 -1.265625q0.96875 -1.265625 0.96875 -3.53125q0 -2.0000153 -1.03125 -3.2968903q-1.015625 -1.296875 -2.828125 -1.296875q-1.78125 0 -2.78125 1.3125q-0.984375 1.3125 -0.984375 3.3750153z" fill-rule="nonzero"/><path fill="#000000" d="m179.87215 247.07915l6.6875 17.14064l-2.515625 0l-1.859375 -5.15625l-7.25 0l-1.921875 5.15625l-2.359375 0l6.703125 -17.14064l2.515625 0zm-1.328125 2.0625l-2.890625 8.000015l5.796875 0l-2.84375 -8.000015l-0.0625 0zm11.410156 2.671875l0 8.45314q0 1.0625 0.671875 1.75q0.671875 0.6875 1.859375 0.6875q1.75 0 2.703125 -1.0625q0.96875 -1.078125 0.96875 -2.75l0 -7.0781403l2.03125 0l0 12.406265l-1.921875 0l0 -1.96875l-0.046875 0q-0.671875 1.1875 -1.703125 1.734375q-1.015625 0.53125 -2.34375 0.53125q-2.15625 0 -3.21875 -1.125q-1.046875 -1.125 -1.046875 -3.3125l0 -8.26564l2.046875 0zm14.144531 -3.71875l0 3.71875l2.46875 0l0 1.796875l-2.46875 0l0 7.7656403q0 0.9375 0.609375 0.984375q0.625 0.046875 1.28125 0.046875l0.578125 0l0 1.8125l-1.6875 0q-1.671875 0 -2.25 -0.59375q-0.578125 -0.609375 -0.578125 -2.015625l0 -8.000015l-2.109375 0l0 -1.796875l2.109375 0l0 -3.71875l2.046875 0zm9.78125 3.4375q2.8125 0 4.421875 1.8125q1.609375 1.8125 1.609375 4.6875153q0 2.890625 -1.640625 4.6875q-1.640625 1.796875 -4.390625 1.796875q-2.6875 0 -4.359375 -1.765625q-1.65625 -1.765625 -1.65625 -4.71875q0 -2.9531403 1.625 -4.7187653q1.625 -1.78125 4.390625 -1.78125zm-3.859375 6.5000153q0 2.125 1.078125 3.40625q1.09375 1.265625 2.78125 1.265625q1.671875 0 2.765625 -1.265625q1.109375 -1.28125 1.109375 -3.40625q0 -2.1250153 -1.09375 -3.4218903q-1.09375 -1.296875 -2.796875 -1.296875q-1.640625 0 -2.75 1.28125q-1.09375 1.265625 -1.09375 3.4375153zm18.296875 -6.5000153q2.234375 0 3.25 1.15625q1.015625 1.140625 1.015625 3.265625l0 8.26564l-2.03125 0l0 -8.468765q0 -1.0625 -0.6875 -1.75q-0.671875 -0.6875 -1.859375 -0.6875q-1.71875 0 -2.6875 1.0625q-0.96875 1.0625 -0.96875 2.7500153l0 7.09375l-2.046875 0l0 -12.406265l1.921875 0l0 1.96875l0.046875 0q0.6875 -1.171875 1.671875 -1.703125q1.0 -0.546875 2.375 -0.546875zm12.691406 0q2.8125 0 4.421875 1.8125q1.609375 1.8125 1.609375 4.6875153q0 2.890625 -1.640625 4.6875q-1.640625 1.796875 -4.390625 1.796875q-2.6875 0 -4.359375 -1.765625q-1.65625 -1.765625 -1.65625 -4.71875q0 -2.9531403 1.625 -4.7187653q1.625 -1.78125 4.390625 -1.78125zm-3.859375 6.5000153q0 2.125 1.078125 3.40625q1.09375 1.265625 2.78125 1.265625q1.671875 0 2.765625 -1.265625q1.109375 -1.28125 1.109375 -3.40625q0 -2.1250153 -1.09375 -3.4218903q-1.09375 -1.296875 -2.796875 -1.296875q-1.640625 0 -2.75 1.28125q-1.09375 1.265625 -1.09375 3.4375153zm18.265625 -6.5000153q1.3593597 0 2.2187347 0.546875q0.859375 0.546875 1.1875 1.5625q0.640625 -1.0 1.65625 -1.546875q1.015625 -0.5625 2.25 -0.5625q2.09375 0 3.09375 0.953125q1.015625 0.9375 1.015625 2.5625l0 9.17189l-2.03125 0l0 -8.23439q0 -1.328125 -0.578125 -2.0q-0.5625 -0.671875 -1.828125 -0.671875q-1.53125 0 -2.390625 0.890625q-0.84375 0.890625 -0.84375 2.2187653l0 7.796875l-2.046875 0l0 -8.23439q0 -1.328125 -0.5625 -2.0q-0.56248474 -0.671875 -1.7656097 -0.671875q-0.96875 0 -1.71875 0.46875q-0.75 0.46875 -1.171875 1.296875q-0.421875 0.8125 -0.421875 1.3750153l0 7.765625l-2.046875 0l0 -12.406265l1.921875 0l0 1.828125l0.046875 0q0.703125 -1.078125 1.703125 -1.59375q1.0 -0.515625 2.3125 -0.515625zm15.457016 0.28125l3.625 10.14064l0.046875 0l3.46875 -10.14064l2.171875 0l-5.265625 13.73439q-0.84375 2.140625 -1.609375 2.890625q-0.765625 0.75 -2.125 0.75q-0.375 0 -0.734375 -0.046875q-0.34375 -0.046875 -0.6875 -0.15625l0 -1.875q0.296875 0.09375 0.59375 0.1875q0.296875 0.09375 0.609375 0.09375q1.234375 0 1.71875 -1.25q0.5 -1.234375 0.796875 -2.0l-4.921875 -12.32814l2.3125 0z" fill-rule="nonzero"/><path fill="#000000" fill-opacity="0.0" d="m0.018224671 317.5237l286.26773 0l0 66.96063l-286.26773 0z" fill-rule="evenodd"/><path stroke="#000000" stroke-width="1.0" stroke-linejoin="round" stroke-linecap="butt" d="m0.018224671 317.5237l286.26773 0l0 66.96063l-286.26773 0z" fill-rule="evenodd"/><path fill="#000000" d="m51.57787 342.50342q2.34375 0 3.734375 1.28125q1.40625 1.28125 1.40625 3.78125q0 2.53125 -1.40625 3.796875q-1.390625 1.265625 -3.578125 1.265625l-5.5 0l0 7.015625l-2.28125 0l0 -17.140625l7.625 0zm-0.640625 8.203125q1.625 0 2.5625 -0.765625q0.9375 -0.765625 0.9375 -2.375q0 -1.578125 -0.921875 -2.359375q-0.921875 -0.78125 -2.71875 -0.78125l-4.5625 0l0 6.28125l4.703125 0zm13.929691 -3.765625q0.0625 0 0.125 0q0.0625 0 0.15625 0.015625l0 2.15625q-2.2968788 0 -3.4062538 1.21875q-1.09375 1.21875 -1.09375 3.75l0 5.5625l-2.03125 0l0 -12.40625l1.921875 0l0 2.609375l0.046875 0q0.71875 -1.484375 1.765625 -2.1875q1.046875 -0.71875 2.5156288 -0.71875zm6.7304688 0.015625q2.8125 0 4.421875 1.8125q1.609375 1.8125 1.609375 4.6875q0 2.890625 -1.640625 4.6875q-1.640625 1.796875 -4.390625 1.796875q-2.6875 0 -4.359375 -1.765625q-1.65625 -1.765625 -1.65625 -4.71875q0 -2.953125 1.625 -4.71875q1.625 -1.78125 4.390625 -1.78125zm-3.859375 6.5q0 2.125 1.078125 3.40625q1.09375 1.265625 2.78125 1.265625q1.671875 0 2.765625 -1.265625q1.109375 -1.28125 1.109375 -3.40625q0 -2.125 -1.09375 -3.421875q-1.09375 -1.296875 -2.796875 -1.296875q-1.640625 0 -2.75 1.28125q-1.09375 1.265625 -1.09375 3.4375zm13.488281 -6.21875l2.953125 4.3125l0.03125 0l3.078125 -4.3125l2.453125 0l-4.265625 5.71875l4.796875 6.6875l-2.625 0l-3.453125 -5.140625l-3.453125 5.140625l-2.46875 0l4.65625 -6.53125l-4.328125 -5.875l2.625 0zm12.949219 -4.734375l0 2.5l-2.03125 0l0 -2.5l2.03125 0zm0 4.734375l0 12.40625l-2.03125 0l0 -12.40625l2.03125 0zm9.160156 -0.28125q1.359375 0 2.21875 0.546875q0.859375 0.546875 1.1875 1.5625q0.640625 -1.0 1.65625 -1.546875q1.015625 -0.5625 2.25 -0.5625q2.09375 0 3.09375 0.953125q1.015625 0.9375 1.015625 2.5625l0 9.171875l-2.03125 0l0 -8.234375q0 -1.328125 -0.578125 -2.0q-0.5625 -0.671875 -1.828125 -0.671875q-1.53125 0 -2.390625 0.890625q-0.84375 0.890625 -0.84375 2.21875l0 7.796875l-2.046875 0l0 -8.234375q0 -1.328125 -0.5625 -2.0q-0.5625 -0.671875 -1.765625 -0.671875q-0.96875 0 -1.71875 0.46875q-0.75 0.46875 -1.171875 1.296875q-0.421875 0.8125 -0.421875 1.375l0 7.765625l-2.046875 0l0 -12.40625l1.921875 0l0 1.828125l0.046875 0q0.703125 -1.078125 1.703125 -1.59375q1.0 -0.515625 2.3125 -0.515625zm16.644531 -4.453125l0 2.5l-2.03125 0l0 -2.5l2.03125 0zm0 4.734375l0 12.40625l-2.03125 0l0 -12.40625l2.03125 0zm6.0195312 -3.71875l0 3.71875l2.4687424 0l0 1.796875l-2.4687424 0l0 7.765625q0 0.9375 0.609375 0.984375q0.625 0.046875 1.28125 0.046875l0.5781174 0l0 1.8125l-1.6874924 0q-1.671875 0 -2.25 -0.59375q-0.578125 -0.609375 -0.578125 -2.015625l0 -8.0l-2.109375 0l0 -1.796875l2.109375 0l0 -3.71875l2.046875 0zm5.683586 3.71875l3.625 10.140625l0.046875 0l3.46875 -10.140625l2.171875 0l-5.265625 13.734375q-0.84375 2.140625 -1.609375 2.890625q-0.765625 0.75 -2.125 0.75q-0.375 0 -0.734375 -0.046875q-0.34375 -0.046875 -0.6875 -0.15625l0 -1.875q0.296875 0.09375 0.59375 0.1875q0.296875 0.09375 0.609375 0.09375q1.234375 0 1.71875 -1.25q0.5 -1.234375 0.796875 -2.0l-4.921875 -12.328125l2.3125 0zm20.542969 -3.71875l0 3.71875l2.46875 0l0 1.796875l-2.46875 0l0 7.765625q0 0.9375 0.609375 0.984375q0.625 0.046875 1.28125 0.046875l0.578125 0l0 1.8125l-1.6875 0q-1.671875 0 -2.25 -0.59375q-0.578125 -0.609375 -0.578125 -2.015625l0 -8.0l-2.109375 0l0 -1.796875l2.109375 0l0 -3.71875l2.046875 0zm9.78125 3.4375q2.8125 0 4.421875 1.8125q1.609375 1.8125 1.609375 4.6875q0 2.890625 -1.640625 4.6875q-1.640625 1.796875 -4.390625 1.796875q-2.6875 0 -4.359375 -1.765625q-1.65625 -1.765625 -1.65625 -4.71875q0 -2.953125 1.625 -4.71875q1.625 -1.78125 4.390625 -1.78125zm-3.859375 6.5q0 2.125 1.078125 3.40625q1.09375 1.265625 2.78125 1.265625q1.671875 0 2.765625 -1.265625q1.109375 -1.28125 1.109375 -3.40625q0 -2.125 -1.09375 -3.421875q-1.09375 -1.296875 -2.796875 -1.296875q-1.640625 0 -2.75 1.28125q-1.09375 1.265625 -1.09375 3.4375zm30.542969 -10.953125l0 1.921875l-8.96875 0l0 5.4375l7.875 0l0 1.921875l-7.875 0l0 7.859375l-2.28125 0l0 -17.140625l11.25 0zm6.1171875 4.453125q2.53125 0 3.59375 0.90625q1.0625 0.890625 1.0625 2.40625q0 6.453125 0 7.15625q0 0.703125 0.640625 0.703125q0.140625 0 0.296875 -0.03125q0.171875 -0.03125 0.328125 -0.078125l0 1.578125q-0.28125 0.171875 -0.65625 0.25q-0.359375 0.09375 -0.796875 0.09375q-0.84375 0 -1.296875 -0.46875q-0.4375 -0.484375 -0.4375 -1.453125q-0.8125 0.953125 -1.921875 1.4375q-1.09375 0.484375 -2.453125 0.484375q-1.921875 0 -3.015625 -0.90625q-1.078125 -0.921875 -1.078125 -2.578125q0 -1.671875 1.0625 -2.65625q1.0625 -0.984375 5.015625 -1.46875q1.328125 -0.171875 1.796875 -0.515625q0.484375 -0.34375 0.484375 -1.015625q0 -1.03125 -0.671875 -1.546875q-0.65625 -0.515625 -2.09375 -0.515625q-1.515625 0 -2.265625 0.578125q-0.75 0.578125 -0.8125 1.78125l-2.046875 0q0.09375 -2.0625 1.453125 -3.09375q1.359375 -1.046875 3.8125 -1.046875zm-3.578125 9.34375q0 0.875 0.625 1.359375q0.640625 0.46875 1.765625 0.46875q1.734375 0 2.765625 -0.84375q1.03125 -0.859375 1.03125 -1.921875l0 -2.125q-0.515625 0.359375 -1.34375 0.484375q-0.8125 0.125 -2.171875 0.3125q-1.359375 0.203125 -2.015625 0.75q-0.65625 0.53125 -0.65625 1.515625zm17.375 -9.34375q1.359375 0 2.21875 0.546875q0.859375 0.546875 1.1875 1.5625q0.640625 -1.0 1.65625 -1.546875q1.015625 -0.5625 2.25 -0.5625q2.09375 0 3.09375 0.953125q1.015625 0.9375 1.015625 2.5625l0 9.171875l-2.03125 0l0 -8.234375q0 -1.328125 -0.578125 -2.0q-0.5625 -0.671875 -1.828125 -0.671875q-1.53125 0 -2.390625 0.890625q-0.84375 0.890625 -0.84375 2.21875l0 7.796875l-2.046875 0l0 -8.234375q0 -1.328125 -0.5625 -2.0q-0.5625 -0.671875 -1.765625 -0.671875q-0.96875 0 -1.71875 0.46875q-0.75 0.46875 -1.171875 1.296875q-0.421875 0.8125 -0.421875 1.375l0 7.765625l-2.046875 0l0 -12.40625l1.921875 0l0 1.828125l0.046875 0q0.703125 -1.078125 1.703125 -1.59375q1.0 -0.515625 2.3125 -0.515625zm16.644531 -4.453125l0 2.5l-2.03125 0l0 -2.5l2.03125 0zm0 4.734375l0 12.40625l-2.03125 0l0 -12.40625l2.03125 0zm5.3320312 -4.734375l0 17.140625l-2.03125 0l0 -17.140625l2.03125 0zm4.1445312 4.734375l3.625 10.140625l0.046875 0l3.46875 -10.140625l2.171875 0l-5.265625 13.734375q-0.84375 2.140625 -1.609375 2.890625q-0.765625 0.75 -2.125 0.75q-0.375 0 -0.734375 -0.046875q-0.34375 -0.046875 -0.6875 -0.15625l0 -1.875q0.296875 0.09375 0.59375 0.1875q0.296875 0.09375 0.609375 0.09375q1.234375 0 1.71875 -1.25q0.5 -1.234375 0.796875 -2.0l-4.921875 -12.328125l2.3125 0z" fill-rule="nonzero"/><path fill="#000000" fill-opacity="0.0" d="m710.0393 470.4059l249.95276 0l0 69.60629l-249.95276 0z" fill-rule="evenodd"/><path stroke="#000000" stroke-width="1.0" stroke-linejoin="round" stroke-linecap="butt" d="m710.0393 470.4059l249.95276 0l0 69.60629l-249.95276 0z" fill-rule="evenodd"/><path fill="#000000" d="m731.5821 496.70847l0 17.140594l-2.28125 0l0 -17.140594l2.28125 0zm9.4765625 4.453125q1.359375 0 2.21875 0.546875q0.859375 0.546875 1.1875 1.5625q0.640625 -1.0 1.65625 -1.546875q1.015625 -0.5625 2.25 -0.5625q2.09375 0 3.09375 0.953125q1.015625 0.9375 1.015625 2.5625l0 9.1718445l-2.03125 0l0 -8.2343445q0 -1.328125 -0.578125 -2.0q-0.5625 -0.671875 -1.828125 -0.671875q-1.53125 0 -2.390625 0.890625q-0.84375 0.890625 -0.84375 2.21875l0 7.7968445l-2.046875 0l0 -8.2343445q0 -1.328125 -0.5625 -2.0q-0.5625 -0.671875 -1.765625 -0.671875q-0.96875 0 -1.71875 0.46875q-0.75 0.46875 -1.171875 1.296875q-0.421875 0.8125 -0.421875 1.375l0 7.7655945l-2.046875 0l0 -12.4062195l1.921875 0l0 1.828125l0.046875 0q0.703125 -1.078125 1.703125 -1.59375q1.0 -0.515625 2.3125 -0.515625zm20.472656 0q1.359375 0 2.21875 0.546875q0.859375 0.546875 1.1875 1.5625q0.640625 -1.0 1.65625 -1.546875q1.015625 -0.5625 2.25 -0.5625q2.09375 0 3.09375 0.953125q1.015625 0.9375 1.015625 2.5625l0 9.1718445l-2.03125 0l0 -8.2343445q0 -1.328125 -0.578125 -2.0q-0.5625 -0.671875 -1.828125 -0.671875q-1.53125 0 -2.390625 0.890625q-0.84375 0.890625 -0.84375 2.21875l0 7.7968445l-2.046875 0l0 -8.2343445q0 -1.328125 -0.5625 -2.0q-0.5625 -0.671875 -1.765625 -0.671875q-0.96875 0 -1.71875 0.46875q-0.75 0.46875 -1.171875 1.296875q-0.421875 0.8125 -0.421875 1.375l0 7.7655945l-2.046875 0l0 -12.4062195l1.921875 0l0 1.828125l0.046875 0q0.703125 -1.078125 1.703125 -1.59375q1.0 -0.515625 2.3125 -0.515625zm16.644531 -4.453125l0 2.5l-2.03125 0l0 -2.5l2.03125 0zm0 4.734375l0 12.4062195l-2.03125 0l0 -12.4062195l2.03125 0zm8.238281 -0.28125q1.296875 0 2.234375 0.5625q0.953125 0.5625 1.46875 1.5l0.03125 0l0 -1.78125l1.90625 0l0 11.4843445q0 2.921875 -1.40625 4.4375q-1.40625 1.53125 -4.328125 1.53125q-2.140625 0 -3.609375 -0.9375q-1.453125 -0.9375 -1.546875 -2.71875l2.046875 0q0.046875 0.953125 1.015625 1.484375q0.96875 0.53125 2.1875 0.53125q1.8125 0 2.765625 -1.203125q0.96875 -1.1875 0.96875 -3.546875l0 -0.7655945l-0.046875 0q-0.484375 1.0312195 -1.53125 1.6405945q-1.03125 0.609375 -2.34375 0.609375q-2.53125 0 -4.03125 -1.734375q-1.5 -1.7343445 -1.5 -4.5468445q0 -2.84375 1.5 -4.6875q1.5 -1.859375 4.21875 -1.859375zm-3.5625 6.296875q0 2.21875 0.921875 3.484375q0.921875 1.2499695 2.578125 1.2499695q1.6875 0 2.6875 -1.2968445q1.0 -1.3125 1.0 -3.5q0 -2.0 -0.921875 -3.21875q-0.921875 -1.234375 -2.625 -1.234375q-1.71875 0 -2.6875 1.234375q-0.953125 1.234375 -0.953125 3.28125zm18.46875 -6.3125q0.0625 0 0.125 0q0.0625 0 0.15625 0.015625l0 2.15625q-2.296875 0 -3.40625 1.21875q-1.09375 1.21875 -1.09375 3.75l0 5.5624695l-2.03125 0l0 -12.4062195l1.921875 0l0 2.609375l0.046875 0q0.71875 -1.484375 1.765625 -2.1875q1.046875 -0.71875 2.515625 -0.71875zm6.3085938 0.015625q2.53125 0 3.59375 0.90625q1.0625 0.890625 1.0625 2.40625q0 6.453125 0 7.15625q0 0.7030945 0.640625 0.7030945q0.140625 0 0.296875 -0.03125q0.171875 -0.03125 0.328125 -0.078125l0 1.578125q-0.28125 0.171875 -0.65625 0.25q-0.359375 0.09375 -0.796875 0.09375q-0.84375 0 -1.296875 -0.46875q-0.4375 -0.484375 -0.4375 -1.453125q-0.8125 0.953125 -1.921875 1.4375q-1.09375 0.484375 -2.453125 0.484375q-1.921875 0 -3.015625 -0.90625q-1.078125 -0.921875 -1.078125 -2.5780945q0 -1.671875 1.0625 -2.65625q1.0625 -0.984375 5.015625 -1.46875q1.328125 -0.171875 1.796875 -0.515625q0.484375 -0.34375 0.484375 -1.015625q0 -1.03125 -0.671875 -1.546875q-0.65625 -0.515625 -2.09375 -0.515625q-1.515625 0 -2.265625 0.578125q-0.75 0.578125 -0.8125 1.78125l-2.046875 0q0.09375 -2.0625 1.453125 -3.09375q1.359375 -1.046875 3.8125 -1.046875zm-3.578125 9.34375q0 0.875 0.625 1.359375q0.640625 0.46871948 1.765625 0.46871948q1.734375 0 2.765625 -0.8437195q1.03125 -0.859375 1.03125 -1.921875l0 -2.125q-0.515625 0.359375 -1.34375 0.484375q-0.8125 0.125 -2.171875 0.3125q-1.359375 0.203125 -2.015625 0.75q-0.65625 0.53125 -0.65625 1.515625zm14.234375 -12.78125l0 3.71875l2.46875 0l0 1.796875l-2.46875 0l0 7.765625q0 0.9375 0.609375 0.984375q0.625 0.046844482 1.28125 0.046844482l0.578125 0l0 1.8125l-1.6875 0q-1.671875 0 -2.25 -0.59375q-0.578125 -0.609375 -0.578125 -2.0155945l0 -8.0l-2.109375 0l0 -1.796875l2.109375 0l0 -3.71875l2.046875 0zm6.8710938 -1.015625l0 2.5l-2.03125 0l0 -2.5l2.03125 0zm0 4.734375l0 12.4062195l-2.03125 0l0 -12.4062195l2.03125 0zm8.535156 -0.28125q2.8125 0 4.421875 1.8125q1.609375 1.8125 1.609375 4.6875q0 2.890625 -1.640625 4.6874695q-1.640625 1.796875 -4.390625 1.796875q-2.6875 0 -4.359375 -1.765625q-1.65625 -1.7655945 -1.65625 -4.7187195q0 -2.953125 1.625 -4.71875q1.625 -1.78125 4.390625 -1.78125zm-3.859375 6.5q0 2.125 1.078125 3.40625q1.09375 1.2655945 2.78125 1.2655945q1.671875 0 2.765625 -1.2655945q1.109375 -1.28125 1.109375 -3.40625q0 -2.125 -1.09375 -3.421875q-1.09375 -1.296875 -2.796875 -1.296875q-1.640625 0 -2.75 1.28125q-1.09375 1.265625 -1.09375 3.4375zm18.296875 -6.5q2.234375 0 3.25 1.15625q1.015625 1.140625 1.015625 3.265625l0 8.2655945l-2.03125 0l0 -8.4687195q0 -1.0625 -0.6875 -1.75q-0.671875 -0.6875 -1.859375 -0.6875q-1.71875 0 -2.6875 1.0625q-0.96875 1.0625 -0.96875 2.75l0 7.0937195l-2.046875 0l0 -12.4062195l1.921875 0l0 1.96875l0.046875 0q0.6875 -1.171875 1.671875 -1.703125q1.0 -0.546875 2.375 -0.546875zm21.96875 -4.453125q2.34375 0 3.734375 1.28125q1.40625 1.28125 1.40625 3.78125q0 2.53125 -1.40625 3.796875q-1.390625 1.265625 -3.578125 1.265625l-5.5 0l0 7.0155945l-2.28125 0l0 -17.140594l7.625 0zm-0.640625 8.203125q1.625 0 2.5625 -0.765625q0.9375 -0.765625 0.9375 -2.375q0 -1.578125 -0.921875 -2.359375q-0.921875 -0.78125 -2.71875 -0.78125l-4.5625 0l0 6.28125l4.703125 0zm12.574219 -3.75q2.8125 0 4.421875 1.8125q1.609375 1.8125 1.609375 4.6875q0 2.890625 -1.640625 4.6874695q-1.640625 1.796875 -4.390625 1.796875q-2.6875 0 -4.359375 -1.765625q-1.65625 -1.7655945 -1.65625 -4.7187195q0 -2.953125 1.625 -4.71875q1.625 -1.78125 4.390625 -1.78125zm-3.859375 6.5q0 2.125 1.078125 3.40625q1.09375 1.2655945 2.78125 1.2655945q1.671875 0 2.765625 -1.2655945q1.109375 -1.28125 1.109375 -3.40625q0 -2.125 -1.09375 -3.421875q-1.09375 -1.296875 -2.796875 -1.296875q-1.640625 0 -2.75 1.28125q-1.09375 1.265625 -1.09375 3.4375zm14.4375 -10.953125l0 17.140594l-2.03125 0l0 -17.140594l2.03125 0zm5.3320312 0l0 2.5l-2.03125 0l0 -2.5l2.03125 0zm0 4.734375l0 12.4062195l-2.03125 0l0 -12.4062195l2.03125 0zm8.363281 -0.28125q2.265625 0 3.6875 1.078125q1.421875 1.078125 1.671875 3.1875l-2.109375 0q-0.25 -1.21875 -1.0625 -1.84375q-0.796875 -0.640625 -2.015625 -0.640625q-1.890625 0 -2.875 1.28125q-0.984375 1.265625 -0.984375 3.578125q0 2.0625 0.96875 3.296875q0.96875 1.2343445 2.640625 1.2343445q1.5 0 2.359375 -0.7968445q0.859375 -0.8125 1.0625 -2.21875l2.078125 0q-0.34375 2.3125 -1.75 3.5780945q-1.40625 1.25 -3.71875 1.25q-2.703125 0 -4.25 -1.703125q-1.546875 -1.7187195 -1.546875 -4.6405945q0 -3.046875 1.5625 -4.84375q1.5625 -1.796875 4.28125 -1.796875zm9.859375 -4.453125l0 2.5l-2.03125 0l0 -2.5l2.03125 0zm0 4.734375l0 12.4062195l-2.03125 0l0 -12.4062195l2.03125 0zm8.332031 -0.28125q2.671875 0 4.140625 1.921875q1.484375 1.921875 1.484375 4.921875l0 0.25l-9.28125 0l0 0.15625q0 1.765625 1.03125 2.84375q1.03125 1.0780945 2.828125 1.0780945q1.359375 0 2.15625 -0.6249695q0.8125 -0.640625 1.0625 -1.796875l2.015625 0q-0.421875 2.0625 -1.8125 3.1562195q-1.390625 1.078125 -3.484375 1.078125q-1.96875 0 -3.328125 -0.890625q-1.34375 -0.890625 -1.984375 -2.4530945q-0.640625 -1.578125 -0.640625 -3.234375q0 -2.75 1.640625 -4.578125q1.65625 -1.828125 4.171875 -1.828125zm-3.65625 5.296875l7.125 0q-0.09375 -1.515625 -1.109375 -2.515625q-1.0 -1.0 -2.5 -1.0q-1.40625 0 -2.40625 0.953125q-0.984375 0.953125 -1.109375 2.5625zm15.515625 -5.296875q2.515625 0 3.734375 0.96875q1.21875 0.96875 1.328125 2.90625l-2.03125 0l0 -0.03125q-0.078125 -0.984375 -0.859375 -1.515625q-0.78125 -0.546875 -2.015625 -0.546875q-1.234375 0 -1.9375 0.421875q-0.703125 0.421875 -0.703125 1.171875q0 0.671875 0.625 1.109375q0.625 0.4375 1.890625 0.703125l1.921875 0.4375q1.796875 0.390625 2.734375 1.21875q0.9375 0.828125 0.9375 2.21875q0 1.8280945 -1.421875 2.8749695q-1.40625 1.046875 -3.859375 1.046875q-2.375 0 -3.78125 -1.0625q-1.390625 -1.078125 -1.484375 -3.1562195l2.0625 0q0.03125 1.171875 0.90625 1.796875q0.875 0.6093445 2.421875 0.6093445q1.46875 0 2.234375 -0.46871948q0.765625 -0.46875 0.765625 -1.375q0 -0.84375 -0.765625 -1.328125q-0.75 -0.484375 -3.09375 -0.953125q-2.34375 -0.453125 -3.296875 -1.28125q-0.953125 -0.84375 -0.953125 -2.25q0 -1.625 1.3125 -2.5625q1.328125 -0.953125 3.328125 -0.953125z" fill-rule="nonzero"/><path fill="#000000" fill-opacity="0.0" d="m710.0393 124.03231l249.95276 0l0 69.6063l-249.95276 0z" fill-rule="evenodd"/><path stroke="#000000" stroke-width="1.0" stroke-linejoin="round" stroke-linecap="butt" d="m710.0393 124.03231l249.95276 0l0 69.6063l-249.95276 0z" fill-rule="evenodd"/><path fill="#000000" d="m745.0235 150.33484l0 1.921875l-5.71875 0l0 15.21875l-2.28125 0l0 -15.21875l-5.71875 0l0 -1.921875l13.71875 0zm1.2851562 4.734375l0 8.453125q0 1.0625 0.671875 1.75q0.671875 0.6875 1.859375 0.6875q1.75 0 2.703125 -1.0625q0.96875 -1.078125 0.96875 -2.75l0 -7.078125l2.03125 0l0 12.40625l-1.921875 0l0 -1.96875l-0.046875 0q-0.671875 1.1875 -1.703125 1.734375q-1.015625 0.53125 -2.34375 0.53125q-2.15625 0 -3.21875 -1.125q-1.046875 -1.125 -1.046875 -3.3125l0 -8.265625l2.046875 0zm17.488281 -0.296875q0.0625 0 0.125 0q0.0625 0 0.15625 0.015625l0 2.15625q-2.296875 0 -3.40625 1.21875q-1.09375 1.21875 -1.09375 3.75l0 5.5625l-2.03125 0l0 -12.40625l1.921875 0l0 2.609375l0.046875 0q0.71875 -1.484375 1.765625 -2.1875q1.046875 -0.71875 2.515625 -0.71875zm7.8203125 0.015625q2.234375 0 3.25 1.15625q1.015625 1.140625 1.015625 3.265625l0 8.265625l-2.03125 0l0 -8.46875q0 -1.0625 -0.6875 -1.75q-0.671875 -0.6875 -1.859375 -0.6875q-1.71875 0 -2.6875 1.0625q-0.96875 1.0625 -0.96875 2.75l0 7.09375l-2.046875 0l0 -12.40625l1.921875 0l0 1.96875l0.046875 0q0.6875 -1.171875 1.671875 -1.703125q1.0 -0.546875 2.375 -0.546875zm12.691406 0q2.8125 0 4.421875 1.8125q1.609375 1.8125 1.609375 4.6875q0 2.890625 -1.640625 4.6875q-1.640625 1.796875 -4.390625 1.796875q-2.6875 0 -4.359375 -1.765625q-1.65625 -1.765625 -1.65625 -4.71875q0 -2.953125 1.625 -4.71875q1.625 -1.78125 4.390625 -1.78125zm-3.859375 6.5q0 2.125 1.078125 3.40625q1.09375 1.265625 2.78125 1.265625q1.671875 0 2.765625 -1.265625q1.109375 -1.28125 1.109375 -3.40625q0 -2.125 -1.09375 -3.421875q-1.09375 -1.296875 -2.796875 -1.296875q-1.640625 0 -2.75 1.28125q-1.09375 1.265625 -1.09375 3.4375zm13.359375 -6.21875l3.484375 10.34375l0.046875 0l3.390625 -10.34375l2.125 0l-4.53125 12.40625l-2.171875 0l-4.609375 -12.40625l2.265625 0zm16.078125 -0.28125q2.671875 0 4.140625 1.921875q1.484375 1.921875 1.484375 4.921875l0 0.25l-9.28125 0l0 0.15625q0 1.765625 1.03125 2.84375q1.03125 1.078125 2.828125 1.078125q1.359375 0 2.15625 -0.625q0.8125 -0.640625 1.0625 -1.796875l2.015625 0q-0.421875 2.0625 -1.8125 3.15625q-1.390625 1.078125 -3.484375 1.078125q-1.96875 0 -3.328125 -0.890625q-1.34375 -0.890625 -1.984375 -2.453125q-0.640625 -1.578125 -0.640625 -3.234375q0 -2.75 1.640625 -4.578125q1.65625 -1.828125 4.171875 -1.828125zm-3.65625 5.296875l7.125 0q-0.09375 -1.515625 -1.109375 -2.515625q-1.0 -1.0 -2.5 -1.0q-1.40625 0 -2.40625 0.953125q-0.984375 0.953125 -1.109375 2.5625zm17.578125 -5.3125q0.0625 0 0.125 0q0.0625 0 0.15625 0.015625l0 2.15625q-2.296875 0 -3.40625 1.21875q-1.09375 1.21875 -1.09375 3.75l0 5.5625l-2.03125 0l0 -12.40625l1.921875 0l0 2.609375l0.046875 0q0.71875 -1.484375 1.765625 -2.1875q1.046875 -0.71875 2.515625 -0.71875zm16.128906 -4.4375q3.171875 0 4.3125 1.296875q1.140625 1.28125 1.140625 2.90625q0 1.359375 -0.671875 2.359375q-0.671875 0.984375 -1.875 1.484375l0 0.046875q1.578125 0.34375 2.421875 1.453125q0.84375 1.09375 0.84375 2.671875q0 2.09375 -1.46875 3.515625q-1.453125 1.40625 -3.640625 1.40625l-8.375 0l0 -17.140625l7.3125 0zm-0.359375 7.359375q1.703125 0 2.609375 -0.625q0.921875 -0.640625 0.921875 -2.09375q0 -1.359375 -0.765625 -2.03125q-0.75 -0.6875 -2.75 -0.6875l-4.6875 0l0 5.4375l4.671875 0zm1.125 7.859375q1.390625 0 2.25 -0.828125q0.875 -0.828125 0.875 -2.25q0 -1.4375 -0.984375 -2.140625q-0.984375 -0.71875 -2.828125 -0.71875l-5.109375 0l0 5.9375l5.796875 0zm13.175781 -10.765625q2.671875 0 4.140625 1.921875q1.484375 1.921875 1.484375 4.921875l0 0.25l-9.28125 0l0 0.15625q0 1.765625 1.03125 2.84375q1.03125 1.078125 2.828125 1.078125q1.359375 0 2.15625 -0.625q0.8125 -0.640625 1.0625 -1.796875l2.015625 0q-0.421875 2.0625 -1.8125 3.15625q-1.390625 1.078125 -3.484375 1.078125q-1.96875 0 -3.328125 -0.890625q-1.34375 -0.890625 -1.984375 -2.453125q-0.640625 -1.578125 -0.640625 -3.234375q0 -2.75 1.640625 -4.578125q1.65625 -1.828125 4.171875 -1.828125zm-3.65625 5.296875l7.125 0q-0.09375 -1.515625 -1.109375 -2.515625q-1.0 -1.0 -2.5 -1.0q-1.40625 0 -2.40625 0.953125q-0.984375 0.953125 -1.109375 2.5625zm13.4375 -9.75l0 6.5625l0.046875 0q0.4375 -1.0 1.5 -1.546875q1.078125 -0.5625 2.421875 -0.5625q2.234375 0 3.25 1.15625q1.015625 1.140625 1.015625 3.265625l0 8.265625l-2.03125 0l0 -8.46875q0 -1.0625 -0.6875 -1.75q-0.671875 -0.6875 -1.859375 -0.6875q-1.71875 0 -2.6875 1.0625q-0.96875 1.0625 -0.96875 2.75l0 7.09375l-2.046875 0l0 -17.140625l2.046875 0zm16.378906 4.453125q2.53125 0 3.59375 0.90625q1.0625 0.890625 1.0625 2.40625q0 6.453125 0 7.15625q0 0.703125 0.640625 0.703125q0.140625 0 0.296875 -0.03125q0.171875 -0.03125 0.328125 -0.078125l0 1.578125q-0.28125 0.171875 -0.65625 0.25q-0.359375 0.09375 -0.796875 0.09375q-0.84375 0 -1.296875 -0.46875q-0.4375 -0.484375 -0.4375 -1.453125q-0.8125 0.953125 -1.921875 1.4375q-1.09375 0.484375 -2.453125 0.484375q-1.921875 0 -3.015625 -0.90625q-1.078125 -0.921875 -1.078125 -2.578125q0 -1.671875 1.0625 -2.65625q1.0625 -0.984375 5.015625 -1.46875q1.328125 -0.171875 1.796875 -0.515625q0.484375 -0.34375 0.484375 -1.015625q0 -1.03125 -0.671875 -1.546875q-0.65625 -0.515625 -2.09375 -0.515625q-1.515625 0 -2.265625 0.578125q-0.75 0.578125 -0.8125 1.78125l-2.046875 0q0.09375 -2.0625 1.453125 -3.09375q1.359375 -1.046875 3.8125 -1.046875zm-3.578125 9.34375q0 0.875 0.625 1.359375q0.640625 0.46875 1.765625 0.46875q1.734375 0 2.765625 -0.84375q1.03125 -0.859375 1.03125 -1.921875l0 -2.125q-0.515625 0.359375 -1.34375 0.484375q-0.8125 0.125 -2.171875 0.3125q-1.359375 0.203125 -2.015625 0.75q-0.65625 0.53125 -0.65625 1.515625zm12.46875 -9.0625l3.484375 10.34375l0.046875 0l3.390625 -10.34375l2.125 0l-4.53125 12.40625l-2.171875 0l-4.609375 -12.40625l2.265625 0zm13.078125 -4.734375l0 2.5l-2.03125 0l0 -2.5l2.03125 0zm0 4.734375l0 12.40625l-2.03125 0l0 -12.40625l2.03125 0zm8.535156 -0.28125q2.8125 0 4.421875 1.8125q1.609375 1.8125 1.609375 4.6875q0 2.890625 -1.640625 4.6875q-1.640625 1.796875 -4.390625 1.796875q-2.6875 0 -4.359375 -1.765625q-1.65625 -1.765625 -1.65625 -4.71875q0 -2.953125 1.625 -4.71875q1.625 -1.78125 4.390625 -1.78125zm-3.859375 6.5q0 2.125 1.078125 3.40625q1.09375 1.265625 2.78125 1.265625q1.671875 0 2.765625 -1.265625q1.109375 -1.28125 1.109375 -3.40625q0 -2.125 -1.09375 -3.421875q-1.09375 -1.296875 -2.796875 -1.296875q-1.640625 0 -2.75 1.28125q-1.09375 1.265625 -1.09375 3.4375zm14.328125 -6.21875l0 8.453125q0 1.0625 0.671875 1.75q0.671875 0.6875 1.859375 0.6875q1.75 0 2.703125 -1.0625q0.96875 -1.078125 0.96875 -2.75l0 -7.078125l2.03125 0l0 12.40625l-1.921875 0l0 -1.96875l-0.046875 0q-0.671875 1.1875 -1.703125 1.734375q-1.015625 0.53125 -2.34375 0.53125q-2.15625 0 -3.21875 -1.125q-1.046875 -1.125 -1.046875 -3.3125l0 -8.265625l2.046875 0zm17.488281 -0.296875q0.0625 0 0.125 0q0.0625 0 0.15625 0.015625l0 2.15625q-2.296875 0 -3.40625 1.21875q-1.09375 1.21875 -1.09375 3.75l0 5.5625l-2.03125 0l0 -12.40625l1.921875 0l0 2.609375l0.046875 0q0.71875 -1.484375 1.765625 -2.1875q1.046875 -0.71875 2.515625 -0.71875z" fill-rule="nonzero"/><path fill="#000000" fill-opacity="0.0" d="m373.17126 124.03231l249.95276 0l0 69.6063l-249.95276 0z" fill-rule="evenodd"/><path stroke="#000000" stroke-width="1.0" stroke-linejoin="round" stroke-linecap="butt" d="m373.17126 124.03231l249.95276 0l0 69.6063l-249.95276 0z" fill-rule="evenodd"/><path fill="#000000" d="m409.62616 150.33484l0 1.921875l-5.71875 0l0 15.21875l-2.28125 0l0 -15.21875l-5.71875 0l0 -1.921875l13.71875 0zm1.2851562 4.734375l0 8.453125q0 1.0625 0.671875 1.75q0.671875 0.6875 1.859375 0.6875q1.75 0 2.703125 -1.0625q0.96875 -1.078125 0.96875 -2.75l0 -7.078125l2.03125 0l0 12.40625l-1.921875 0l0 -1.96875l-0.046875 0q-0.671875 1.1875 -1.703125 1.734375q-1.015625 0.53125 -2.34375 0.53125q-2.15625 0 -3.21875 -1.125q-1.046875 -1.125 -1.046875 -3.3125l0 -8.265625l2.046875 0zm17.488281 -0.296875q0.0625 0 0.125 0q0.0625 0 0.15625 0.015625l0 2.15625q-2.296875 0 -3.40625 1.21875q-1.09375 1.21875 -1.09375 3.75l0 5.5625l-2.03125 0l0 -12.40625l1.921875 0l0 2.609375l0.046875 0q0.71875 -1.484375 1.765625 -2.1875q1.046875 -0.71875 2.515625 -0.71875zm7.8203125 0.015625q2.234375 0 3.25 1.15625q1.015625 1.140625 1.015625 3.265625l0 8.265625l-2.03125 0l0 -8.46875q0 -1.0625 -0.6875 -1.75q-0.671875 -0.6875 -1.859375 -0.6875q-1.71875 0 -2.6875 1.0625q-0.96875 1.0625 -0.96875 2.75l0 7.09375l-2.046875 0l0 -12.40625l1.921875 0l0 1.96875l0.046875 0q0.6875 -1.171875 1.671875 -1.703125q1.0 -0.546875 2.375 -0.546875zm12.691406 0q2.8125 0 4.421875 1.8125q1.609375 1.8125 1.609375 4.6875q0 2.890625 -1.640625 4.6875q-1.640625 1.796875 -4.390625 1.796875q-2.6875 0 -4.359375 -1.765625q-1.65625 -1.765625 -1.65625 -4.71875q0 -2.953125 1.625 -4.71875q1.625 -1.78125 4.390625 -1.78125zm-3.859375 6.5q0 2.125 1.078125 3.40625q1.09375 1.265625 2.78125 1.265625q1.671875 0 2.765625 -1.265625q1.109375 -1.28125 1.109375 -3.40625q0 -2.125 -1.09375 -3.421875q-1.09375 -1.296875 -2.796875 -1.296875q-1.640625 0 -2.75 1.28125q-1.09375 1.265625 -1.09375 3.4375zm13.359375 -6.21875l3.484375 10.34375l0.046875 0l3.390625 -10.34375l2.125 0l-4.53125 12.40625l-2.171875 0l-4.609375 -12.40625l2.265625 0zm16.078125 -0.28125q2.671875 0 4.140625 1.921875q1.484375 1.921875 1.484375 4.921875l0 0.25l-9.28125 0l0 0.15625q0 1.765625 1.03125 2.84375q1.03125 1.078125 2.828125 1.078125q1.359375 0 2.15625 -0.625q0.8125 -0.640625 1.0625 -1.796875l2.015625 0q-0.421875 2.0625 -1.8125 3.15625q-1.390625 1.078125 -3.484375 1.078125q-1.96875 0 -3.328125 -0.890625q-1.34375 -0.890625 -1.984375 -2.453125q-0.640625 -1.578125 -0.640625 -3.234375q0 -2.75 1.640625 -4.578125q1.65625 -1.828125 4.171875 -1.828125zm-3.65625 5.296875l7.125 0q-0.09375 -1.515625 -1.109375 -2.515625q-1.0 -1.0 -2.5 -1.0q-1.40625 0 -2.40625 0.953125q-0.984375 0.953125 -1.109375 2.5625zm17.578125 -5.3125q0.0625 0 0.125 0q0.0625 0 0.15625 0.015625l0 2.15625q-2.296875 0 -3.40625 1.21875q-1.09375 1.21875 -1.09375 3.75l0 5.5625l-2.03125 0l0 -12.40625l1.921875 0l0 2.609375l0.046875 0q0.71875 -1.484375 1.765625 -2.1875q1.046875 -0.71875 2.515625 -0.71875zm11.191406 -4.4375l0 17.140625l-2.28125 0l0 -17.140625l2.28125 0zm9.5078125 4.453125q2.234375 0 3.25 1.15625q1.015625 1.140625 1.015625 3.265625l0 8.265625l-2.03125 0l0 -8.46875q0 -1.0625 -0.6875 -1.75q-0.671875 -0.6875 -1.859375 -0.6875q-1.71875 0 -2.6875 1.0625q-0.96875 1.0625 -0.96875 2.75l0 7.09375l-2.046875 0l0 -12.40625l1.921875 0l0 1.96875l0.046875 0q0.6875 -1.171875 1.671875 -1.703125q1.0 -0.546875 2.375 -0.546875zm10.175781 -3.4375l0 3.71875l2.46875 0l0 1.796875l-2.46875 0l0 7.765625q0 0.9375 0.609375 0.984375q0.625 0.046875 1.28125 0.046875l0.578125 0l0 1.8125l-1.6875 0q-1.671875 0 -2.25 -0.59375q-0.578125 -0.609375 -0.578125 -2.015625l0 -8.0l-2.109375 0l0 -1.796875l2.109375 0l0 -3.71875l2.046875 0zm9.578125 3.4375q2.671875 0 4.140625 1.921875q1.484375 1.921875 1.484375 4.921875l0 0.25l-9.28125 0l0 0.15625q0 1.765625 1.03125 2.84375q1.03125 1.078125 2.828125 1.078125q1.359375 0 2.15625 -0.625q0.8125 -0.640625 1.0625 -1.796875l2.015625 0q-0.421875 2.0625 -1.8125 3.15625q-1.390625 1.078125 -3.484375 1.078125q-1.96875 0 -3.328125 -0.890625q-1.34375 -0.890625 -1.984375 -2.453125q-0.640625 -1.578125 -0.640625 -3.234375q0 -2.75 1.640625 -4.578125q1.65625 -1.828125 4.171875 -1.828125zm-3.65625 5.296875l7.125 0q-0.09375 -1.515625 -1.109375 -2.515625q-1.0 -1.0 -2.5 -1.0q-1.40625 0 -2.40625 0.953125q-0.984375 0.953125 -1.109375 2.5625zm17.40625 -5.296875q2.234375 0 3.25 1.15625q1.015625 1.140625 1.015625 3.265625l0 8.265625l-2.03125 0l0 -8.46875q0 -1.0625 -0.6875 -1.75q-0.671875 -0.6875 -1.859375 -0.6875q-1.71875 0 -2.6875 1.0625q-0.96875 1.0625 -0.96875 2.75l0 7.09375l-2.046875 0l0 -12.40625l1.921875 0l0 1.96875l0.046875 0q0.6875 -1.171875 1.671875 -1.703125q1.0 -0.546875 2.375 -0.546875zm10.175781 -3.4375l0 3.71875l2.46875 0l0 1.796875l-2.46875 0l0 7.765625q0 0.9375 0.609375 0.984375q0.625 0.046875 1.28125 0.046875l0.578125 0l0 1.8125l-1.6875 0q-1.671875 0 -2.25 -0.59375q-0.578125 -0.609375 -0.578125 -2.015625l0 -8.0l-2.109375 0l0 -1.796875l2.109375 0l0 -3.71875l2.046875 0zm6.8710938 -1.015625l0 2.5l-2.03125 0l0 -2.5l2.03125 0zm0 4.734375l0 12.40625l-2.03125 0l0 -12.40625l2.03125 0zm8.535156 -0.28125q2.8125 0 4.421875 1.8125q1.609375 1.8125 1.609375 4.6875q0 2.890625 -1.640625 4.6875q-1.640625 1.796875 -4.390625 1.796875q-2.6875 0 -4.359375 -1.765625q-1.65625 -1.765625 -1.65625 -4.71875q0 -2.953125 1.625 -4.71875q1.625 -1.78125 4.390625 -1.78125zm-3.859375 6.5q0 2.125 1.078125 3.40625q1.09375 1.265625 2.78125 1.265625q1.671875 0 2.765625 -1.265625q1.109375 -1.28125 1.109375 -3.40625q0 -2.125 -1.09375 -3.421875q-1.09375 -1.296875 -2.796875 -1.296875q-1.640625 0 -2.75 1.28125q-1.09375 1.265625 -1.09375 3.4375zm18.296875 -6.5q2.234375 0 3.25 1.15625q1.015625 1.140625 1.015625 3.265625l0 8.265625l-2.03125 0l0 -8.46875q0 -1.0625 -0.6875 -1.75q-0.671875 -0.6875 -1.859375 -0.6875q-1.71875 0 -2.6875 1.0625q-0.96875 1.0625 -0.96875 2.75l0 7.09375l-2.046875 0l0 -12.40625l1.921875 0l0 1.96875l0.046875 0q0.6875 -1.171875 1.671875 -1.703125q1.0 -0.546875 2.375 -0.546875zm11.457031 0q2.515625 0 3.734375 0.96875q1.21875 0.96875 1.328125 2.90625l-2.03125 0l0 -0.03125q-0.078125 -0.984375 -0.859375 -1.515625q-0.78125 -0.546875 -2.015625 -0.546875q-1.234375 0 -1.9375 0.421875q-0.703125 0.421875 -0.703125 1.171875q0 0.671875 0.625 1.109375q0.625 0.4375 1.890625 0.703125l1.921875 0.4375q1.796875 0.390625 2.734375 1.21875q0.9375 0.828125 0.9375 2.21875q0 1.828125 -1.421875 2.875q-1.40625 1.046875 -3.859375 1.046875q-2.375 0 -3.78125 -1.0625q-1.390625 -1.078125 -1.484375 -3.15625l2.0625 0q0.03125 1.171875 0.90625 1.796875q0.875 0.609375 2.421875 0.609375q1.46875 0 2.234375 -0.46875q0.765625 -0.46875 0.765625 -1.375q0 -0.84375 -0.765625 -1.328125q-0.75 -0.484375 -3.09375 -0.953125q-2.34375 -0.453125 -3.296875 -1.28125q-0.953125 -0.84375 -0.953125 -2.25q0 -1.625 1.3125 -2.5625q1.328125 -0.953125 3.328125 -0.953125z" fill-rule="nonzero"/><path fill="#000000" fill-opacity="0.0" d="m0 470.4059l286.26773 0l0 69.60629l-286.26773 0z" fill-rule="evenodd"/><path stroke="#000000" stroke-width="1.0" stroke-linejoin="round" stroke-linecap="butt" d="m0 470.4059l286.26773 0l0 69.60629l-286.26773 0z" fill-rule="evenodd"/><path fill="#000000" d="m30.506912 496.30222q2.859375 0 4.53125 1.390625q1.6875 1.375 1.796875 4.03125l-2.15625 0q-0.203125 -1.75 -1.28125 -2.625q-1.0625 -0.875 -2.984375 -0.875q-1.828125 0 -2.84375 0.765625q-1.0 0.75 -1.0 2.15625q0 1.0 0.859375 1.65625q0.875 0.640625 4.65625 1.40625q2.734375 0.5625 4.09375 1.71875q1.359375 1.15625 1.359375 3.21875q0 2.390625 -1.953125 3.7499695q-1.9375 1.359375 -4.75 1.359375q-3.09375 0 -5.0625 -1.546875q-1.96875 -1.5624695 -2.0 -4.4999695l2.15625 0q0.03125 1.953125 1.40625 3.046875q1.375 1.0780945 3.59375 1.0780945q2.0625 0 3.203125 -0.7968445q1.140625 -0.8125 1.140625 -2.3125q0 -1.21875 -1.046875 -1.953125q-1.046875 -0.75 -3.78125 -1.28125q-3.65625 -0.6875 -4.90625 -1.78125q-1.234375 -1.09375 -1.234375 -2.890625q0 -2.3125 1.75 -3.65625q1.75 -1.359375 4.453125 -1.359375zm14.816406 4.859375q2.8125 0 4.421875 1.8125q1.609375 1.8125 1.609375 4.6875q0 2.890625 -1.640625 4.6874695q-1.640625 1.796875 -4.390625 1.796875q-2.6875 0 -4.359375 -1.765625q-1.65625 -1.7655945 -1.65625 -4.7187195q0 -2.953125 1.625 -4.71875q1.625 -1.78125 4.390625 -1.78125zm-3.859375 6.5q0 2.125 1.078125 3.40625q1.09375 1.2655945 2.78125 1.2655945q1.671875 0 2.765625 -1.2655945q1.109375 -1.28125 1.109375 -3.40625q0 -2.125 -1.09375 -3.421875q-1.09375 -1.296875 -2.796875 -1.296875q-1.640625 0 -2.75 1.28125q-1.09375 1.265625 -1.09375 3.4375zm17.46875 -6.5q2.265625 0 3.6875 1.078125q1.421875 1.078125 1.671875 3.1875l-2.109375 0q-0.25 -1.21875 -1.0625 -1.84375q-0.796875 -0.640625 -2.015625 -0.640625q-1.890625 0 -2.875 1.28125q-0.984375 1.265625 -0.984375 3.578125q0 2.0625 0.96875 3.296875q0.96875 1.2343445 2.640625 1.2343445q1.5 0 2.359375 -0.7968445q0.859375 -0.8125 1.0625 -2.21875l2.078125 0q-0.34375 2.3125 -1.75 3.5780945q-1.40625 1.25 -3.71875 1.25q-2.703125 0 -4.25 -1.703125q-1.546875 -1.7187195 -1.546875 -4.6405945q0 -3.046875 1.5625 -4.84375q1.5625 -1.796875 4.28125 -1.796875zm9.859375 -4.453125l0 2.5l-2.03125 0l0 -2.5l2.03125 0zm0 4.734375l0 12.4062195l-2.03125 0l0 -12.4062195l2.03125 0zm8.253906 -0.28125q2.53125 0 3.59375 0.90625q1.0625 0.890625 1.0625 2.40625q0 6.453125 0 7.15625q0 0.7030945 0.640625 0.7030945q0.140625 0 0.296875 -0.03125q0.171875 -0.03125 0.328125 -0.078125l0 1.578125q-0.28125 0.171875 -0.65625 0.25q-0.359375 0.09375 -0.796875 0.09375q-0.84375 0 -1.296875 -0.46875q-0.4375 -0.484375 -0.4375 -1.453125q-0.8125 0.953125 -1.921875 1.4375q-1.09375 0.484375 -2.453125 0.484375q-1.921875 0 -3.015625 -0.90625q-1.078125 -0.921875 -1.078125 -2.5780945q0 -1.671875 1.0625 -2.65625q1.0625 -0.984375 5.015625 -1.46875q1.328125 -0.171875 1.796875 -0.515625q0.484375 -0.34375 0.484375 -1.015625q0 -1.03125 -0.671875 -1.546875q-0.65625 -0.515625 -2.09375 -0.515625q-1.515625 0 -2.265625 0.578125q-0.75 0.578125 -0.8125 1.78125l-2.046875 0q0.09375 -2.0625 1.453125 -3.09375q1.359375 -1.046875 3.8125 -1.046875zm-3.578125 9.34375q0 0.875 0.625 1.359375q0.640625 0.46871948 1.765625 0.46871948q1.734375 0 2.765625 -0.8437195q1.03125 -0.859375 1.03125 -1.921875l0 -2.125q-0.515625 0.359375 -1.34375 0.484375q-0.8125 0.125 -2.171875 0.3125q-1.359375 0.203125 -2.015625 0.75q-0.65625 0.53125 -0.65625 1.515625zm13.546875 -13.796875l0 17.140594l-2.03125 0l0 -17.140594l2.03125 0zm22.015625 0l0 1.921875l-9.546875 0l0 5.4375l8.90625 0l0 1.921875l-8.90625 0l0 5.9375l9.625 0l0 1.9218445l-11.90625 0l0 -17.140594l11.828125 0zm8.472656 4.453125q1.359375 0 2.21875 0.546875q0.859375 0.546875 1.1875 1.5625q0.640625 -1.0 1.65625 -1.546875q1.015625 -0.5625 2.25 -0.5625q2.09375 0 3.09375 0.953125q1.015625 0.9375 1.015625 2.5625l0 9.1718445l-2.03125 0l0 -8.2343445q0 -1.328125 -0.578125 -2.0q-0.5625 -0.671875 -1.828125 -0.671875q-1.53125 0 -2.390625 0.890625q-0.84375 0.890625 -0.84375 2.21875l0 7.7968445l-2.046875 0l0 -8.2343445q0 -1.328125 -0.5625 -2.0q-0.5625 -0.671875 -1.765625 -0.671875q-0.96875 0 -1.71875 0.46875q-0.75 0.46875 -1.171875 1.296875q-0.421875 0.8125 -0.421875 1.375l0 7.7655945l-2.046875 0l0 -12.4062195l1.921875 0l0 1.828125l0.046875 0q0.703125 -1.078125 1.703125 -1.59375q1.0 -0.515625 2.3125 -0.515625zm16.597656 -4.453125l0 6.421875l0.046875 0q0.484375 -0.96875 1.5 -1.46875q1.03125 -0.5 2.46875 -0.5q2.65625 0 4.1875 1.828125q1.53125 1.828125 1.53125 4.6875q0 2.890625 -1.53125 4.6874695q-1.515625 1.78125 -4.125 1.78125q-1.171875 0 -2.28125 -0.484375q-1.09375 -0.484375 -1.75 -1.46875l-0.046875 0l0 1.65625l-2.03125 0l0 -17.140594l2.03125 0zm-0.0625 10.921875q0 2.15625 1.03125 3.4375q1.046875 1.2655945 2.875 1.2655945q1.78125 0 2.75 -1.2655945q0.96875 -1.265625 0.96875 -3.53125q0 -2.0 -1.03125 -3.296875q-1.015625 -1.296875 -2.828125 -1.296875q-1.78125 0 -2.78125 1.3125q-0.984375 1.3125 -0.984375 3.375zm17.335938 -6.46875q2.671875 0 4.140625 1.921875q1.484375 1.921875 1.484375 4.921875l0 0.25l-9.28125 0l0 0.15625q0 1.765625 1.03125 2.84375q1.03125 1.0780945 2.828125 1.0780945q1.359375 0 2.15625 -0.6249695q0.8125 -0.640625 1.0625 -1.796875l2.015625 0q-0.421875 2.0625 -1.8125 3.1562195q-1.390625 1.078125 -3.484375 1.078125q-1.96875 0 -3.328125 -0.890625q-1.34375 -0.890625 -1.984375 -2.4530945q-0.640625 -1.578125 -0.640625 -3.234375q0 -2.75 1.640625 -4.578125q1.65625 -1.828125 4.171875 -1.828125zm-3.65625 5.296875l7.125 0q-0.09375 -1.515625 -1.109375 -2.515625q-1.0 -1.0 -2.5 -1.0q-1.40625 0 -2.40625 0.953125q-0.984375 0.953125 -1.109375 2.5625zm22.484375 -9.75l0 17.140594l-2.046875 0l0 -1.671875l-0.046875 0q-0.46875 0.953125 -1.53125 1.46875q-1.046875 0.5 -2.421875 0.5q-2.609375 0 -4.15625 -1.796875q-1.546875 -1.8124695 -1.546875 -4.7343445q0 -2.875 1.5 -4.65625q1.5 -1.796875 4.140625 -1.796875q1.21875 0 2.3125 0.5q1.09375 0.484375 1.703125 1.421875l0.046875 0l0 -6.375l2.046875 0zm-9.59375 11.03125q0 2.0 1.03125 3.296875q1.03125 1.2968445 2.8125 1.2968445q1.796875 0 2.78125 -1.2968445q1.0 -1.296875 1.0 -3.375q0 -2.125 -1.03125 -3.421875q-1.015625 -1.296875 -2.90625 -1.296875q-1.765625 0 -2.734375 1.296875q-0.953125 1.28125 -0.953125 3.5zm23.820312 -11.03125l0 17.140594l-2.046875 0l0 -1.671875l-0.046875 0q-0.46875 0.953125 -1.53125 1.46875q-1.046875 0.5 -2.421875 0.5q-2.609375 0 -4.15625 -1.796875q-1.546875 -1.8124695 -1.546875 -4.7343445q0 -2.875 1.5 -4.65625q1.5 -1.796875 4.140625 -1.796875q1.21875 0 2.3125 0.5q1.09375 0.484375 1.703125 1.421875l0.046875 0l0 -6.375l2.046875 0zm-9.59375 11.03125q0 2.0 1.03125 3.296875q1.03125 1.2968445 2.8125 1.2968445q1.796875 0 2.78125 -1.2968445q1.0 -1.296875 1.0 -3.375q0 -2.125 -1.03125 -3.421875q-1.015625 -1.296875 -2.90625 -1.296875q-1.765625 0 -2.734375 1.296875q-0.953125 1.28125 -0.953125 3.5zm17.882812 -6.578125q2.671875 0 4.140625 1.921875q1.484375 1.921875 1.484375 4.921875l0 0.25l-9.28125 0l0 0.15625q0 1.765625 1.03125 2.84375q1.03125 1.0780945 2.828125 1.0780945q1.359375 0 2.15625 -0.6249695q0.8125 -0.640625 1.0625 -1.796875l2.015625 0q-0.421875 2.0625 -1.8125 3.1562195q-1.390625 1.078125 -3.484375 1.078125q-1.96875 0 -3.328125 -0.890625q-1.34375 -0.890625 -1.984375 -2.4530945q-0.640625 -1.578125 -0.640625 -3.234375q0 -2.75 1.640625 -4.578125q1.65625 -1.828125 4.171875 -1.828125zm-3.65625 5.296875l7.125 0q-0.09375 -1.515625 -1.109375 -2.515625q-1.0 -1.0 -2.5 -1.0q-1.40625 0 -2.40625 0.953125q-0.984375 0.953125 -1.109375 2.5625zm22.484375 -9.75l0 17.140594l-2.046875 0l0 -1.671875l-0.046875 0q-0.46875 0.953125 -1.53125 1.46875q-1.046875 0.5 -2.421875 0.5q-2.609375 0 -4.15625 -1.796875q-1.546875 -1.8124695 -1.546875 -4.7343445q0 -2.875 1.5 -4.65625q1.5 -1.796875 4.140625 -1.796875q1.21875 0 2.3125 0.5q1.09375 0.484375 1.703125 1.421875l0.046875 0l0 -6.375l2.046875 0zm-9.59375 11.03125q0 2.0 1.03125 3.296875q1.03125 1.2968445 2.8125 1.2968445q1.796875 0 2.78125 -1.2968445q1.0 -1.296875 1.0 -3.375q0 -2.125 -1.03125 -3.421875q-1.015625 -1.296875 -2.90625 -1.296875q-1.765625 0 -2.734375 1.296875q-0.953125 1.28125 -0.953125 3.5zm18.742188 -6.578125q2.234375 0 3.25 1.15625q1.015625 1.140625 1.015625 3.265625l0 8.2655945l-2.03125 0l0 -8.4687195q0 -1.0625 -0.6875 -1.75q-0.671875 -0.6875 -1.859375 -0.6875q-1.71875 0 -2.6875 1.0625q-0.96875 1.0625 -0.96875 2.75l0 7.0937195l-2.046875 0l0 -12.4062195l1.921875 0l0 1.96875l0.046875 0q0.6875 -1.171875 1.671875 -1.703125q1.0 -0.546875 2.375 -0.546875zm12.488281 0q2.671875 0 4.140625 1.921875q1.484375 1.921875 1.484375 4.921875l0 0.25l-9.28125 0l0 0.15625q0 1.765625 1.03125 2.84375q1.03125 1.0780945 2.828125 1.0780945q1.359375 0 2.15625 -0.6249695q0.8125 -0.640625 1.0625 -1.796875l2.015625 0q-0.421875 2.0625 -1.8125 3.1562195q-1.390625 1.078125 -3.484375 1.078125q-1.96875 0 -3.328125 -0.890625q-1.34375 -0.890625 -1.984375 -2.4530945q-0.640625 -1.578125 -0.640625 -3.234375q0 -2.75 1.640625 -4.578125q1.65625 -1.828125 4.171875 -1.828125zm-3.65625 5.296875l7.125 0q-0.09375 -1.515625 -1.109375 -2.515625q-1.0 -1.0 -2.5 -1.0q-1.40625 0 -2.40625 0.953125q-0.984375 0.953125 -1.109375 2.5625zm15.515625 -5.296875q2.515625 0 3.734375 0.96875q1.21875 0.96875 1.328125 2.90625l-2.03125 0l0 -0.03125q-0.078125 -0.984375 -0.859375 -1.515625q-0.78125 -0.546875 -2.015625 -0.546875q-1.234375 0 -1.9375 0.421875q-0.703125 0.421875 -0.703125 1.171875q0 0.671875 0.625 1.109375q0.625 0.4375 1.890625 0.703125l1.921875 0.4375q1.796875 0.390625 2.734375 1.21875q0.9375 0.828125 0.9375 2.21875q0 1.8280945 -1.421875 2.8749695q-1.40625 1.046875 -3.859375 1.046875q-2.375 0 -3.78125 -1.0625q-1.390625 -1.078125 -1.484375 -3.1562195l2.0625 0q0.03125 1.171875 0.90625 1.796875q0.875 0.6093445 2.421875 0.6093445q1.46875 0 2.234375 -0.46871948q0.765625 -0.46875 0.765625 -1.375q0 -0.84375 -0.765625 -1.328125q-0.75 -0.484375 -3.09375 -0.953125q-2.34375 -0.453125 -3.296875 -1.28125q-0.953125 -0.84375 -0.953125 -2.25q0 -1.625 1.3125 -2.5625q1.328125 -0.953125 3.328125 -0.953125zm11.999985 0q2.515625 0 3.734375 0.96875q1.21875 0.96875 1.328125 2.90625l-2.03125 0l0 -0.03125q-0.078125 -0.984375 -0.859375 -1.515625q-0.78125 -0.546875 -2.015625 -0.546875q-1.2343597 0 -1.9374847 0.421875q-0.703125 0.421875 -0.703125 1.171875q0 0.671875 0.625 1.109375q0.625 0.4375 1.8906097 0.703125l1.921875 0.4375q1.796875 0.390625 2.734375 1.21875q0.9375 0.828125 0.9375 2.21875q0 1.8280945 -1.421875 2.8749695q-1.40625 1.046875 -3.859375 1.046875q-2.3749847 0 -3.7812347 -1.0625q-1.390625 -1.078125 -1.484375 -3.1562195l2.0625 0q0.03125 1.171875 0.90625 1.796875q0.875 0.6093445 2.4218597 0.6093445q1.46875 0 2.234375 -0.46871948q0.765625 -0.46875 0.765625 -1.375q0 -0.84375 -0.765625 -1.328125q-0.75 -0.484375 -3.09375 -0.953125q-2.3437347 -0.453125 -3.2968597 -1.28125q-0.953125 -0.84375 -0.953125 -2.25q0 -1.625 1.3125 -2.5625q1.328125 -0.953125 3.3281097 -0.953125z" fill-rule="nonzero"/><path fill="#000000" fill-opacity="0.0" d="m0 0l286.26773 0l0 29.385826l-286.26773 0z" fill-rule="evenodd"/><path fill="#000000" d="m54.68875 7.1541634q2.375 0 3.765625 1.34375q1.390625 1.328125 1.390625 3.53125q0 2.203125 -1.390625 3.546875q-1.390625 1.34375 -3.765625 1.34375l-3.625 0l0 5.453125l-3.359375 0l0 -15.21875l6.984375 0zm-0.9375 7.15625q1.4375 0 2.140625 -0.53125q0.703125 -0.546875 0.703125 -1.75q0 -1.15625 -0.671875 -1.71875q-0.671875 -0.5625 -2.15625 -0.5625l-2.703125 0l0 4.5625l2.6875 0zm13.965271 -3.25q0.203125 0 0.359375 0.03125q0.171875 0.015625 0.328125 0.0625l0 2.8125q-0.265625 -0.046875 -0.515625 -0.078125q-0.234375 -0.03125 -0.578125 -0.03125q-1.53125 0 -2.265625 0.9375q-0.734375 0.9375 -0.734375 2.515625l0 5.0625l-3.015625 0l0 -11.03125l2.875 0l0 2.046875l0.046875 0q0.46875 -1.078125 1.421875 -1.703125q0.953125 -0.625 2.078125 -0.625zm4.987564 -3.90625l0 2.484375l-3.03125 0l0 -2.484375l3.03125 0zm0 4.1875l0 11.03125l-3.03125 0l0 -11.03125l3.03125 0zm8.748657 -0.28125q1.21875 0 2.015625 0.46875q0.8125 0.46875 1.1875 1.359375q0.625 -0.890625 1.484375 -1.359375q0.859375 -0.46875 1.859375 -0.46875q2.0 0 3.015625 1.015625q1.015625 1.015625 1.015625 2.8125l0 7.484375l-3.03125 0l0 -6.375q0 -1.515625 -0.453125 -2.03125q-0.4375 -0.53125 -1.40625 -0.53125q-1.015625 0 -1.53125 0.6875q-0.5 0.6875 -0.5 2.015625l0 6.234375l-3.03125 0l0 -6.796875q0 -1.09375 -0.421875 -1.609375q-0.40625 -0.53125 -1.390625 -0.53125q-0.875 0 -1.46875 0.671875q-0.59375 0.65625 -0.59375 1.796875l0 6.46875l-3.03125 0l0 -11.03125l2.859375 0l0 1.5l0.046875 0q0.640625 -0.90625 1.484375 -1.34375q0.859375 -0.4375 1.890625 -0.4375zm18.021332 0q2.453125 0 3.640625 0.796875q1.1875 0.796875 1.1875 2.25l0 5.921875q0 0.671875 0.078125 1.34375q0.09375 0.65625 0.3125 1.0l-3.078125 0q-0.078125 -0.25 -0.140625 -0.515625q-0.046875 -0.265625 -0.078125 -0.53125q-0.625 0.65625 -1.578125 1.0q-0.9375 0.34375 -2.125 0.34375q-1.703125 0 -2.734375 -0.859375q-1.015625 -0.859375 -1.015625 -2.453125q0 -1.53125 0.953125 -2.34375q0.96875 -0.828125 3.5 -1.109375q1.75 -0.171875 2.3125 -0.4375q0.5625 -0.265625 0.5625 -0.921875q0 -0.734375 -0.4375 -1.09375q-0.421875 -0.375 -1.5 -0.375q-0.9375 0 -1.4375 0.40625q-0.5 0.390625 -0.59375 1.25l-3.03125 0q0.125 -1.8125 1.5 -2.734375q1.375 -0.9375 3.703125 -0.9375zm-2.515625 8.171875q0 0.65625 0.453125 1.03125q0.453125 0.375 1.421875 0.375q1.203125 0 1.8125 -0.625q0.625 -0.640625 0.625 -1.859375l0 -1.171875q-0.265625 0.21875 -0.71875 0.328125q-0.4375 0.109375 -1.59375 0.265625q-1.03125 0.140625 -1.515625 0.546875q-0.484375 0.390625 -0.484375 1.109375zm16.12201 -8.171875q0.203125 0 0.359375 0.03125q0.171875 0.015625 0.328125 0.0625l0 2.8125q-0.265625 -0.046875 -0.515625 -0.078125q-0.234375 -0.03125 -0.578125 -0.03125q-1.53125 0 -2.265625 0.9375q-0.734375 0.9375 -0.734375 2.515625l0 5.0625l-3.015625 0l0 -11.03125l2.875 0l0 2.046875l0.046875 0q0.46875 -1.078125 1.421875 -1.703125q0.953125 -0.625 2.078125 -0.625zm4.154236 0.28125l2.5 7.546875l0.046875 0l2.40625 -7.546875l3.125 0l-4.671875 12.625q-0.421875 1.109375 -1.296875 1.703125q-0.859375 0.59375 -2.234375 0.59375q-0.65625 0 -1.109375 -0.03125q-0.453125 -0.03125 -0.921875 -0.09375l0 -2.484375q0.546875 0.0625 0.890625 0.078125q0.359375 0.03125 0.6875 0.03125q0.640625 0 1.0 -0.40625q0.359375 -0.390625 0.359375 -0.984375q0 -0.15625 -0.03125 -0.296875q-0.015625 -0.15625 -0.109375 -0.390625l-3.890625 -10.34375l3.25 0zm20.07399 -4.1875l3.5625 10.453125l0.046875 0l3.359375 -10.421875l0.015625 -0.03125l4.703125 0l0 15.21875l-3.140625 0l0 -10.78125l-0.046875 0l-3.71875 10.78125l-2.578125 0l-3.75 -10.6875l-0.03125 0l0 10.6875l-3.140625 0l0 -15.21875l4.71875 0zm19.677567 3.90625q2.59375 0 4.140625 1.59375q1.5625 1.59375 1.5625 4.21875q0 2.640625 -1.578125 4.21875q-1.5625 1.578125 -4.125 1.578125q-2.5625 0 -4.140625 -1.59375q-1.5625 -1.59375 -1.5625 -4.203125q0 -2.609375 1.53125 -4.203125q1.546875 -1.609375 4.171875 -1.609375zm-2.671875 5.8125q0 1.734375 0.703125 2.625q0.71875 0.890625 1.96875 0.890625q1.28125 0 1.984375 -0.921875q0.703125 -0.921875 0.703125 -2.59375q0 -1.640625 -0.6875 -2.59375q-0.671875 -0.953125 -2.03125 -0.953125q-1.21875 0 -1.9375 0.890625q-0.703125 0.875 -0.703125 2.65625zm14.168701 -8.828125l0 3.296875l2.21875 0l0 2.03125l-2.21875 0l0 5.53125q0 0.671875 0.25 0.9375q0.265625 0.265625 1.03125 0.265625q0.265625 0 0.5 -0.015625q0.25 -0.015625 0.4375 -0.0625l0 2.359375q-0.375 0.0625 -0.84375 0.078125q-0.453125 0.03125 -0.90625 0.03125q-1.96875 0 -2.734375 -0.671875q-0.765625 -0.671875 -0.765625 -1.875l0 -6.578125l-1.828125 0l0 -2.03125l1.828125 0l0 -3.296875l3.03125 0zm6.7898407 -0.890625l0 2.484375l-3.03125 0l0 -2.484375l3.03125 0zm0 4.1875l0 11.03125l-3.03125 0l0 -11.03125l3.03125 0zm4.514282 0l2.328125 7.53125l0.046875 0l2.328125 -7.53125l3.0 0l-3.734375 11.03125l-3.359375 0l-3.78125 -11.03125l3.171875 0zm14.028549 -0.28125q2.453125 0 3.640625 0.796875q1.1875 0.796875 1.1875 2.25l0 5.921875q0 0.671875 0.078125 1.34375q0.09375 0.65625 0.3125 1.0l-3.078125 0q-0.078125 -0.25 -0.140625 -0.515625q-0.046875 -0.265625 -0.078125 -0.53125q-0.625 0.65625 -1.578125 1.0q-0.9375 0.34375 -2.125 0.34375q-1.703125 0 -2.734375 -0.859375q-1.015625 -0.859375 -1.015625 -2.453125q0 -1.53125 0.953125 -2.34375q0.96875 -0.828125 3.5 -1.109375q1.75 -0.171875 2.3125 -0.4375q0.5625 -0.265625 0.5625 -0.921875q0 -0.734375 -0.4375 -1.09375q-0.421875 -0.375 -1.5 -0.375q-0.9375 0 -1.4375 0.40625q-0.5 0.390625 -0.59375 1.25l-3.03125 0q0.125 -1.8125 1.5 -2.734375q1.375 -0.9375 3.703125 -0.9375zm-2.515625 8.171875q0 0.65625 0.453125 1.03125q0.453125 0.375 1.421875 0.375q1.203125 0 1.8125 -0.625q0.625 -0.640625 0.625 -1.859375l0 -1.171875q-0.265625 0.21875 -0.71875 0.328125q-0.4375 0.109375 -1.59375 0.265625q-1.03125 0.140625 -1.515625 0.546875q-0.484375 0.390625 -0.484375 1.109375zm13.528259 -11.1875l0 3.296875l2.21875 0l0 2.03125l-2.21875 0l0 5.53125q0 0.671875 0.25 0.9375q0.265625 0.265625 1.03125 0.265625q0.265625 0 0.5 -0.015625q0.25 -0.015625 0.4375 -0.0625l0 2.359375q-0.375 0.0625 -0.84375 0.078125q-0.453125 0.03125 -0.90625 0.03125q-1.96875 0 -2.734375 -0.671875q-0.765625 -0.671875 -0.765625 -1.875l0 -6.578125l-1.828125 0l0 -2.03125l1.828125 0l0 -3.296875l3.03125 0zm8.935669 3.015625q2.59375 0 4.140625 1.59375q1.5625 1.59375 1.5625 4.21875q0 2.640625 -1.578125 4.21875q-1.5625 1.578125 -4.125 1.578125q-2.5625 0 -4.140625 -1.59375q-1.5625 -1.59375 -1.5625 -4.203125q0 -2.609375 1.53125 -4.203125q1.546875 -1.609375 4.171875 -1.609375zm-2.671875 5.8125q0 1.734375 0.703125 2.625q0.71875 0.890625 1.96875 0.890625q1.28125 0 1.984375 -0.921875q0.703125 -0.921875 0.703125 -2.59375q0 -1.640625 -0.6875 -2.59375q-0.671875 -0.953125 -2.03125 -0.953125q-1.21875 0 -1.9375 0.890625q-0.703125 0.875 -0.703125 2.65625zm16.762451 -5.8125q0.203125 0 0.359375 0.03125q0.171875 0.015625 0.328125 0.0625l0 2.8125q-0.265625 -0.046875 -0.515625 -0.078125q-0.234375 -0.03125 -0.578125 -0.03125q-1.53125 0 -2.265625 0.9375q-0.734375 0.9375 -0.734375 2.515625l0 5.0625l-3.015625 0l0 -11.03125l2.875 0l0 2.046875l0.046875 0q0.46875 -1.078125 1.421875 -1.703125q0.953125 -0.625 2.078125 -0.625zm6.393814 0q2.25 0 3.46875 0.890625q1.234375 0.875 1.40625 2.609375l-2.890625 0q-0.0625 -0.78125 -0.59375 -1.125q-0.515625 -0.359375 -1.484375 -0.359375q-0.875 0 -1.28125 0.265625q-0.390625 0.25 -0.390625 0.75q0 0.515625 0.515625 0.84375q0.53125 0.328125 2.125 0.625q2.546875 0.484375 3.40625 1.265625q0.875 0.765625 0.875 2.015625q0 1.875 -1.375 2.859375q-1.359375 0.96875 -3.65625 0.96875q-2.28125 0 -3.6875 -0.96875q-1.40625 -0.96875 -1.5 -2.90625l2.890625 0q0 0.875 0.65625 1.359375q0.671875 0.484375 1.671875 0.484375q0.875 0 1.421875 -0.375q0.5625 -0.375 0.5625 -1.03125q0 -0.5625 -0.71875 -0.921875q-0.71875 -0.375 -2.640625 -0.765625q-1.890625 -0.375 -2.734375 -1.078125q-0.84375 -0.703125 -0.84375 -1.890625q0 -1.75 1.234375 -2.625q1.25 -0.890625 3.5625 -0.890625z" fill-rule="nonzero"/><path fill="#000000" fill-opacity="0.0" d="m0.018224671 427.9169l302.33072 0l0 29.385834l-302.33072 0z" fill-rule="evenodd"/><path fill="#000000" d="m45.997295 434.69608q2.765625 0 4.421875 1.28125q1.671875 1.28125 1.671875 3.625l-3.234375 0q-0.078125 -1.140625 -0.796875 -1.71875q-0.703125 -0.578125 -2.203125 -0.578125q-1.015625 0 -1.671875 0.453125q-0.640625 0.4375 -0.640625 1.28125q0 0.5625 0.265625 0.84375q0.265625 0.28125 1.109375 0.59375q0.84375 0.296875 3.65625 0.96875q1.890625 0.453125 2.953125 1.546875q1.0625 1.09375 1.0625 2.78125q0 2.203125 -1.65625 3.546875q-1.640625 1.328125 -4.65625 1.328125q-2.875 0 -4.6875 -1.40625q-1.8125 -1.421875 -1.8125 -3.921875l0 -0.078125l3.234375 0q0.03125 1.40625 0.953125 2.109375q0.921875 0.703125 2.421875 0.703125q1.359375 0 2.15625 -0.5q0.8125 -0.5 0.8125 -1.40625q0 -0.734375 -0.625 -1.203125q-0.609375 -0.484375 -1.96875 -0.828125q-1.75 -0.390625 -3.1875 -0.828125q-1.421875 -0.453125 -2.359375 -1.4375q-0.921875 -1.0 -0.921875 -2.546875q0 -2.046875 1.640625 -3.328125q1.640625 -1.28125 4.0625 -1.28125zm13.371628 4.28125q2.453125 0 3.90625 1.6875q1.4687538 1.671875 1.4687538 4.28125l-0.03125 0.5625l-7.953129 0q0.0625 1.421875 0.75 2.109375q0.6875 0.6875 1.953125 0.6875q0.828125 0 1.515625 -0.421875q0.703125 -0.421875 0.890625 -1.015625l2.6562538 0q-0.6093788 1.875 -1.8906288 2.796875q-1.28125 0.921875 -3.265625 0.921875q-2.546875 0 -4.09375 -1.609375q-1.546875 -1.609375 -1.546875 -4.1875q0 -2.46875 1.578125 -4.140625q1.578125 -1.671875 4.0625 -1.671875zm-2.609375 4.609375l4.9375 0q-0.21875 -1.21875 -0.796875 -1.78125q-0.5625 -0.5625 -1.640625 -0.5625q-1.09375 0 -1.75 0.625q-0.640625 0.625 -0.75 1.71875zm15.043888 -4.609375q2.140625 0 3.59375 1.109375q1.46875 1.09375 1.59375 3.0625l-2.96875 0q-0.140625 -0.953125 -0.703125 -1.421875q-0.5625 -0.484375 -1.53125 -0.484375q-1.21875 0 -1.90625 1.0q-0.671875 1.0 -0.671875 2.59375q0 1.578125 0.65625 2.53125q0.671875 0.9375 1.859375 0.9375q1.0 0 1.625 -0.578125q0.625 -0.578125 0.78125 -1.671875l2.921875 0q-0.3125 2.1875 -1.71875 3.359375q-1.390625 1.171875 -3.59375 1.171875q-2.453125 0 -4.015625 -1.578125q-1.546875 -1.578125 -1.546875 -4.078125q0 -2.671875 1.515625 -4.3125q1.53125 -1.640625 4.109375 -1.640625zm12.325134 0q2.59375 0 4.140625 1.59375q1.5625 1.59375 1.5625 4.21875q0 2.640625 -1.578125 4.21875q-1.5625 1.578125 -4.125 1.578125q-2.5625 0 -4.140625 -1.59375q-1.5625 -1.59375 -1.5625 -4.203125q0 -2.609375 1.53125 -4.203125q1.546875 -1.609375 4.171875 -1.609375zm-2.671875 5.8125q0 1.734375 0.703125 2.625q0.71875 0.890625 1.96875 0.890625q1.28125 0 1.984375 -0.921875q0.703125 -0.921875 0.703125 -2.59375q0 -1.640625 -0.6875 -2.59375q-0.671875 -0.953125 -2.03125 -0.953125q-1.21875 0 -1.9375 0.890625q-0.703125 0.875 -0.703125 2.65625zm16.668701 -5.8125q2.109375 0 3.0625 1.0625q0.953125 1.0625 0.953125 3.359375l0 6.890625l-3.03125 0l0 -6.328125q0 -1.28125 -0.453125 -1.9375q-0.4375 -0.671875 -1.484375 -0.671875q-1.265625 0 -1.8125 0.75q-0.546875 0.75 -0.546875 2.296875l0 5.890625l-3.015625 0l0 -11.03125l2.875 0l0 1.546875l0.0625 0q0.546875 -0.890625 1.4375 -1.359375q0.890625 -0.46875 1.953125 -0.46875zm17.064621 -3.90625l0 15.21875l-2.890625 0l0 -1.40625l-0.03125 0q-0.5 0.84375 -1.359375 1.28125q-0.859375 0.421875 -1.984375 0.421875q-2.265625 0 -3.609375 -1.65625q-1.34375 -1.65625 -1.34375 -4.25q0 -2.46875 1.3125 -4.078125q1.328125 -1.625 3.578125 -1.625q1.03125 0 1.875 0.421875q0.859375 0.40625 1.375 1.203125l0.046875 0l0 -5.53125l3.03125 0zm-8.203125 9.6875q0 1.546875 0.71875 2.546875q0.71875 1.0 1.953125 1.0q1.265625 0 1.9375 -0.921875q0.671875 -0.9375 0.671875 -2.640625q0 -1.609375 -0.65625 -2.546875q-0.65625 -0.953125 -1.96875 -0.953125q-1.25 0 -1.953125 0.953125q-0.703125 0.9375 -0.703125 2.5625zm15.543701 -5.78125q2.453125 0 3.640625 0.796875q1.1875 0.796875 1.1875 2.25l0 5.921875q0 0.671875 0.078125 1.34375q0.09375 0.65625 0.3125 1.0l-3.078125 0q-0.078125 -0.25 -0.140625 -0.515625q-0.046875 -0.265625 -0.078125 -0.53125q-0.625 0.65625 -1.578125 1.0q-0.9375 0.34375 -2.125 0.34375q-1.703125 0 -2.734375 -0.859375q-1.015625 -0.859375 -1.015625 -2.453125q0 -1.53125 0.953125 -2.34375q0.96875 -0.828125 3.5 -1.109375q1.75 -0.171875 2.3125 -0.4375q0.5625 -0.265625 0.5625 -0.921875q0 -0.734375 -0.4375 -1.09375q-0.421875 -0.375 -1.5 -0.375q-0.9375 0 -1.4375 0.40625q-0.5 0.390625 -0.59375 1.25l-3.03125 0q0.125 -1.8125 1.5 -2.734375q1.375 -0.9375 3.703125 -0.9375zm-2.515625 8.171875q0 0.65625 0.453125 1.03125q0.453125 0.375 1.421875 0.375q1.203125 0 1.8125 -0.625q0.625 -0.640625 0.625 -1.859375l0 -1.171875q-0.265625 0.21875 -0.71875 0.328125q-0.4375 0.109375 -1.59375 0.265625q-1.03125 0.140625 -1.515625 0.546875q-0.484375 0.390625 -0.484375 1.109375zm16.121994 -8.171875q0.203125 0 0.359375 0.03125q0.171875 0.015625 0.328125 0.0625l0 2.8125q-0.265625 -0.046875 -0.515625 -0.078125q-0.234375 -0.03125 -0.578125 -0.03125q-1.53125 0 -2.265625 0.9375q-0.734375 0.9375 -0.734375 2.515625l0 5.0625l-3.015625 0l0 -11.03125l2.875 0l0 2.046875l0.046875 0q0.46875 -1.078125 1.421875 -1.703125q0.953125 -0.625 2.078125 -0.625zm4.154236 0.28125l2.5 7.546875l0.046875 0l2.40625 -7.546875l3.125 0l-4.671875 12.625q-0.421875 1.109375 -1.296875 1.703125q-0.859375 0.59375 -2.234375 0.59375q-0.65625 0 -1.109375 -0.03125q-0.453125 -0.03125 -0.921875 -0.09375l0 -2.484375q0.546875 0.0625 0.890625 0.078125q0.359375 0.03125 0.6875 0.03125q0.640625 0 1.0 -0.40625q0.359375 -0.390625 0.359375 -0.984375q0 -0.15625 -0.03125 -0.296875q-0.015625 -0.15625 -0.109375 -0.390625l-3.890625 -10.34375l3.25 0zm20.074005 -4.1875l3.5625 10.453125l0.046875 0l3.359375 -10.421875l0.015625 -0.03125l4.703125 0l0 15.21875l-3.140625 0l0 -10.78125l-0.046875 0l-3.71875 10.78125l-2.578125 0l-3.75 -10.6875l-0.03125 0l0 10.6875l-3.140625 0l0 -15.21875l4.71875 0zm19.677551 3.90625q2.59375 0 4.140625 1.59375q1.5625 1.59375 1.5625 4.21875q0 2.640625 -1.578125 4.21875q-1.5625 1.578125 -4.125 1.578125q-2.5625 0 -4.140625 -1.59375q-1.5625 -1.59375 -1.5625 -4.203125q0 -2.609375 1.53125 -4.203125q1.546875 -1.609375 4.171875 -1.609375zm-2.671875 5.8125q0 1.734375 0.703125 2.625q0.71875 0.890625 1.96875 0.890625q1.28125 0 1.984375 -0.921875q0.703125 -0.921875 0.703125 -2.59375q0 -1.640625 -0.6875 -2.59375q-0.671875 -0.953125 -2.03125 -0.953125q-1.21875 0 -1.9375 0.890625q-0.703125 0.875 -0.703125 2.65625zm14.168701 -8.828125l0 3.296875l2.21875 0l0 2.03125l-2.21875 0l0 5.53125q0 0.671875 0.25 0.9375q0.265625 0.265625 1.03125 0.265625q0.265625 0 0.5 -0.015625q0.25 -0.015625 0.4375 -0.0625l0 2.359375q-0.375 0.0625 -0.84375 0.078125q-0.453125 0.03125 -0.90625 0.03125q-1.96875 0 -2.734375 -0.671875q-0.765625 -0.671875 -0.765625 -1.875l0 -6.578125l-1.828125 0l0 -2.03125l1.828125 0l0 -3.296875l3.03125 0zm6.789856 -0.890625l0 2.484375l-3.03125 0l0 -2.484375l3.03125 0zm0 4.1875l0 11.03125l-3.03125 0l0 -11.03125l3.03125 0zm4.514282 0l2.328125 7.53125l0.046875 0l2.328125 -7.53125l3.0 0l-3.734375 11.03125l-3.359375 0l-3.78125 -11.03125l3.171875 0zm14.028534 -0.28125q2.453125 0 3.640625 0.796875q1.1875 0.796875 1.1875 2.25l0 5.921875q0 0.671875 0.078125 1.34375q0.09375 0.65625 0.3125 1.0l-3.078125 0q-0.078125 -0.25 -0.140625 -0.515625q-0.046875 -0.265625 -0.078125 -0.53125q-0.625 0.65625 -1.578125 1.0q-0.9375 0.34375 -2.125 0.34375q-1.703125 0 -2.734375 -0.859375q-1.015625 -0.859375 -1.015625 -2.453125q0 -1.53125 0.953125 -2.34375q0.96875 -0.828125 3.5 -1.109375q1.75 -0.171875 2.3125 -0.4375q0.5625 -0.265625 0.5625 -0.921875q0 -0.734375 -0.4375 -1.09375q-0.421875 -0.375 -1.5 -0.375q-0.9375 0 -1.4375 0.40625q-0.5 0.390625 -0.59375 1.25l-3.03125 0q0.125 -1.8125 1.5 -2.734375q1.375 -0.9375 3.703125 -0.9375zm-2.515625 8.171875q0 0.65625 0.453125 1.03125q0.453125 0.375 1.421875 0.375q1.203125 0 1.8125 -0.625q0.625 -0.640625 0.625 -1.859375l0 -1.171875q-0.265625 0.21875 -0.71875 0.328125q-0.4375 0.109375 -1.59375 0.265625q-1.03125 0.140625 -1.515625 0.546875q-0.484375 0.390625 -0.484375 1.109375zm13.528259 -11.1875l0 3.296875l2.21875 0l0 2.03125l-2.21875 0l0 5.53125q0 0.671875 0.25 0.9375q0.265625 0.265625 1.03125 0.265625q0.265625 0 0.5 -0.015625q0.25 -0.015625 0.4375 -0.0625l0 2.359375q-0.375 0.0625 -0.84375 0.078125q-0.453125 0.03125 -0.90625 0.03125q-1.96875 0 -2.734375 -0.671875q-0.765625 -0.671875 -0.765625 -1.875l0 -6.578125l-1.828125 0l0 -2.03125l1.828125 0l0 -3.296875l3.03125 0zm8.935669 3.015625q2.59375 0 4.140625 1.59375q1.5625 1.59375 1.5625 4.21875q0 2.640625 -1.578125 4.21875q-1.5625 1.578125 -4.125 1.578125q-2.5625 0 -4.140625 -1.59375q-1.5625 -1.59375 -1.5625 -4.203125q0 -2.609375 1.53125 -4.203125q1.546875 -1.609375 4.171875 -1.609375zm-2.671875 5.8125q0 1.734375 0.703125 2.625q0.71875 0.890625 1.96875 0.890625q1.28125 0 1.984375 -0.921875q0.703125 -0.921875 0.703125 -2.59375q0 -1.640625 -0.6875 -2.59375q-0.671875 -0.953125 -2.03125 -0.953125q-1.21875 0 -1.9375 0.890625q-0.703125 0.875 -0.703125 2.65625zm16.762451 -5.8125q0.203125 0 0.359375 0.03125q0.171875 0.015625 0.328125 0.0625l0 2.8125q-0.265625 -0.046875 -0.515625 -0.078125q-0.234375 -0.03125 -0.578125 -0.03125q-1.53125 0 -2.265625 0.9375q-0.734375 0.9375 -0.734375 2.515625l0 5.0625l-3.015625 0l0 -11.03125l2.875 0l0 2.046875l0.046875 0q0.46875 -1.078125 1.421875 -1.703125q0.953125 -0.625 2.078125 -0.625zm6.3938293 0q2.25 0 3.46875 0.890625q1.234375 0.875 1.40625 2.609375l-2.890625 0q-0.0625 -0.78125 -0.59375 -1.125q-0.515625 -0.359375 -1.484375 -0.359375q-0.875 0 -1.28125 0.265625q-0.390625 0.25 -0.390625 0.75q0 0.515625 0.515625 0.84375q0.53125 0.328125 2.125 0.625q2.546875 0.484375 3.40625 1.265625q0.875 0.765625 0.875 2.015625q0 1.875 -1.375 2.859375q-1.359375 0.96875 -3.65625 0.96875q-2.28125 0 -3.6875 -0.96875q-1.40625 -0.96875 -1.5 -2.90625l2.890625 0q0 0.875 0.65625 1.359375q0.671875 0.484375 1.671875 0.484375q0.875 0 1.421875 -0.375q0.5625 -0.375 0.5625 -1.03125q0 -0.5625 -0.71875 -0.921875q-0.71875 -0.375 -2.640625 -0.765625q-1.890625 -0.375 -2.734375 -1.078125q-0.84375 -0.703125 -0.84375 -1.890625q0 -1.75 1.234375 -2.625q1.25 -0.890625 3.5625 -0.890625z" fill-rule="nonzero"/><path fill="#000000" fill-opacity="0.0" d="m286.28595 77.65628l86.897644 81.16536" fill-rule="evenodd"/><path stroke="#000000" stroke-width="1.0" stroke-linejoin="round" stroke-linecap="butt" d="m286.28595 77.65629l84.3931 78.82604" fill-rule="evenodd"/><path fill="#000000" stroke="#000000" stroke-width="1.0" stroke-linecap="butt" d="m370.67905 156.48233l-1.5894775 0.054214478l3.0256348 1.2872009l-1.4903564 -2.930893z" fill-rule="evenodd"/><path fill="#000000" fill-opacity="0.0" d="m286.27362 158.83546l86.897644 0" fill-rule="evenodd"/><path stroke="#000000" stroke-width="1.0" stroke-linejoin="round" stroke-linecap="butt" d="m286.27362 158.83546l83.47055 0" fill-rule="evenodd"/><path fill="#000000" stroke="#000000" stroke-width="1.0" stroke-linecap="butt" d="m369.74417 158.83546l-1.1245728 1.124588l3.0897522 -1.124588l-3.0897522 -1.124588z" fill-rule="evenodd"/><path fill="#000000" fill-opacity="0.0" d="m286.27362 255.55988l86.897644 -96.72441" fill-rule="evenodd"/><path stroke="#000000" stroke-width="1.0" stroke-linejoin="round" stroke-linecap="butt" d="m286.27362 255.55988l84.6073 -94.17505" fill-rule="evenodd"/><path fill="#000000" stroke="#000000" stroke-width="1.0" stroke-linecap="butt" d="m370.88092 161.38483l0.084991455 1.5881195l1.2283325 -3.0499878l-2.9014587 1.5468597z" fill-rule="evenodd"/><path fill="#000000" fill-opacity="0.0" d="m286.27362 359.18192l86.897644 -200.34645" fill-rule="evenodd"/><path stroke="#000000" stroke-width="1.0" stroke-linejoin="round" stroke-linecap="butt" d="m286.27362 359.18192l85.533905 -197.20236" fill-rule="evenodd"/><path fill="#000000" stroke="#000000" stroke-width="1.0" stroke-linecap="butt" d="m371.80756 161.97954l0.5842285 1.4792175l0.1977539 -3.2821045l-2.2612 2.3871155z" fill-rule="evenodd"/><path fill="#000000" fill-opacity="0.0" d="m286.27362 512.1583l211.87402 -318.5197" fill-rule="evenodd"/><path stroke="#000000" stroke-width="1.0" stroke-linejoin="round" stroke-linecap="butt" d="m286.27362 512.1583l209.97592 -315.66626" fill-rule="evenodd"/><path fill="#000000" stroke="#000000" stroke-width="1.0" stroke-linecap="butt" d="m496.24957 196.49208l0.31350708 1.5591888l0.77490234 -3.1954498l-2.6476135 1.9497681z" fill-rule="evenodd"/><path fill="#000000" fill-opacity="0.0" d="m623.14166 158.83546l86.897644 0" fill-rule="evenodd"/><path stroke="#000000" stroke-width="1.0" stroke-linejoin="round" stroke-linecap="butt" d="m623.14166 158.83546l83.47052 0" fill-rule="evenodd"/><path fill="#000000" stroke="#000000" stroke-width="1.0" stroke-linecap="butt" d="m706.6122 158.83546l-1.1245728 1.124588l3.0897827 -1.124588l-3.0897827 -1.124588z" fill-rule="evenodd"/><path fill="#000000" fill-opacity="0.0" d="m835.0157 470.4059l0 -276.7559" fill-rule="evenodd"/><path stroke="#000000" stroke-width="1.0" stroke-linejoin="round" stroke-linecap="butt" d="m835.0157 470.4059l0 -273.3288" fill-rule="evenodd"/><path fill="#000000" stroke="#000000" stroke-width="1.0" stroke-linecap="butt" d="m835.0157 197.0771l1.1245728 1.124588l-1.1245728 -3.0897675l-1.1246338 3.0897675z" fill-rule="evenodd"/></g></svg>
