<svg width="321" height="458" viewBox="0 0 321 458" fill="none" xmlns="http://www.w3.org/2000/svg">
<rect width="321" height="458" fill="#F5F5F5"/>
<path d="M102.778 25H98.1378V11.9091H102.817C104.134 11.9091 105.267 12.1712 106.217 12.6953C107.168 13.2152 107.898 13.9631 108.41 14.9389C108.925 15.9148 109.183 17.0824 109.183 18.4418C109.183 19.8054 108.925 20.9773 108.41 21.9574C107.898 22.9375 107.163 23.6896 106.205 24.2138C105.25 24.7379 104.108 25 102.778 25ZM100.906 22.6286H102.663C103.482 22.6286 104.17 22.4837 104.728 22.1939C105.29 21.8999 105.712 21.446 105.994 20.8324C106.279 20.2145 106.422 19.4176 106.422 18.4418C106.422 17.4744 106.279 16.6839 105.994 16.0703C105.712 15.4567 105.293 15.005 104.734 14.7152C104.176 14.4254 103.488 14.2805 102.67 14.2805H100.906V22.6286ZM113.982 25.1854C113.356 25.1854 112.797 25.0767 112.307 24.8594C111.817 24.6378 111.43 24.3118 111.144 23.8814C110.863 23.4467 110.722 22.9055 110.722 22.2578C110.722 21.7124 110.822 21.2543 111.023 20.8835C111.223 20.5128 111.496 20.2145 111.841 19.9886C112.186 19.7628 112.578 19.5923 113.017 19.4773C113.46 19.3622 113.925 19.2812 114.41 19.2344C114.981 19.1747 115.442 19.1193 115.791 19.0682C116.14 19.0128 116.394 18.9318 116.552 18.8253C116.709 18.7187 116.788 18.5611 116.788 18.3523V18.3139C116.788 17.9091 116.66 17.5959 116.405 17.3743C116.153 17.1527 115.795 17.0419 115.331 17.0419C114.841 17.0419 114.451 17.1506 114.161 17.3679C113.871 17.581 113.68 17.8494 113.586 18.1733L111.067 17.9688C111.195 17.3722 111.447 16.8565 111.822 16.4219C112.197 15.983 112.68 15.6463 113.273 15.4119C113.869 15.1733 114.559 15.054 115.344 15.054C115.889 15.054 116.411 15.1179 116.91 15.2457C117.412 15.3736 117.858 15.5717 118.246 15.8402C118.638 16.1087 118.947 16.4538 119.172 16.8757C119.398 17.2933 119.511 17.794 119.511 18.3778V25H116.929V23.6385H116.852C116.694 23.9453 116.483 24.2159 116.219 24.4503C115.955 24.6804 115.638 24.8615 115.267 24.9936C114.896 25.1214 114.468 25.1854 113.982 25.1854ZM114.762 23.3061C115.162 23.3061 115.516 23.2273 115.823 23.0696C116.13 22.9077 116.371 22.6903 116.545 22.4176C116.72 22.1449 116.807 21.8359 116.807 21.4908V20.4489C116.722 20.5043 116.605 20.5554 116.456 20.6023C116.311 20.6449 116.147 20.6854 115.964 20.7237C115.78 20.7578 115.597 20.7898 115.414 20.8196C115.231 20.8452 115.064 20.8686 114.915 20.8899C114.596 20.9368 114.317 21.0114 114.078 21.1136C113.839 21.2159 113.654 21.3544 113.522 21.5291C113.39 21.6996 113.324 21.9126 113.324 22.1683C113.324 22.5391 113.458 22.8224 113.726 23.0185C113.999 23.2102 114.344 23.3061 114.762 23.3061ZM126.846 15.1818V17.2273H120.933V15.1818H126.846ZM122.276 12.8295H124.999V21.983C124.999 22.2344 125.037 22.4304 125.114 22.571C125.191 22.7074 125.297 22.8033 125.433 22.8587C125.574 22.9141 125.736 22.9418 125.919 22.9418C126.047 22.9418 126.175 22.9311 126.303 22.9098C126.431 22.8842 126.529 22.8651 126.597 22.8523L127.025 24.8786C126.889 24.9212 126.697 24.9702 126.45 25.0256C126.203 25.0852 125.902 25.1214 125.548 25.1342C124.892 25.1598 124.317 25.0724 123.823 24.8722C123.333 24.6719 122.951 24.3608 122.678 23.9389C122.406 23.517 122.271 22.9844 122.276 22.3409V12.8295ZM131.42 25.1854C130.793 25.1854 130.235 25.0767 129.745 24.8594C129.255 24.6378 128.867 24.3118 128.581 23.8814C128.3 23.4467 128.16 22.9055 128.16 22.2578C128.16 21.7124 128.26 21.2543 128.46 20.8835C128.66 20.5128 128.933 20.2145 129.278 19.9886C129.623 19.7628 130.015 19.5923 130.454 19.4773C130.898 19.3622 131.362 19.2812 131.848 19.2344C132.419 19.1747 132.879 19.1193 133.229 19.0682C133.578 19.0128 133.831 18.9318 133.989 18.8253C134.147 18.7187 134.226 18.5611 134.226 18.3523V18.3139C134.226 17.9091 134.098 17.5959 133.842 17.3743C133.591 17.1527 133.233 17.0419 132.768 17.0419C132.278 17.0419 131.888 17.1506 131.599 17.3679C131.309 17.581 131.117 17.8494 131.023 18.1733L128.505 17.9688C128.633 17.3722 128.884 16.8565 129.259 16.4219C129.634 15.983 130.118 15.6463 130.71 15.4119C131.307 15.1733 131.997 15.054 132.781 15.054C133.327 15.054 133.849 15.1179 134.347 15.2457C134.85 15.3736 135.295 15.5717 135.683 15.8402C136.075 16.1087 136.384 16.4538 136.61 16.8757C136.836 17.2933 136.949 17.794 136.949 18.3778V25H134.366V23.6385H134.29C134.132 23.9453 133.921 24.2159 133.657 24.4503C133.393 24.6804 133.075 24.8615 132.704 24.9936C132.334 25.1214 131.905 25.1854 131.42 25.1854ZM132.199 23.3061C132.6 23.3061 132.954 23.2273 133.26 23.0696C133.567 22.9077 133.808 22.6903 133.983 22.4176C134.157 22.1449 134.245 21.8359 134.245 21.4908V20.4489C134.16 20.5043 134.042 20.5554 133.893 20.6023C133.748 20.6449 133.584 20.6854 133.401 20.7237C133.218 20.7578 133.035 20.7898 132.851 20.8196C132.668 20.8452 132.502 20.8686 132.353 20.8899C132.033 20.9368 131.754 21.0114 131.515 21.1136C131.277 21.2159 131.091 21.3544 130.959 21.5291C130.827 21.6996 130.761 21.9126 130.761 22.1683C130.761 22.5391 130.895 22.8224 131.164 23.0185C131.437 23.2102 131.782 23.3061 132.199 23.3061ZM154.829 16.4922H152.029C151.978 16.13 151.874 15.8082 151.716 15.527C151.558 15.2415 151.356 14.9986 151.109 14.7983C150.862 14.598 150.576 14.4446 150.252 14.3381C149.933 14.2315 149.585 14.1783 149.21 14.1783C148.533 14.1783 147.942 14.3466 147.44 14.6832C146.937 15.0156 146.547 15.5014 146.27 16.1406C145.993 16.7756 145.854 17.5469 145.854 18.4545C145.854 19.3878 145.993 20.1719 146.27 20.8068C146.551 21.4418 146.943 21.9212 147.446 22.245C147.949 22.5689 148.531 22.7308 149.191 22.7308C149.562 22.7308 149.905 22.6818 150.22 22.5838C150.54 22.4858 150.823 22.343 151.07 22.1555C151.317 21.9638 151.522 21.7315 151.684 21.4588C151.85 21.1861 151.965 20.875 152.029 20.5256L154.829 20.5384C154.756 21.1392 154.575 21.7188 154.286 22.277C154 22.831 153.614 23.3274 153.129 23.7663C152.647 24.201 152.072 24.5462 151.403 24.8018C150.738 25.0533 149.986 25.179 149.146 25.179C147.979 25.179 146.935 24.9148 146.014 24.3864C145.098 23.858 144.374 23.093 143.841 22.0916C143.312 21.0902 143.048 19.8778 143.048 18.4545C143.048 17.027 143.317 15.8125 143.854 14.8111C144.391 13.8097 145.119 13.0469 146.04 12.5227C146.96 11.9943 147.996 11.7301 149.146 11.7301C149.905 11.7301 150.608 11.8366 151.256 12.0497C151.908 12.2628 152.485 12.5739 152.988 12.983C153.491 13.3878 153.9 13.8842 154.215 14.4723C154.535 15.0604 154.739 15.7337 154.829 16.4922ZM161.199 25.1918C160.206 25.1918 159.347 24.9808 158.623 24.5589C157.902 24.1328 157.346 23.5405 156.954 22.782C156.562 22.0192 156.366 21.1349 156.366 20.1293C156.366 19.1151 156.562 18.2287 156.954 17.4702C157.346 16.7074 157.902 16.1151 158.623 15.6932C159.347 15.267 160.206 15.054 161.199 15.054C162.191 15.054 163.048 15.267 163.768 15.6932C164.493 16.1151 165.051 16.7074 165.443 17.4702C165.835 18.2287 166.031 19.1151 166.031 20.1293C166.031 21.1349 165.835 22.0192 165.443 22.782C165.051 23.5405 164.493 24.1328 163.768 24.5589C163.048 24.9808 162.191 25.1918 161.199 25.1918ZM161.211 23.0824C161.663 23.0824 162.04 22.9545 162.343 22.6989C162.645 22.4389 162.873 22.0852 163.027 21.6378C163.184 21.1903 163.263 20.6811 163.263 20.1101C163.263 19.5391 163.184 19.0298 163.027 18.5824C162.873 18.1349 162.645 17.7812 162.343 17.5213C162.04 17.2614 161.663 17.1314 161.211 17.1314C160.755 17.1314 160.372 17.2614 160.061 17.5213C159.754 17.7812 159.522 18.1349 159.364 18.5824C159.211 19.0298 159.134 19.5391 159.134 20.1101C159.134 20.6811 159.211 21.1903 159.364 21.6378C159.522 22.0852 159.754 22.4389 160.061 22.6989C160.372 22.9545 160.755 23.0824 161.211 23.0824ZM170.525 11.9091V25H167.801V11.9091H170.525ZM175.429 11.9091V25H172.706V11.9091H175.429ZM182.085 25.1918C181.075 25.1918 180.205 24.9872 179.477 24.5781C178.752 24.1648 178.194 23.581 177.802 22.8267C177.41 22.0682 177.214 21.1712 177.214 20.1357C177.214 19.1257 177.41 18.2393 177.802 17.4766C178.194 16.7138 178.746 16.1193 179.457 15.6932C180.173 15.267 181.013 15.054 181.976 15.054C182.624 15.054 183.227 15.1584 183.785 15.3672C184.347 15.5717 184.837 15.8807 185.255 16.294C185.677 16.7074 186.005 17.2273 186.239 17.8537C186.474 18.4759 186.591 19.2045 186.591 20.0398V20.7876H178.3V19.1001H184.028C184.028 18.7081 183.942 18.3608 183.772 18.0582C183.602 17.7557 183.365 17.5192 183.062 17.3487C182.764 17.174 182.417 17.0866 182.021 17.0866C181.607 17.0866 181.241 17.1825 180.921 17.3743C180.606 17.5618 180.359 17.8153 180.18 18.1349C180.001 18.4503 179.909 18.8018 179.905 19.1896V20.794C179.905 21.2798 179.994 21.6996 180.173 22.0533C180.357 22.407 180.614 22.6797 180.947 22.8714C181.279 23.0632 181.673 23.1591 182.129 23.1591C182.432 23.1591 182.709 23.1165 182.96 23.0312C183.212 22.946 183.427 22.8182 183.606 22.6477C183.785 22.4773 183.921 22.2685 184.015 22.0213L186.533 22.1875C186.406 22.7926 186.143 23.321 185.747 23.7727C185.355 24.2202 184.848 24.5696 184.226 24.821C183.608 25.0682 182.894 25.1918 182.085 25.1918ZM192.804 25.1918C191.798 25.1918 190.933 24.9787 190.209 24.5526C189.489 24.1222 188.935 23.5256 188.547 22.7628C188.163 22 187.972 21.1222 187.972 20.1293C187.972 19.1236 188.165 18.2415 188.553 17.483C188.945 16.7202 189.501 16.1257 190.222 15.6996C190.942 15.2692 191.798 15.054 192.791 15.054C193.648 15.054 194.398 15.2095 195.041 15.5206C195.685 15.8317 196.194 16.2685 196.569 16.831C196.944 17.3935 197.151 18.054 197.189 18.8125H194.619C194.547 18.3224 194.355 17.9283 194.044 17.63C193.737 17.3274 193.335 17.1761 192.836 17.1761C192.414 17.1761 192.045 17.2912 191.73 17.5213C191.419 17.7472 191.176 18.0774 191.001 18.5121C190.827 18.9467 190.739 19.473 190.739 20.0909C190.739 20.7173 190.825 21.25 190.995 21.6889C191.17 22.1278 191.415 22.4624 191.73 22.6925C192.045 22.9226 192.414 23.0376 192.836 23.0376C193.147 23.0376 193.426 22.9737 193.673 22.8459C193.925 22.718 194.131 22.5327 194.293 22.2898C194.46 22.0426 194.568 21.7464 194.619 21.4013H197.189C197.146 22.1513 196.942 22.8118 196.575 23.3828C196.213 23.9496 195.712 24.3928 195.073 24.7124C194.434 25.032 193.678 25.1918 192.804 25.1918ZM204.155 15.1818V17.2273H198.242V15.1818H204.155ZM199.584 12.8295H202.307V21.983C202.307 22.2344 202.346 22.4304 202.422 22.571C202.499 22.7074 202.606 22.8033 202.742 22.8587C202.883 22.9141 203.045 22.9418 203.228 22.9418C203.356 22.9418 203.483 22.9311 203.611 22.9098C203.739 22.8842 203.837 22.8651 203.905 22.8523L204.334 24.8786C204.197 24.9212 204.006 24.9702 203.758 25.0256C203.511 25.0852 203.211 25.1214 202.857 25.1342C202.201 25.1598 201.626 25.0724 201.131 24.8722C200.641 24.6719 200.26 24.3608 199.987 23.9389C199.714 23.517 199.58 22.9844 199.584 22.3409V12.8295ZM205.928 25V15.1818H208.651V25H205.928ZM207.296 13.9162C206.892 13.9162 206.544 13.782 206.254 13.5135C205.969 13.2408 205.826 12.9148 205.826 12.5355C205.826 12.1605 205.969 11.8388 206.254 11.5703C206.544 11.2976 206.892 11.1612 207.296 11.1612C207.701 11.1612 208.046 11.2976 208.332 11.5703C208.622 11.8388 208.767 12.1605 208.767 12.5355C208.767 12.9148 208.622 13.2408 208.332 13.5135C208.046 13.782 207.701 13.9162 207.296 13.9162ZM215.269 25.1918C214.276 25.1918 213.417 24.9808 212.693 24.5589C211.973 24.1328 211.417 23.5405 211.025 22.782C210.632 22.0192 210.436 21.1349 210.436 20.1293C210.436 19.1151 210.632 18.2287 211.025 17.4702C211.417 16.7074 211.973 16.1151 212.693 15.6932C213.417 15.267 214.276 15.054 215.269 15.054C216.262 15.054 217.118 15.267 217.838 15.6932C218.563 16.1151 219.121 16.7074 219.513 17.4702C219.905 18.2287 220.101 19.1151 220.101 20.1293C220.101 21.1349 219.905 22.0192 219.513 22.782C219.121 23.5405 218.563 24.1328 217.838 24.5589C217.118 24.9808 216.262 25.1918 215.269 25.1918ZM215.282 23.0824C215.733 23.0824 216.11 22.9545 216.413 22.6989C216.716 22.4389 216.944 22.0852 217.097 21.6378C217.255 21.1903 217.333 20.6811 217.333 20.1101C217.333 19.5391 217.255 19.0298 217.097 18.5824C216.944 18.1349 216.716 17.7812 216.413 17.5213C216.11 17.2614 215.733 17.1314 215.282 17.1314C214.826 17.1314 214.442 17.2614 214.131 17.5213C213.824 17.7812 213.592 18.1349 213.434 18.5824C213.281 19.0298 213.204 19.5391 213.204 20.1101C213.204 20.6811 213.281 21.1903 213.434 21.6378C213.592 22.0852 213.824 22.4389 214.131 22.6989C214.442 22.9545 214.826 23.0824 215.282 23.0824ZM224.595 19.3239V25H221.872V15.1818H224.467V16.9141H224.582C224.799 16.343 225.164 15.8913 225.675 15.5589C226.186 15.2223 226.806 15.054 227.535 15.054C228.217 15.054 228.811 15.2031 229.319 15.5014C229.826 15.7997 230.22 16.2259 230.501 16.7798C230.782 17.3295 230.923 17.9858 230.923 18.7486V25H228.2V19.2344C228.204 18.6335 228.051 18.1648 227.74 17.8281C227.429 17.4872 227 17.3168 226.455 17.3168C226.088 17.3168 225.765 17.3956 225.483 17.5533C225.206 17.7109 224.989 17.9411 224.831 18.2436C224.678 18.5419 224.599 18.902 224.595 19.3239Z" fill="black"/>
<rect x="75.5" y="0.5" width="178" height="35" stroke="black"/>
<path d="M309.091 147.138L309.091 150.551L300.295 154.156L300.295 154.31L309.091 157.915L309.091 161.328L296 161.328L296 158.643L304.521 158.643L304.521 158.535L296.064 155.147L296.064 153.319L304.553 149.931L304.553 149.822L296 149.822L296 147.138L309.091 147.138ZM295.808 168.032C295.808 167.022 296.013 166.153 296.422 165.424C296.835 164.699 297.419 164.141 298.173 163.749C298.932 163.357 299.829 163.161 300.864 163.161C301.874 163.161 302.761 163.357 303.523 163.749C304.286 164.141 304.881 164.693 305.307 165.405C305.733 166.121 305.946 166.96 305.946 167.923C305.946 168.571 305.842 169.174 305.633 169.732C305.428 170.295 305.119 170.785 304.706 171.202C304.293 171.624 303.773 171.952 303.146 172.187C302.524 172.421 301.795 172.538 300.96 172.538L300.212 172.538L300.212 164.248L301.9 164.248L301.9 169.975C302.292 169.975 302.639 169.89 302.942 169.719C303.244 169.549 303.481 169.312 303.651 169.01C303.826 168.711 303.913 168.364 303.913 167.968C303.913 167.555 303.817 167.188 303.626 166.868C303.438 166.553 303.185 166.306 302.865 166.127C302.55 165.948 302.198 165.856 301.81 165.852L300.206 165.852C299.72 165.852 299.3 165.942 298.947 166.121C298.593 166.304 298.32 166.562 298.129 166.894C297.937 167.226 297.841 167.621 297.841 168.077C297.841 168.379 297.884 168.656 297.969 168.907C298.054 169.159 298.182 169.374 298.352 169.553C298.523 169.732 298.732 169.868 298.979 169.962L298.812 172.481C298.207 172.353 297.679 172.091 297.227 171.694C296.78 171.302 296.43 170.795 296.179 170.173C295.932 169.555 295.808 168.841 295.808 168.032ZM296 174.315L305.818 174.315L305.818 176.91L304.086 176.91L304.086 177.025C304.661 177.23 305.115 177.571 305.447 178.048C305.78 178.525 305.946 179.096 305.946 179.761C305.946 180.434 305.778 181.008 305.441 181.481C305.109 181.954 304.657 182.269 304.086 182.427L304.086 182.529C304.648 182.729 305.098 183.091 305.435 183.616C305.776 184.144 305.946 184.768 305.946 185.488C305.946 186.405 305.654 187.148 305.07 187.719C304.491 188.295 303.668 188.582 302.603 188.582L296 188.582L296 185.866L302.066 185.866C302.612 185.866 303.021 185.721 303.293 185.431C303.566 185.141 303.702 184.779 303.702 184.344C303.702 183.85 303.545 183.464 303.229 183.187C302.918 182.91 302.507 182.772 301.996 182.772L296 182.772L296 180.132L302.124 180.132C302.605 180.132 302.989 179.993 303.274 179.716C303.56 179.444 303.702 179.084 303.702 178.636C303.702 178.334 303.626 178.061 303.472 177.818C303.323 177.579 303.112 177.39 302.839 177.249C302.571 177.108 302.256 177.038 301.893 177.038L296 177.038L296 174.315ZM295.808 195.169C295.808 194.176 296.019 193.318 296.441 192.593C296.867 191.873 297.46 191.317 298.218 190.925C298.981 190.533 299.865 190.337 300.871 190.337C301.885 190.337 302.771 190.533 303.53 190.925C304.293 191.317 304.885 191.873 305.307 192.593C305.733 193.318 305.946 194.176 305.946 195.169C305.946 196.162 305.733 197.019 305.307 197.739C304.885 198.463 304.293 199.021 303.53 199.414C302.771 199.806 301.885 200.002 300.871 200.002C299.865 200.002 298.981 199.806 298.218 199.414C297.46 199.021 296.867 198.463 296.441 197.739C296.019 197.019 295.808 196.162 295.808 195.169ZM297.918 195.182C297.918 195.634 298.045 196.011 298.301 196.313C298.561 196.616 298.915 196.844 299.362 196.997C299.81 197.155 300.319 197.234 300.89 197.234C301.461 197.234 301.97 197.155 302.418 196.997C302.865 196.844 303.219 196.616 303.479 196.313C303.739 196.011 303.869 195.634 303.869 195.182C303.869 194.726 303.739 194.343 303.479 194.031C303.219 193.725 302.865 193.492 302.418 193.335C301.97 193.181 301.461 193.105 300.89 193.105C300.319 193.105 299.81 193.181 299.362 193.335C298.915 193.492 298.561 193.725 298.301 194.031C298.045 194.343 297.918 194.726 297.918 195.182ZM296 201.772L305.818 201.772L305.818 204.495L296 204.495L296 201.772ZM307.084 203.14C307.084 202.735 307.218 202.388 307.487 202.098C307.759 201.813 308.085 201.67 308.464 201.67C308.839 201.67 309.161 201.813 309.43 202.098C309.702 202.388 309.839 202.735 309.839 203.14C309.839 203.545 309.702 203.89 309.43 204.176C309.161 204.465 308.839 204.61 308.464 204.61C308.085 204.61 307.759 204.465 307.487 204.176C307.218 203.89 307.084 203.545 307.084 203.14ZM301.676 209.4L296 209.4L296 206.676L305.818 206.676L305.818 209.272L304.086 209.272L304.086 209.387C304.657 209.604 305.109 209.968 305.441 210.48C305.778 210.991 305.946 211.611 305.946 212.34C305.946 213.022 305.797 213.616 305.499 214.123C305.2 214.63 304.774 215.025 304.22 215.306C303.67 215.587 303.014 215.728 302.251 215.728L296 215.728L296 213.005L301.766 213.005C302.366 213.009 302.835 212.855 303.172 212.544C303.513 212.233 303.683 211.805 303.683 211.26C303.683 210.893 303.604 210.569 303.447 210.288C303.289 210.011 303.059 209.794 302.756 209.636C302.458 209.483 302.098 209.404 301.676 209.4ZM292.114 222.297C292.114 221.415 292.235 220.659 292.478 220.028C292.717 219.401 293.043 218.903 293.456 218.532C293.869 218.161 294.334 217.921 294.849 217.81L295.188 220.328C294.992 220.405 294.809 220.526 294.638 220.693C294.468 220.859 294.332 221.078 294.229 221.351C294.123 221.628 294.07 221.965 294.07 222.361C294.07 222.953 294.214 223.441 294.504 223.825C294.79 224.213 295.269 224.406 295.942 224.406L297.739 224.406L297.739 224.291C297.466 224.172 297.208 223.993 296.965 223.754C296.722 223.516 296.524 223.209 296.371 222.834C296.217 222.459 296.141 222.012 296.141 221.492C296.141 220.754 296.311 220.083 296.652 219.478C296.997 218.877 297.523 218.398 298.231 218.04C298.942 217.686 299.842 217.509 300.928 217.509C302.04 217.509 302.969 217.691 303.715 218.053C304.461 218.415 305.019 218.896 305.39 219.497C305.761 220.102 305.946 220.765 305.946 221.485C305.946 222.035 305.852 222.495 305.665 222.866C305.482 223.237 305.251 223.535 304.974 223.761C304.702 223.991 304.433 224.168 304.169 224.291L304.169 224.394L305.818 224.394L305.818 227.097L295.904 227.097C295.069 227.097 294.37 226.893 293.808 226.484C293.245 226.075 292.823 225.508 292.542 224.784C292.256 224.063 292.114 223.235 292.114 222.297ZM298.186 222.355C298.186 222.794 298.295 223.164 298.512 223.467C298.734 223.774 299.049 224.008 299.458 224.17C299.871 224.336 300.366 224.419 300.941 224.419C301.516 224.419 302.015 224.338 302.437 224.176C302.863 224.014 303.193 223.78 303.428 223.473C303.662 223.166 303.779 222.794 303.779 222.355C303.779 221.907 303.658 221.53 303.415 221.223C303.176 220.916 302.844 220.684 302.418 220.526C301.991 220.369 301.499 220.29 300.941 220.29C300.374 220.29 299.884 220.369 299.471 220.526C299.062 220.688 298.744 220.921 298.518 221.223C298.297 221.53 298.186 221.907 298.186 222.355Z" fill="black"/>
<rect x="320.5" y="98.5" width="178" height="35" transform="rotate(90 320.5 98.5)" stroke="black"/>
<path d="M25 249.713V254.353H11.9091V249.674C11.9091 248.358 12.1712 247.224 12.6953 246.274C13.2152 245.324 13.9631 244.593 14.9389 244.081C15.9148 243.566 17.0824 243.308 18.4418 243.308C19.8054 243.308 20.9773 243.566 21.9574 244.081C22.9375 244.593 23.6896 245.328 24.2138 246.287C24.7379 247.241 25 248.383 25 249.713ZM22.6286 251.586V249.828C22.6286 249.01 22.4837 248.321 22.1939 247.763C21.8999 247.201 21.446 246.779 20.8324 246.498C20.2145 246.212 19.4176 246.069 18.4418 246.069C17.4744 246.069 16.6839 246.212 16.0703 246.498C15.4567 246.779 15.005 247.199 14.7152 247.757C14.4254 248.315 14.2805 249.003 14.2805 249.821V251.586H22.6286ZM25.1854 238.509C25.1854 239.136 25.0767 239.694 24.8594 240.184C24.6378 240.674 24.3118 241.062 23.8814 241.347C23.4467 241.628 22.9055 241.769 22.2578 241.769C21.7124 241.769 21.2543 241.669 20.8835 241.469C20.5128 241.268 20.2145 240.996 19.9886 240.65C19.7628 240.305 19.5923 239.913 19.4773 239.474C19.3622 239.031 19.2812 238.567 19.2344 238.081C19.1747 237.51 19.1193 237.05 19.0682 236.7C19.0128 236.351 18.9318 236.097 18.8253 235.94C18.7187 235.782 18.5611 235.703 18.3523 235.703H18.3139C17.9091 235.703 17.5959 235.831 17.3743 236.087C17.1527 236.338 17.0419 236.696 17.0419 237.16C17.0419 237.65 17.1506 238.04 17.3679 238.33C17.581 238.62 17.8494 238.812 18.1733 238.905L17.9688 241.424C17.3722 241.296 16.8565 241.045 16.4219 240.67C15.983 240.295 15.6463 239.811 15.4119 239.219C15.1733 238.622 15.054 237.932 15.054 237.148C15.054 236.602 15.1179 236.08 15.2457 235.582C15.3736 235.079 15.5717 234.633 15.8402 234.246C16.1087 233.854 16.4538 233.545 16.8757 233.319C17.2933 233.093 17.794 232.98 18.3778 232.98H25V235.562H23.6385V235.639C23.9453 235.797 24.2159 236.008 24.4503 236.272C24.6804 236.536 24.8615 236.854 24.9936 237.224C25.1214 237.595 25.1854 238.023 25.1854 238.509ZM23.3061 237.729C23.3061 237.329 23.2273 236.975 23.0696 236.668C22.9077 236.361 22.6903 236.121 22.4176 235.946C22.1449 235.771 21.8359 235.684 21.4908 235.684H20.4489C20.5043 235.769 20.5554 235.886 20.6023 236.035C20.6449 236.18 20.6854 236.344 20.7237 236.528C20.7578 236.711 20.7898 236.894 20.8196 237.077C20.8452 237.261 20.8686 237.427 20.8899 237.576C20.9368 237.896 21.0114 238.175 21.1136 238.413C21.2159 238.652 21.3544 238.837 21.5291 238.969C21.6996 239.101 21.9126 239.168 22.1683 239.168C22.5391 239.168 22.8224 239.033 23.0185 238.765C23.2102 238.492 23.3061 238.147 23.3061 237.729ZM15.1818 225.645H17.2273V231.558H15.1818V225.645ZM12.8295 230.215V227.492H21.983C22.2344 227.492 22.4304 227.454 22.571 227.377C22.7074 227.301 22.8033 227.194 22.8587 227.058C22.9141 226.917 22.9418 226.755 22.9418 226.572C22.9418 226.444 22.9311 226.316 22.9098 226.188C22.8842 226.061 22.8651 225.963 22.8523 225.894L24.8786 225.466C24.9212 225.603 24.9702 225.794 25.0256 226.041C25.0852 226.289 25.1214 226.589 25.1342 226.943C25.1598 227.599 25.0724 228.174 24.8722 228.669C24.6719 229.159 24.3608 229.54 23.9389 229.813C23.517 230.085 22.9844 230.22 22.3409 230.215H12.8295ZM25.1854 221.072C25.1854 221.698 25.0767 222.256 24.8594 222.746C24.6378 223.236 24.3118 223.624 23.8814 223.91C23.4467 224.191 22.9055 224.332 22.2578 224.332C21.7124 224.332 21.2543 224.231 20.8835 224.031C20.5128 223.831 20.2145 223.558 19.9886 223.213C19.7628 222.868 19.5923 222.476 19.4773 222.037C19.3622 221.594 19.2812 221.129 19.2344 220.643C19.1747 220.072 19.1193 219.612 19.0682 219.263C19.0128 218.913 18.9318 218.66 18.8253 218.502C18.7187 218.344 18.5611 218.266 18.3523 218.266H18.3139C17.9091 218.266 17.5959 218.393 17.3743 218.649C17.1527 218.9 17.0419 219.258 17.0419 219.723C17.0419 220.213 17.1506 220.603 17.3679 220.893C17.581 221.182 17.8494 221.374 18.1733 221.468L17.9688 223.986C17.3722 223.859 16.8565 223.607 16.4219 223.232C15.983 222.857 15.6463 222.373 15.4119 221.781C15.1733 221.185 15.054 220.494 15.054 219.71C15.054 219.165 15.1179 218.643 15.2457 218.144C15.3736 217.641 15.5717 217.196 15.8402 216.808C16.1087 216.416 16.4538 216.107 16.8757 215.881C17.2933 215.655 17.794 215.543 18.3778 215.543H25V218.125H23.6385V218.202C23.9453 218.359 24.2159 218.57 24.4503 218.834C24.6804 219.099 24.8615 219.416 24.9936 219.787C25.1214 220.158 25.1854 220.586 25.1854 221.072ZM23.3061 220.292C23.3061 219.891 23.2273 219.538 23.0696 219.231C22.9077 218.924 22.6903 218.683 22.4176 218.508C22.1449 218.334 21.8359 218.246 21.4908 218.246H20.4489C20.5043 218.332 20.5554 218.449 20.6023 218.598C20.6449 218.743 20.6854 218.907 20.7237 219.09C20.7578 219.273 20.7898 219.457 20.8196 219.64C20.8452 219.823 20.8686 219.989 20.8899 220.138C20.9368 220.458 21.0114 220.737 21.1136 220.976C21.2159 221.214 21.3544 221.4 21.5291 221.532C21.6996 221.664 21.9126 221.73 22.1683 221.73C22.5391 221.73 22.8224 221.596 23.0185 221.327C23.2102 221.055 23.3061 220.709 23.3061 220.292ZM16.4922 197.662V200.462C16.13 200.513 15.8082 200.618 15.527 200.775C15.2415 200.933 14.9986 201.135 14.7983 201.383C14.598 201.63 14.4446 201.915 14.3381 202.239C14.2315 202.559 14.1783 202.906 14.1783 203.281C14.1783 203.959 14.3466 204.549 14.6832 205.052C15.0156 205.554 15.5014 205.944 16.1406 206.221C16.7756 206.498 17.5469 206.637 18.4545 206.637C19.3878 206.637 20.1719 206.498 20.8068 206.221C21.4418 205.94 21.9212 205.548 22.245 205.045C22.5689 204.542 22.7308 203.961 22.7308 203.3C22.7308 202.929 22.6818 202.586 22.5838 202.271C22.4858 201.951 22.343 201.668 22.1555 201.421C21.9638 201.174 21.7315 200.969 21.4588 200.807C21.1861 200.641 20.875 200.526 20.5256 200.462L20.5384 197.662C21.1392 197.735 21.7188 197.916 22.277 198.206C22.831 198.491 23.3274 198.877 23.7663 199.363C24.201 199.844 24.5462 200.419 24.8018 201.089C25.0533 201.753 25.179 202.505 25.179 203.345C25.179 204.513 24.9148 205.557 24.3864 206.477C23.858 207.393 23.093 208.118 22.0916 208.65C21.0902 209.179 19.8778 209.443 18.4545 209.443C17.027 209.443 15.8125 209.174 14.8111 208.638C13.8097 208.101 13.0469 207.372 12.5227 206.451C11.9943 205.531 11.7301 204.495 11.7301 203.345C11.7301 202.586 11.8366 201.883 12.0497 201.236C12.2628 200.584 12.5739 200.006 12.983 199.503C13.3878 199 13.8842 198.591 14.4723 198.276C15.0604 197.956 15.7337 197.752 16.4922 197.662ZM25.1918 191.293C25.1918 192.286 24.9808 193.144 24.5589 193.869C24.1328 194.589 23.5405 195.145 22.782 195.537C22.0192 195.929 21.1349 196.125 20.1293 196.125C19.1151 196.125 18.2287 195.929 17.4702 195.537C16.7074 195.145 16.1151 194.589 15.6932 193.869C15.267 193.144 15.054 192.286 15.054 191.293C15.054 190.3 15.267 189.443 15.6932 188.723C16.1151 187.999 16.7074 187.44 17.4702 187.048C18.2287 186.656 19.1151 186.46 20.1293 186.46C21.1349 186.46 22.0192 186.656 22.782 187.048C23.5405 187.44 24.1328 187.999 24.5589 188.723C24.9808 189.443 25.1918 190.3 25.1918 191.293ZM23.0824 191.28C23.0824 190.828 22.9545 190.451 22.6989 190.149C22.4389 189.846 22.0852 189.618 21.6378 189.465C21.1903 189.307 20.6811 189.228 20.1101 189.228C19.5391 189.228 19.0298 189.307 18.5824 189.465C18.1349 189.618 17.7812 189.846 17.5213 190.149C17.2614 190.451 17.1314 190.828 17.1314 191.28C17.1314 191.736 17.2614 192.119 17.5213 192.43C17.7812 192.737 18.1349 192.97 18.5824 193.127C19.0298 193.281 19.5391 193.357 20.1101 193.357C20.6811 193.357 21.1903 193.281 21.6378 193.127C22.0852 192.97 22.4389 192.737 22.6989 192.43C22.9545 192.119 23.0824 191.736 23.0824 191.28ZM11.9091 181.967H25V184.69H11.9091V181.967ZM11.9091 177.062H25V179.785H11.9091V177.062ZM25.1918 170.407C25.1918 171.417 24.9872 172.286 24.5781 173.015C24.1648 173.739 23.581 174.297 22.8267 174.689C22.0682 175.081 21.1712 175.277 20.1357 175.277C19.1257 175.277 18.2393 175.081 17.4766 174.689C16.7138 174.297 16.1193 173.745 15.6932 173.034C15.267 172.318 15.054 171.478 15.054 170.515C15.054 169.868 15.1584 169.265 15.3672 168.706C15.5717 168.144 15.8807 167.654 16.294 167.236C16.7074 166.814 17.2273 166.486 17.8537 166.252C18.4759 166.017 19.2045 165.9 20.0398 165.9H20.7876V174.191H19.1001V168.464C18.7081 168.464 18.3608 168.549 18.0582 168.719C17.7557 168.89 17.5192 169.126 17.3487 169.429C17.174 169.727 17.0866 170.074 17.0866 170.471C17.0866 170.884 17.1825 171.25 17.3743 171.57C17.5618 171.885 17.8153 172.133 18.1349 172.312C18.4503 172.491 18.8018 172.582 19.1896 172.586H20.794C21.2798 172.586 21.6996 172.497 22.0533 172.318C22.407 172.135 22.6797 171.877 22.8714 171.544C23.0632 171.212 23.1591 170.818 23.1591 170.362C23.1591 170.059 23.1165 169.782 23.0312 169.531C22.946 169.28 22.8182 169.064 22.6477 168.885C22.4773 168.706 22.2685 168.57 22.0213 168.476L22.1875 165.958C22.7926 166.086 23.321 166.348 23.7727 166.744C24.2202 167.136 24.5696 167.643 24.821 168.265C25.0682 168.883 25.1918 169.597 25.1918 170.407ZM25.1918 159.687C25.1918 160.693 24.9787 161.558 24.5526 162.282C24.1222 163.003 23.5256 163.557 22.7628 163.944C22 164.328 21.1222 164.52 20.1293 164.52C19.1236 164.52 18.2415 164.326 17.483 163.938C16.7202 163.546 16.1257 162.99 15.6996 162.27C15.2692 161.549 15.054 160.693 15.054 159.7C15.054 158.843 15.2095 158.093 15.5206 157.45C15.8317 156.807 16.2685 156.297 16.831 155.922C17.3935 155.547 18.054 155.341 18.8125 155.302V157.872C18.3224 157.944 17.9283 158.136 17.63 158.447C17.3274 158.754 17.1761 159.157 17.1761 159.655C17.1761 160.077 17.2912 160.446 17.5213 160.761C17.7472 161.072 18.0774 161.315 18.5121 161.49C18.9467 161.665 19.473 161.752 20.0909 161.752C20.7173 161.752 21.25 161.667 21.6889 161.496C22.1278 161.321 22.4624 161.076 22.6925 160.761C22.9226 160.446 23.0376 160.077 23.0376 159.655C23.0376 159.344 22.9737 159.065 22.8459 158.818C22.718 158.566 22.5327 158.36 22.2898 158.198C22.0426 158.032 21.7464 157.923 21.4013 157.872V155.302C22.1513 155.345 22.8118 155.549 23.3828 155.916C23.9496 156.278 24.3928 156.779 24.7124 157.418C25.032 158.057 25.1918 158.814 25.1918 159.687ZM15.1818 148.337H17.2273V154.249H15.1818V148.337ZM12.8295 152.907V150.184H21.983C22.2344 150.184 22.4304 150.146 22.571 150.069C22.7074 149.992 22.8033 149.886 22.8587 149.749C22.9141 149.609 22.9418 149.447 22.9418 149.263C22.9418 149.136 22.9311 149.008 22.9098 148.88C22.8842 148.752 22.8651 148.654 22.8523 148.586L24.8786 148.158C24.9212 148.294 24.9702 148.486 25.0256 148.733C25.0852 148.98 25.1214 149.28 25.1342 149.634C25.1598 150.29 25.0724 150.866 24.8722 151.36C24.6719 151.85 24.3608 152.231 23.9389 152.504C23.517 152.777 22.9844 152.911 22.3409 152.907H12.8295ZM25 146.563H15.1818V143.84H25V146.563ZM13.9162 145.195C13.9162 145.6 13.782 145.947 13.5135 146.237C13.2408 146.522 12.9148 146.665 12.5355 146.665C12.1605 146.665 11.8388 146.522 11.5703 146.237C11.2976 145.947 11.1612 145.6 11.1612 145.195C11.1612 144.79 11.2976 144.445 11.5703 144.159C11.8388 143.87 12.1605 143.725 12.5355 143.725C12.9148 143.725 13.2408 143.87 13.5135 144.159C13.782 144.445 13.9162 144.79 13.9162 145.195ZM25.1918 137.222C25.1918 138.215 24.9808 139.074 24.5589 139.798C24.1328 140.519 23.5405 141.075 22.782 141.467C22.0192 141.859 21.1349 142.055 20.1293 142.055C19.1151 142.055 18.2287 141.859 17.4702 141.467C16.7074 141.075 16.1151 140.519 15.6932 139.798C15.267 139.074 15.054 138.215 15.054 137.222C15.054 136.229 15.267 135.373 15.6932 134.653C16.1151 133.928 16.7074 133.37 17.4702 132.978C18.2287 132.586 19.1151 132.39 20.1293 132.39C21.1349 132.39 22.0192 132.586 22.782 132.978C23.5405 133.37 24.1328 133.928 24.5589 134.653C24.9808 135.373 25.1918 136.229 25.1918 137.222ZM23.0824 137.21C23.0824 136.758 22.9545 136.381 22.6989 136.078C22.4389 135.776 22.0852 135.548 21.6378 135.394C21.1903 135.237 20.6811 135.158 20.1101 135.158C19.5391 135.158 19.0298 135.237 18.5824 135.394C18.1349 135.548 17.7812 135.776 17.5213 136.078C17.2614 136.381 17.1314 136.758 17.1314 137.21C17.1314 137.666 17.2614 138.049 17.5213 138.36C17.7812 138.667 18.1349 138.899 18.5824 139.057C19.0298 139.21 19.5391 139.287 20.1101 139.287C20.6811 139.287 21.1903 139.21 21.6378 139.057C22.0852 138.899 22.4389 138.667 22.6989 138.36C22.9545 138.049 23.0824 137.666 23.0824 137.21ZM19.3239 127.896H25V130.619H15.1818V128.024H16.9141V127.909C16.343 127.692 15.8913 127.328 15.5589 126.816C15.2223 126.305 15.054 125.685 15.054 124.956C15.054 124.274 15.2031 123.68 15.5014 123.173C15.7997 122.666 16.2259 122.271 16.7798 121.99C17.3295 121.709 17.9858 121.568 18.7486 121.568H25V124.291H19.2344C18.6335 124.287 18.1648 124.44 17.8281 124.752C17.4872 125.063 17.3168 125.491 17.3168 126.036C17.3168 126.403 17.3956 126.727 17.5533 127.008C17.7109 127.285 17.9411 127.502 18.2436 127.66C18.5419 127.813 18.902 127.892 19.3239 127.896ZM47.1854 239.063C47.1854 239.689 47.0767 240.248 46.8594 240.738C46.6378 241.228 46.3118 241.615 45.8814 241.901C45.4467 242.182 44.9055 242.323 44.2578 242.323C43.7124 242.323 43.2543 242.223 42.8835 242.022C42.5128 241.822 42.2145 241.549 41.9886 241.204C41.7628 240.859 41.5923 240.467 41.4773 240.028C41.3622 239.585 41.2812 239.12 41.2344 238.635C41.1747 238.064 41.1193 237.603 41.0682 237.254C41.0128 236.904 40.9318 236.651 40.8253 236.493C40.7187 236.336 40.5611 236.257 40.3523 236.257H40.3139C39.9091 236.257 39.5959 236.385 39.3743 236.64C39.1527 236.892 39.0419 237.25 39.0419 237.714C39.0419 238.204 39.1506 238.594 39.3679 238.884C39.581 239.174 39.8494 239.365 40.1733 239.459L39.9688 241.978C39.3722 241.85 38.8565 241.598 38.4219 241.223C37.983 240.848 37.6463 240.365 37.4119 239.772C37.1733 239.176 37.054 238.485 37.054 237.701C37.054 237.156 37.1179 236.634 37.2457 236.135C37.3736 235.632 37.5717 235.187 37.8402 234.799C38.1087 234.407 38.4538 234.098 38.8757 233.873C39.2933 233.647 39.794 233.534 40.3778 233.534H47V236.116H45.6385V236.193C45.9453 236.35 46.2159 236.561 46.4503 236.826C46.6804 237.09 46.8615 237.407 46.9936 237.778C47.1214 238.149 47.1854 238.577 47.1854 239.063ZM45.3061 238.283C45.3061 237.882 45.2273 237.529 45.0696 237.222C44.9077 236.915 44.6903 236.674 44.4176 236.5C44.1449 236.325 43.8359 236.238 43.4908 236.238H42.4489C42.5043 236.323 42.5554 236.44 42.6023 236.589C42.6449 236.734 42.6854 236.898 42.7237 237.081C42.7578 237.265 42.7898 237.448 42.8196 237.631C42.8452 237.814 42.8686 237.98 42.8899 238.13C42.9368 238.449 43.0114 238.728 43.1136 238.967C43.2159 239.206 43.3544 239.391 43.5291 239.523C43.6996 239.655 43.9126 239.721 44.1683 239.721C44.5391 239.721 44.8224 239.587 45.0185 239.319C45.2102 239.046 45.3061 238.701 45.3061 238.283ZM41.3239 228.698H47V231.421H37.1818V228.826H38.9141V228.711C38.343 228.494 37.8913 228.129 37.5589 227.618C37.2223 227.107 37.054 226.487 37.054 225.758C37.054 225.076 37.2031 224.482 37.5014 223.974C37.7997 223.467 38.2259 223.073 38.7798 222.792C39.3295 222.511 39.9858 222.37 40.7486 222.37H47V225.093H41.2344C40.6335 225.089 40.1648 225.242 39.8281 225.553C39.4872 225.864 39.3168 226.293 39.3168 226.838C39.3168 227.205 39.3956 227.528 39.5533 227.81C39.7109 228.087 39.9411 228.304 40.2436 228.462C40.5419 228.615 40.902 228.694 41.3239 228.698ZM47.1598 216.606C47.1598 217.352 46.968 218.027 46.5845 218.632C46.1967 219.233 45.6278 219.71 44.8778 220.064C44.1236 220.414 43.1989 220.588 42.1037 220.588C40.9787 220.588 40.0433 220.407 39.2976 220.045C38.5476 219.683 37.9872 219.201 37.6165 218.6C37.2415 217.995 37.054 217.333 37.054 216.612C37.054 216.063 37.1477 215.605 37.3352 215.238C37.5185 214.867 37.7486 214.569 38.0256 214.343C38.2983 214.113 38.5668 213.938 38.831 213.819V213.736H33.9091V211.019H47V213.704H45.4276V213.819C45.7003 213.947 45.9709 214.128 46.2393 214.362C46.5036 214.593 46.723 214.893 46.8977 215.264C47.0724 215.63 47.1598 216.078 47.1598 216.606ZM44.9929 215.743C44.9929 215.304 44.8736 214.933 44.6349 214.631C44.392 214.324 44.0533 214.09 43.6186 213.928C43.1839 213.762 42.6747 213.678 42.0909 213.678C41.5071 213.678 41 213.759 40.5696 213.921C40.1392 214.083 39.8068 214.318 39.5724 214.624C39.3381 214.931 39.2209 215.304 39.2209 215.743C39.2209 216.191 39.3423 216.568 39.5852 216.874C39.8281 217.181 40.1648 217.414 40.5952 217.571C41.0256 217.729 41.5241 217.808 42.0909 217.808C42.6619 217.808 43.1669 217.729 43.6058 217.571C44.0405 217.409 44.3814 217.177 44.6286 216.874C44.8714 216.568 44.9929 216.191 44.9929 215.743ZM47.1854 201.815C47.1854 202.441 47.0767 202.999 46.8594 203.49C46.6378 203.98 46.3118 204.367 45.8814 204.653C45.4467 204.934 44.9055 205.075 44.2578 205.075C43.7124 205.075 43.2543 204.975 42.8835 204.774C42.5128 204.574 42.2145 204.301 41.9886 203.956C41.7628 203.611 41.5923 203.219 41.4773 202.78C41.3622 202.337 41.2812 201.872 41.2344 201.387C41.1747 200.816 41.1193 200.355 41.0682 200.006C41.0128 199.656 40.9318 199.403 40.8253 199.245C40.7187 199.088 40.5611 199.009 40.3523 199.009H40.3139C39.9091 199.009 39.5959 199.137 39.3743 199.392C39.1527 199.644 39.0419 200.002 39.0419 200.466C39.0419 200.956 39.1506 201.346 39.3679 201.636C39.581 201.926 39.8494 202.117 40.1733 202.211L39.9688 204.73C39.3722 204.602 38.8565 204.35 38.4219 203.975C37.983 203.6 37.6463 203.117 37.4119 202.524C37.1733 201.928 37.054 201.237 37.054 200.453C37.054 199.908 37.1179 199.386 37.2457 198.887C37.3736 198.384 37.5717 197.939 37.8402 197.551C38.1087 197.159 38.4538 196.85 38.8757 196.624C39.2933 196.399 39.794 196.286 40.3778 196.286H47V198.868H45.6385V198.945C45.9453 199.102 46.2159 199.313 46.4503 199.578C46.6804 199.842 46.8615 200.159 46.9936 200.53C47.1214 200.901 47.1854 201.329 47.1854 201.815ZM45.3061 201.035C45.3061 200.634 45.2273 200.281 45.0696 199.974C44.9077 199.667 44.6903 199.426 44.4176 199.252C44.1449 199.077 43.8359 198.99 43.4908 198.99H42.4489C42.5043 199.075 42.5554 199.192 42.6023 199.341C42.6449 199.486 42.6854 199.65 42.7237 199.833C42.7578 200.017 42.7898 200.2 42.8196 200.383C42.8452 200.566 42.8686 200.732 42.8899 200.882C42.9368 201.201 43.0114 201.48 43.1136 201.719C43.2159 201.958 43.3544 202.143 43.5291 202.275C43.6996 202.407 43.9126 202.473 44.1683 202.473C44.5391 202.473 44.8224 202.339 45.0185 202.07C45.2102 201.798 45.3061 201.453 45.3061 201.035ZM41.3239 191.45H47V194.173H37.1818V191.578H38.9141V191.463C38.343 191.246 37.8913 190.881 37.5589 190.37C37.2223 189.858 37.054 189.238 37.054 188.51C37.054 187.828 37.2031 187.233 37.5014 186.726C37.7997 186.219 38.2259 185.825 38.7798 185.544C39.3295 185.263 39.9858 185.122 40.7486 185.122H47V187.845H41.2344C40.6335 187.841 40.1648 187.994 39.8281 188.305C39.4872 188.616 39.3168 189.045 39.3168 189.59C39.3168 189.956 39.3956 190.28 39.5533 190.562C39.7109 190.839 39.9411 191.056 40.2436 191.214C40.5419 191.367 40.902 191.446 41.3239 191.45ZM47.1854 180.176C47.1854 180.803 47.0767 181.361 46.8594 181.851C46.6378 182.341 46.3118 182.729 45.8814 183.014C45.4467 183.295 44.9055 183.436 44.2578 183.436C43.7124 183.436 43.2543 183.336 42.8835 183.136C42.5128 182.935 42.2145 182.663 41.9886 182.317C41.7628 181.972 41.5923 181.58 41.4773 181.141C41.3622 180.698 41.2812 180.234 41.2344 179.748C41.1747 179.177 41.1193 178.717 41.0682 178.367C41.0128 178.018 40.9318 177.764 40.8253 177.607C40.7187 177.449 40.5611 177.37 40.3523 177.37H40.3139C39.9091 177.37 39.5959 177.498 39.3743 177.754C39.1527 178.005 39.0419 178.363 39.0419 178.827C39.0419 179.317 39.1506 179.707 39.3679 179.997C39.581 180.287 39.8494 180.479 40.1733 180.572L39.9688 183.091C39.3722 182.963 38.8565 182.712 38.4219 182.337C37.983 181.962 37.6463 181.478 37.4119 180.886C37.1733 180.289 37.054 179.599 37.054 178.815C37.054 178.269 37.1179 177.747 37.2457 177.249C37.3736 176.746 37.5717 176.3 37.8402 175.913C38.1087 175.521 38.4538 175.212 38.8757 174.986C39.2933 174.76 39.794 174.647 40.3778 174.647H47V177.229H45.6385V177.306C45.9453 177.464 46.2159 177.675 46.4503 177.939C46.6804 178.203 46.8615 178.521 46.9936 178.891C47.1214 179.262 47.1854 179.69 47.1854 180.176ZM45.3061 179.396C45.3061 178.996 45.2273 178.642 45.0696 178.335C44.9077 178.028 44.6903 177.788 44.4176 177.613C44.1449 177.438 43.8359 177.351 43.4908 177.351H42.4489C42.5043 177.436 42.5554 177.553 42.6023 177.702C42.6449 177.847 42.6854 178.011 42.7237 178.195C42.7578 178.378 42.7898 178.561 42.8196 178.744C42.8452 178.928 42.8686 179.094 42.8899 179.243C42.9368 179.562 43.0114 179.842 43.1136 180.08C43.2159 180.319 43.3544 180.504 43.5291 180.636C43.6996 180.768 43.9126 180.835 44.1683 180.835C44.5391 180.835 44.8224 180.7 45.0185 180.432C45.2102 180.159 45.3061 179.814 45.3061 179.396ZM33.9091 169.811H47V172.534H33.9091V169.811ZM50.6818 165.949C50.6818 166.294 50.6541 166.618 50.5987 166.921C50.5476 167.219 50.4815 167.466 50.4006 167.662L48.3679 167.048C48.4659 166.729 48.5192 166.441 48.5277 166.186C48.5362 165.926 48.4766 165.702 48.3487 165.514C48.2209 165.323 48.0036 165.167 47.6967 165.048L47.2812 164.888L37.1818 168.41V165.546L44.392 163.514V163.411L37.1818 161.36V158.477L48.0611 162.293C48.5895 162.476 49.0497 162.725 49.4418 163.041C49.8381 163.352 50.1428 163.746 50.3558 164.223C50.5732 164.7 50.6818 165.276 50.6818 165.949ZM39.9815 148.914L40.1349 151.407C39.9219 151.45 39.7301 151.541 39.5597 151.682C39.3849 151.823 39.2464 152.008 39.1442 152.238C39.0376 152.464 38.9844 152.735 38.9844 153.05C38.9844 153.472 39.0739 153.828 39.2528 154.117C39.4276 154.407 39.6619 154.552 39.956 154.552C40.1903 154.552 40.3885 154.458 40.5504 154.271C40.7124 154.083 40.8423 153.762 40.9403 153.306L41.2983 151.529C41.4943 150.574 41.8097 149.862 42.2443 149.394C42.679 148.925 43.25 148.691 43.9574 148.691C44.6009 148.691 45.1655 148.88 45.6513 149.259C46.1371 149.634 46.5163 150.15 46.7891 150.806C47.0575 151.458 47.1918 152.21 47.1918 153.063C47.1918 154.362 46.9212 155.398 46.38 156.169C45.8345 156.936 45.093 157.386 44.1555 157.518L44.0149 154.84C44.4112 154.759 44.7138 154.563 44.9226 154.252C45.1271 153.941 45.2294 153.542 45.2294 153.056C45.2294 152.579 45.1378 152.195 44.9545 151.906C44.767 151.612 44.5263 151.463 44.2322 151.458C43.9851 151.463 43.7827 151.567 43.625 151.771C43.4631 151.976 43.3395 152.291 43.2543 152.718L42.9155 154.418C42.7237 155.377 42.3913 156.09 41.9183 156.559C41.4453 157.024 40.8423 157.256 40.1094 157.256C39.4787 157.256 38.9354 157.085 38.4794 156.744C38.0234 156.399 37.6719 155.916 37.4247 155.294C37.1776 154.667 37.054 153.934 37.054 153.095C37.054 151.855 37.3161 150.879 37.8402 150.167C38.3643 149.451 39.0781 149.034 39.9815 148.914ZM47 146.976H37.1818V144.253H47V146.976ZM35.9162 145.608C35.9162 146.013 35.782 146.36 35.5135 146.65C35.2408 146.935 34.9148 147.078 34.5355 147.078C34.1605 147.078 33.8388 146.935 33.5703 146.65C33.2976 146.36 33.1612 146.013 33.1612 145.608C33.1612 145.203 33.2976 144.858 33.5703 144.572C33.8388 144.283 34.1605 144.138 34.5355 144.138C34.9148 144.138 35.2408 144.283 35.5135 144.572C35.782 144.858 35.9162 145.203 35.9162 145.608ZM39.9815 133.903L40.1349 136.395C39.9219 136.438 39.7301 136.53 39.5597 136.67C39.3849 136.811 39.2464 136.996 39.1442 137.226C39.0376 137.452 38.9844 137.723 38.9844 138.038C38.9844 138.46 39.0739 138.816 39.2528 139.106C39.4276 139.395 39.6619 139.54 39.956 139.54C40.1903 139.54 40.3885 139.447 40.5504 139.259C40.7124 139.072 40.8423 138.75 40.9403 138.294L41.2983 136.517C41.4943 135.562 41.8097 134.851 42.2443 134.382C42.679 133.913 43.25 133.679 43.9574 133.679C44.6009 133.679 45.1655 133.868 45.6513 134.248C46.1371 134.623 46.5163 135.138 46.7891 135.795C47.0575 136.447 47.1918 137.199 47.1918 138.051C47.1918 139.351 46.9212 140.386 46.38 141.157C45.8345 141.925 45.093 142.374 44.1555 142.506L44.0149 139.828C44.4112 139.747 44.7138 139.551 44.9226 139.24C45.1271 138.929 45.2294 138.53 45.2294 138.045C45.2294 137.567 45.1378 137.184 44.9545 136.894C44.767 136.6 44.5263 136.451 44.2322 136.447C43.9851 136.451 43.7827 136.555 43.625 136.76C43.4631 136.964 43.3395 137.28 43.2543 137.706L42.9155 139.406C42.7237 140.365 42.3913 141.079 41.9183 141.547C41.4453 142.012 40.8423 142.244 40.1094 142.244C39.4787 142.244 38.9354 142.074 38.4794 141.733C38.0234 141.388 37.6719 140.904 37.4247 140.282C37.1776 139.655 37.054 138.922 37.054 138.083C37.054 136.843 37.3161 135.867 37.8402 135.155C38.3643 134.439 39.0781 134.022 39.9815 133.903Z" fill="black"/>
<rect x="0.5" y="276.5" width="178" height="57" transform="rotate(-90 0.5 276.5)" stroke="black"/>
<path d="M109.906 109.909V123H107.138V109.909H109.906ZM114.855 117.324V123H112.132V113.182H114.727V114.914H114.842C115.059 114.343 115.423 113.891 115.935 113.559C116.446 113.222 117.066 113.054 117.795 113.054C118.477 113.054 119.071 113.203 119.578 113.501C120.085 113.8 120.48 114.226 120.761 114.78C121.042 115.33 121.183 115.986 121.183 116.749V123H118.46V117.234C118.464 116.634 118.311 116.165 117.999 115.828C117.688 115.487 117.26 115.317 116.715 115.317C116.348 115.317 116.024 115.396 115.743 115.553C115.466 115.711 115.249 115.941 115.091 116.244C114.938 116.542 114.859 116.902 114.855 117.324ZM123.329 123V113.182H126.052V123H123.329ZM124.697 111.916C124.292 111.916 123.945 111.782 123.655 111.513C123.369 111.241 123.227 110.915 123.227 110.536C123.227 110.161 123.369 109.839 123.655 109.57C123.945 109.298 124.292 109.161 124.697 109.161C125.102 109.161 125.447 109.298 125.732 109.57C126.022 109.839 126.167 110.161 126.167 110.536C126.167 110.915 126.022 111.241 125.732 111.513C125.447 111.782 125.102 111.916 124.697 111.916ZM133.455 113.182V115.227H127.543V113.182H133.455ZM128.885 110.83H131.608V119.983C131.608 120.234 131.646 120.43 131.723 120.571C131.8 120.707 131.906 120.803 132.043 120.859C132.183 120.914 132.345 120.942 132.529 120.942C132.656 120.942 132.784 120.931 132.912 120.91C133.04 120.884 133.138 120.865 133.206 120.852L133.634 122.879C133.498 122.921 133.306 122.97 133.059 123.026C132.812 123.085 132.512 123.121 132.158 123.134C131.502 123.16 130.926 123.072 130.432 122.872C129.942 122.672 129.561 122.361 129.288 121.939C129.015 121.517 128.881 120.984 128.885 120.341V110.83ZM135.229 123V113.182H137.952V123H135.229ZM136.597 111.916C136.192 111.916 135.845 111.782 135.555 111.513C135.27 111.241 135.127 110.915 135.127 110.536C135.127 110.161 135.27 109.839 135.555 109.57C135.845 109.298 136.192 109.161 136.597 109.161C137.002 109.161 137.347 109.298 137.633 109.57C137.922 109.839 138.067 110.161 138.067 110.536C138.067 110.915 137.922 111.241 137.633 111.513C137.347 111.782 137.002 111.916 136.597 111.916ZM142.933 123.185C142.307 123.185 141.749 123.077 141.259 122.859C140.768 122.638 140.381 122.312 140.095 121.881C139.814 121.447 139.673 120.906 139.673 120.258C139.673 119.712 139.773 119.254 139.974 118.884C140.174 118.513 140.447 118.214 140.792 117.989C141.137 117.763 141.529 117.592 141.968 117.477C142.411 117.362 142.876 117.281 143.362 117.234C143.933 117.175 144.393 117.119 144.742 117.068C145.092 117.013 145.345 116.932 145.503 116.825C145.661 116.719 145.739 116.561 145.739 116.352V116.314C145.739 115.909 145.612 115.596 145.356 115.374C145.104 115.153 144.746 115.042 144.282 115.042C143.792 115.042 143.402 115.151 143.112 115.368C142.822 115.581 142.631 115.849 142.537 116.173L140.018 115.969C140.146 115.372 140.398 114.857 140.773 114.422C141.148 113.983 141.631 113.646 142.224 113.412C142.82 113.173 143.511 113.054 144.295 113.054C144.84 113.054 145.362 113.118 145.861 113.246C146.364 113.374 146.809 113.572 147.197 113.84C147.589 114.109 147.898 114.454 148.124 114.876C148.349 115.293 148.462 115.794 148.462 116.378V123H145.88V121.638H145.803C145.646 121.945 145.435 122.216 145.17 122.45C144.906 122.68 144.589 122.862 144.218 122.994C143.847 123.121 143.419 123.185 142.933 123.185ZM143.713 121.306C144.114 121.306 144.467 121.227 144.774 121.07C145.081 120.908 145.322 120.69 145.496 120.418C145.671 120.145 145.759 119.836 145.759 119.491V118.449C145.673 118.504 145.556 118.555 145.407 118.602C145.262 118.645 145.098 118.685 144.915 118.724C144.732 118.758 144.548 118.79 144.365 118.82C144.182 118.845 144.016 118.869 143.866 118.89C143.547 118.937 143.268 119.011 143.029 119.114C142.79 119.216 142.605 119.354 142.473 119.529C142.341 119.7 142.275 119.913 142.275 120.168C142.275 120.539 142.409 120.822 142.678 121.018C142.95 121.21 143.295 121.306 143.713 121.306ZM153.298 109.909V123H150.575V109.909H153.298ZM171.247 114.492H168.447C168.396 114.13 168.292 113.808 168.134 113.527C167.976 113.241 167.774 112.999 167.527 112.798C167.279 112.598 166.994 112.445 166.67 112.338C166.35 112.232 166.003 112.178 165.628 112.178C164.951 112.178 164.36 112.347 163.858 112.683C163.355 113.016 162.965 113.501 162.688 114.141C162.411 114.776 162.272 115.547 162.272 116.455C162.272 117.388 162.411 118.172 162.688 118.807C162.969 119.442 163.361 119.921 163.864 120.245C164.367 120.569 164.949 120.731 165.609 120.731C165.98 120.731 166.323 120.682 166.638 120.584C166.958 120.486 167.241 120.343 167.488 120.156C167.735 119.964 167.94 119.732 168.102 119.459C168.268 119.186 168.383 118.875 168.447 118.526L171.247 118.538C171.174 119.139 170.993 119.719 170.703 120.277C170.418 120.831 170.032 121.327 169.547 121.766C169.065 122.201 168.49 122.546 167.821 122.802C167.156 123.053 166.404 123.179 165.564 123.179C164.397 123.179 163.353 122.915 162.432 122.386C161.516 121.858 160.792 121.093 160.259 120.092C159.73 119.09 159.466 117.878 159.466 116.455C159.466 115.027 159.735 113.812 160.272 112.811C160.809 111.81 161.537 111.047 162.458 110.523C163.378 109.994 164.414 109.73 165.564 109.73C166.323 109.73 167.026 109.837 167.674 110.05C168.326 110.263 168.903 110.574 169.406 110.983C169.909 111.388 170.318 111.884 170.633 112.472C170.953 113.06 171.157 113.734 171.247 114.492ZM177.616 123.192C176.624 123.192 175.765 122.981 175.04 122.559C174.32 122.133 173.764 121.54 173.372 120.782C172.98 120.019 172.784 119.135 172.784 118.129C172.784 117.115 172.98 116.229 173.372 115.47C173.764 114.707 174.32 114.115 175.04 113.693C175.765 113.267 176.624 113.054 177.616 113.054C178.609 113.054 179.466 113.267 180.186 113.693C180.911 114.115 181.469 114.707 181.861 115.47C182.253 116.229 182.449 117.115 182.449 118.129C182.449 119.135 182.253 120.019 181.861 120.782C181.469 121.54 180.911 122.133 180.186 122.559C179.466 122.981 178.609 123.192 177.616 123.192ZM177.629 121.082C178.081 121.082 178.458 120.955 178.761 120.699C179.063 120.439 179.291 120.085 179.445 119.638C179.602 119.19 179.681 118.681 179.681 118.11C179.681 117.539 179.602 117.03 179.445 116.582C179.291 116.135 179.063 115.781 178.761 115.521C178.458 115.261 178.081 115.131 177.629 115.131C177.173 115.131 176.79 115.261 176.479 115.521C176.172 115.781 175.94 116.135 175.782 116.582C175.629 117.03 175.552 117.539 175.552 118.11C175.552 118.681 175.629 119.19 175.782 119.638C175.94 120.085 176.172 120.439 176.479 120.699C176.79 120.955 177.173 121.082 177.629 121.082ZM187.837 123.16C187.092 123.16 186.416 122.968 185.811 122.585C185.21 122.197 184.733 121.628 184.379 120.878C184.03 120.124 183.855 119.199 183.855 118.104C183.855 116.979 184.036 116.043 184.398 115.298C184.761 114.548 185.242 113.987 185.843 113.616C186.448 113.241 187.111 113.054 187.831 113.054C188.381 113.054 188.839 113.148 189.205 113.335C189.576 113.518 189.874 113.749 190.1 114.026C190.33 114.298 190.505 114.567 190.624 114.831H190.707V109.909H193.424V123H190.739V121.428H190.624C190.496 121.7 190.315 121.971 190.081 122.239C189.851 122.504 189.55 122.723 189.18 122.898C188.813 123.072 188.366 123.16 187.837 123.16ZM188.7 120.993C189.139 120.993 189.51 120.874 189.812 120.635C190.119 120.392 190.354 120.053 190.516 119.619C190.682 119.184 190.765 118.675 190.765 118.091C190.765 117.507 190.684 117 190.522 116.57C190.36 116.139 190.126 115.807 189.819 115.572C189.512 115.338 189.139 115.221 188.7 115.221C188.253 115.221 187.876 115.342 187.569 115.585C187.262 115.828 187.03 116.165 186.872 116.595C186.714 117.026 186.636 117.524 186.636 118.091C186.636 118.662 186.714 119.167 186.872 119.606C187.034 120.04 187.266 120.381 187.569 120.629C187.876 120.871 188.253 120.993 188.7 120.993ZM195.663 123V113.182H198.386V123H195.663ZM197.031 111.916C196.626 111.916 196.279 111.782 195.989 111.513C195.703 111.241 195.561 110.915 195.561 110.536C195.561 110.161 195.703 109.839 195.989 109.57C196.279 109.298 196.626 109.161 197.031 109.161C197.436 109.161 197.781 109.298 198.066 109.57C198.356 109.839 198.501 110.161 198.501 110.536C198.501 110.915 198.356 111.241 198.066 111.513C197.781 111.782 197.436 111.916 197.031 111.916ZM203.29 117.324V123H200.567V113.182H203.162V114.914H203.277C203.495 114.343 203.859 113.891 204.37 113.559C204.882 113.222 205.502 113.054 206.23 113.054C206.912 113.054 207.507 113.203 208.014 113.501C208.521 113.8 208.915 114.226 209.196 114.78C209.478 115.33 209.618 115.986 209.618 116.749V123H206.895V117.234C206.9 116.634 206.746 116.165 206.435 115.828C206.124 115.487 205.696 115.317 205.15 115.317C204.784 115.317 204.46 115.396 204.179 115.553C203.902 115.711 203.684 115.941 203.527 116.244C203.373 116.542 203.294 116.902 203.29 117.324ZM216.188 126.886C215.306 126.886 214.549 126.765 213.919 126.522C213.292 126.283 212.794 125.957 212.423 125.544C212.052 125.131 211.811 124.666 211.7 124.151L214.219 123.812C214.296 124.008 214.417 124.191 214.583 124.362C214.749 124.532 214.969 124.668 215.242 124.771C215.519 124.877 215.855 124.93 216.252 124.93C216.844 124.93 217.332 124.786 217.715 124.496C218.103 124.21 218.297 123.731 218.297 123.058V121.261H218.182C218.063 121.534 217.884 121.792 217.645 122.035C217.406 122.278 217.1 122.476 216.725 122.629C216.35 122.783 215.902 122.859 215.382 122.859C214.645 122.859 213.974 122.689 213.369 122.348C212.768 122.003 212.289 121.477 211.931 120.769C211.577 120.058 211.4 119.158 211.4 118.072C211.4 116.96 211.581 116.031 211.943 115.285C212.306 114.539 212.787 113.981 213.388 113.61C213.993 113.239 214.656 113.054 215.376 113.054C215.926 113.054 216.386 113.148 216.757 113.335C217.127 113.518 217.426 113.749 217.651 114.026C217.882 114.298 218.058 114.567 218.182 114.831H218.284V113.182H220.988V123.096C220.988 123.931 220.784 124.63 220.374 125.192C219.965 125.755 219.399 126.177 218.674 126.458C217.954 126.744 217.125 126.886 216.188 126.886ZM216.245 120.814C216.684 120.814 217.055 120.705 217.357 120.488C217.664 120.266 217.899 119.951 218.061 119.542C218.227 119.129 218.31 118.634 218.31 118.059C218.31 117.484 218.229 116.985 218.067 116.563C217.905 116.137 217.671 115.807 217.364 115.572C217.057 115.338 216.684 115.221 216.245 115.221C215.798 115.221 215.421 115.342 215.114 115.585C214.807 115.824 214.575 116.156 214.417 116.582C214.259 117.009 214.181 117.501 214.181 118.059C214.181 118.626 214.259 119.116 214.417 119.529C214.579 119.938 214.811 120.256 215.114 120.482C215.421 120.703 215.798 120.814 216.245 120.814Z" fill="black"/>
<rect x="75.5" y="98.5" width="178" height="35" stroke="black"/>
<path d="M94.1378 221V207.909H102.805V210.191H96.9055V213.31H102.23V215.592H96.9055V221H94.1378ZM108.331 221.192C107.338 221.192 106.48 220.981 105.755 220.559C105.035 220.133 104.479 219.54 104.087 218.782C103.695 218.019 103.499 217.135 103.499 216.129C103.499 215.115 103.695 214.229 104.087 213.47C104.479 212.707 105.035 212.115 105.755 211.693C106.48 211.267 107.338 211.054 108.331 211.054C109.324 211.054 110.181 211.267 110.901 211.693C111.625 212.115 112.184 212.707 112.576 213.47C112.968 214.229 113.164 215.115 113.164 216.129C113.164 217.135 112.968 218.019 112.576 218.782C112.184 219.54 111.625 220.133 110.901 220.559C110.181 220.981 109.324 221.192 108.331 221.192ZM108.344 219.082C108.796 219.082 109.173 218.955 109.475 218.699C109.778 218.439 110.006 218.085 110.159 217.638C110.317 217.19 110.396 216.681 110.396 216.11C110.396 215.539 110.317 215.03 110.159 214.582C110.006 214.135 109.778 213.781 109.475 213.521C109.173 213.261 108.796 213.131 108.344 213.131C107.888 213.131 107.505 213.261 107.194 213.521C106.887 213.781 106.654 214.135 106.497 214.582C106.343 215.03 106.267 215.539 106.267 216.11C106.267 216.681 106.343 217.19 106.497 217.638C106.654 218.085 106.887 218.439 107.194 218.699C107.505 218.955 107.888 219.082 108.344 219.082ZM119.37 221.192C118.365 221.192 117.5 220.979 116.775 220.553C116.055 220.122 115.501 219.526 115.113 218.763C114.73 218 114.538 217.122 114.538 216.129C114.538 215.124 114.732 214.241 115.12 213.483C115.512 212.72 116.068 212.126 116.788 211.7C117.508 211.269 118.365 211.054 119.358 211.054C120.214 211.054 120.964 211.21 121.608 211.521C122.251 211.832 122.76 212.268 123.135 212.831C123.51 213.393 123.717 214.054 123.755 214.812H121.186C121.113 214.322 120.922 213.928 120.61 213.63C120.304 213.327 119.901 213.176 119.402 213.176C118.98 213.176 118.612 213.291 118.297 213.521C117.985 213.747 117.743 214.077 117.568 214.512C117.393 214.947 117.306 215.473 117.306 216.091C117.306 216.717 117.391 217.25 117.561 217.689C117.736 218.128 117.981 218.462 118.297 218.692C118.612 218.923 118.98 219.038 119.402 219.038C119.713 219.038 119.993 218.974 120.24 218.846C120.491 218.718 120.698 218.533 120.86 218.29C121.026 218.043 121.135 217.746 121.186 217.401H123.755C123.713 218.151 123.508 218.812 123.142 219.383C122.779 219.95 122.279 220.393 121.64 220.712C121 221.032 120.244 221.192 119.37 221.192ZM131.795 216.82V211.182H134.518V221H131.904V219.217H131.801C131.58 219.792 131.211 220.254 130.695 220.604C130.184 220.953 129.56 221.128 128.823 221.128C128.166 221.128 127.589 220.979 127.09 220.68C126.592 220.382 126.202 219.958 125.921 219.408C125.644 218.859 125.503 218.2 125.499 217.433V211.182H128.222V216.947C128.226 217.527 128.382 217.985 128.688 218.322C128.995 218.658 129.406 218.827 129.922 218.827C130.25 218.827 130.557 218.752 130.843 218.603C131.128 218.45 131.358 218.224 131.533 217.925C131.712 217.627 131.799 217.259 131.795 216.82ZM144.865 213.982L142.372 214.135C142.33 213.922 142.238 213.73 142.097 213.56C141.957 213.385 141.771 213.246 141.541 213.144C141.315 213.038 141.045 212.984 140.729 212.984C140.308 212.984 139.952 213.074 139.662 213.253C139.372 213.428 139.227 213.662 139.227 213.956C139.227 214.19 139.321 214.388 139.509 214.55C139.696 214.712 140.018 214.842 140.474 214.94L142.251 215.298C143.205 215.494 143.917 215.81 144.386 216.244C144.854 216.679 145.089 217.25 145.089 217.957C145.089 218.601 144.899 219.165 144.52 219.651C144.145 220.137 143.629 220.516 142.973 220.789C142.321 221.058 141.569 221.192 140.717 221.192C139.417 221.192 138.381 220.921 137.61 220.38C136.843 219.835 136.393 219.093 136.261 218.156L138.94 218.015C139.021 218.411 139.217 218.714 139.528 218.923C139.839 219.127 140.237 219.229 140.723 219.229C141.2 219.229 141.584 219.138 141.874 218.955C142.168 218.767 142.317 218.526 142.321 218.232C142.317 217.985 142.212 217.783 142.008 217.625C141.803 217.463 141.488 217.339 141.062 217.254L139.362 216.915C138.403 216.724 137.689 216.391 137.22 215.918C136.756 215.445 136.523 214.842 136.523 214.109C136.523 213.479 136.694 212.935 137.035 212.479C137.38 212.023 137.864 211.672 138.486 211.425C139.112 211.178 139.845 211.054 140.685 211.054C141.925 211.054 142.901 211.316 143.612 211.84C144.328 212.364 144.746 213.078 144.865 213.982ZM151.278 221.192C150.268 221.192 149.399 220.987 148.67 220.578C147.945 220.165 147.387 219.581 146.995 218.827C146.603 218.068 146.407 217.171 146.407 216.136C146.407 215.126 146.603 214.239 146.995 213.477C147.387 212.714 147.939 212.119 148.651 211.693C149.367 211.267 150.206 211.054 151.169 211.054C151.817 211.054 152.42 211.158 152.978 211.367C153.541 211.572 154.031 211.881 154.448 212.294C154.87 212.707 155.198 213.227 155.433 213.854C155.667 214.476 155.784 215.205 155.784 216.04V216.788H147.494V215.1H153.221C153.221 214.708 153.136 214.361 152.965 214.058C152.795 213.756 152.558 213.519 152.256 213.349C151.958 213.174 151.61 213.087 151.214 213.087C150.801 213.087 150.434 213.183 150.115 213.374C149.799 213.562 149.552 213.815 149.373 214.135C149.194 214.45 149.102 214.802 149.098 215.19V216.794C149.098 217.28 149.188 217.7 149.367 218.053C149.55 218.407 149.808 218.68 150.14 218.871C150.472 219.063 150.867 219.159 151.323 219.159C151.625 219.159 151.902 219.116 152.154 219.031C152.405 218.946 152.62 218.818 152.799 218.648C152.978 218.477 153.115 218.268 153.208 218.021L155.727 218.188C155.599 218.793 155.337 219.321 154.941 219.773C154.548 220.22 154.041 220.57 153.419 220.821C152.801 221.068 152.088 221.192 151.278 221.192ZM161.179 221.16C160.433 221.16 159.758 220.968 159.153 220.585C158.552 220.197 158.075 219.628 157.721 218.878C157.372 218.124 157.197 217.199 157.197 216.104C157.197 214.979 157.378 214.043 157.74 213.298C158.102 212.548 158.584 211.987 159.185 211.616C159.79 211.241 160.453 211.054 161.173 211.054C161.722 211.054 162.181 211.148 162.547 211.335C162.918 211.518 163.216 211.749 163.442 212.026C163.672 212.298 163.847 212.567 163.966 212.831H164.049V207.909H166.766V221H164.081V219.428H163.966C163.838 219.7 163.657 219.971 163.423 220.239C163.193 220.504 162.892 220.723 162.521 220.898C162.155 221.072 161.708 221.16 161.179 221.16ZM162.042 218.993C162.481 218.993 162.852 218.874 163.154 218.635C163.461 218.392 163.695 218.053 163.857 217.619C164.024 217.184 164.107 216.675 164.107 216.091C164.107 215.507 164.026 215 163.864 214.57C163.702 214.139 163.468 213.807 163.161 213.572C162.854 213.338 162.481 213.221 162.042 213.221C161.595 213.221 161.218 213.342 160.911 213.585C160.604 213.828 160.372 214.165 160.214 214.595C160.056 215.026 159.977 215.524 159.977 216.091C159.977 216.662 160.056 217.167 160.214 217.606C160.376 218.04 160.608 218.381 160.911 218.629C161.218 218.871 161.595 218.993 162.042 218.993ZM184.772 212.492H181.972C181.921 212.13 181.817 211.808 181.659 211.527C181.502 211.241 181.299 210.999 181.052 210.798C180.805 210.598 180.519 210.445 180.195 210.338C179.876 210.232 179.529 210.178 179.154 210.178C178.476 210.178 177.886 210.347 177.383 210.683C176.88 211.016 176.49 211.501 176.213 212.141C175.936 212.776 175.798 213.547 175.798 214.455C175.798 215.388 175.936 216.172 176.213 216.807C176.494 217.442 176.887 217.921 177.389 218.245C177.892 218.569 178.474 218.731 179.134 218.731C179.505 218.731 179.848 218.682 180.164 218.584C180.483 218.486 180.767 218.343 181.014 218.156C181.261 217.964 181.465 217.732 181.627 217.459C181.794 217.186 181.909 216.875 181.972 216.526L184.772 216.538C184.7 217.139 184.519 217.719 184.229 218.277C183.943 218.831 183.558 219.327 183.072 219.766C182.59 220.201 182.015 220.546 181.346 220.802C180.681 221.053 179.929 221.179 179.09 221.179C177.922 221.179 176.878 220.915 175.958 220.386C175.041 219.858 174.317 219.093 173.784 218.092C173.256 217.09 172.992 215.878 172.992 214.455C172.992 213.027 173.26 211.812 173.797 210.811C174.334 209.81 175.063 209.047 175.983 208.523C176.904 207.994 177.939 207.73 179.09 207.73C179.848 207.73 180.551 207.837 181.199 208.05C181.851 208.263 182.428 208.574 182.931 208.983C183.434 209.388 183.843 209.884 184.159 210.472C184.478 211.06 184.683 211.734 184.772 212.492ZM191.142 221.192C190.149 221.192 189.29 220.981 188.566 220.559C187.846 220.133 187.29 219.54 186.898 218.782C186.506 218.019 186.309 217.135 186.309 216.129C186.309 215.115 186.506 214.229 186.898 213.47C187.29 212.707 187.846 212.115 188.566 211.693C189.29 211.267 190.149 211.054 191.142 211.054C192.135 211.054 192.991 211.267 193.711 211.693C194.436 212.115 194.994 212.707 195.386 213.47C195.778 214.229 195.974 215.115 195.974 216.129C195.974 217.135 195.778 218.019 195.386 218.782C194.994 219.54 194.436 220.133 193.711 220.559C192.991 220.981 192.135 221.192 191.142 221.192ZM191.155 219.082C191.606 219.082 191.983 218.955 192.286 218.699C192.589 218.439 192.817 218.085 192.97 217.638C193.128 217.19 193.206 216.681 193.206 216.11C193.206 215.539 193.128 215.03 192.97 214.582C192.817 214.135 192.589 213.781 192.286 213.521C191.983 213.261 191.606 213.131 191.155 213.131C190.699 213.131 190.315 213.261 190.004 213.521C189.697 213.781 189.465 214.135 189.307 214.582C189.154 215.03 189.077 215.539 189.077 216.11C189.077 216.681 189.154 217.19 189.307 217.638C189.465 218.085 189.697 218.439 190.004 218.699C190.315 218.955 190.699 219.082 191.155 219.082ZM201.363 221.16C200.617 221.16 199.942 220.968 199.336 220.585C198.736 220.197 198.258 219.628 197.905 218.878C197.555 218.124 197.381 217.199 197.381 216.104C197.381 214.979 197.562 214.043 197.924 213.298C198.286 212.548 198.768 211.987 199.368 211.616C199.974 211.241 200.636 211.054 201.356 211.054C201.906 211.054 202.364 211.148 202.731 211.335C203.101 211.518 203.4 211.749 203.626 212.026C203.856 212.298 204.03 212.567 204.15 212.831H204.233V207.909H206.949V221H204.265V219.428H204.15C204.022 219.7 203.841 219.971 203.606 220.239C203.376 220.504 203.076 220.723 202.705 220.898C202.339 221.072 201.891 221.16 201.363 221.16ZM202.226 218.993C202.665 218.993 203.035 218.874 203.338 218.635C203.645 218.392 203.879 218.053 204.041 217.619C204.207 217.184 204.29 216.675 204.29 216.091C204.29 215.507 204.209 215 204.047 214.57C203.885 214.139 203.651 213.807 203.344 213.572C203.037 213.338 202.665 213.221 202.226 213.221C201.778 213.221 201.401 213.342 201.094 213.585C200.787 213.828 200.555 214.165 200.398 214.595C200.24 215.026 200.161 215.524 200.161 216.091C200.161 216.662 200.24 217.167 200.398 217.606C200.559 218.04 200.792 218.381 201.094 218.629C201.401 218.871 201.778 218.993 202.226 218.993ZM209.188 221V211.182H211.911V221H209.188ZM210.556 209.916C210.151 209.916 209.804 209.782 209.514 209.513C209.229 209.241 209.086 208.915 209.086 208.536C209.086 208.161 209.229 207.839 209.514 207.57C209.804 207.298 210.151 207.161 210.556 207.161C210.961 207.161 211.306 207.298 211.592 207.57C211.881 207.839 212.026 208.161 212.026 208.536C212.026 208.915 211.881 209.241 211.592 209.513C211.306 209.782 210.961 209.916 210.556 209.916ZM216.816 215.324V221H214.093V211.182H216.688V212.914H216.803C217.02 212.343 217.384 211.891 217.896 211.559C218.407 211.222 219.027 211.054 219.756 211.054C220.438 211.054 221.032 211.203 221.539 211.501C222.046 211.8 222.441 212.226 222.722 212.78C223.003 213.33 223.144 213.986 223.144 214.749V221H220.421V215.234C220.425 214.634 220.271 214.165 219.96 213.828C219.649 213.487 219.221 213.317 218.676 213.317C218.309 213.317 217.985 213.396 217.704 213.553C217.427 213.711 217.21 213.941 217.052 214.244C216.899 214.542 216.82 214.902 216.816 215.324ZM229.713 224.886C228.831 224.886 228.075 224.765 227.444 224.522C226.817 224.283 226.319 223.957 225.948 223.544C225.577 223.131 225.337 222.666 225.226 222.151L227.744 221.812C227.821 222.008 227.942 222.191 228.109 222.362C228.275 222.532 228.494 222.668 228.767 222.771C229.044 222.877 229.381 222.93 229.777 222.93C230.369 222.93 230.857 222.786 231.241 222.496C231.629 222.21 231.822 221.731 231.822 221.058V219.261H231.707C231.588 219.534 231.409 219.792 231.17 220.035C230.932 220.278 230.625 220.476 230.25 220.629C229.875 220.783 229.428 220.859 228.908 220.859C228.17 220.859 227.499 220.689 226.894 220.348C226.293 220.003 225.814 219.477 225.456 218.769C225.102 218.058 224.925 217.158 224.925 216.072C224.925 214.96 225.107 214.031 225.469 213.285C225.831 212.539 226.313 211.981 226.913 211.61C227.518 211.239 228.181 211.054 228.901 211.054C229.451 211.054 229.911 211.148 230.282 211.335C230.653 211.518 230.951 211.749 231.177 212.026C231.407 212.298 231.584 212.567 231.707 212.831H231.81V211.182H234.513V221.096C234.513 221.931 234.309 222.63 233.9 223.192C233.491 223.755 232.924 224.177 232.2 224.458C231.479 224.744 230.651 224.886 229.713 224.886ZM229.771 218.814C230.21 218.814 230.58 218.705 230.883 218.488C231.19 218.266 231.424 217.951 231.586 217.542C231.752 217.129 231.835 216.634 231.835 216.059C231.835 215.484 231.754 214.985 231.592 214.563C231.43 214.137 231.196 213.807 230.889 213.572C230.582 213.338 230.21 213.221 229.771 213.221C229.323 213.221 228.946 213.342 228.639 213.585C228.332 213.824 228.1 214.156 227.942 214.582C227.785 215.009 227.706 215.501 227.706 216.059C227.706 216.626 227.785 217.116 227.942 217.529C228.104 217.938 228.337 218.256 228.639 218.482C228.946 218.703 229.323 218.814 229.771 218.814Z" fill="black"/>
<rect x="75.5" y="196.5" width="178" height="35" stroke="black"/>
<path d="M112.792 305.191V302.909H123.543V305.191H119.535V316H116.799V305.191H112.792ZM127.985 310.324V316H125.262V302.909H127.909V307.914H128.024C128.245 307.335 128.603 306.881 129.098 306.553C129.592 306.22 130.212 306.054 130.958 306.054C131.64 306.054 132.234 306.203 132.741 306.501C133.252 306.795 133.649 307.219 133.93 307.773C134.216 308.323 134.356 308.982 134.352 309.749V316H131.629V310.234C131.633 309.629 131.48 309.158 131.169 308.822C130.862 308.485 130.431 308.317 129.877 308.317C129.507 308.317 129.179 308.396 128.893 308.553C128.612 308.711 128.39 308.941 128.228 309.244C128.071 309.542 127.99 309.902 127.985 310.324ZM140.969 316.192C139.959 316.192 139.09 315.987 138.361 315.578C137.637 315.165 137.079 314.581 136.687 313.827C136.295 313.068 136.099 312.171 136.099 311.136C136.099 310.126 136.295 309.239 136.687 308.477C137.079 307.714 137.631 307.119 138.342 306.693C139.058 306.267 139.898 306.054 140.861 306.054C141.508 306.054 142.111 306.158 142.67 306.367C143.232 306.572 143.722 306.881 144.14 307.294C144.562 307.707 144.89 308.227 145.124 308.854C145.358 309.476 145.476 310.205 145.476 311.04V311.788H137.185V310.1H142.912C142.912 309.708 142.827 309.361 142.657 309.058C142.486 308.756 142.25 308.519 141.947 308.349C141.649 308.174 141.302 308.087 140.905 308.087C140.492 308.087 140.126 308.183 139.806 308.374C139.491 308.562 139.243 308.815 139.064 309.135C138.885 309.45 138.794 309.802 138.79 310.19V311.794C138.79 312.28 138.879 312.7 139.058 313.053C139.241 313.407 139.499 313.68 139.831 313.871C140.164 314.063 140.558 314.159 141.014 314.159C141.317 314.159 141.594 314.116 141.845 314.031C142.096 313.946 142.312 313.818 142.491 313.648C142.67 313.477 142.806 313.268 142.9 313.021L145.418 313.188C145.29 313.793 145.028 314.321 144.632 314.773C144.24 315.22 143.733 315.57 143.111 315.821C142.493 316.068 141.779 316.192 140.969 316.192ZM151.689 316.192C150.696 316.192 149.837 315.981 149.113 315.559C148.393 315.133 147.836 314.54 147.444 313.782C147.052 313.019 146.856 312.135 146.856 311.129C146.856 310.115 147.052 309.229 147.444 308.47C147.836 307.707 148.393 307.115 149.113 306.693C149.837 306.267 150.696 306.054 151.689 306.054C152.682 306.054 153.538 306.267 154.258 306.693C154.983 307.115 155.541 307.707 155.933 308.47C156.325 309.229 156.521 310.115 156.521 311.129C156.521 312.135 156.325 313.019 155.933 313.782C155.541 314.54 154.983 315.133 154.258 315.559C153.538 315.981 152.682 316.192 151.689 316.192ZM151.702 314.082C152.153 314.082 152.53 313.955 152.833 313.699C153.135 313.439 153.363 313.085 153.517 312.638C153.675 312.19 153.753 311.681 153.753 311.11C153.753 310.539 153.675 310.03 153.517 309.582C153.363 309.135 153.135 308.781 152.833 308.521C152.53 308.261 152.153 308.131 151.702 308.131C151.246 308.131 150.862 308.261 150.551 308.521C150.244 308.781 150.012 309.135 149.854 309.582C149.701 310.03 149.624 310.539 149.624 311.11C149.624 311.681 149.701 312.19 149.854 312.638C150.012 313.085 150.244 313.439 150.551 313.699C150.862 313.955 151.246 314.082 151.702 314.082ZM158.292 316V306.182H160.932V307.895H161.034C161.213 307.286 161.513 306.825 161.935 306.514C162.357 306.199 162.843 306.041 163.393 306.041C163.529 306.041 163.676 306.05 163.834 306.067C163.991 306.084 164.13 306.107 164.249 306.137V308.553C164.121 308.515 163.944 308.481 163.719 308.451C163.493 308.421 163.286 308.406 163.099 308.406C162.698 308.406 162.34 308.494 162.025 308.668C161.714 308.839 161.466 309.077 161.283 309.384C161.104 309.691 161.015 310.045 161.015 310.445V316H158.292ZM169.674 316.192C168.664 316.192 167.795 315.987 167.066 315.578C166.342 315.165 165.784 314.581 165.392 313.827C165 313.068 164.804 312.171 164.804 311.136C164.804 310.126 165 309.239 165.392 308.477C165.784 307.714 166.336 307.119 167.047 306.693C167.763 306.267 168.603 306.054 169.566 306.054C170.213 306.054 170.816 306.158 171.375 306.367C171.937 306.572 172.427 306.881 172.845 307.294C173.267 307.707 173.595 308.227 173.829 308.854C174.064 309.476 174.181 310.205 174.181 311.04V311.788H165.89V310.1H171.618C171.618 309.708 171.532 309.361 171.362 309.058C171.191 308.756 170.955 308.519 170.652 308.349C170.354 308.174 170.007 308.087 169.61 308.087C169.197 308.087 168.831 308.183 168.511 308.374C168.196 308.562 167.949 308.815 167.77 309.135C167.591 309.45 167.499 309.802 167.495 310.19V311.794C167.495 312.28 167.584 312.7 167.763 313.053C167.946 313.407 168.204 313.68 168.537 313.871C168.869 314.063 169.263 314.159 169.719 314.159C170.022 314.159 170.299 314.116 170.55 314.031C170.801 313.946 171.017 313.818 171.196 313.648C171.375 313.477 171.511 313.268 171.605 313.021L174.123 313.188C173.995 313.793 173.733 314.321 173.337 314.773C172.945 315.22 172.438 315.57 171.816 315.821C171.198 316.068 170.484 316.192 169.674 316.192ZM181.18 306.182V308.227H175.267V306.182H181.18ZM176.61 303.83H179.333V312.983C179.333 313.234 179.371 313.43 179.448 313.571C179.525 313.707 179.631 313.803 179.767 313.859C179.908 313.914 180.07 313.942 180.253 313.942C180.381 313.942 180.509 313.931 180.637 313.91C180.765 313.884 180.863 313.865 180.931 313.852L181.359 315.879C181.223 315.921 181.031 315.97 180.784 316.026C180.537 316.085 180.236 316.121 179.882 316.134C179.226 316.16 178.651 316.072 178.157 315.872C177.667 315.672 177.285 315.361 177.012 314.939C176.74 314.517 176.605 313.984 176.61 313.341V303.83ZM182.954 316V306.182H185.677V316H182.954ZM184.322 304.916C183.917 304.916 183.57 304.782 183.28 304.513C182.994 304.241 182.852 303.915 182.852 303.536C182.852 303.161 182.994 302.839 183.28 302.57C183.57 302.298 183.917 302.161 184.322 302.161C184.727 302.161 185.072 302.298 185.357 302.57C185.647 302.839 185.792 303.161 185.792 303.536C185.792 303.915 185.647 304.241 185.357 304.513C185.072 304.782 184.727 304.916 184.322 304.916ZM192.294 316.192C191.289 316.192 190.423 315.979 189.699 315.553C188.979 315.122 188.425 314.526 188.037 313.763C187.654 313 187.462 312.122 187.462 311.129C187.462 310.124 187.656 309.241 188.044 308.483C188.436 307.72 188.992 307.126 189.712 306.7C190.432 306.269 191.289 306.054 192.281 306.054C193.138 306.054 193.888 306.21 194.531 306.521C195.175 306.832 195.684 307.268 196.059 307.831C196.434 308.393 196.641 309.054 196.679 309.812H194.11C194.037 309.322 193.845 308.928 193.534 308.63C193.227 308.327 192.825 308.176 192.326 308.176C191.904 308.176 191.536 308.291 191.22 308.521C190.909 308.747 190.666 309.077 190.492 309.512C190.317 309.947 190.23 310.473 190.23 311.091C190.23 311.717 190.315 312.25 190.485 312.689C190.66 313.128 190.905 313.462 191.22 313.692C191.536 313.923 191.904 314.038 192.326 314.038C192.637 314.038 192.916 313.974 193.164 313.846C193.415 313.718 193.622 313.533 193.784 313.29C193.95 313.043 194.058 312.746 194.11 312.401H196.679C196.637 313.151 196.432 313.812 196.066 314.383C195.703 314.95 195.203 315.393 194.563 315.712C193.924 316.032 193.168 316.192 192.294 316.192ZM201.222 316.185C200.596 316.185 200.038 316.077 199.548 315.859C199.058 315.638 198.67 315.312 198.384 314.881C198.103 314.447 197.962 313.906 197.962 313.258C197.962 312.712 198.063 312.254 198.263 311.884C198.463 311.513 198.736 311.214 199.081 310.989C199.426 310.763 199.818 310.592 200.257 310.477C200.7 310.362 201.165 310.281 201.651 310.234C202.222 310.175 202.682 310.119 203.031 310.068C203.381 310.013 203.634 309.932 203.792 309.825C203.95 309.719 204.028 309.561 204.028 309.352V309.314C204.028 308.909 203.901 308.596 203.645 308.374C203.393 308.153 203.036 308.042 202.571 308.042C202.081 308.042 201.691 308.151 201.401 308.368C201.112 308.581 200.92 308.849 200.826 309.173L198.308 308.969C198.435 308.372 198.687 307.857 199.062 307.422C199.437 306.983 199.92 306.646 200.513 306.412C201.109 306.173 201.8 306.054 202.584 306.054C203.129 306.054 203.651 306.118 204.15 306.246C204.653 306.374 205.098 306.572 205.486 306.84C205.878 307.109 206.187 307.454 206.413 307.876C206.638 308.293 206.751 308.794 206.751 309.378V316H204.169V314.638H204.092C203.935 314.945 203.724 315.216 203.46 315.45C203.195 315.68 202.878 315.862 202.507 315.994C202.136 316.121 201.708 316.185 201.222 316.185ZM202.002 314.306C202.403 314.306 202.756 314.227 203.063 314.07C203.37 313.908 203.611 313.69 203.786 313.418C203.96 313.145 204.048 312.836 204.048 312.491V311.449C203.962 311.504 203.845 311.555 203.696 311.602C203.551 311.645 203.387 311.685 203.204 311.724C203.021 311.758 202.837 311.79 202.654 311.82C202.471 311.845 202.305 311.869 202.156 311.89C201.836 311.937 201.557 312.011 201.318 312.114C201.08 312.216 200.894 312.354 200.762 312.529C200.63 312.7 200.564 312.913 200.564 313.168C200.564 313.539 200.698 313.822 200.967 314.018C201.239 314.21 201.585 314.306 202.002 314.306ZM211.587 302.909V316H208.864V302.909H211.587ZM131.519 328.674C131.468 328.158 131.248 327.758 130.86 327.472C130.472 327.187 129.946 327.044 129.281 327.044C128.83 327.044 128.448 327.108 128.137 327.236C127.826 327.359 127.588 327.532 127.421 327.754C127.259 327.975 127.178 328.227 127.178 328.508C127.17 328.742 127.219 328.947 127.325 329.121C127.436 329.296 127.588 329.447 127.779 329.575C127.971 329.699 128.193 329.808 128.444 329.901C128.695 329.991 128.964 330.067 129.249 330.131L130.426 330.413C130.997 330.54 131.521 330.711 131.998 330.924C132.475 331.137 132.889 331.399 133.238 331.71C133.588 332.021 133.858 332.388 134.05 332.81C134.246 333.232 134.346 333.715 134.35 334.261C134.346 335.062 134.142 335.756 133.737 336.344C133.336 336.928 132.757 337.382 131.998 337.706C131.244 338.026 130.334 338.185 129.269 338.185C128.212 338.185 127.291 338.023 126.507 337.7C125.727 337.376 125.118 336.896 124.679 336.261C124.244 335.622 124.017 334.832 123.995 333.89H126.673C126.703 334.329 126.829 334.695 127.051 334.989C127.276 335.279 127.577 335.499 127.952 335.648C128.331 335.793 128.759 335.865 129.237 335.865C129.705 335.865 130.112 335.797 130.458 335.661C130.807 335.524 131.078 335.335 131.269 335.092C131.461 334.849 131.557 334.57 131.557 334.254C131.557 333.96 131.47 333.713 131.295 333.513C131.124 333.312 130.873 333.142 130.541 333.001C130.213 332.861 129.81 332.733 129.333 332.618L127.907 332.26C126.803 331.991 125.932 331.572 125.293 331.001C124.654 330.43 124.336 329.661 124.34 328.693C124.336 327.901 124.547 327.208 124.973 326.616C125.404 326.023 125.994 325.561 126.744 325.229C127.494 324.896 128.346 324.73 129.301 324.73C130.272 324.73 131.12 324.896 131.845 325.229C132.573 325.561 133.14 326.023 133.545 326.616C133.95 327.208 134.159 327.894 134.171 328.674H131.519ZM138.961 338.185C138.334 338.185 137.776 338.077 137.286 337.859C136.796 337.638 136.408 337.312 136.123 336.881C135.841 336.447 135.701 335.906 135.701 335.258C135.701 334.712 135.801 334.254 136.001 333.884C136.201 333.513 136.474 333.214 136.819 332.989C137.164 332.763 137.556 332.592 137.995 332.477C138.439 332.362 138.903 332.281 139.389 332.234C139.96 332.175 140.42 332.119 140.77 332.068C141.119 332.013 141.373 331.932 141.53 331.825C141.688 331.719 141.767 331.561 141.767 331.352V331.314C141.767 330.909 141.639 330.596 141.383 330.374C141.132 330.153 140.774 330.042 140.309 330.042C139.819 330.042 139.429 330.151 139.14 330.368C138.85 330.581 138.658 330.849 138.564 331.173L136.046 330.969C136.174 330.372 136.425 329.857 136.8 329.422C137.175 328.983 137.659 328.646 138.251 328.412C138.848 328.173 139.538 328.054 140.322 328.054C140.868 328.054 141.39 328.118 141.888 328.246C142.391 328.374 142.836 328.572 143.224 328.84C143.616 329.109 143.925 329.454 144.151 329.876C144.377 330.293 144.49 330.794 144.49 331.378V338H141.907V336.638H141.831C141.673 336.945 141.462 337.216 141.198 337.45C140.934 337.68 140.616 337.862 140.245 337.994C139.875 338.121 139.446 338.185 138.961 338.185ZM139.74 336.306C140.141 336.306 140.495 336.227 140.801 336.07C141.108 335.908 141.349 335.69 141.524 335.418C141.699 335.145 141.786 334.836 141.786 334.491V333.449C141.701 333.504 141.583 333.555 141.434 333.602C141.289 333.645 141.125 333.685 140.942 333.724C140.759 333.758 140.576 333.79 140.392 333.82C140.209 333.845 140.043 333.869 139.894 333.89C139.574 333.937 139.295 334.011 139.056 334.114C138.818 334.216 138.632 334.354 138.5 334.529C138.368 334.7 138.302 334.913 138.302 335.168C138.302 335.539 138.436 335.822 138.705 336.018C138.978 336.21 139.323 336.306 139.74 336.306ZM146.602 338V328.182H149.197V329.914H149.312C149.517 329.339 149.858 328.885 150.335 328.553C150.812 328.22 151.384 328.054 152.048 328.054C152.722 328.054 153.295 328.222 153.768 328.559C154.241 328.891 154.556 329.343 154.714 329.914H154.816C155.016 329.352 155.379 328.902 155.903 328.565C156.431 328.224 157.055 328.054 157.776 328.054C158.692 328.054 159.435 328.346 160.006 328.93C160.582 329.509 160.869 330.332 160.869 331.397V338H158.153V331.934C158.153 331.388 158.008 330.979 157.718 330.707C157.428 330.434 157.066 330.298 156.631 330.298C156.137 330.298 155.751 330.455 155.474 330.771C155.197 331.082 155.059 331.493 155.059 332.004V338H152.419V331.876C152.419 331.395 152.281 331.011 152.004 330.726C151.731 330.44 151.371 330.298 150.923 330.298C150.621 330.298 150.348 330.374 150.105 330.528C149.866 330.677 149.677 330.888 149.536 331.161C149.396 331.429 149.325 331.744 149.325 332.107V338H146.602ZM163.02 341.682V328.182H165.705V329.831H165.826C165.946 329.567 166.118 329.298 166.344 329.026C166.574 328.749 166.873 328.518 167.239 328.335C167.61 328.148 168.07 328.054 168.62 328.054C169.336 328.054 169.996 328.241 170.601 328.616C171.206 328.987 171.69 329.548 172.052 330.298C172.414 331.043 172.596 331.979 172.596 333.104C172.596 334.199 172.419 335.124 172.065 335.878C171.716 336.628 171.238 337.197 170.633 337.585C170.032 337.968 169.359 338.16 168.613 338.16C168.085 338.16 167.635 338.072 167.265 337.898C166.898 337.723 166.598 337.504 166.363 337.239C166.129 336.971 165.95 336.7 165.826 336.428H165.743V341.682H163.02ZM165.686 333.091C165.686 333.675 165.767 334.184 165.929 334.619C166.091 335.053 166.325 335.392 166.632 335.635C166.939 335.874 167.311 335.993 167.75 335.993C168.194 335.993 168.569 335.871 168.875 335.629C169.182 335.381 169.414 335.04 169.572 334.606C169.734 334.167 169.815 333.662 169.815 333.091C169.815 332.524 169.736 332.026 169.578 331.595C169.421 331.165 169.189 330.828 168.882 330.585C168.575 330.342 168.198 330.221 167.75 330.221C167.307 330.221 166.932 330.338 166.625 330.572C166.323 330.807 166.091 331.139 165.929 331.57C165.767 332 165.686 332.507 165.686 333.091ZM177.134 324.909V338H174.411V324.909H177.134ZM179.315 338V328.182H182.038V338H179.315ZM180.683 326.916C180.278 326.916 179.931 326.782 179.641 326.513C179.356 326.241 179.213 325.915 179.213 325.536C179.213 325.161 179.356 324.839 179.641 324.57C179.931 324.298 180.278 324.161 180.683 324.161C181.088 324.161 181.433 324.298 181.719 324.57C182.008 324.839 182.153 325.161 182.153 325.536C182.153 325.915 182.008 326.241 181.719 326.513C181.433 326.782 181.088 326.916 180.683 326.916ZM186.942 332.324V338H184.219V328.182H186.815V329.914H186.93C187.147 329.343 187.511 328.891 188.023 328.559C188.534 328.222 189.154 328.054 189.883 328.054C190.565 328.054 191.159 328.203 191.666 328.501C192.173 328.8 192.567 329.226 192.849 329.78C193.13 330.33 193.271 330.986 193.271 331.749V338H190.548V332.234C190.552 331.634 190.398 331.165 190.087 330.828C189.776 330.487 189.348 330.317 188.803 330.317C188.436 330.317 188.112 330.396 187.831 330.553C187.554 330.711 187.337 330.941 187.179 331.244C187.026 331.542 186.947 331.902 186.942 332.324ZM199.84 341.886C198.958 341.886 198.202 341.765 197.571 341.522C196.944 341.283 196.446 340.957 196.075 340.544C195.704 340.131 195.464 339.666 195.353 339.151L197.871 338.812C197.948 339.008 198.069 339.191 198.236 339.362C198.402 339.532 198.621 339.668 198.894 339.771C199.171 339.877 199.508 339.93 199.904 339.93C200.496 339.93 200.984 339.786 201.368 339.496C201.756 339.21 201.949 338.731 201.949 338.058V336.261H201.834C201.715 336.534 201.536 336.792 201.297 337.035C201.059 337.278 200.752 337.476 200.377 337.629C200.002 337.783 199.555 337.859 199.035 337.859C198.297 337.859 197.626 337.689 197.021 337.348C196.42 337.003 195.941 336.477 195.583 335.769C195.229 335.058 195.052 334.158 195.052 333.072C195.052 331.96 195.233 331.031 195.596 330.285C195.958 329.539 196.439 328.981 197.04 328.61C197.645 328.239 198.308 328.054 199.028 328.054C199.578 328.054 200.038 328.148 200.409 328.335C200.78 328.518 201.078 328.749 201.304 329.026C201.534 329.298 201.711 329.567 201.834 329.831H201.937V328.182H204.64V338.096C204.64 338.931 204.436 339.63 204.027 340.192C203.618 340.755 203.051 341.177 202.327 341.458C201.606 341.744 200.778 341.886 199.84 341.886ZM199.898 335.814C200.336 335.814 200.707 335.705 201.01 335.488C201.317 335.266 201.551 334.951 201.713 334.542C201.879 334.129 201.962 333.634 201.962 333.059C201.962 332.484 201.881 331.985 201.719 331.563C201.557 331.137 201.323 330.807 201.016 330.572C200.709 330.338 200.336 330.221 199.898 330.221C199.45 330.221 199.073 330.342 198.766 330.585C198.459 330.824 198.227 331.156 198.069 331.582C197.912 332.009 197.833 332.501 197.833 333.059C197.833 333.626 197.912 334.116 198.069 334.529C198.231 334.938 198.464 335.256 198.766 335.482C199.073 335.703 199.45 335.814 199.898 335.814Z" fill="black"/>
<rect x="75.5" y="294.5" width="178" height="50" stroke="black"/>
<path d="M133.007 418.191V415.909H143.759V418.191H139.751V429H137.015V418.191H133.007ZM148.201 423.324V429H145.478V415.909H148.125V420.914H148.24C148.461 420.335 148.819 419.881 149.313 419.553C149.808 419.22 150.428 419.054 151.174 419.054C151.855 419.054 152.45 419.203 152.957 419.501C153.468 419.795 153.865 420.219 154.146 420.773C154.431 421.323 154.572 421.982 154.568 422.749V429H151.845V423.234C151.849 422.629 151.696 422.158 151.384 421.822C151.078 421.485 150.647 421.317 150.093 421.317C149.723 421.317 149.394 421.396 149.109 421.553C148.828 421.711 148.606 421.941 148.444 422.244C148.286 422.542 148.206 422.902 148.201 423.324ZM161.185 429.192C160.175 429.192 159.306 428.987 158.577 428.578C157.853 428.165 157.294 427.581 156.902 426.827C156.51 426.068 156.314 425.171 156.314 424.136C156.314 423.126 156.51 422.239 156.902 421.477C157.294 420.714 157.846 420.119 158.558 419.693C159.274 419.267 160.113 419.054 161.076 419.054C161.724 419.054 162.327 419.158 162.885 419.367C163.448 419.572 163.938 419.881 164.356 420.294C164.777 420.707 165.106 421.227 165.34 421.854C165.574 422.476 165.691 423.205 165.691 424.04V424.788H157.401V423.1H163.128C163.128 422.708 163.043 422.361 162.873 422.058C162.702 421.756 162.466 421.519 162.163 421.349C161.865 421.174 161.517 421.087 161.121 421.087C160.708 421.087 160.341 421.183 160.022 421.374C159.706 421.562 159.459 421.815 159.28 422.135C159.101 422.45 159.01 422.802 159.005 423.19V424.794C159.005 425.28 159.095 425.7 159.274 426.053C159.457 426.407 159.715 426.68 160.047 426.871C160.38 427.063 160.774 427.159 161.23 427.159C161.532 427.159 161.809 427.116 162.061 427.031C162.312 426.946 162.527 426.818 162.706 426.648C162.885 426.477 163.022 426.268 163.116 426.021L165.634 426.188C165.506 426.793 165.244 427.321 164.848 427.773C164.456 428.22 163.949 428.57 163.326 428.821C162.709 429.068 161.995 429.192 161.185 429.192ZM171.905 429.192C170.912 429.192 170.053 428.981 169.329 428.559C168.608 428.133 168.052 427.54 167.66 426.782C167.268 426.019 167.072 425.135 167.072 424.129C167.072 423.115 167.268 422.229 167.66 421.47C168.052 420.707 168.608 420.115 169.329 419.693C170.053 419.267 170.912 419.054 171.905 419.054C172.897 419.054 173.754 419.267 174.474 419.693C175.199 420.115 175.757 420.707 176.149 421.47C176.541 422.229 176.737 423.115 176.737 424.129C176.737 425.135 176.541 426.019 176.149 426.782C175.757 427.54 175.199 428.133 174.474 428.559C173.754 428.981 172.897 429.192 171.905 429.192ZM171.917 427.082C172.369 427.082 172.746 426.955 173.049 426.699C173.351 426.439 173.579 426.085 173.733 425.638C173.89 425.19 173.969 424.681 173.969 424.11C173.969 423.539 173.89 423.03 173.733 422.582C173.579 422.135 173.351 421.781 173.049 421.521C172.746 421.261 172.369 421.131 171.917 421.131C171.461 421.131 171.078 421.261 170.767 421.521C170.46 421.781 170.228 422.135 170.07 422.582C169.917 423.03 169.84 423.539 169.84 424.11C169.84 424.681 169.917 425.19 170.07 425.638C170.228 426.085 170.46 426.439 170.767 426.699C171.078 426.955 171.461 427.082 171.917 427.082ZM178.508 429V419.182H181.147V420.895H181.25C181.429 420.286 181.729 419.825 182.151 419.514C182.573 419.199 183.059 419.041 183.608 419.041C183.745 419.041 183.892 419.05 184.049 419.067C184.207 419.084 184.346 419.107 184.465 419.137V421.553C184.337 421.515 184.16 421.481 183.934 421.451C183.709 421.421 183.502 421.406 183.314 421.406C182.914 421.406 182.556 421.494 182.241 421.668C181.929 421.839 181.682 422.077 181.499 422.384C181.32 422.691 181.231 423.045 181.231 423.445V429H178.508ZM187.853 432.682C187.508 432.682 187.184 432.654 186.881 432.599C186.583 432.548 186.336 432.482 186.14 432.401L186.753 430.368C187.073 430.466 187.361 430.519 187.616 430.528C187.876 430.536 188.1 430.477 188.287 430.349C188.479 430.221 188.635 430.004 188.754 429.697L188.914 429.281L185.392 419.182H188.255L190.288 426.392H190.39L192.442 419.182H195.325L191.509 430.061C191.326 430.589 191.076 431.05 190.761 431.442C190.45 431.838 190.056 432.143 189.579 432.356C189.101 432.573 188.526 432.682 187.853 432.682ZM111.138 451H106.497V437.909H111.176C112.493 437.909 113.626 438.171 114.577 438.695C115.527 439.215 116.258 439.963 116.769 440.939C117.285 441.915 117.543 443.082 117.543 444.442C117.543 445.805 117.285 446.977 116.769 447.957C116.258 448.937 115.523 449.69 114.564 450.214C113.609 450.738 112.467 451 111.138 451ZM109.265 448.629H111.023C111.841 448.629 112.529 448.484 113.087 448.194C113.65 447.9 114.072 447.446 114.353 446.832C114.638 446.214 114.781 445.418 114.781 444.442C114.781 443.474 114.638 442.684 114.353 442.07C114.072 441.457 113.652 441.005 113.094 440.715C112.536 440.425 111.847 440.281 111.029 440.281H109.265V448.629ZM124.016 451.192C123.006 451.192 122.137 450.987 121.408 450.578C120.684 450.165 120.126 449.581 119.733 448.827C119.341 448.068 119.145 447.171 119.145 446.136C119.145 445.126 119.341 444.239 119.733 443.477C120.126 442.714 120.677 442.119 121.389 441.693C122.105 441.267 122.944 441.054 123.907 441.054C124.555 441.054 125.158 441.158 125.716 441.367C126.279 441.572 126.769 441.881 127.187 442.294C127.608 442.707 127.937 443.227 128.171 443.854C128.405 444.476 128.523 445.205 128.523 446.04V446.788H120.232V445.1H125.959C125.959 444.708 125.874 444.361 125.704 444.058C125.533 443.756 125.297 443.519 124.994 443.349C124.696 443.174 124.349 443.087 123.952 443.087C123.539 443.087 123.172 443.183 122.853 443.374C122.537 443.562 122.29 443.815 122.111 444.135C121.932 444.45 121.841 444.802 121.836 445.19V446.794C121.836 447.28 121.926 447.7 122.105 448.053C122.288 448.407 122.546 448.68 122.878 448.871C123.211 449.063 123.605 449.159 124.061 449.159C124.363 449.159 124.64 449.116 124.892 449.031C125.143 448.946 125.358 448.818 125.537 448.648C125.716 448.477 125.853 448.268 125.947 448.021L128.465 448.188C128.337 448.793 128.075 449.321 127.679 449.773C127.287 450.22 126.78 450.57 126.157 450.821C125.54 451.068 124.826 451.192 124.016 451.192ZM139.189 441.182L135.757 451H132.689L129.256 441.182H132.132L134.172 448.207H134.274L136.306 441.182H139.189ZM144.741 451.192C143.731 451.192 142.862 450.987 142.133 450.578C141.408 450.165 140.85 449.581 140.458 448.827C140.066 448.068 139.87 447.171 139.87 446.136C139.87 445.126 140.066 444.239 140.458 443.477C140.85 442.714 141.402 442.119 142.114 441.693C142.83 441.267 143.669 441.054 144.632 441.054C145.28 441.054 145.883 441.158 146.441 441.367C147.004 441.572 147.494 441.881 147.911 442.294C148.333 442.707 148.661 443.227 148.896 443.854C149.13 444.476 149.247 445.205 149.247 446.04V446.788H140.957V445.1H146.684C146.684 444.708 146.599 444.361 146.428 444.058C146.258 443.756 146.021 443.519 145.719 443.349C145.42 443.174 145.073 443.087 144.677 443.087C144.263 443.087 143.897 443.183 143.577 443.374C143.262 443.562 143.015 443.815 142.836 444.135C142.657 444.45 142.565 444.802 142.561 445.19V446.794C142.561 447.28 142.651 447.7 142.83 448.053C143.013 448.407 143.271 448.68 143.603 448.871C143.935 449.063 144.33 449.159 144.786 449.159C145.088 449.159 145.365 449.116 145.616 449.031C145.868 448.946 146.083 448.818 146.262 448.648C146.441 448.477 146.577 448.268 146.671 448.021L149.19 448.188C149.062 448.793 148.8 449.321 148.403 449.773C148.011 450.22 147.504 450.57 146.882 450.821C146.264 451.068 145.55 451.192 144.741 451.192ZM153.747 437.909V451H151.024V437.909H153.747ZM160.365 451.192C159.372 451.192 158.513 450.981 157.789 450.559C157.068 450.133 156.512 449.54 156.12 448.782C155.728 448.019 155.532 447.135 155.532 446.129C155.532 445.115 155.728 444.229 156.12 443.47C156.512 442.707 157.068 442.115 157.789 441.693C158.513 441.267 159.372 441.054 160.365 441.054C161.357 441.054 162.214 441.267 162.934 441.693C163.659 442.115 164.217 442.707 164.609 443.47C165.001 444.229 165.197 445.115 165.197 446.129C165.197 447.135 165.001 448.019 164.609 448.782C164.217 449.54 163.659 450.133 162.934 450.559C162.214 450.981 161.357 451.192 160.365 451.192ZM160.377 449.082C160.829 449.082 161.206 448.955 161.509 448.699C161.811 448.439 162.039 448.085 162.193 447.638C162.35 447.19 162.429 446.681 162.429 446.11C162.429 445.539 162.35 445.03 162.193 444.582C162.039 444.135 161.811 443.781 161.509 443.521C161.206 443.261 160.829 443.131 160.377 443.131C159.921 443.131 159.538 443.261 159.227 443.521C158.92 443.781 158.688 444.135 158.53 444.582C158.377 445.03 158.3 445.539 158.3 446.11C158.3 446.681 158.377 447.19 158.53 447.638C158.688 448.085 158.92 448.439 159.227 448.699C159.538 448.955 159.921 449.082 160.377 449.082ZM166.968 454.682V441.182H169.652V442.831H169.774C169.893 442.567 170.066 442.298 170.291 442.026C170.521 441.749 170.82 441.518 171.186 441.335C171.557 441.148 172.017 441.054 172.567 441.054C173.283 441.054 173.943 441.241 174.548 441.616C175.154 441.987 175.637 442.548 175.999 443.298C176.362 444.043 176.543 444.979 176.543 446.104C176.543 447.199 176.366 448.124 176.012 448.878C175.663 449.628 175.186 450.197 174.58 450.585C173.98 450.968 173.306 451.16 172.561 451.16C172.032 451.16 171.583 451.072 171.212 450.898C170.845 450.723 170.545 450.504 170.311 450.239C170.076 449.971 169.897 449.7 169.774 449.428H169.691V454.682H166.968ZM169.633 446.091C169.633 446.675 169.714 447.184 169.876 447.619C170.038 448.053 170.272 448.392 170.579 448.635C170.886 448.874 171.259 448.993 171.698 448.993C172.141 448.993 172.516 448.871 172.823 448.629C173.129 448.381 173.362 448.04 173.519 447.606C173.681 447.167 173.762 446.662 173.762 446.091C173.762 445.524 173.683 445.026 173.526 444.595C173.368 444.165 173.136 443.828 172.829 443.585C172.522 443.342 172.145 443.221 171.698 443.221C171.254 443.221 170.879 443.338 170.573 443.572C170.27 443.807 170.038 444.139 169.876 444.57C169.714 445 169.633 445.507 169.633 446.091ZM178.358 451V441.182H180.953V442.914H181.068C181.273 442.339 181.614 441.885 182.091 441.553C182.568 441.22 183.139 441.054 183.804 441.054C184.477 441.054 185.051 441.222 185.524 441.559C185.997 441.891 186.312 442.343 186.47 442.914H186.572C186.772 442.352 187.134 441.902 187.659 441.565C188.187 441.224 188.811 441.054 189.531 441.054C190.448 441.054 191.191 441.346 191.762 441.93C192.338 442.509 192.625 443.332 192.625 444.397V451H189.909V444.934C189.909 444.388 189.764 443.979 189.474 443.707C189.184 443.434 188.822 443.298 188.387 443.298C187.893 443.298 187.507 443.455 187.23 443.771C186.953 444.082 186.815 444.493 186.815 445.004V451H184.175V444.876C184.175 444.395 184.036 444.011 183.759 443.726C183.487 443.44 183.127 443.298 182.679 443.298C182.377 443.298 182.104 443.374 181.861 443.528C181.622 443.677 181.433 443.888 181.292 444.161C181.151 444.429 181.081 444.744 181.081 445.107V451H178.358ZM199.251 451.192C198.241 451.192 197.371 450.987 196.643 450.578C195.918 450.165 195.36 449.581 194.968 448.827C194.576 448.068 194.38 447.171 194.38 446.136C194.38 445.126 194.576 444.239 194.968 443.477C195.36 442.714 195.912 442.119 196.623 441.693C197.339 441.267 198.179 441.054 199.142 441.054C199.79 441.054 200.393 441.158 200.951 441.367C201.513 441.572 202.003 441.881 202.421 442.294C202.843 442.707 203.171 443.227 203.405 443.854C203.64 444.476 203.757 445.205 203.757 446.04V446.788H195.466V445.1H201.194C201.194 444.708 201.108 444.361 200.938 444.058C200.768 443.756 200.531 443.519 200.229 443.349C199.93 443.174 199.583 443.087 199.187 443.087C198.773 443.087 198.407 443.183 198.087 443.374C197.772 443.562 197.525 443.815 197.346 444.135C197.167 444.45 197.075 444.802 197.071 445.19V446.794C197.071 447.28 197.16 447.7 197.339 448.053C197.523 448.407 197.78 448.68 198.113 448.871C198.445 449.063 198.839 449.159 199.295 449.159C199.598 449.159 199.875 449.116 200.126 449.031C200.378 448.946 200.593 448.818 200.772 448.648C200.951 448.477 201.087 448.268 201.181 448.021L203.699 448.188C203.572 448.793 203.309 449.321 202.913 449.773C202.521 450.22 202.014 450.57 201.392 450.821C200.774 451.068 200.06 451.192 199.251 451.192ZM208.257 445.324V451H205.534V441.182H208.129V442.914H208.244C208.461 442.343 208.826 441.891 209.337 441.559C209.849 441.222 210.469 441.054 211.197 441.054C211.879 441.054 212.474 441.203 212.981 441.501C213.488 441.8 213.882 442.226 214.163 442.78C214.444 443.33 214.585 443.986 214.585 444.749V451H211.862V445.234C211.866 444.634 211.713 444.165 211.402 443.828C211.091 443.487 210.662 443.317 210.117 443.317C209.751 443.317 209.427 443.396 209.145 443.553C208.868 443.711 208.651 443.941 208.493 444.244C208.34 444.542 208.261 444.902 208.257 445.324ZM221.953 441.182V443.227H216.041V441.182H221.953ZM217.383 438.83H220.106V447.983C220.106 448.234 220.145 448.43 220.221 448.571C220.298 448.707 220.404 448.803 220.541 448.859C220.681 448.914 220.843 448.942 221.027 448.942C221.154 448.942 221.282 448.931 221.41 448.91C221.538 448.884 221.636 448.865 221.704 448.852L222.132 450.879C221.996 450.921 221.804 450.97 221.557 451.026C221.31 451.085 221.01 451.121 220.656 451.134C220 451.16 219.424 451.072 218.93 450.872C218.44 450.672 218.059 450.361 217.786 449.939C217.513 449.517 217.379 448.984 217.383 448.341V438.83Z" fill="black"/>
<rect x="75.5" y="407.5" width="178" height="50" stroke="black"/>
<path d="M164.293 98.7071C164.683 99.0976 165.317 99.0976 165.707 98.7071L172.071 92.3431C172.462 91.9526 172.462 91.3195 172.071 90.9289C171.681 90.5384 171.047 90.5384 170.657 90.9289L165 96.5858L159.343 90.9289C158.953 90.5384 158.319 90.5384 157.929 90.9289C157.538 91.3195 157.538 91.9526 157.929 92.3431L164.293 98.7071ZM165 36H164V98H165H166V36H165Z" fill="black"/>
<path d="M164.293 196.707C164.683 197.098 165.317 197.098 165.707 196.707L172.071 190.343C172.462 189.953 172.462 189.319 172.071 188.929C171.681 188.538 171.047 188.538 170.657 188.929L165 194.586L159.343 188.929C158.953 188.538 158.319 188.538 157.929 188.929C157.538 189.319 157.538 189.953 157.929 190.343L164.293 196.707ZM165 136H164V196H165H166V136H165Z" fill="black"/>
<path d="M164.293 294.707C164.683 295.098 165.317 295.098 165.707 294.707L172.071 288.343C172.462 287.953 172.462 287.319 172.071 286.929C171.681 286.538 171.047 286.538 170.657 286.929L165 292.586L159.343 286.929C158.953 286.538 158.319 286.538 157.929 286.929C157.538 287.319 157.538 287.953 157.929 288.343L164.293 294.707ZM165 232H164V294H165H166V232H165Z" fill="black"/>
<path d="M164.293 406.707C164.683 407.098 165.317 407.098 165.707 406.707L172.071 400.343C172.462 399.953 172.462 399.319 172.071 398.929C171.681 398.538 171.047 398.538 170.657 398.929L165 404.586L159.343 398.929C158.953 398.538 158.319 398.538 157.929 398.929C157.538 399.319 157.538 399.953 157.929 400.343L164.293 406.707ZM165 346H164V406H165H166V346H165Z" fill="black"/>
<path d="M75 16L29 16V98" stroke="black" stroke-width="2"/>
<path d="M29 277L29 320H75" stroke="black" stroke-width="2"/>
<path d="M253.5 17.8351L304.292 17.8351L304.292 98.3618" stroke="black" stroke-width="2"/>
<path d="M304 277L304 320L254 320" stroke="black" stroke-width="2"/>
</svg>
