
<svg width="290" height="443" viewBox="0 0 290 443" fill="none" xmlns="http://www.w3.org/2000/svg">
<path d="M73.7784 123H69.1378V109.909H73.8168C75.1335 109.909 76.267 110.171 77.2173 110.695C78.1676 111.215 78.8984 111.963 79.4098 112.939C79.9254 113.915 80.1832 115.082 80.1832 116.442C80.1832 117.805 79.9254 118.977 79.4098 119.957C78.8984 120.937 78.1634 121.69 77.2045 122.214C76.25 122.738 75.108 123 73.7784 123ZM71.9055 120.629H73.6634C74.4815 120.629 75.1697 120.484 75.728 120.194C76.2905 119.9 76.7124 119.446 76.9936 118.832C77.2791 118.214 77.4219 117.418 77.4219 116.442C77.4219 115.474 77.2791 114.684 76.9936 114.07C76.7124 113.457 76.2926 113.005 75.7344 112.715C75.1761 112.425 74.4879 112.281 73.6697 112.281H71.9055V120.629ZM84.9821 123.185C84.3556 123.185 83.7974 123.077 83.3074 122.859C82.8173 122.638 82.4295 122.312 82.144 121.881C81.8627 121.447 81.7221 120.906 81.7221 120.258C81.7221 119.712 81.8223 119.254 82.0225 118.884C82.2228 118.513 82.4956 118.214 82.8407 117.989C83.1859 117.763 83.5779 117.592 84.0169 117.477C84.46 117.362 84.9245 117.281 85.4103 117.234C85.9814 117.175 86.4416 117.119 86.791 117.068C87.1404 117.013 87.394 116.932 87.5517 116.825C87.7093 116.719 87.7882 116.561 87.7882 116.352V116.314C87.7882 115.909 87.6603 115.596 87.4047 115.374C87.1532 115.153 86.7953 115.042 86.3308 115.042C85.8407 115.042 85.4508 115.151 85.161 115.368C84.8713 115.581 84.6795 115.849 84.5858 116.173L82.0673 115.969C82.1951 115.372 82.4466 114.857 82.8216 114.422C83.1966 113.983 83.6802 113.646 84.2725 113.412C84.8691 113.173 85.5595 113.054 86.3436 113.054C86.889 113.054 87.411 113.118 87.9096 113.246C88.4125 113.374 88.8578 113.572 89.2456 113.84C89.6376 114.109 89.9466 114.454 90.1724 114.876C90.3983 115.293 90.5112 115.794 90.5112 116.378V123H87.9288V121.638H87.8521C87.6944 121.945 87.4835 122.216 87.2193 122.45C86.9551 122.68 86.6376 122.862 86.2669 122.994C85.8961 123.121 85.4679 123.185 84.9821 123.185ZM85.7619 121.306C86.1625 121.306 86.5162 121.227 86.823 121.07C87.1298 120.908 87.3706 120.69 87.5453 120.418C87.72 120.145 87.8074 119.836 87.8074 119.491V118.449C87.7221 118.504 87.6049 118.555 87.4558 118.602C87.3109 118.645 87.1468 118.685 86.9636 118.724C86.7804 118.758 86.5971 118.79 86.4139 118.82C86.2306 118.845 86.0645 118.869 85.9153 118.89C85.5957 118.937 85.3166 119.011 85.0779 119.114C84.8393 119.216 84.6539 119.354 84.5218 119.529C84.3897 119.7 84.3237 119.913 84.3237 120.168C84.3237 120.539 84.4579 120.822 84.7264 121.018C84.9991 121.21 85.3443 121.306 85.7619 121.306ZM97.8461 113.182V115.227H91.9334V113.182H97.8461ZM93.2757 110.83H95.9988V119.983C95.9988 120.234 96.0371 120.43 96.1138 120.571C96.1905 120.707 96.2971 120.803 96.4334 120.859C96.574 120.914 96.736 120.942 96.9192 120.942C97.0471 120.942 97.1749 120.931 97.3027 120.91C97.4306 120.884 97.5286 120.865 97.5968 120.852L98.025 122.879C97.8887 122.921 97.6969 122.97 97.4498 123.026C97.2026 123.085 96.9022 123.121 96.5485 123.134C95.8922 123.16 95.3169 123.072 94.8226 122.872C94.3326 122.672 93.9512 122.361 93.6784 121.939C93.4057 121.517 93.2715 120.984 93.2757 120.341V110.83ZM102.42 123.185C101.793 123.185 101.235 123.077 100.745 122.859C100.255 122.638 99.867 122.312 99.5815 121.881C99.3002 121.447 99.1596 120.906 99.1596 120.258C99.1596 119.712 99.2598 119.254 99.46 118.884C99.6603 118.513 99.9331 118.214 100.278 117.989C100.623 117.763 101.015 117.592 101.454 117.477C101.898 117.362 102.362 117.281 102.848 117.234C103.419 117.175 103.879 117.119 104.229 117.068C104.578 117.013 104.831 116.932 104.989 116.825C105.147 116.719 105.226 116.561 105.226 116.352V116.314C105.226 115.909 105.098 115.596 104.842 115.374C104.591 115.153 104.233 115.042 103.768 115.042C103.278 115.042 102.888 115.151 102.599 115.368C102.309 115.581 102.117 115.849 102.023 116.173L99.5048 115.969C99.6326 115.372 99.8841 114.857 100.259 114.422C100.634 113.983 101.118 113.646 101.71 113.412C102.307 113.173 102.997 113.054 103.781 113.054C104.327 113.054 104.849 113.118 105.347 113.246C105.85 113.374 106.295 113.572 106.683 113.84C107.075 114.109 107.384 114.454 107.61 114.876C107.836 115.293 107.949 115.794 107.949 116.378V123H105.366V121.638H105.29C105.132 121.945 104.921 122.216 104.657 122.45C104.393 122.68 104.075 122.862 103.704 122.994C103.334 123.121 102.905 123.185 102.42 123.185ZM103.199 121.306C103.6 121.306 103.954 121.227 104.26 121.07C104.567 120.908 104.808 120.69 104.983 120.418C105.157 120.145 105.245 119.836 105.245 119.491V118.449C105.16 118.504 105.042 118.555 104.893 118.602C104.748 118.645 104.584 118.685 104.401 118.724C104.218 118.758 104.035 118.79 103.851 118.82C103.668 118.845 103.502 118.869 103.353 118.89C103.033 118.937 102.754 119.011 102.515 119.114C102.277 119.216 102.091 119.354 101.959 119.529C101.827 119.7 101.761 119.913 101.761 120.168C101.761 120.539 101.895 120.822 102.164 121.018C102.437 121.21 102.782 121.306 103.199 121.306ZM125.829 114.492H123.029C122.978 114.13 122.874 113.808 122.716 113.527C122.558 113.241 122.356 112.999 122.109 112.798C121.862 112.598 121.576 112.445 121.252 112.338C120.933 112.232 120.585 112.178 120.21 112.178C119.533 112.178 118.942 112.347 118.44 112.683C117.937 113.016 117.547 113.501 117.27 114.141C116.993 114.776 116.854 115.547 116.854 116.455C116.854 117.388 116.993 118.172 117.27 118.807C117.551 119.442 117.943 119.921 118.446 120.245C118.949 120.569 119.531 120.731 120.191 120.731C120.562 120.731 120.905 120.682 121.22 120.584C121.54 120.486 121.823 120.343 122.07 120.156C122.317 119.964 122.522 119.732 122.684 119.459C122.85 119.186 122.965 118.875 123.029 118.526L125.829 118.538C125.756 119.139 125.575 119.719 125.286 120.277C125 120.831 124.614 121.327 124.129 121.766C123.647 122.201 123.072 122.546 122.403 122.802C121.738 123.053 120.986 123.179 120.146 123.179C118.979 123.179 117.935 122.915 117.014 122.386C116.098 121.858 115.374 121.093 114.841 120.092C114.312 119.09 114.048 117.878 114.048 116.455C114.048 115.027 114.317 113.812 114.854 112.811C115.391 111.81 116.119 111.047 117.04 110.523C117.96 109.994 118.996 109.73 120.146 109.73C120.905 109.73 121.608 109.837 122.256 110.05C122.908 110.263 123.485 110.574 123.988 110.983C124.491 111.388 124.9 111.884 125.215 112.472C125.535 113.06 125.739 113.734 125.829 114.492ZM132.199 123.192C131.206 123.192 130.347 122.981 129.623 122.559C128.902 122.133 128.346 121.54 127.954 120.782C127.562 120.019 127.366 119.135 127.366 118.129C127.366 117.115 127.562 116.229 127.954 115.47C128.346 114.707 128.902 114.115 129.623 113.693C130.347 113.267 131.206 113.054 132.199 113.054C133.191 113.054 134.048 113.267 134.768 113.693C135.493 114.115 136.051 114.707 136.443 115.47C136.835 116.229 137.031 117.115 137.031 118.129C137.031 119.135 136.835 120.019 136.443 120.782C136.051 121.54 135.493 122.133 134.768 122.559C134.048 122.981 133.191 123.192 132.199 123.192ZM132.211 121.082C132.663 121.082 133.04 120.955 133.343 120.699C133.645 120.439 133.873 120.085 134.027 119.638C134.184 119.19 134.263 118.681 134.263 118.11C134.263 117.539 134.184 117.03 134.027 116.582C133.873 116.135 133.645 115.781 133.343 115.521C133.04 115.261 132.663 115.131 132.211 115.131C131.755 115.131 131.372 115.261 131.061 115.521C130.754 115.781 130.522 116.135 130.364 116.582C130.211 117.03 130.134 117.539 130.134 118.11C130.134 118.681 130.211 119.19 130.364 119.638C130.522 120.085 130.754 120.439 131.061 120.699C131.372 120.955 131.755 121.082 132.211 121.082ZM141.525 109.909V123H138.801V109.909H141.525ZM146.429 109.909V123H143.706V109.909H146.429ZM153.085 123.192C152.075 123.192 151.205 122.987 150.477 122.578C149.752 122.165 149.194 121.581 148.802 120.827C148.41 120.068 148.214 119.171 148.214 118.136C148.214 117.126 148.41 116.239 148.802 115.477C149.194 114.714 149.746 114.119 150.457 113.693C151.173 113.267 152.013 113.054 152.976 113.054C153.624 113.054 154.227 113.158 154.785 113.367C155.347 113.572 155.837 113.881 156.255 114.294C156.677 114.707 157.005 115.227 157.239 115.854C157.474 116.476 157.591 117.205 157.591 118.04V118.788H149.3V117.1H155.028C155.028 116.708 154.942 116.361 154.772 116.058C154.602 115.756 154.365 115.519 154.062 115.349C153.764 115.174 153.417 115.087 153.021 115.087C152.607 115.087 152.241 115.183 151.921 115.374C151.606 115.562 151.359 115.815 151.18 116.135C151.001 116.45 150.909 116.802 150.905 117.19V118.794C150.905 119.28 150.994 119.7 151.173 120.053C151.357 120.407 151.614 120.68 151.947 120.871C152.279 121.063 152.673 121.159 153.129 121.159C153.432 121.159 153.709 121.116 153.96 121.031C154.212 120.946 154.427 120.818 154.606 120.648C154.785 120.477 154.921 120.268 155.015 120.021L157.533 120.188C157.406 120.793 157.143 121.321 156.747 121.773C156.355 122.22 155.848 122.57 155.226 122.821C154.608 123.068 153.894 123.192 153.085 123.192ZM163.804 123.192C162.798 123.192 161.933 122.979 161.209 122.553C160.489 122.122 159.935 121.526 159.547 120.763C159.163 120 158.972 119.122 158.972 118.129C158.972 117.124 159.165 116.241 159.553 115.483C159.945 114.72 160.501 114.126 161.222 113.7C161.942 113.269 162.798 113.054 163.791 113.054C164.648 113.054 165.398 113.21 166.041 113.521C166.685 113.832 167.194 114.268 167.569 114.831C167.944 115.393 168.151 116.054 168.189 116.812H165.619C165.547 116.322 165.355 115.928 165.044 115.63C164.737 115.327 164.335 115.176 163.836 115.176C163.414 115.176 163.045 115.291 162.73 115.521C162.419 115.747 162.176 116.077 162.001 116.512C161.827 116.947 161.739 117.473 161.739 118.091C161.739 118.717 161.825 119.25 161.995 119.689C162.17 120.128 162.415 120.462 162.73 120.692C163.045 120.923 163.414 121.038 163.836 121.038C164.147 121.038 164.426 120.974 164.673 120.846C164.925 120.718 165.131 120.533 165.293 120.29C165.46 120.043 165.568 119.746 165.619 119.401H168.189C168.146 120.151 167.942 120.812 167.575 121.383C167.213 121.95 166.712 122.393 166.073 122.712C165.434 123.032 164.678 123.192 163.804 123.192ZM175.155 113.182V115.227H169.242V113.182H175.155ZM170.584 110.83H173.307V119.983C173.307 120.234 173.346 120.43 173.422 120.571C173.499 120.707 173.606 120.803 173.742 120.859C173.883 120.914 174.045 120.942 174.228 120.942C174.356 120.942 174.483 120.931 174.611 120.91C174.739 120.884 174.837 120.865 174.905 120.852L175.334 122.879C175.197 122.921 175.006 122.97 174.758 123.026C174.511 123.085 174.211 123.121 173.857 123.134C173.201 123.16 172.626 123.072 172.131 122.872C171.641 122.672 171.26 122.361 170.987 121.939C170.714 121.517 170.58 120.984 170.584 120.341V110.83ZM176.928 123V113.182H179.651V123H176.928ZM178.296 111.916C177.892 111.916 177.544 111.782 177.254 111.513C176.969 111.241 176.826 110.915 176.826 110.536C176.826 110.161 176.969 109.839 177.254 109.57C177.544 109.298 177.892 109.161 178.296 109.161C178.701 109.161 179.046 109.298 179.332 109.57C179.622 109.839 179.767 110.161 179.767 110.536C179.767 110.915 179.622 111.241 179.332 111.513C179.046 111.782 178.701 111.916 178.296 111.916ZM186.269 123.192C185.276 123.192 184.417 122.981 183.693 122.559C182.973 122.133 182.417 121.54 182.025 120.782C181.632 120.019 181.436 119.135 181.436 118.129C181.436 117.115 181.632 116.229 182.025 115.47C182.417 114.707 182.973 114.115 183.693 113.693C184.417 113.267 185.276 113.054 186.269 113.054C187.262 113.054 188.118 113.267 188.838 113.693C189.563 114.115 190.121 114.707 190.513 115.47C190.905 116.229 191.101 117.115 191.101 118.129C191.101 119.135 190.905 120.019 190.513 120.782C190.121 121.54 189.563 122.133 188.838 122.559C188.118 122.981 187.262 123.192 186.269 123.192ZM186.282 121.082C186.733 121.082 187.11 120.955 187.413 120.699C187.716 120.439 187.944 120.085 188.097 119.638C188.255 119.19 188.333 118.681 188.333 118.11C188.333 117.539 188.255 117.03 188.097 116.582C187.944 116.135 187.716 115.781 187.413 115.521C187.11 115.261 186.733 115.131 186.282 115.131C185.826 115.131 185.442 115.261 185.131 115.521C184.824 115.781 184.592 116.135 184.434 116.582C184.281 117.03 184.204 117.539 184.204 118.11C184.204 118.681 184.281 119.19 184.434 119.638C184.592 120.085 184.824 120.439 185.131 120.699C185.442 120.955 185.826 121.082 186.282 121.082ZM195.595 117.324V123H192.872V113.182H195.467V114.914H195.582C195.799 114.343 196.164 113.891 196.675 113.559C197.186 113.222 197.806 113.054 198.535 113.054C199.217 113.054 199.811 113.203 200.319 113.501C200.826 113.8 201.22 114.226 201.501 114.78C201.782 115.33 201.923 115.986 201.923 116.749V123H199.2V117.234C199.204 116.634 199.051 116.165 198.74 115.828C198.429 115.487 198 115.317 197.455 115.317C197.088 115.317 196.765 115.396 196.483 115.553C196.206 115.711 195.989 115.941 195.831 116.244C195.678 116.542 195.599 116.902 195.595 117.324Z" fill="black"/>
<rect x="46.5" y="98.5" width="178" height="35" stroke="black"/>
<path d="M84.9815 28V14.9091H90.1463C91.1349 14.9091 91.9787 15.0859 92.6776 15.4396C93.3807 15.7891 93.9155 16.2855 94.282 16.929C94.6527 17.5682 94.8381 18.3203 94.8381 19.1854C94.8381 20.0547 94.6506 20.8026 94.2756 21.429C93.9006 22.0511 93.3572 22.5284 92.6456 22.8608C91.9382 23.1932 91.0817 23.3594 90.076 23.3594H86.6179V21.1349H89.6286C90.157 21.1349 90.5959 21.0625 90.9453 20.9176C91.2947 20.7727 91.5547 20.5554 91.7251 20.2656C91.8999 19.9759 91.9872 19.6158 91.9872 19.1854C91.9872 18.7507 91.8999 18.3842 91.7251 18.0859C91.5547 17.7876 91.2926 17.5618 90.9389 17.4084C90.5895 17.2507 90.1484 17.1719 89.6158 17.1719H87.7493V28H84.9815ZM92.0511 22.0426L95.3047 28H92.2493L89.0661 22.0426H92.0511ZM101.059 28.1918C100.049 28.1918 99.1799 27.9872 98.4512 27.5781C97.7267 27.1648 97.1685 26.581 96.7765 25.8267C96.3844 25.0682 96.1884 24.1712 96.1884 23.1357C96.1884 22.1257 96.3844 21.2393 96.7765 20.4766C97.1685 19.7138 97.7203 19.1193 98.432 18.6932C99.1479 18.267 99.9874 18.054 100.95 18.054C101.598 18.054 102.201 18.1584 102.759 18.3672C103.322 18.5717 103.812 18.8807 104.23 19.294C104.651 19.7074 104.98 20.2273 105.214 20.8537C105.448 21.4759 105.566 22.2045 105.566 23.0398V23.7876H97.275V22.1001H103.002C103.002 21.7081 102.917 21.3608 102.747 21.0582C102.576 20.7557 102.34 20.5192 102.037 20.3487C101.739 20.174 101.392 20.0866 100.995 20.0866C100.582 20.0866 100.215 20.1825 99.8958 20.3743C99.5804 20.5618 99.3333 20.8153 99.1543 21.1349C98.9753 21.4503 98.8837 21.8018 98.8794 22.1896V23.794C98.8794 24.2798 98.9689 24.6996 99.1479 25.0533C99.3311 25.407 99.589 25.6797 99.9213 25.8714C100.254 26.0632 100.648 26.1591 101.104 26.1591C101.406 26.1591 101.683 26.1165 101.935 26.0312C102.186 25.946 102.401 25.8182 102.58 25.6477C102.759 25.4773 102.896 25.2685 102.99 25.0213L105.508 25.1875C105.38 25.7926 105.118 26.321 104.722 26.7727C104.33 27.2202 103.823 27.5696 103.2 27.821C102.583 28.0682 101.869 28.1918 101.059 28.1918ZM112.622 18.1818V20.2273H106.563V18.1818H112.622ZM107.95 28V17.4723C107.95 16.7607 108.088 16.1705 108.365 15.7017C108.646 15.233 109.03 14.8814 109.516 14.647C110.002 14.4126 110.553 14.2955 111.171 14.2955C111.589 14.2955 111.97 14.3274 112.316 14.3913C112.665 14.4553 112.925 14.5128 113.095 14.5639L112.61 16.6094C112.503 16.5753 112.371 16.5433 112.213 16.5135C112.06 16.4837 111.902 16.4688 111.74 16.4688C111.34 16.4688 111.061 16.5625 110.903 16.75C110.745 16.9332 110.666 17.1911 110.666 17.5234V28H107.95ZM114.286 28V18.1818H117.009V28H114.286ZM115.654 16.9162C115.249 16.9162 114.902 16.782 114.612 16.5135C114.326 16.2408 114.184 15.9148 114.184 15.5355C114.184 15.1605 114.326 14.8388 114.612 14.5703C114.902 14.2976 115.249 14.1612 115.654 14.1612C116.059 14.1612 116.404 14.2976 116.689 14.5703C116.979 14.8388 117.124 15.1605 117.124 15.5355C117.124 15.9148 116.979 16.2408 116.689 16.5135C116.404 16.782 116.059 16.9162 115.654 16.9162ZM121.913 22.3239V28H119.19V18.1818H121.785V19.9141H121.9C122.118 19.343 122.482 18.8913 122.993 18.5589C123.505 18.2223 124.125 18.054 124.854 18.054C125.535 18.054 126.13 18.2031 126.637 18.5014C127.144 18.7997 127.538 19.2259 127.819 19.7798C128.101 20.3295 128.241 20.9858 128.241 21.7486V28H125.518V22.2344C125.523 21.6335 125.369 21.1648 125.058 20.8281C124.747 20.4872 124.319 20.3168 123.773 20.3168C123.407 20.3168 123.083 20.3956 122.802 20.5533C122.525 20.7109 122.307 20.9411 122.15 21.2436C121.996 21.5419 121.917 21.902 121.913 22.3239ZM130.387 28V18.1818H133.11V28H130.387ZM131.755 16.9162C131.35 16.9162 131.003 16.782 130.713 16.5135C130.428 16.2408 130.285 15.9148 130.285 15.5355C130.285 15.1605 130.428 14.8388 130.713 14.5703C131.003 14.2976 131.35 14.1612 131.755 14.1612C132.16 14.1612 132.505 14.2976 132.791 14.5703C133.081 14.8388 133.225 15.1605 133.225 15.5355C133.225 15.9148 133.081 16.2408 132.791 16.5135C132.505 16.782 132.16 16.9162 131.755 16.9162ZM138.015 22.3239V28H135.292V18.1818H137.887V19.9141H138.002C138.219 19.343 138.584 18.8913 139.095 18.5589C139.606 18.2223 140.226 18.054 140.955 18.054C141.637 18.054 142.231 18.2031 142.738 18.5014C143.246 18.7997 143.64 19.2259 143.921 19.7798C144.202 20.3295 144.343 20.9858 144.343 21.7486V28H141.62V22.2344C141.624 21.6335 141.471 21.1648 141.16 20.8281C140.849 20.4872 140.42 20.3168 139.875 20.3168C139.508 20.3168 139.184 20.3956 138.903 20.5533C138.626 20.7109 138.409 20.9411 138.251 21.2436C138.098 21.5419 138.019 21.902 138.015 22.3239ZM150.912 31.8864C150.03 31.8864 149.274 31.7649 148.643 31.522C148.017 31.2834 147.518 30.9574 147.147 30.544C146.777 30.1307 146.536 29.6662 146.425 29.1506L148.944 28.8118C149.02 29.0078 149.142 29.1911 149.308 29.3615C149.474 29.532 149.694 29.6683 149.966 29.7706C150.243 29.8771 150.58 29.9304 150.976 29.9304C151.569 29.9304 152.056 29.7855 152.44 29.4957C152.828 29.2102 153.022 28.7308 153.022 28.0575V26.2614H152.907C152.787 26.5341 152.608 26.7919 152.37 27.0348C152.131 27.2777 151.824 27.4759 151.449 27.6293C151.074 27.7827 150.627 27.8594 150.107 27.8594C149.37 27.8594 148.699 27.6889 148.093 27.348C147.493 27.0028 147.013 26.4766 146.655 25.7692C146.301 25.0575 146.125 24.1584 146.125 23.0717C146.125 21.9595 146.306 21.0305 146.668 20.2848C147.03 19.5391 147.512 18.9808 148.113 18.6101C148.718 18.2393 149.38 18.054 150.1 18.054C150.65 18.054 151.11 18.1477 151.481 18.3352C151.852 18.5185 152.15 18.7486 152.376 19.0256C152.606 19.2983 152.783 19.5668 152.907 19.831H153.009V18.1818H155.713V28.0959C155.713 28.9311 155.508 29.63 155.099 30.1925C154.69 30.755 154.123 31.1768 153.399 31.4581C152.679 31.7436 151.85 31.8864 150.912 31.8864ZM150.97 25.8139C151.409 25.8139 151.779 25.7053 152.082 25.4879C152.389 25.2663 152.623 24.951 152.785 24.5419C152.951 24.1286 153.034 23.6342 153.034 23.0589C153.034 22.4837 152.953 21.9851 152.792 21.5632C152.63 21.1371 152.395 20.8068 152.088 20.5724C151.782 20.3381 151.409 20.2209 150.97 20.2209C150.522 20.2209 150.145 20.3423 149.838 20.5852C149.532 20.8239 149.299 21.1562 149.142 21.5824C148.984 22.0085 148.905 22.5007 148.905 23.0589C148.905 23.6257 148.984 24.1158 149.142 24.5291C149.304 24.9382 149.536 25.2557 149.838 25.4815C150.145 25.7031 150.522 25.8139 150.97 25.8139ZM167.268 18.1818V20.2273H161.355V18.1818H167.268ZM162.698 15.8295H165.421V24.983C165.421 25.2344 165.459 25.4304 165.536 25.571C165.612 25.7074 165.719 25.8033 165.855 25.8587C165.996 25.9141 166.158 25.9418 166.341 25.9418C166.469 25.9418 166.597 25.9311 166.725 25.9098C166.852 25.8842 166.95 25.8651 167.019 25.8523L167.447 27.8786C167.311 27.9212 167.119 27.9702 166.872 28.0256C166.624 28.0852 166.324 28.1214 165.97 28.1342C165.314 28.1598 164.739 28.0724 164.244 27.8722C163.754 27.6719 163.373 27.3608 163.1 26.9389C162.828 26.517 162.693 25.9844 162.698 25.3409V15.8295ZM171.976 22.3239V28H169.253V14.9091H171.899V19.9141H172.014C172.236 19.3345 172.594 18.8807 173.088 18.5526C173.582 18.2202 174.202 18.054 174.948 18.054C175.63 18.054 176.224 18.2031 176.731 18.5014C177.243 18.7955 177.639 19.2195 177.92 19.7734C178.206 20.3232 178.346 20.9815 178.342 21.7486V28H175.619V22.2344C175.623 21.6293 175.47 21.1584 175.159 20.8217C174.852 20.4851 174.422 20.3168 173.868 20.3168C173.497 20.3168 173.169 20.3956 172.883 20.5533C172.602 20.7109 172.381 20.9411 172.219 21.2436C172.061 21.5419 171.98 21.902 171.976 22.3239ZM184.96 28.1918C183.95 28.1918 183.08 27.9872 182.352 27.5781C181.627 27.1648 181.069 26.581 180.677 25.8267C180.285 25.0682 180.089 24.1712 180.089 23.1357C180.089 22.1257 180.285 21.2393 180.677 20.4766C181.069 19.7138 181.621 19.1193 182.332 18.6932C183.048 18.267 183.888 18.054 184.851 18.054C185.499 18.054 186.102 18.1584 186.66 18.3672C187.222 18.5717 187.712 18.8807 188.13 19.294C188.552 19.7074 188.88 20.2273 189.114 20.8537C189.349 21.4759 189.466 22.2045 189.466 23.0398V23.7876H181.175V22.1001H186.903C186.903 21.7081 186.817 21.3608 186.647 21.0582C186.477 20.7557 186.24 20.5192 185.938 20.3487C185.639 20.174 185.292 20.0866 184.896 20.0866C184.482 20.0866 184.116 20.1825 183.796 20.3743C183.481 20.5618 183.234 20.8153 183.055 21.1349C182.876 21.4503 182.784 21.8018 182.78 22.1896V23.794C182.78 24.2798 182.869 24.6996 183.048 25.0533C183.232 25.407 183.489 25.6797 183.822 25.8714C184.154 26.0632 184.548 26.1591 185.004 26.1591C185.307 26.1591 185.584 26.1165 185.835 26.0312C186.087 25.946 186.302 25.8182 186.481 25.6477C186.66 25.4773 186.796 25.2685 186.89 25.0213L189.408 25.1875C189.281 25.7926 189.018 26.321 188.622 26.7727C188.23 27.2202 187.723 27.5696 187.101 27.821C186.483 28.0682 185.769 28.1918 184.96 28.1918ZM71.3225 36.9091V50H68.5548V36.9091H71.3225ZM76.2716 44.3239V50H73.5486V40.1818H76.1437V41.9141H76.2588C76.4761 41.343 76.8405 40.8913 77.3518 40.5589C77.8632 40.2223 78.4832 40.054 79.2119 40.054C79.8937 40.054 80.4882 40.2031 80.9953 40.5014C81.5024 40.7997 81.8966 41.2259 82.1778 41.7798C82.4591 42.3295 82.5997 42.9858 82.5997 43.7486V50H79.8767V44.2344C79.8809 43.6335 79.7275 43.1648 79.4165 42.8281C79.1054 42.4872 78.6771 42.3168 78.1317 42.3168C77.7652 42.3168 77.4413 42.3956 77.1601 42.5533C76.8831 42.7109 76.6657 42.9411 76.5081 43.2436C76.3547 43.5419 76.2758 43.902 76.2716 44.3239ZM89.9681 40.1818V42.2273H84.0555V40.1818H89.9681ZM85.3978 37.8295H88.1208V46.983C88.1208 47.2344 88.1592 47.4304 88.2359 47.571C88.3126 47.7074 88.4191 47.8033 88.5555 47.8587C88.6961 47.9141 88.858 47.9418 89.0413 47.9418C89.1691 47.9418 89.297 47.9311 89.4248 47.9098C89.5526 47.8842 89.6507 47.8651 89.7188 47.8523L90.1471 49.8786C90.0107 49.9212 89.819 49.9702 89.5718 50.0256C89.3247 50.0852 89.0242 50.1214 88.6705 50.1342C88.0143 50.1598 87.439 50.0724 86.9447 49.8722C86.4546 49.6719 86.0732 49.3608 85.8005 48.9389C85.5278 48.517 85.3936 47.9844 85.3978 47.3409V37.8295ZM96.1109 50.1918C95.1009 50.1918 94.2316 49.9872 93.5029 49.5781C92.7785 49.1648 92.2203 48.581 91.8282 47.8267C91.4362 47.0682 91.2401 46.1712 91.2401 45.1357C91.2401 44.1257 91.4362 43.2393 91.8282 42.4766C92.2203 41.7138 92.7721 41.1193 93.4838 40.6932C94.1997 40.267 95.0392 40.054 96.0022 40.054C96.6499 40.054 97.2529 40.1584 97.8112 40.3672C98.3737 40.5717 98.8637 40.8807 99.2813 41.294C99.7032 41.7074 100.031 42.2273 100.266 42.8537C100.5 43.4759 100.617 44.2045 100.617 45.0398V45.7876H92.3268V44.1001H98.0541C98.0541 43.7081 97.9688 43.3608 97.7984 43.0582C97.6279 42.7557 97.3914 42.5192 97.0889 42.3487C96.7906 42.174 96.4433 42.0866 96.047 42.0866C95.6336 42.0866 95.2671 42.1825 94.9475 42.3743C94.6322 42.5618 94.385 42.8153 94.2061 43.1349C94.0271 43.4503 93.9355 43.8018 93.9312 44.1896V45.794C93.9312 46.2798 94.0207 46.6996 94.1997 47.0533C94.3829 47.407 94.6407 47.6797 94.9731 47.8714C95.3055 48.0632 95.6997 48.1591 96.1556 48.1591C96.4582 48.1591 96.7352 48.1165 96.9866 48.0312C97.238 47.946 97.4532 47.8182 97.6322 47.6477C97.8112 47.4773 97.9475 47.2685 98.0413 47.0213L100.56 47.1875C100.432 47.7926 100.17 48.321 99.7735 48.7727C99.3815 49.2202 98.8744 49.5696 98.2522 49.821C97.6343 50.0682 96.9205 50.1918 96.1109 50.1918ZM102.394 50V40.1818H105.034V41.8949H105.136C105.315 41.2855 105.616 40.8253 106.038 40.5142C106.46 40.1989 106.945 40.0412 107.495 40.0412C107.631 40.0412 107.778 40.0497 107.936 40.0668C108.094 40.0838 108.232 40.1072 108.352 40.1371V42.5533C108.224 42.5149 108.047 42.4808 107.821 42.451C107.595 42.4212 107.389 42.4062 107.201 42.4062C106.801 42.4062 106.443 42.4936 106.127 42.6683C105.816 42.8388 105.569 43.0774 105.386 43.3842C105.207 43.6911 105.117 44.0447 105.117 44.4453V50H102.394ZM119.212 40.1818L115.779 50H112.711L109.278 40.1818H112.155L114.194 47.2067H114.296L116.329 40.1818H119.212ZM120.605 50V40.1818H123.328V50H120.605ZM121.973 38.9162C121.568 38.9162 121.221 38.782 120.931 38.5135C120.646 38.2408 120.503 37.9148 120.503 37.5355C120.503 37.1605 120.646 36.8388 120.931 36.5703C121.221 36.2976 121.568 36.1612 121.973 36.1612C122.378 36.1612 122.723 36.2976 123.009 36.5703C123.298 36.8388 123.443 37.1605 123.443 37.5355C123.443 37.9148 123.298 38.2408 123.009 38.5135C122.723 38.782 122.378 38.9162 121.973 38.9162ZM129.984 50.1918C128.974 50.1918 128.105 49.9872 127.376 49.5781C126.652 49.1648 126.093 48.581 125.701 47.8267C125.309 47.0682 125.113 46.1712 125.113 45.1357C125.113 44.1257 125.309 43.2393 125.701 42.4766C126.093 41.7138 126.645 41.1193 127.357 40.6932C128.073 40.267 128.912 40.054 129.875 40.054C130.523 40.054 131.126 40.1584 131.684 40.3672C132.247 40.5717 132.737 40.8807 133.154 41.294C133.576 41.7074 133.904 42.2273 134.139 42.8537C134.373 43.4759 134.49 44.2045 134.49 45.0398V45.7876H126.2V44.1001H131.927C131.927 43.7081 131.842 43.3608 131.671 43.0582C131.501 42.7557 131.264 42.5192 130.962 42.3487C130.664 42.174 130.316 42.0866 129.92 42.0866C129.507 42.0866 129.14 42.1825 128.821 42.3743C128.505 42.5618 128.258 42.8153 128.079 43.1349C127.9 43.4503 127.809 43.8018 127.804 44.1896V45.794C127.804 46.2798 127.894 46.6996 128.073 47.0533C128.256 47.407 128.514 47.6797 128.846 47.8714C129.179 48.0632 129.573 48.1591 130.029 48.1591C130.331 48.1591 130.608 48.1165 130.86 48.0312C131.111 47.946 131.326 47.8182 131.505 47.6477C131.684 47.4773 131.821 47.2685 131.914 47.0213L134.433 47.1875C134.305 47.7926 134.043 48.321 133.647 48.7727C133.255 49.2202 132.747 49.5696 132.125 49.821C131.507 50.0682 130.794 50.1918 129.984 50.1918ZM138.134 50L135.462 40.1818H138.217L139.738 46.7784H139.828L141.413 40.1818H144.117L145.728 46.7401H145.811L147.306 40.1818H150.055L147.389 50H144.507L142.819 43.8253H142.698L141.01 50H138.134ZM164.405 41.1406C164.316 40.8295 164.19 40.5547 164.028 40.3161C163.866 40.0732 163.668 39.8686 163.434 39.7024C163.203 39.532 162.939 39.402 162.641 39.3125C162.347 39.223 162.021 39.1783 161.663 39.1783C160.994 39.1783 160.406 39.3445 159.899 39.6768C159.396 40.0092 159.004 40.4929 158.723 41.1278C158.441 41.7585 158.301 42.5298 158.301 43.4418C158.301 44.3537 158.439 45.1293 158.716 45.7685C158.993 46.4077 159.385 46.8956 159.892 47.2322C160.399 47.5646 160.998 47.7308 161.688 47.7308C162.315 47.7308 162.85 47.62 163.293 47.3984C163.74 47.1726 164.081 46.8551 164.316 46.446C164.554 46.0369 164.674 45.5533 164.674 44.995L165.236 45.0781H161.861V42.9943H167.339V44.6435C167.339 45.794 167.096 46.7827 166.61 47.6094C166.125 48.4318 165.456 49.0668 164.603 49.5142C163.751 49.9574 162.775 50.179 161.676 50.179C160.448 50.179 159.37 49.9084 158.441 49.3672C157.512 48.8217 156.788 48.0483 156.268 47.0469C155.752 46.0412 155.495 44.848 155.495 43.4673C155.495 42.4062 155.648 41.4602 155.955 40.6293C156.266 39.794 156.701 39.0866 157.259 38.5071C157.817 37.9276 158.467 37.4865 159.208 37.1839C159.95 36.8814 160.753 36.7301 161.618 36.7301C162.36 36.7301 163.05 36.8388 163.689 37.0561C164.328 37.2692 164.895 37.5717 165.389 37.9638C165.888 38.3558 166.295 38.8224 166.61 39.3636C166.926 39.9006 167.128 40.4929 167.218 41.1406H164.405ZM175.663 45.8196V40.1818H178.386V50H175.772V48.2166H175.669C175.448 48.7919 175.079 49.2543 174.564 49.6037C174.052 49.9531 173.428 50.1278 172.691 50.1278C172.035 50.1278 171.457 49.9787 170.959 49.6804C170.46 49.3821 170.07 48.9581 169.789 48.4084C169.512 47.8587 169.371 47.2003 169.367 46.4332V40.1818H172.09V45.9474C172.094 46.527 172.25 46.9851 172.557 47.3217C172.863 47.6584 173.275 47.8267 173.79 47.8267C174.118 47.8267 174.425 47.7521 174.711 47.603C174.996 47.4496 175.226 47.2237 175.401 46.9254C175.58 46.6271 175.667 46.2585 175.663 45.8196ZM180.564 50V40.1818H183.287V50H180.564ZM181.932 38.9162C181.527 38.9162 181.18 38.782 180.89 38.5135C180.605 38.2408 180.462 37.9148 180.462 37.5355C180.462 37.1605 180.605 36.8388 180.89 36.5703C181.18 36.2976 181.527 36.1612 181.932 36.1612C182.337 36.1612 182.682 36.2976 182.968 36.5703C183.257 36.8388 183.402 37.1605 183.402 37.5355C183.402 37.9148 183.257 38.2408 182.968 38.5135C182.682 38.782 182.337 38.9162 181.932 38.9162ZM189.086 50.1598C188.341 50.1598 187.665 49.968 187.06 49.5845C186.459 49.1967 185.982 48.6278 185.628 47.8778C185.279 47.1236 185.104 46.1989 185.104 45.1037C185.104 43.9787 185.285 43.0433 185.647 42.2976C186.01 41.5476 186.491 40.9872 187.092 40.6165C187.697 40.2415 188.36 40.054 189.08 40.054C189.63 40.054 190.088 40.1477 190.454 40.3352C190.825 40.5185 191.123 40.7486 191.349 41.0256C191.579 41.2983 191.754 41.5668 191.873 41.831H191.956V36.9091H194.673V50H191.988V48.4276H191.873C191.745 48.7003 191.564 48.9709 191.33 49.2393C191.1 49.5036 190.799 49.723 190.429 49.8977C190.062 50.0724 189.615 50.1598 189.086 50.1598ZM189.949 47.9929C190.388 47.9929 190.759 47.8736 191.062 47.6349C191.368 47.392 191.603 47.0533 191.765 46.6186C191.931 46.1839 192.014 45.6747 192.014 45.0909C192.014 44.5071 191.933 44 191.771 43.5696C191.609 43.1392 191.375 42.8068 191.068 42.5724C190.761 42.3381 190.388 42.2209 189.949 42.2209C189.502 42.2209 189.125 42.3423 188.818 42.5852C188.511 42.8281 188.279 43.1648 188.121 43.5952C187.964 44.0256 187.885 44.5241 187.885 45.0909C187.885 45.6619 187.964 46.1669 188.121 46.6058C188.283 47.0405 188.515 47.3814 188.818 47.6286C189.125 47.8714 189.502 47.9929 189.949 47.9929ZM201.386 50.1918C200.376 50.1918 199.507 49.9872 198.778 49.5781C198.054 49.1648 197.496 48.581 197.104 47.8267C196.712 47.0682 196.516 46.1712 196.516 45.1357C196.516 44.1257 196.712 43.2393 197.104 42.4766C197.496 41.7138 198.047 41.1193 198.759 40.6932C199.475 40.267 200.315 40.054 201.278 40.054C201.925 40.054 202.528 40.1584 203.087 40.3672C203.649 40.5717 204.139 40.8807 204.557 41.294C204.979 41.7074 205.307 42.2273 205.541 42.8537C205.775 43.4759 205.893 44.2045 205.893 45.0398V45.7876H197.602V44.1001H203.329C203.329 43.7081 203.244 43.3608 203.074 43.0582C202.903 42.7557 202.667 42.5192 202.364 42.3487C202.066 42.174 201.719 42.0866 201.322 42.0866C200.909 42.0866 200.543 42.1825 200.223 42.3743C199.908 42.5618 199.66 42.8153 199.481 43.1349C199.302 43.4503 199.211 43.8018 199.207 44.1896V45.794C199.207 46.2798 199.296 46.6996 199.475 47.0533C199.658 47.407 199.916 47.6797 200.248 47.8714C200.581 48.0632 200.975 48.1591 201.431 48.1591C201.734 48.1591 202.011 48.1165 202.262 48.0312C202.513 47.946 202.729 47.8182 202.908 47.6477C203.087 47.4773 203.223 47.2685 203.317 47.0213L205.835 47.1875C205.707 47.7926 205.445 48.321 205.049 48.7727C204.657 49.2202 204.15 49.5696 203.528 49.821C202.91 50.0682 202.196 50.1918 201.386 50.1918Z" fill="black"/>
<rect x="47.5" y="0.5" width="178" height="63" stroke="black"/>
<path d="M281.091 186.138V189.551L272.295 193.156V193.31L281.091 196.915V200.328H268V197.643H276.521V197.535L268.064 194.147V192.319L276.553 188.931V188.822H268V186.138H281.091ZM267.808 207.032C267.808 206.022 268.013 205.153 268.422 204.424C268.835 203.699 269.419 203.141 270.173 202.749C270.932 202.357 271.829 202.161 272.864 202.161C273.874 202.161 274.761 202.357 275.523 202.749C276.286 203.141 276.881 203.693 277.307 204.405C277.733 205.121 277.946 205.96 277.946 206.923C277.946 207.571 277.842 208.174 277.633 208.732C277.428 209.295 277.119 209.785 276.706 210.202C276.293 210.624 275.773 210.952 275.146 211.187C274.524 211.421 273.795 211.538 272.96 211.538H272.212V203.248H273.9V208.975C274.292 208.975 274.639 208.89 274.942 208.719C275.244 208.549 275.481 208.312 275.651 208.01C275.826 207.711 275.913 207.364 275.913 206.968C275.913 206.555 275.817 206.188 275.626 205.868C275.438 205.553 275.185 205.306 274.865 205.127C274.55 204.948 274.198 204.856 273.81 204.852H272.206C271.72 204.852 271.3 204.942 270.947 205.121C270.593 205.304 270.32 205.562 270.129 205.894C269.937 206.226 269.841 206.621 269.841 207.077C269.841 207.379 269.884 207.656 269.969 207.907C270.054 208.159 270.182 208.374 270.352 208.553C270.523 208.732 270.732 208.868 270.979 208.962L270.812 211.481C270.207 211.353 269.679 211.091 269.227 210.694C268.78 210.302 268.43 209.795 268.179 209.173C267.932 208.555 267.808 207.841 267.808 207.032ZM268 213.315H277.818V215.91H276.086V216.025C276.661 216.23 277.115 216.571 277.447 217.048C277.78 217.525 277.946 218.096 277.946 218.761C277.946 219.434 277.778 220.008 277.441 220.481C277.109 220.954 276.657 221.269 276.086 221.427V221.529C276.648 221.729 277.098 222.091 277.435 222.616C277.776 223.144 277.946 223.768 277.946 224.488C277.946 225.405 277.654 226.148 277.07 226.719C276.491 227.295 275.668 227.582 274.603 227.582H268V224.866H274.066C274.612 224.866 275.021 224.721 275.293 224.431C275.566 224.141 275.702 223.779 275.702 223.344C275.702 222.85 275.545 222.464 275.229 222.187C274.918 221.91 274.507 221.772 273.996 221.772H268V219.132H274.124C274.605 219.132 274.989 218.993 275.274 218.716C275.56 218.444 275.702 218.084 275.702 217.636C275.702 217.334 275.626 217.061 275.472 216.818C275.323 216.579 275.112 216.39 274.839 216.249C274.571 216.108 274.256 216.038 273.893 216.038H268V213.315ZM267.808 234.169C267.808 233.176 268.019 232.318 268.441 231.593C268.867 230.873 269.46 230.317 270.218 229.925C270.981 229.533 271.865 229.337 272.871 229.337C273.885 229.337 274.771 229.533 275.53 229.925C276.293 230.317 276.885 230.873 277.307 231.593C277.733 232.318 277.946 233.176 277.946 234.169C277.946 235.162 277.733 236.019 277.307 236.739C276.885 237.463 276.293 238.021 275.53 238.414C274.771 238.806 273.885 239.002 272.871 239.002C271.865 239.002 270.981 238.806 270.218 238.414C269.46 238.021 268.867 237.463 268.441 236.739C268.019 236.019 267.808 235.162 267.808 234.169ZM269.918 234.182C269.918 234.634 270.045 235.011 270.301 235.313C270.561 235.616 270.915 235.844 271.362 235.997C271.81 236.155 272.319 236.234 272.89 236.234C273.461 236.234 273.97 236.155 274.418 235.997C274.865 235.844 275.219 235.616 275.479 235.313C275.739 235.011 275.869 234.634 275.869 234.182C275.869 233.726 275.739 233.343 275.479 233.031C275.219 232.725 274.865 232.492 274.418 232.335C273.97 232.181 273.461 232.105 272.89 232.105C272.319 232.105 271.81 232.181 271.362 232.335C270.915 232.492 270.561 232.725 270.301 233.031C270.045 233.343 269.918 233.726 269.918 234.182ZM268 240.772H277.818V243.495H268V240.772ZM279.084 242.14C279.084 241.735 279.218 241.388 279.487 241.098C279.759 240.813 280.085 240.67 280.464 240.67C280.839 240.67 281.161 240.813 281.43 241.098C281.702 241.388 281.839 241.735 281.839 242.14C281.839 242.545 281.702 242.89 281.43 243.176C281.161 243.465 280.839 243.61 280.464 243.61C280.085 243.61 279.759 243.465 279.487 243.176C279.218 242.89 279.084 242.545 279.084 242.14ZM273.676 248.4H268V245.676H277.818V248.272H276.086V248.387C276.657 248.604 277.109 248.968 277.441 249.48C277.778 249.991 277.946 250.611 277.946 251.34C277.946 252.022 277.797 252.616 277.499 253.123C277.2 253.63 276.774 254.025 276.22 254.306C275.67 254.587 275.014 254.728 274.251 254.728H268V252.005H273.766C274.366 252.009 274.835 251.855 275.172 251.544C275.513 251.233 275.683 250.805 275.683 250.26C275.683 249.893 275.604 249.569 275.447 249.288C275.289 249.011 275.059 248.794 274.756 248.636C274.458 248.483 274.098 248.404 273.676 248.4ZM264.114 261.297C264.114 260.415 264.235 259.659 264.478 259.028C264.717 258.401 265.043 257.903 265.456 257.532C265.869 257.161 266.334 256.921 266.849 256.81L267.188 259.328C266.992 259.405 266.809 259.526 266.638 259.693C266.468 259.859 266.332 260.078 266.229 260.351C266.123 260.628 266.07 260.965 266.07 261.361C266.07 261.953 266.214 262.441 266.504 262.825C266.79 263.213 267.269 263.406 267.942 263.406H269.739V263.291C269.466 263.172 269.208 262.993 268.965 262.754C268.722 262.516 268.524 262.209 268.371 261.834C268.217 261.459 268.141 261.012 268.141 260.492C268.141 259.754 268.311 259.083 268.652 258.478C268.997 257.877 269.523 257.398 270.231 257.04C270.942 256.686 271.842 256.509 272.928 256.509C274.04 256.509 274.969 256.691 275.715 257.053C276.461 257.415 277.019 257.896 277.39 258.497C277.761 259.102 277.946 259.765 277.946 260.485C277.946 261.035 277.852 261.495 277.665 261.866C277.482 262.237 277.251 262.535 276.974 262.761C276.702 262.991 276.433 263.168 276.169 263.291V263.394H277.818V266.097H267.904C267.069 266.097 266.37 265.893 265.808 265.484C265.245 265.075 264.823 264.508 264.542 263.784C264.256 263.063 264.114 262.235 264.114 261.297ZM270.186 261.355C270.186 261.794 270.295 262.164 270.512 262.467C270.734 262.774 271.049 263.008 271.458 263.17C271.871 263.336 272.366 263.419 272.941 263.419C273.516 263.419 274.015 263.338 274.437 263.176C274.863 263.014 275.193 262.78 275.428 262.473C275.662 262.166 275.779 261.794 275.779 261.355C275.779 260.907 275.658 260.53 275.415 260.223C275.176 259.916 274.844 259.684 274.418 259.526C273.991 259.369 273.499 259.29 272.941 259.29C272.374 259.29 271.884 259.369 271.471 259.526C271.062 259.688 270.744 259.921 270.518 260.223C270.297 260.53 270.186 260.907 270.186 261.355Z" fill="black"/>
<rect x="289.5" y="173.5" width="107" height="27" transform="rotate(90 289.5 173.5)" stroke="black"/>
<path d="M81.9055 177.909V191H79.1378V177.909H81.9055ZM86.8546 185.324V191H84.1316V181.182H86.7267V182.914H86.8418C87.0591 182.343 87.4235 181.891 87.9348 181.559C88.4462 181.222 89.0662 181.054 89.7949 181.054C90.4767 181.054 91.0712 181.203 91.5783 181.501C92.0854 181.8 92.4796 182.226 92.7608 182.78C93.0421 183.33 93.1827 183.986 93.1827 184.749V191H90.4597V185.234C90.464 184.634 90.3105 184.165 89.9995 183.828C89.6884 183.487 89.2601 183.317 88.7147 183.317C88.3482 183.317 88.0243 183.396 87.7431 183.553C87.4661 183.711 87.2488 183.941 87.0911 184.244C86.9377 184.542 86.8588 184.902 86.8546 185.324ZM95.3288 191V181.182H98.0518V191H95.3288ZM96.6967 179.916C96.2919 179.916 95.9446 179.782 95.6548 179.513C95.3693 179.241 95.2266 178.915 95.2266 178.536C95.2266 178.161 95.3693 177.839 95.6548 177.57C95.9446 177.298 96.2919 177.161 96.6967 177.161C97.1016 177.161 97.4467 177.298 97.7322 177.57C98.022 177.839 98.1669 178.161 98.1669 178.536C98.1669 178.915 98.022 179.241 97.7322 179.513C97.4467 179.782 97.1016 179.916 96.6967 179.916ZM105.455 181.182V183.227H99.5428V181.182H105.455ZM100.885 178.83H103.608V187.983C103.608 188.234 103.646 188.43 103.723 188.571C103.8 188.707 103.906 188.803 104.043 188.859C104.183 188.914 104.345 188.942 104.529 188.942C104.656 188.942 104.784 188.931 104.912 188.91C105.04 188.884 105.138 188.865 105.206 188.852L105.634 190.879C105.498 190.921 105.306 190.97 105.059 191.026C104.812 191.085 104.512 191.121 104.158 191.134C103.502 191.16 102.926 191.072 102.432 190.872C101.942 190.672 101.561 190.361 101.288 189.939C101.015 189.517 100.881 188.984 100.885 188.341V178.83ZM107.229 191V181.182H109.952V191H107.229ZM108.597 179.916C108.192 179.916 107.845 179.782 107.555 179.513C107.27 179.241 107.127 178.915 107.127 178.536C107.127 178.161 107.27 177.839 107.555 177.57C107.845 177.298 108.192 177.161 108.597 177.161C109.002 177.161 109.347 177.298 109.633 177.57C109.922 177.839 110.067 178.161 110.067 178.536C110.067 178.915 109.922 179.241 109.633 179.513C109.347 179.782 109.002 179.916 108.597 179.916ZM114.933 191.185C114.307 191.185 113.749 191.077 113.259 190.859C112.768 190.638 112.381 190.312 112.095 189.881C111.814 189.447 111.673 188.906 111.673 188.258C111.673 187.712 111.773 187.254 111.974 186.884C112.174 186.513 112.447 186.214 112.792 185.989C113.137 185.763 113.529 185.592 113.968 185.477C114.411 185.362 114.876 185.281 115.362 185.234C115.933 185.175 116.393 185.119 116.742 185.068C117.092 185.013 117.345 184.932 117.503 184.825C117.661 184.719 117.739 184.561 117.739 184.352V184.314C117.739 183.909 117.612 183.596 117.356 183.374C117.104 183.153 116.746 183.042 116.282 183.042C115.792 183.042 115.402 183.151 115.112 183.368C114.822 183.581 114.631 183.849 114.537 184.173L112.018 183.969C112.146 183.372 112.398 182.857 112.773 182.422C113.148 181.983 113.631 181.646 114.224 181.412C114.82 181.173 115.511 181.054 116.295 181.054C116.84 181.054 117.362 181.118 117.861 181.246C118.364 181.374 118.809 181.572 119.197 181.84C119.589 182.109 119.898 182.454 120.124 182.876C120.349 183.293 120.462 183.794 120.462 184.378V191H117.88V189.638H117.803C117.646 189.945 117.435 190.216 117.17 190.45C116.906 190.68 116.589 190.862 116.218 190.994C115.847 191.121 115.419 191.185 114.933 191.185ZM115.713 189.306C116.114 189.306 116.467 189.227 116.774 189.07C117.081 188.908 117.322 188.69 117.496 188.418C117.671 188.145 117.759 187.836 117.759 187.491V186.449C117.673 186.504 117.556 186.555 117.407 186.602C117.262 186.645 117.098 186.685 116.915 186.724C116.732 186.758 116.548 186.79 116.365 186.82C116.182 186.845 116.016 186.869 115.866 186.89C115.547 186.937 115.268 187.011 115.029 187.114C114.79 187.216 114.605 187.354 114.473 187.529C114.341 187.7 114.275 187.913 114.275 188.168C114.275 188.539 114.409 188.822 114.678 189.018C114.95 189.21 115.295 189.306 115.713 189.306ZM125.298 177.909V191H122.575V177.909H125.298ZM143.247 182.492H140.447C140.396 182.13 140.292 181.808 140.134 181.527C139.976 181.241 139.774 180.999 139.527 180.798C139.279 180.598 138.994 180.445 138.67 180.338C138.35 180.232 138.003 180.178 137.628 180.178C136.951 180.178 136.36 180.347 135.858 180.683C135.355 181.016 134.965 181.501 134.688 182.141C134.411 182.776 134.272 183.547 134.272 184.455C134.272 185.388 134.411 186.172 134.688 186.807C134.969 187.442 135.361 187.921 135.864 188.245C136.367 188.569 136.949 188.731 137.609 188.731C137.98 188.731 138.323 188.682 138.638 188.584C138.958 188.486 139.241 188.343 139.488 188.156C139.735 187.964 139.94 187.732 140.102 187.459C140.268 187.186 140.383 186.875 140.447 186.526L143.247 186.538C143.174 187.139 142.993 187.719 142.703 188.277C142.418 188.831 142.032 189.327 141.547 189.766C141.065 190.201 140.49 190.546 139.821 190.802C139.156 191.053 138.404 191.179 137.564 191.179C136.397 191.179 135.353 190.915 134.432 190.386C133.516 189.858 132.792 189.093 132.259 188.092C131.73 187.09 131.466 185.878 131.466 184.455C131.466 183.027 131.735 181.812 132.272 180.811C132.809 179.81 133.537 179.047 134.458 178.523C135.378 177.994 136.414 177.73 137.564 177.73C138.323 177.73 139.026 177.837 139.674 178.05C140.326 178.263 140.903 178.574 141.406 178.983C141.909 179.388 142.318 179.884 142.633 180.472C142.953 181.06 143.157 181.734 143.247 182.492ZM149.616 191.192C148.624 191.192 147.765 190.981 147.04 190.559C146.32 190.133 145.764 189.54 145.372 188.782C144.98 188.019 144.784 187.135 144.784 186.129C144.784 185.115 144.98 184.229 145.372 183.47C145.764 182.707 146.32 182.115 147.04 181.693C147.765 181.267 148.624 181.054 149.616 181.054C150.609 181.054 151.466 181.267 152.186 181.693C152.911 182.115 153.469 182.707 153.861 183.47C154.253 184.229 154.449 185.115 154.449 186.129C154.449 187.135 154.253 188.019 153.861 188.782C153.469 189.54 152.911 190.133 152.186 190.559C151.466 190.981 150.609 191.192 149.616 191.192ZM149.629 189.082C150.081 189.082 150.458 188.955 150.761 188.699C151.063 188.439 151.291 188.085 151.445 187.638C151.602 187.19 151.681 186.681 151.681 186.11C151.681 185.539 151.602 185.03 151.445 184.582C151.291 184.135 151.063 183.781 150.761 183.521C150.458 183.261 150.081 183.131 149.629 183.131C149.173 183.131 148.79 183.261 148.479 183.521C148.172 183.781 147.94 184.135 147.782 184.582C147.629 185.03 147.552 185.539 147.552 186.11C147.552 186.681 147.629 187.19 147.782 187.638C147.94 188.085 148.172 188.439 148.479 188.699C148.79 188.955 149.173 189.082 149.629 189.082ZM159.837 191.16C159.092 191.16 158.416 190.968 157.811 190.585C157.21 190.197 156.733 189.628 156.379 188.878C156.03 188.124 155.855 187.199 155.855 186.104C155.855 184.979 156.036 184.043 156.398 183.298C156.761 182.548 157.242 181.987 157.843 181.616C158.448 181.241 159.111 181.054 159.831 181.054C160.381 181.054 160.839 181.148 161.205 181.335C161.576 181.518 161.874 181.749 162.1 182.026C162.33 182.298 162.505 182.567 162.624 182.831H162.707V177.909H165.424V191H162.739V189.428H162.624C162.496 189.7 162.315 189.971 162.081 190.239C161.851 190.504 161.55 190.723 161.18 190.898C160.813 191.072 160.366 191.16 159.837 191.16ZM160.7 188.993C161.139 188.993 161.51 188.874 161.812 188.635C162.119 188.392 162.354 188.053 162.516 187.619C162.682 187.184 162.765 186.675 162.765 186.091C162.765 185.507 162.684 185 162.522 184.57C162.36 184.139 162.126 183.807 161.819 183.572C161.512 183.338 161.139 183.221 160.7 183.221C160.253 183.221 159.876 183.342 159.569 183.585C159.262 183.828 159.03 184.165 158.872 184.595C158.714 185.026 158.636 185.524 158.636 186.091C158.636 186.662 158.714 187.167 158.872 187.606C159.034 188.04 159.266 188.381 159.569 188.629C159.876 188.871 160.253 188.993 160.7 188.993ZM167.663 191V181.182H170.386V191H167.663ZM169.031 179.916C168.626 179.916 168.279 179.782 167.989 179.513C167.703 179.241 167.561 178.915 167.561 178.536C167.561 178.161 167.703 177.839 167.989 177.57C168.279 177.298 168.626 177.161 169.031 177.161C169.436 177.161 169.781 177.298 170.066 177.57C170.356 177.839 170.501 178.161 170.501 178.536C170.501 178.915 170.356 179.241 170.066 179.513C169.781 179.782 169.436 179.916 169.031 179.916ZM175.29 185.324V191H172.567V181.182H175.162V182.914H175.277C175.495 182.343 175.859 181.891 176.37 181.559C176.882 181.222 177.502 181.054 178.23 181.054C178.912 181.054 179.507 181.203 180.014 181.501C180.521 181.8 180.915 182.226 181.196 182.78C181.478 183.33 181.618 183.986 181.618 184.749V191H178.895V185.234C178.9 184.634 178.746 184.165 178.435 183.828C178.124 183.487 177.696 183.317 177.15 183.317C176.784 183.317 176.46 183.396 176.179 183.553C175.902 183.711 175.684 183.941 175.527 184.244C175.373 184.542 175.294 184.902 175.29 185.324ZM188.188 194.886C187.306 194.886 186.549 194.765 185.919 194.522C185.292 194.283 184.794 193.957 184.423 193.544C184.052 193.131 183.811 192.666 183.7 192.151L186.219 191.812C186.296 192.008 186.417 192.191 186.583 192.362C186.749 192.532 186.969 192.668 187.242 192.771C187.519 192.877 187.855 192.93 188.252 192.93C188.844 192.93 189.332 192.786 189.715 192.496C190.103 192.21 190.297 191.731 190.297 191.058V189.261H190.182C190.063 189.534 189.884 189.792 189.645 190.035C189.406 190.278 189.1 190.476 188.725 190.629C188.35 190.783 187.902 190.859 187.382 190.859C186.645 190.859 185.974 190.689 185.369 190.348C184.768 190.003 184.289 189.477 183.931 188.769C183.577 188.058 183.4 187.158 183.4 186.072C183.4 184.96 183.581 184.031 183.943 183.285C184.306 182.539 184.787 181.981 185.388 181.61C185.993 181.239 186.656 181.054 187.376 181.054C187.926 181.054 188.386 181.148 188.757 181.335C189.127 181.518 189.426 181.749 189.651 182.026C189.882 182.298 190.058 182.567 190.182 182.831H190.284V181.182H192.988V191.096C192.988 191.931 192.784 192.63 192.374 193.192C191.965 193.755 191.399 194.177 190.674 194.458C189.954 194.744 189.125 194.886 188.188 194.886ZM188.245 188.814C188.684 188.814 189.055 188.705 189.357 188.488C189.664 188.266 189.899 187.951 190.061 187.542C190.227 187.129 190.31 186.634 190.31 186.059C190.31 185.484 190.229 184.985 190.067 184.563C189.905 184.137 189.671 183.807 189.364 183.572C189.057 183.338 188.684 183.221 188.245 183.221C187.798 183.221 187.421 183.342 187.114 183.585C186.807 183.824 186.575 184.156 186.417 184.582C186.259 185.009 186.181 185.501 186.181 186.059C186.181 186.626 186.259 187.116 186.417 187.529C186.579 187.938 186.811 188.256 187.114 188.482C187.421 188.703 187.798 188.814 188.245 188.814Z" fill="black"/>
<rect x="47.5" y="166.5" width="178" height="35" stroke="black"/>
<path d="M66.1378 261V247.909H74.8054V250.191H68.9055V253.31H74.2301V255.592H68.9055V261H66.1378ZM80.3313 261.192C79.3384 261.192 78.4798 260.981 77.7553 260.559C77.0352 260.133 76.479 259.54 76.087 258.782C75.695 258.019 75.4989 257.135 75.4989 256.129C75.4989 255.115 75.695 254.229 76.087 253.47C76.479 252.707 77.0352 252.115 77.7553 251.693C78.4798 251.267 79.3384 251.054 80.3313 251.054C81.3242 251.054 82.1808 251.267 82.9009 251.693C83.6254 252.115 84.1836 252.707 84.5756 253.47C84.9677 254.229 85.1637 255.115 85.1637 256.129C85.1637 257.135 84.9677 258.019 84.5756 258.782C84.1836 259.54 83.6254 260.133 82.9009 260.559C82.1808 260.981 81.3242 261.192 80.3313 261.192ZM80.3441 259.082C80.7958 259.082 81.1729 258.955 81.4755 258.699C81.7781 258.439 82.006 258.085 82.1594 257.638C82.3171 257.19 82.396 256.681 82.396 256.11C82.396 255.539 82.3171 255.03 82.1594 254.582C82.006 254.135 81.7781 253.781 81.4755 253.521C81.1729 253.261 80.7958 253.131 80.3441 253.131C79.8881 253.131 79.5046 253.261 79.1935 253.521C78.8867 253.781 78.6545 254.135 78.4968 254.582C78.3434 255.03 78.2667 255.539 78.2667 256.11C78.2667 256.681 78.3434 257.19 78.4968 257.638C78.6545 258.085 78.8867 258.439 79.1935 258.699C79.5046 258.955 79.8881 259.082 80.3441 259.082ZM91.3704 261.192C90.3647 261.192 89.4996 260.979 88.7752 260.553C88.055 260.122 87.5011 259.526 87.1133 258.763C86.7298 258 86.538 257.122 86.538 256.129C86.538 255.124 86.7319 254.241 87.1197 253.483C87.5117 252.72 88.0678 252.126 88.788 251.7C89.5082 251.269 90.3647 251.054 91.3576 251.054C92.2141 251.054 92.9641 251.21 93.6076 251.521C94.2511 251.832 94.7603 252.268 95.1353 252.831C95.5103 253.393 95.717 254.054 95.7553 254.812H93.1857C93.1133 254.322 92.9215 253.928 92.6104 253.63C92.3036 253.327 91.9009 253.176 91.4023 253.176C90.9805 253.176 90.6119 253.291 90.2965 253.521C89.9854 253.747 89.7425 254.077 89.5678 254.512C89.3931 254.947 89.3058 255.473 89.3058 256.091C89.3058 256.717 89.391 257.25 89.5614 257.689C89.7362 258.128 89.9812 258.462 90.2965 258.692C90.6119 258.923 90.9805 259.038 91.4023 259.038C91.7134 259.038 91.9925 258.974 92.2397 258.846C92.4911 258.718 92.6978 258.533 92.8597 258.29C93.0259 258.043 93.1346 257.746 93.1857 257.401H95.7553C95.7127 258.151 95.5082 258.812 95.1417 259.383C94.7795 259.95 94.2788 260.393 93.6396 260.712C93.0004 261.032 92.244 261.192 91.3704 261.192ZM103.795 256.82V251.182H106.518V261H103.904V259.217H103.801C103.58 259.792 103.211 260.254 102.695 260.604C102.184 260.953 101.56 261.128 100.823 261.128C100.166 261.128 99.589 260.979 99.0904 260.68C98.5918 260.382 98.2019 259.958 97.9206 259.408C97.6436 258.859 97.503 258.2 97.4988 257.433V251.182H100.222V256.947C100.226 257.527 100.382 257.985 100.688 258.322C100.995 258.658 101.406 258.827 101.922 258.827C102.25 258.827 102.557 258.752 102.843 258.603C103.128 258.45 103.358 258.224 103.533 257.925C103.712 257.627 103.799 257.259 103.795 256.82ZM116.865 253.982L114.372 254.135C114.33 253.922 114.238 253.73 114.097 253.56C113.957 253.385 113.771 253.246 113.541 253.144C113.315 253.038 113.045 252.984 112.729 252.984C112.308 252.984 111.952 253.074 111.662 253.253C111.372 253.428 111.227 253.662 111.227 253.956C111.227 254.19 111.321 254.388 111.509 254.55C111.696 254.712 112.018 254.842 112.474 254.94L114.251 255.298C115.205 255.494 115.917 255.81 116.386 256.244C116.854 256.679 117.089 257.25 117.089 257.957C117.089 258.601 116.899 259.165 116.52 259.651C116.145 260.137 115.629 260.516 114.973 260.789C114.321 261.058 113.569 261.192 112.717 261.192C111.417 261.192 110.381 260.921 109.61 260.38C108.843 259.835 108.393 259.093 108.261 258.156L110.94 258.015C111.021 258.411 111.217 258.714 111.528 258.923C111.839 259.127 112.237 259.229 112.723 259.229C113.2 259.229 113.584 259.138 113.874 258.955C114.168 258.767 114.317 258.526 114.321 258.232C114.317 257.985 114.212 257.783 114.008 257.625C113.803 257.463 113.488 257.339 113.062 257.254L111.362 256.915C110.403 256.724 109.689 256.391 109.22 255.918C108.756 255.445 108.523 254.842 108.523 254.109C108.523 253.479 108.694 252.935 109.035 252.479C109.38 252.023 109.864 251.672 110.486 251.425C111.112 251.178 111.845 251.054 112.685 251.054C113.925 251.054 114.901 251.316 115.612 251.84C116.328 252.364 116.746 253.078 116.865 253.982ZM123.278 261.192C122.268 261.192 121.399 260.987 120.67 260.578C119.945 260.165 119.387 259.581 118.995 258.827C118.603 258.068 118.407 257.171 118.407 256.136C118.407 255.126 118.603 254.239 118.995 253.477C119.387 252.714 119.939 252.119 120.651 251.693C121.367 251.267 122.206 251.054 123.169 251.054C123.817 251.054 124.42 251.158 124.978 251.367C125.541 251.572 126.031 251.881 126.448 252.294C126.87 252.707 127.198 253.227 127.433 253.854C127.667 254.476 127.784 255.205 127.784 256.04V256.788H119.494V255.1H125.221C125.221 254.708 125.136 254.361 124.965 254.058C124.795 253.756 124.558 253.519 124.256 253.349C123.958 253.174 123.61 253.087 123.214 253.087C122.801 253.087 122.434 253.183 122.115 253.374C121.799 253.562 121.552 253.815 121.373 254.135C121.194 254.45 121.102 254.802 121.098 255.19V256.794C121.098 257.28 121.188 257.7 121.367 258.053C121.55 258.407 121.808 258.68 122.14 258.871C122.472 259.063 122.867 259.159 123.323 259.159C123.625 259.159 123.902 259.116 124.154 259.031C124.405 258.946 124.62 258.818 124.799 258.648C124.978 258.477 125.115 258.268 125.208 258.021L127.727 258.188C127.599 258.793 127.337 259.321 126.941 259.773C126.548 260.22 126.041 260.57 125.419 260.821C124.801 261.068 124.088 261.192 123.278 261.192ZM133.179 261.16C132.433 261.16 131.758 260.968 131.153 260.585C130.552 260.197 130.075 259.628 129.721 258.878C129.372 258.124 129.197 257.199 129.197 256.104C129.197 254.979 129.378 254.043 129.74 253.298C130.102 252.548 130.584 251.987 131.185 251.616C131.79 251.241 132.453 251.054 133.173 251.054C133.722 251.054 134.181 251.148 134.547 251.335C134.918 251.518 135.216 251.749 135.442 252.026C135.672 252.298 135.847 252.567 135.966 252.831H136.049V247.909H138.766V261H136.081V259.428H135.966C135.838 259.7 135.657 259.971 135.423 260.239C135.193 260.504 134.892 260.723 134.521 260.898C134.155 261.072 133.708 261.16 133.179 261.16ZM134.042 258.993C134.481 258.993 134.852 258.874 135.154 258.635C135.461 258.392 135.695 258.053 135.857 257.619C136.024 257.184 136.107 256.675 136.107 256.091C136.107 255.507 136.026 255 135.864 254.57C135.702 254.139 135.468 253.807 135.161 253.572C134.854 253.338 134.481 253.221 134.042 253.221C133.595 253.221 133.218 253.342 132.911 253.585C132.604 253.828 132.372 254.165 132.214 254.595C132.056 255.026 131.977 255.524 131.977 256.091C131.977 256.662 132.056 257.167 132.214 257.606C132.376 258.04 132.608 258.381 132.911 258.629C133.218 258.871 133.595 258.993 134.042 258.993ZM156.772 252.492H153.972C153.921 252.13 153.817 251.808 153.659 251.527C153.502 251.241 153.299 250.999 153.052 250.798C152.805 250.598 152.519 250.445 152.195 250.338C151.876 250.232 151.529 250.178 151.154 250.178C150.476 250.178 149.886 250.347 149.383 250.683C148.88 251.016 148.49 251.501 148.213 252.141C147.936 252.776 147.798 253.547 147.798 254.455C147.798 255.388 147.936 256.172 148.213 256.807C148.494 257.442 148.887 257.921 149.389 258.245C149.892 258.569 150.474 258.731 151.134 258.731C151.505 258.731 151.848 258.682 152.164 258.584C152.483 258.486 152.767 258.343 153.014 258.156C153.261 257.964 153.465 257.732 153.627 257.459C153.794 257.186 153.909 256.875 153.972 256.526L156.772 256.538C156.7 257.139 156.519 257.719 156.229 258.277C155.943 258.831 155.558 259.327 155.072 259.766C154.59 260.201 154.015 260.546 153.346 260.802C152.681 261.053 151.929 261.179 151.09 261.179C149.922 261.179 148.878 260.915 147.958 260.386C147.041 259.858 146.317 259.093 145.784 258.092C145.256 257.09 144.992 255.878 144.992 254.455C144.992 253.027 145.26 251.812 145.797 250.811C146.334 249.81 147.063 249.047 147.983 248.523C148.904 247.994 149.939 247.73 151.09 247.73C151.848 247.73 152.551 247.837 153.199 248.05C153.851 248.263 154.428 248.574 154.931 248.983C155.434 249.388 155.843 249.884 156.159 250.472C156.478 251.06 156.683 251.734 156.772 252.492ZM163.142 261.192C162.149 261.192 161.29 260.981 160.566 260.559C159.846 260.133 159.29 259.54 158.898 258.782C158.506 258.019 158.309 257.135 158.309 256.129C158.309 255.115 158.506 254.229 158.898 253.47C159.29 252.707 159.846 252.115 160.566 251.693C161.29 251.267 162.149 251.054 163.142 251.054C164.135 251.054 164.991 251.267 165.711 251.693C166.436 252.115 166.994 252.707 167.386 253.47C167.778 254.229 167.974 255.115 167.974 256.129C167.974 257.135 167.778 258.019 167.386 258.782C166.994 259.54 166.436 260.133 165.711 260.559C164.991 260.981 164.135 261.192 163.142 261.192ZM163.155 259.082C163.606 259.082 163.983 258.955 164.286 258.699C164.589 258.439 164.817 258.085 164.97 257.638C165.128 257.19 165.206 256.681 165.206 256.11C165.206 255.539 165.128 255.03 164.97 254.582C164.817 254.135 164.589 253.781 164.286 253.521C163.983 253.261 163.606 253.131 163.155 253.131C162.699 253.131 162.315 253.261 162.004 253.521C161.697 253.781 161.465 254.135 161.307 254.582C161.154 255.03 161.077 255.539 161.077 256.11C161.077 256.681 161.154 257.19 161.307 257.638C161.465 258.085 161.697 258.439 162.004 258.699C162.315 258.955 162.699 259.082 163.155 259.082ZM173.363 261.16C172.617 261.16 171.942 260.968 171.336 260.585C170.736 260.197 170.258 259.628 169.905 258.878C169.555 258.124 169.381 257.199 169.381 256.104C169.381 254.979 169.562 254.043 169.924 253.298C170.286 252.548 170.768 251.987 171.368 251.616C171.974 251.241 172.636 251.054 173.356 251.054C173.906 251.054 174.364 251.148 174.731 251.335C175.101 251.518 175.4 251.749 175.626 252.026C175.856 252.298 176.03 252.567 176.15 252.831H176.233V247.909H178.949V261H176.265V259.428H176.15C176.022 259.7 175.841 259.971 175.606 260.239C175.376 260.504 175.076 260.723 174.705 260.898C174.339 261.072 173.891 261.16 173.363 261.16ZM174.226 258.993C174.665 258.993 175.035 258.874 175.338 258.635C175.645 258.392 175.879 258.053 176.041 257.619C176.207 257.184 176.29 256.675 176.29 256.091C176.29 255.507 176.209 255 176.047 254.57C175.885 254.139 175.651 253.807 175.344 253.572C175.037 253.338 174.665 253.221 174.226 253.221C173.778 253.221 173.401 253.342 173.094 253.585C172.787 253.828 172.555 254.165 172.398 254.595C172.24 255.026 172.161 255.524 172.161 256.091C172.161 256.662 172.24 257.167 172.398 257.606C172.559 258.04 172.792 258.381 173.094 258.629C173.401 258.871 173.778 258.993 174.226 258.993ZM181.188 261V251.182H183.911V261H181.188ZM182.556 249.916C182.151 249.916 181.804 249.782 181.514 249.513C181.229 249.241 181.086 248.915 181.086 248.536C181.086 248.161 181.229 247.839 181.514 247.57C181.804 247.298 182.151 247.161 182.556 247.161C182.961 247.161 183.306 247.298 183.592 247.57C183.881 247.839 184.026 248.161 184.026 248.536C184.026 248.915 183.881 249.241 183.592 249.513C183.306 249.782 182.961 249.916 182.556 249.916ZM188.816 255.324V261H186.093V251.182H188.688V252.914H188.803C189.02 252.343 189.384 251.891 189.896 251.559C190.407 251.222 191.027 251.054 191.756 251.054C192.438 251.054 193.032 251.203 193.539 251.501C194.046 251.8 194.441 252.226 194.722 252.78C195.003 253.33 195.144 253.986 195.144 254.749V261H192.421V255.234C192.425 254.634 192.271 254.165 191.96 253.828C191.649 253.487 191.221 253.317 190.676 253.317C190.309 253.317 189.985 253.396 189.704 253.553C189.427 253.711 189.21 253.941 189.052 254.244C188.899 254.542 188.82 254.902 188.816 255.324ZM201.713 264.886C200.831 264.886 200.075 264.765 199.444 264.522C198.817 264.283 198.319 263.957 197.948 263.544C197.577 263.131 197.337 262.666 197.226 262.151L199.744 261.812C199.821 262.008 199.942 262.191 200.109 262.362C200.275 262.532 200.494 262.668 200.767 262.771C201.044 262.877 201.381 262.93 201.777 262.93C202.369 262.93 202.857 262.786 203.241 262.496C203.629 262.21 203.822 261.731 203.822 261.058V259.261H203.707C203.588 259.534 203.409 259.792 203.17 260.035C202.932 260.278 202.625 260.476 202.25 260.629C201.875 260.783 201.428 260.859 200.908 260.859C200.17 260.859 199.499 260.689 198.894 260.348C198.293 260.003 197.814 259.477 197.456 258.769C197.102 258.058 196.925 257.158 196.925 256.072C196.925 254.96 197.107 254.031 197.469 253.285C197.831 252.539 198.313 251.981 198.913 251.61C199.518 251.239 200.181 251.054 200.901 251.054C201.451 251.054 201.911 251.148 202.282 251.335C202.653 251.518 202.951 251.749 203.177 252.026C203.407 252.298 203.584 252.567 203.707 252.831H203.81V251.182H206.513V261.096C206.513 261.931 206.309 262.63 205.9 263.192C205.491 263.755 204.924 264.177 204.2 264.458C203.479 264.744 202.651 264.886 201.713 264.886ZM201.771 258.814C202.21 258.814 202.58 258.705 202.883 258.488C203.19 258.266 203.424 257.951 203.586 257.542C203.752 257.129 203.835 256.634 203.835 256.059C203.835 255.484 203.754 254.985 203.592 254.563C203.43 254.137 203.196 253.807 202.889 253.572C202.582 253.338 202.21 253.221 201.771 253.221C201.323 253.221 200.946 253.342 200.639 253.585C200.332 253.824 200.1 254.156 199.942 254.582C199.785 255.009 199.706 255.501 199.706 256.059C199.706 256.626 199.785 257.116 199.942 257.529C200.104 257.938 200.337 258.256 200.639 258.482C200.946 258.703 201.323 258.814 201.771 258.814Z" fill="black"/>
<rect x="47.5" y="236.5" width="178" height="35" stroke="black"/>
<path d="M84.7915 317.191V314.909H95.543V317.191H91.5352V328H88.7994V317.191H84.7915ZM99.9854 322.324V328H97.2624V314.909H99.9087V319.914H100.024C100.245 319.335 100.603 318.881 101.098 318.553C101.592 318.22 102.212 318.054 102.958 318.054C103.64 318.054 104.234 318.203 104.741 318.501C105.252 318.795 105.649 319.219 105.93 319.773C106.216 320.323 106.356 320.982 106.352 321.749V328H103.629V322.234C103.633 321.629 103.48 321.158 103.169 320.822C102.862 320.485 102.431 320.317 101.877 320.317C101.507 320.317 101.179 320.396 100.893 320.553C100.612 320.711 100.39 320.941 100.228 321.244C100.071 321.542 99.9897 321.902 99.9854 322.324ZM112.969 328.192C111.959 328.192 111.09 327.987 110.361 327.578C109.637 327.165 109.079 326.581 108.687 325.827C108.295 325.068 108.099 324.171 108.099 323.136C108.099 322.126 108.295 321.239 108.687 320.477C109.079 319.714 109.631 319.119 110.342 318.693C111.058 318.267 111.898 318.054 112.861 318.054C113.508 318.054 114.111 318.158 114.67 318.367C115.232 318.572 115.722 318.881 116.14 319.294C116.562 319.707 116.89 320.227 117.124 320.854C117.358 321.476 117.476 322.205 117.476 323.04V323.788H109.185V322.1H114.912C114.912 321.708 114.827 321.361 114.657 321.058C114.486 320.756 114.25 320.519 113.947 320.349C113.649 320.174 113.302 320.087 112.905 320.087C112.492 320.087 112.126 320.183 111.806 320.374C111.491 320.562 111.243 320.815 111.064 321.135C110.885 321.45 110.794 321.802 110.79 322.19V323.794C110.79 324.28 110.879 324.7 111.058 325.053C111.241 325.407 111.499 325.68 111.831 325.871C112.164 326.063 112.558 326.159 113.014 326.159C113.317 326.159 113.594 326.116 113.845 326.031C114.096 325.946 114.312 325.818 114.491 325.648C114.67 325.477 114.806 325.268 114.9 325.021L117.418 325.188C117.29 325.793 117.028 326.321 116.632 326.773C116.24 327.22 115.733 327.57 115.111 327.821C114.493 328.068 113.779 328.192 112.969 328.192ZM123.689 328.192C122.696 328.192 121.837 327.981 121.113 327.559C120.393 327.133 119.836 326.54 119.444 325.782C119.052 325.019 118.856 324.135 118.856 323.129C118.856 322.115 119.052 321.229 119.444 320.47C119.836 319.707 120.393 319.115 121.113 318.693C121.837 318.267 122.696 318.054 123.689 318.054C124.682 318.054 125.538 318.267 126.258 318.693C126.983 319.115 127.541 319.707 127.933 320.47C128.325 321.229 128.521 322.115 128.521 323.129C128.521 324.135 128.325 325.019 127.933 325.782C127.541 326.54 126.983 327.133 126.258 327.559C125.538 327.981 124.682 328.192 123.689 328.192ZM123.702 326.082C124.153 326.082 124.53 325.955 124.833 325.699C125.135 325.439 125.363 325.085 125.517 324.638C125.675 324.19 125.753 323.681 125.753 323.11C125.753 322.539 125.675 322.03 125.517 321.582C125.363 321.135 125.135 320.781 124.833 320.521C124.53 320.261 124.153 320.131 123.702 320.131C123.246 320.131 122.862 320.261 122.551 320.521C122.244 320.781 122.012 321.135 121.854 321.582C121.701 322.03 121.624 322.539 121.624 323.11C121.624 323.681 121.701 324.19 121.854 324.638C122.012 325.085 122.244 325.439 122.551 325.699C122.862 325.955 123.246 326.082 123.702 326.082ZM130.292 328V318.182H132.932V319.895H133.034C133.213 319.286 133.513 318.825 133.935 318.514C134.357 318.199 134.843 318.041 135.393 318.041C135.529 318.041 135.676 318.05 135.834 318.067C135.991 318.084 136.13 318.107 136.249 318.137V320.553C136.121 320.515 135.944 320.481 135.719 320.451C135.493 320.421 135.286 320.406 135.099 320.406C134.698 320.406 134.34 320.494 134.025 320.668C133.714 320.839 133.466 321.077 133.283 321.384C133.104 321.691 133.015 322.045 133.015 322.445V328H130.292ZM141.674 328.192C140.664 328.192 139.795 327.987 139.066 327.578C138.342 327.165 137.784 326.581 137.392 325.827C137 325.068 136.804 324.171 136.804 323.136C136.804 322.126 137 321.239 137.392 320.477C137.784 319.714 138.336 319.119 139.047 318.693C139.763 318.267 140.603 318.054 141.566 318.054C142.213 318.054 142.816 318.158 143.375 318.367C143.937 318.572 144.427 318.881 144.845 319.294C145.267 319.707 145.595 320.227 145.829 320.854C146.064 321.476 146.181 322.205 146.181 323.04V323.788H137.89V322.1H143.618C143.618 321.708 143.532 321.361 143.362 321.058C143.191 320.756 142.955 320.519 142.652 320.349C142.354 320.174 142.007 320.087 141.61 320.087C141.197 320.087 140.831 320.183 140.511 320.374C140.196 320.562 139.949 320.815 139.77 321.135C139.591 321.45 139.499 321.802 139.495 322.19V323.794C139.495 324.28 139.584 324.7 139.763 325.053C139.946 325.407 140.204 325.68 140.537 325.871C140.869 326.063 141.263 326.159 141.719 326.159C142.022 326.159 142.299 326.116 142.55 326.031C142.801 325.946 143.017 325.818 143.196 325.648C143.375 325.477 143.511 325.268 143.605 325.021L146.123 325.188C145.995 325.793 145.733 326.321 145.337 326.773C144.945 327.22 144.438 327.57 143.816 327.821C143.198 328.068 142.484 328.192 141.674 328.192ZM153.18 318.182V320.227H147.267V318.182H153.18ZM148.61 315.83H151.333V324.983C151.333 325.234 151.371 325.43 151.448 325.571C151.525 325.707 151.631 325.803 151.767 325.859C151.908 325.914 152.07 325.942 152.253 325.942C152.381 325.942 152.509 325.931 152.637 325.91C152.765 325.884 152.863 325.865 152.931 325.852L153.359 327.879C153.223 327.921 153.031 327.97 152.784 328.026C152.537 328.085 152.236 328.121 151.882 328.134C151.226 328.16 150.651 328.072 150.157 327.872C149.667 327.672 149.285 327.361 149.012 326.939C148.74 326.517 148.605 325.984 148.61 325.341V315.83ZM154.954 328V318.182H157.677V328H154.954ZM156.322 316.916C155.917 316.916 155.57 316.782 155.28 316.513C154.994 316.241 154.852 315.915 154.852 315.536C154.852 315.161 154.994 314.839 155.28 314.57C155.57 314.298 155.917 314.161 156.322 314.161C156.727 314.161 157.072 314.298 157.357 314.57C157.647 314.839 157.792 315.161 157.792 315.536C157.792 315.915 157.647 316.241 157.357 316.513C157.072 316.782 156.727 316.916 156.322 316.916ZM164.294 328.192C163.289 328.192 162.423 327.979 161.699 327.553C160.979 327.122 160.425 326.526 160.037 325.763C159.654 325 159.462 324.122 159.462 323.129C159.462 322.124 159.656 321.241 160.044 320.483C160.436 319.72 160.992 319.126 161.712 318.7C162.432 318.269 163.289 318.054 164.281 318.054C165.138 318.054 165.888 318.21 166.531 318.521C167.175 318.832 167.684 319.268 168.059 319.831C168.434 320.393 168.641 321.054 168.679 321.812H166.11C166.037 321.322 165.845 320.928 165.534 320.63C165.227 320.327 164.825 320.176 164.326 320.176C163.904 320.176 163.536 320.291 163.22 320.521C162.909 320.747 162.666 321.077 162.492 321.512C162.317 321.947 162.23 322.473 162.23 323.091C162.23 323.717 162.315 324.25 162.485 324.689C162.66 325.128 162.905 325.462 163.22 325.692C163.536 325.923 163.904 326.038 164.326 326.038C164.637 326.038 164.916 325.974 165.164 325.846C165.415 325.718 165.622 325.533 165.784 325.29C165.95 325.043 166.058 324.746 166.11 324.401H168.679C168.637 325.151 168.432 325.812 168.066 326.383C167.703 326.95 167.203 327.393 166.563 327.712C165.924 328.032 165.168 328.192 164.294 328.192ZM173.222 328.185C172.596 328.185 172.038 328.077 171.548 327.859C171.058 327.638 170.67 327.312 170.384 326.881C170.103 326.447 169.962 325.906 169.962 325.258C169.962 324.712 170.063 324.254 170.263 323.884C170.463 323.513 170.736 323.214 171.081 322.989C171.426 322.763 171.818 322.592 172.257 322.477C172.7 322.362 173.165 322.281 173.651 322.234C174.222 322.175 174.682 322.119 175.031 322.068C175.381 322.013 175.634 321.932 175.792 321.825C175.95 321.719 176.028 321.561 176.028 321.352V321.314C176.028 320.909 175.901 320.596 175.645 320.374C175.393 320.153 175.036 320.042 174.571 320.042C174.081 320.042 173.691 320.151 173.401 320.368C173.112 320.581 172.92 320.849 172.826 321.173L170.308 320.969C170.435 320.372 170.687 319.857 171.062 319.422C171.437 318.983 171.92 318.646 172.513 318.412C173.109 318.173 173.8 318.054 174.584 318.054C175.129 318.054 175.651 318.118 176.15 318.246C176.653 318.374 177.098 318.572 177.486 318.84C177.878 319.109 178.187 319.454 178.413 319.876C178.638 320.293 178.751 320.794 178.751 321.378V328H176.169V326.638H176.092C175.935 326.945 175.724 327.216 175.46 327.45C175.195 327.68 174.878 327.862 174.507 327.994C174.136 328.121 173.708 328.185 173.222 328.185ZM174.002 326.306C174.403 326.306 174.756 326.227 175.063 326.07C175.37 325.908 175.611 325.69 175.786 325.418C175.96 325.145 176.048 324.836 176.048 324.491V323.449C175.962 323.504 175.845 323.555 175.696 323.602C175.551 323.645 175.387 323.685 175.204 323.724C175.021 323.758 174.837 323.79 174.654 323.82C174.471 323.845 174.305 323.869 174.156 323.89C173.836 323.937 173.557 324.011 173.318 324.114C173.08 324.216 172.894 324.354 172.762 324.529C172.63 324.7 172.564 324.913 172.564 325.168C172.564 325.539 172.698 325.822 172.967 326.018C173.239 326.21 173.585 326.306 174.002 326.306ZM183.587 314.909V328H180.864V314.909H183.587ZM103.519 340.674C103.468 340.158 103.248 339.758 102.86 339.472C102.472 339.187 101.946 339.044 101.281 339.044C100.83 339.044 100.448 339.108 100.137 339.236C99.8262 339.359 99.5875 339.532 99.4213 339.754C99.2594 339.975 99.1784 340.227 99.1784 340.508C99.1699 340.742 99.2189 340.947 99.3255 341.121C99.4363 341.296 99.5875 341.447 99.7793 341.575C99.9711 341.699 100.193 341.808 100.444 341.901C100.695 341.991 100.964 342.067 101.249 342.131L102.426 342.413C102.997 342.54 103.521 342.711 103.998 342.924C104.475 343.137 104.889 343.399 105.238 343.71C105.588 344.021 105.858 344.388 106.05 344.81C106.246 345.232 106.346 345.715 106.35 346.261C106.346 347.062 106.142 347.756 105.737 348.344C105.336 348.928 104.757 349.382 103.998 349.706C103.244 350.026 102.334 350.185 101.269 350.185C100.212 350.185 99.2914 350.023 98.5073 349.7C97.7275 349.376 97.1181 348.896 96.6792 348.261C96.2445 347.622 96.0165 346.832 95.9952 345.89H98.6735C98.7033 346.329 98.829 346.695 99.0506 346.989C99.2765 347.279 99.5769 347.499 99.9519 347.648C100.331 347.793 100.759 347.865 101.237 347.865C101.705 347.865 102.112 347.797 102.458 347.661C102.807 347.524 103.078 347.335 103.269 347.092C103.461 346.849 103.557 346.57 103.557 346.254C103.557 345.96 103.47 345.713 103.295 345.513C103.124 345.312 102.873 345.142 102.541 345.001C102.213 344.861 101.81 344.733 101.333 344.618L99.9071 344.26C98.8034 343.991 97.932 343.572 97.2928 343.001C96.6536 342.43 96.3361 341.661 96.3404 340.693C96.3361 339.901 96.5471 339.208 96.9732 338.616C97.4036 338.023 97.9938 337.561 98.7438 337.229C99.4938 336.896 100.346 336.73 101.301 336.73C102.272 336.73 103.12 336.896 103.845 337.229C104.573 337.561 105.14 338.023 105.545 338.616C105.95 339.208 106.159 339.894 106.171 340.674H103.519ZM110.961 350.185C110.334 350.185 109.776 350.077 109.286 349.859C108.796 349.638 108.408 349.312 108.123 348.881C107.841 348.447 107.701 347.906 107.701 347.258C107.701 346.712 107.801 346.254 108.001 345.884C108.201 345.513 108.474 345.214 108.819 344.989C109.164 344.763 109.556 344.592 109.995 344.477C110.439 344.362 110.903 344.281 111.389 344.234C111.96 344.175 112.42 344.119 112.77 344.068C113.119 344.013 113.373 343.932 113.53 343.825C113.688 343.719 113.767 343.561 113.767 343.352V343.314C113.767 342.909 113.639 342.596 113.383 342.374C113.132 342.153 112.774 342.042 112.309 342.042C111.819 342.042 111.429 342.151 111.14 342.368C110.85 342.581 110.658 342.849 110.564 343.173L108.046 342.969C108.174 342.372 108.425 341.857 108.8 341.422C109.175 340.983 109.659 340.646 110.251 340.412C110.848 340.173 111.538 340.054 112.322 340.054C112.868 340.054 113.39 340.118 113.888 340.246C114.391 340.374 114.836 340.572 115.224 340.84C115.616 341.109 115.925 341.454 116.151 341.876C116.377 342.293 116.49 342.794 116.49 343.378V350H113.907V348.638H113.831C113.673 348.945 113.462 349.216 113.198 349.45C112.934 349.68 112.616 349.862 112.245 349.994C111.875 350.121 111.446 350.185 110.961 350.185ZM111.74 348.306C112.141 348.306 112.495 348.227 112.801 348.07C113.108 347.908 113.349 347.69 113.524 347.418C113.699 347.145 113.786 346.836 113.786 346.491V345.449C113.701 345.504 113.583 345.555 113.434 345.602C113.289 345.645 113.125 345.685 112.942 345.724C112.759 345.758 112.576 345.79 112.392 345.82C112.209 345.845 112.043 345.869 111.894 345.89C111.574 345.937 111.295 346.011 111.056 346.114C110.818 346.216 110.632 346.354 110.5 346.529C110.368 346.7 110.302 346.913 110.302 347.168C110.302 347.539 110.436 347.822 110.705 348.018C110.978 348.21 111.323 348.306 111.74 348.306ZM118.602 350V340.182H121.197V341.914H121.312C121.517 341.339 121.858 340.885 122.335 340.553C122.812 340.22 123.384 340.054 124.048 340.054C124.722 340.054 125.295 340.222 125.768 340.559C126.241 340.891 126.556 341.343 126.714 341.914H126.816C127.016 341.352 127.379 340.902 127.903 340.565C128.431 340.224 129.055 340.054 129.776 340.054C130.692 340.054 131.435 340.346 132.006 340.93C132.582 341.509 132.869 342.332 132.869 343.397V350H130.153V343.934C130.153 343.388 130.008 342.979 129.718 342.707C129.428 342.434 129.066 342.298 128.631 342.298C128.137 342.298 127.751 342.455 127.474 342.771C127.197 343.082 127.059 343.493 127.059 344.004V350H124.419V343.876C124.419 343.395 124.281 343.011 124.004 342.726C123.731 342.44 123.371 342.298 122.923 342.298C122.621 342.298 122.348 342.374 122.105 342.528C121.866 342.677 121.677 342.888 121.536 343.161C121.396 343.429 121.325 343.744 121.325 344.107V350H118.602ZM135.02 353.682V340.182H137.705V341.831H137.826C137.946 341.567 138.118 341.298 138.344 341.026C138.574 340.749 138.873 340.518 139.239 340.335C139.61 340.148 140.07 340.054 140.62 340.054C141.336 340.054 141.996 340.241 142.601 340.616C143.206 340.987 143.69 341.548 144.052 342.298C144.414 343.043 144.596 343.979 144.596 345.104C144.596 346.199 144.419 347.124 144.065 347.878C143.716 348.628 143.238 349.197 142.633 349.585C142.032 349.968 141.359 350.16 140.613 350.16C140.085 350.16 139.635 350.072 139.265 349.898C138.898 349.723 138.598 349.504 138.363 349.239C138.129 348.971 137.95 348.7 137.826 348.428H137.743V353.682H135.02ZM137.686 345.091C137.686 345.675 137.767 346.184 137.929 346.619C138.091 347.053 138.325 347.392 138.632 347.635C138.939 347.874 139.311 347.993 139.75 347.993C140.194 347.993 140.569 347.871 140.875 347.629C141.182 347.381 141.414 347.04 141.572 346.606C141.734 346.167 141.815 345.662 141.815 345.091C141.815 344.524 141.736 344.026 141.578 343.595C141.421 343.165 141.189 342.828 140.882 342.585C140.575 342.342 140.198 342.221 139.75 342.221C139.307 342.221 138.932 342.338 138.625 342.572C138.323 342.807 138.091 343.139 137.929 343.57C137.767 344 137.686 344.507 137.686 345.091ZM149.134 336.909V350H146.411V336.909H149.134ZM151.315 350V340.182H154.038V350H151.315ZM152.683 338.916C152.278 338.916 151.931 338.782 151.641 338.513C151.356 338.241 151.213 337.915 151.213 337.536C151.213 337.161 151.356 336.839 151.641 336.57C151.931 336.298 152.278 336.161 152.683 336.161C153.088 336.161 153.433 336.298 153.719 336.57C154.008 336.839 154.153 337.161 154.153 337.536C154.153 337.915 154.008 338.241 153.719 338.513C153.433 338.782 153.088 338.916 152.683 338.916ZM158.942 344.324V350H156.219V340.182H158.815V341.914H158.93C159.147 341.343 159.511 340.891 160.023 340.559C160.534 340.222 161.154 340.054 161.883 340.054C162.565 340.054 163.159 340.203 163.666 340.501C164.173 340.8 164.567 341.226 164.849 341.78C165.13 342.33 165.271 342.986 165.271 343.749V350H162.548V344.234C162.552 343.634 162.398 343.165 162.087 342.828C161.776 342.487 161.348 342.317 160.803 342.317C160.436 342.317 160.112 342.396 159.831 342.553C159.554 342.711 159.337 342.941 159.179 343.244C159.026 343.542 158.947 343.902 158.942 344.324ZM171.84 353.886C170.958 353.886 170.202 353.765 169.571 353.522C168.944 353.283 168.446 352.957 168.075 352.544C167.704 352.131 167.464 351.666 167.353 351.151L169.871 350.812C169.948 351.008 170.069 351.191 170.236 351.362C170.402 351.532 170.621 351.668 170.894 351.771C171.171 351.877 171.508 351.93 171.904 351.93C172.496 351.93 172.984 351.786 173.368 351.496C173.756 351.21 173.949 350.731 173.949 350.058V348.261H173.834C173.715 348.534 173.536 348.792 173.297 349.035C173.059 349.278 172.752 349.476 172.377 349.629C172.002 349.783 171.555 349.859 171.035 349.859C170.297 349.859 169.626 349.689 169.021 349.348C168.42 349.003 167.941 348.477 167.583 347.769C167.229 347.058 167.052 346.158 167.052 345.072C167.052 343.96 167.233 343.031 167.596 342.285C167.958 341.539 168.439 340.981 169.04 340.61C169.645 340.239 170.308 340.054 171.028 340.054C171.578 340.054 172.038 340.148 172.409 340.335C172.78 340.518 173.078 340.749 173.304 341.026C173.534 341.298 173.711 341.567 173.834 341.831H173.937V340.182H176.64V350.096C176.64 350.931 176.436 351.63 176.027 352.192C175.618 352.755 175.051 353.177 174.327 353.458C173.606 353.744 172.778 353.886 171.84 353.886ZM171.898 347.814C172.336 347.814 172.707 347.705 173.01 347.488C173.317 347.266 173.551 346.951 173.713 346.542C173.879 346.129 173.962 345.634 173.962 345.059C173.962 344.484 173.881 343.985 173.719 343.563C173.557 343.137 173.323 342.807 173.016 342.572C172.709 342.338 172.336 342.221 171.898 342.221C171.45 342.221 171.073 342.342 170.766 342.585C170.459 342.824 170.227 343.156 170.069 343.582C169.912 344.009 169.833 344.501 169.833 345.059C169.833 345.626 169.912 346.116 170.069 346.529C170.231 346.938 170.464 347.256 170.766 347.482C171.073 347.703 171.45 347.814 171.898 347.814Z" fill="black"/>
<rect x="47.5" y="306.5" width="178" height="50" stroke="black"/>
<path d="M105.007 403.191V400.909H115.759V403.191H111.751V414H109.015V403.191H105.007ZM120.201 408.324V414H117.478V400.909H120.125V405.914H120.24C120.461 405.335 120.819 404.881 121.313 404.553C121.808 404.22 122.428 404.054 123.174 404.054C123.855 404.054 124.45 404.203 124.957 404.501C125.468 404.795 125.865 405.219 126.146 405.773C126.431 406.323 126.572 406.982 126.568 407.749V414H123.845V408.234C123.849 407.629 123.696 407.158 123.384 406.822C123.078 406.485 122.647 406.317 122.093 406.317C121.723 406.317 121.394 406.396 121.109 406.553C120.828 406.711 120.606 406.941 120.444 407.244C120.286 407.542 120.206 407.902 120.201 408.324ZM133.185 414.192C132.175 414.192 131.306 413.987 130.577 413.578C129.853 413.165 129.294 412.581 128.902 411.827C128.51 411.068 128.314 410.171 128.314 409.136C128.314 408.126 128.51 407.239 128.902 406.477C129.294 405.714 129.846 405.119 130.558 404.693C131.274 404.267 132.113 404.054 133.076 404.054C133.724 404.054 134.327 404.158 134.885 404.367C135.448 404.572 135.938 404.881 136.356 405.294C136.777 405.707 137.106 406.227 137.34 406.854C137.574 407.476 137.691 408.205 137.691 409.04V409.788H129.401V408.1H135.128C135.128 407.708 135.043 407.361 134.873 407.058C134.702 406.756 134.466 406.519 134.163 406.349C133.865 406.174 133.517 406.087 133.121 406.087C132.708 406.087 132.341 406.183 132.022 406.374C131.706 406.562 131.459 406.815 131.28 407.135C131.101 407.45 131.01 407.802 131.005 408.19V409.794C131.005 410.28 131.095 410.7 131.274 411.053C131.457 411.407 131.715 411.68 132.047 411.871C132.38 412.063 132.774 412.159 133.23 412.159C133.532 412.159 133.809 412.116 134.061 412.031C134.312 411.946 134.527 411.818 134.706 411.648C134.885 411.477 135.022 411.268 135.116 411.021L137.634 411.188C137.506 411.793 137.244 412.321 136.848 412.773C136.456 413.22 135.949 413.57 135.326 413.821C134.709 414.068 133.995 414.192 133.185 414.192ZM143.905 414.192C142.912 414.192 142.053 413.981 141.329 413.559C140.608 413.133 140.052 412.54 139.66 411.782C139.268 411.019 139.072 410.135 139.072 409.129C139.072 408.115 139.268 407.229 139.66 406.47C140.052 405.707 140.608 405.115 141.329 404.693C142.053 404.267 142.912 404.054 143.905 404.054C144.897 404.054 145.754 404.267 146.474 404.693C147.199 405.115 147.757 405.707 148.149 406.47C148.541 407.229 148.737 408.115 148.737 409.129C148.737 410.135 148.541 411.019 148.149 411.782C147.757 412.54 147.199 413.133 146.474 413.559C145.754 413.981 144.897 414.192 143.905 414.192ZM143.917 412.082C144.369 412.082 144.746 411.955 145.049 411.699C145.351 411.439 145.579 411.085 145.733 410.638C145.89 410.19 145.969 409.681 145.969 409.11C145.969 408.539 145.89 408.03 145.733 407.582C145.579 407.135 145.351 406.781 145.049 406.521C144.746 406.261 144.369 406.131 143.917 406.131C143.461 406.131 143.078 406.261 142.767 406.521C142.46 406.781 142.228 407.135 142.07 407.582C141.917 408.03 141.84 408.539 141.84 409.11C141.84 409.681 141.917 410.19 142.07 410.638C142.228 411.085 142.46 411.439 142.767 411.699C143.078 411.955 143.461 412.082 143.917 412.082ZM150.508 414V404.182H153.147V405.895H153.25C153.429 405.286 153.729 404.825 154.151 404.514C154.573 404.199 155.059 404.041 155.608 404.041C155.745 404.041 155.892 404.05 156.049 404.067C156.207 404.084 156.346 404.107 156.465 404.137V406.553C156.337 406.515 156.16 406.481 155.934 406.451C155.709 406.421 155.502 406.406 155.314 406.406C154.914 406.406 154.556 406.494 154.241 406.668C153.929 406.839 153.682 407.077 153.499 407.384C153.32 407.691 153.231 408.045 153.231 408.445V414H150.508ZM159.853 417.682C159.508 417.682 159.184 417.654 158.881 417.599C158.583 417.548 158.336 417.482 158.14 417.401L158.753 415.368C159.073 415.466 159.361 415.519 159.616 415.528C159.876 415.536 160.1 415.477 160.287 415.349C160.479 415.221 160.635 415.004 160.754 414.697L160.914 414.281L157.392 404.182H160.255L162.288 411.392H162.39L164.442 404.182H167.325L163.509 415.061C163.326 415.589 163.076 416.05 162.761 416.442C162.45 416.838 162.056 417.143 161.579 417.356C161.101 417.573 160.526 417.682 159.853 417.682ZM83.1378 436H78.4972V422.909H83.1761C84.4929 422.909 85.6264 423.171 86.5767 423.695C87.527 424.215 88.2578 424.963 88.7692 425.939C89.2848 426.915 89.5426 428.082 89.5426 429.442C89.5426 430.805 89.2848 431.977 88.7692 432.957C88.2578 433.937 87.5227 434.69 86.5639 435.214C85.6094 435.738 84.4673 436 83.1378 436ZM81.2649 433.629H83.0227C83.8409 433.629 84.5291 433.484 85.0874 433.194C85.6499 432.9 86.0717 432.446 86.353 431.832C86.6385 431.214 86.7812 430.418 86.7812 429.442C86.7812 428.474 86.6385 427.684 86.353 427.07C86.0717 426.457 85.652 426.005 85.0938 425.715C84.5355 425.425 83.8473 425.281 83.0291 425.281H81.2649V433.629ZM96.0162 436.192C95.0062 436.192 94.1369 435.987 93.4082 435.578C92.6838 435.165 92.1255 434.581 91.7335 433.827C91.3414 433.068 91.1454 432.171 91.1454 431.136C91.1454 430.126 91.3414 429.239 91.7335 428.477C92.1255 427.714 92.6774 427.119 93.389 426.693C94.1049 426.267 94.9444 426.054 95.9075 426.054C96.5552 426.054 97.1582 426.158 97.7164 426.367C98.2789 426.572 98.769 426.881 99.1866 427.294C99.6085 427.707 99.9366 428.227 100.171 428.854C100.405 429.476 100.523 430.205 100.523 431.04V431.788H92.2321V430.1H97.9593C97.9593 429.708 97.8741 429.361 97.7037 429.058C97.5332 428.756 97.2967 428.519 96.9941 428.349C96.6958 428.174 96.3485 428.087 95.9522 428.087C95.5389 428.087 95.1724 428.183 94.8528 428.374C94.5375 428.562 94.2903 428.815 94.1113 429.135C93.9324 429.45 93.8407 429.802 93.8365 430.19V431.794C93.8365 432.28 93.926 432.7 94.1049 433.053C94.2882 433.407 94.546 433.68 94.8784 433.871C95.2108 434.063 95.6049 434.159 96.0609 434.159C96.3635 434.159 96.6404 434.116 96.8919 434.031C97.1433 433.946 97.3585 433.818 97.5375 433.648C97.7164 433.477 97.8528 433.268 97.9466 433.021L100.465 433.188C100.337 433.793 100.075 434.321 99.6788 434.773C99.2868 435.22 98.7797 435.57 98.1575 435.821C97.5396 436.068 96.8258 436.192 96.0162 436.192ZM111.189 426.182L107.757 436H104.689L101.256 426.182H104.132L106.172 433.207H106.274L108.306 426.182H111.189ZM116.741 436.192C115.731 436.192 114.862 435.987 114.133 435.578C113.408 435.165 112.85 434.581 112.458 433.827C112.066 433.068 111.87 432.171 111.87 431.136C111.87 430.126 112.066 429.239 112.458 428.477C112.85 427.714 113.402 427.119 114.114 426.693C114.83 426.267 115.669 426.054 116.632 426.054C117.28 426.054 117.883 426.158 118.441 426.367C119.004 426.572 119.494 426.881 119.911 427.294C120.333 427.707 120.661 428.227 120.896 428.854C121.13 429.476 121.247 430.205 121.247 431.04V431.788H112.957V430.1H118.684C118.684 429.708 118.599 429.361 118.428 429.058C118.258 428.756 118.021 428.519 117.719 428.349C117.42 428.174 117.073 428.087 116.677 428.087C116.263 428.087 115.897 428.183 115.577 428.374C115.262 428.562 115.015 428.815 114.836 429.135C114.657 429.45 114.565 429.802 114.561 430.19V431.794C114.561 432.28 114.651 432.7 114.83 433.053C115.013 433.407 115.271 433.68 115.603 433.871C115.935 434.063 116.33 434.159 116.786 434.159C117.088 434.159 117.365 434.116 117.616 434.031C117.868 433.946 118.083 433.818 118.262 433.648C118.441 433.477 118.577 433.268 118.671 433.021L121.19 433.188C121.062 433.793 120.8 434.321 120.403 434.773C120.011 435.22 119.504 435.57 118.882 435.821C118.264 436.068 117.55 436.192 116.741 436.192ZM125.747 422.909V436H123.024V422.909H125.747ZM132.365 436.192C131.372 436.192 130.513 435.981 129.789 435.559C129.068 435.133 128.512 434.54 128.12 433.782C127.728 433.019 127.532 432.135 127.532 431.129C127.532 430.115 127.728 429.229 128.12 428.47C128.512 427.707 129.068 427.115 129.789 426.693C130.513 426.267 131.372 426.054 132.365 426.054C133.357 426.054 134.214 426.267 134.934 426.693C135.659 427.115 136.217 427.707 136.609 428.47C137.001 429.229 137.197 430.115 137.197 431.129C137.197 432.135 137.001 433.019 136.609 433.782C136.217 434.54 135.659 435.133 134.934 435.559C134.214 435.981 133.357 436.192 132.365 436.192ZM132.377 434.082C132.829 434.082 133.206 433.955 133.509 433.699C133.811 433.439 134.039 433.085 134.193 432.638C134.35 432.19 134.429 431.681 134.429 431.11C134.429 430.539 134.35 430.03 134.193 429.582C134.039 429.135 133.811 428.781 133.509 428.521C133.206 428.261 132.829 428.131 132.377 428.131C131.921 428.131 131.538 428.261 131.227 428.521C130.92 428.781 130.688 429.135 130.53 429.582C130.377 430.03 130.3 430.539 130.3 431.11C130.3 431.681 130.377 432.19 130.53 432.638C130.688 433.085 130.92 433.439 131.227 433.699C131.538 433.955 131.921 434.082 132.377 434.082ZM138.968 439.682V426.182H141.652V427.831H141.774C141.893 427.567 142.066 427.298 142.291 427.026C142.521 426.749 142.82 426.518 143.186 426.335C143.557 426.148 144.017 426.054 144.567 426.054C145.283 426.054 145.943 426.241 146.548 426.616C147.154 426.987 147.637 427.548 147.999 428.298C148.362 429.043 148.543 429.979 148.543 431.104C148.543 432.199 148.366 433.124 148.012 433.878C147.663 434.628 147.186 435.197 146.58 435.585C145.98 435.968 145.306 436.16 144.561 436.16C144.032 436.16 143.583 436.072 143.212 435.898C142.845 435.723 142.545 435.504 142.311 435.239C142.076 434.971 141.897 434.7 141.774 434.428H141.691V439.682H138.968ZM141.633 431.091C141.633 431.675 141.714 432.184 141.876 432.619C142.038 433.053 142.272 433.392 142.579 433.635C142.886 433.874 143.259 433.993 143.698 433.993C144.141 433.993 144.516 433.871 144.823 433.629C145.129 433.381 145.362 433.04 145.519 432.606C145.681 432.167 145.762 431.662 145.762 431.091C145.762 430.524 145.683 430.026 145.526 429.595C145.368 429.165 145.136 428.828 144.829 428.585C144.522 428.342 144.145 428.221 143.698 428.221C143.254 428.221 142.879 428.338 142.573 428.572C142.27 428.807 142.038 429.139 141.876 429.57C141.714 430 141.633 430.507 141.633 431.091ZM150.358 436V426.182H152.953V427.914H153.068C153.273 427.339 153.614 426.885 154.091 426.553C154.568 426.22 155.139 426.054 155.804 426.054C156.477 426.054 157.051 426.222 157.524 426.559C157.997 426.891 158.312 427.343 158.47 427.914H158.572C158.772 427.352 159.134 426.902 159.659 426.565C160.187 426.224 160.811 426.054 161.531 426.054C162.448 426.054 163.191 426.346 163.762 426.93C164.338 427.509 164.625 428.332 164.625 429.397V436H161.909V429.934C161.909 429.388 161.764 428.979 161.474 428.707C161.184 428.434 160.822 428.298 160.387 428.298C159.893 428.298 159.507 428.455 159.23 428.771C158.953 429.082 158.815 429.493 158.815 430.004V436H156.175V429.876C156.175 429.395 156.036 429.011 155.759 428.726C155.487 428.44 155.127 428.298 154.679 428.298C154.377 428.298 154.104 428.374 153.861 428.528C153.622 428.677 153.433 428.888 153.292 429.161C153.151 429.429 153.081 429.744 153.081 430.107V436H150.358ZM171.251 436.192C170.241 436.192 169.371 435.987 168.643 435.578C167.918 435.165 167.36 434.581 166.968 433.827C166.576 433.068 166.38 432.171 166.38 431.136C166.38 430.126 166.576 429.239 166.968 428.477C167.36 427.714 167.912 427.119 168.623 426.693C169.339 426.267 170.179 426.054 171.142 426.054C171.79 426.054 172.393 426.158 172.951 426.367C173.513 426.572 174.003 426.881 174.421 427.294C174.843 427.707 175.171 428.227 175.405 428.854C175.64 429.476 175.757 430.205 175.757 431.04V431.788H167.466V430.1H173.194C173.194 429.708 173.108 429.361 172.938 429.058C172.768 428.756 172.531 428.519 172.229 428.349C171.93 428.174 171.583 428.087 171.187 428.087C170.773 428.087 170.407 428.183 170.087 428.374C169.772 428.562 169.525 428.815 169.346 429.135C169.167 429.45 169.075 429.802 169.071 430.19V431.794C169.071 432.28 169.16 432.7 169.339 433.053C169.523 433.407 169.78 433.68 170.113 433.871C170.445 434.063 170.839 434.159 171.295 434.159C171.598 434.159 171.875 434.116 172.126 434.031C172.378 433.946 172.593 433.818 172.772 433.648C172.951 433.477 173.087 433.268 173.181 433.021L175.699 433.188C175.572 433.793 175.309 434.321 174.913 434.773C174.521 435.22 174.014 435.57 173.392 435.821C172.774 436.068 172.06 436.192 171.251 436.192ZM180.257 430.324V436H177.534V426.182H180.129V427.914H180.244C180.461 427.343 180.826 426.891 181.337 426.559C181.849 426.222 182.469 426.054 183.197 426.054C183.879 426.054 184.474 426.203 184.981 426.501C185.488 426.8 185.882 427.226 186.163 427.78C186.444 428.33 186.585 428.986 186.585 429.749V436H183.862V430.234C183.866 429.634 183.713 429.165 183.402 428.828C183.091 428.487 182.662 428.317 182.117 428.317C181.751 428.317 181.427 428.396 181.145 428.553C180.868 428.711 180.651 428.941 180.493 429.244C180.34 429.542 180.261 429.902 180.257 430.324ZM193.953 426.182V428.227H188.041V426.182H193.953ZM189.383 423.83H192.106V432.983C192.106 433.234 192.145 433.43 192.221 433.571C192.298 433.707 192.404 433.803 192.541 433.859C192.681 433.914 192.843 433.942 193.027 433.942C193.154 433.942 193.282 433.931 193.41 433.91C193.538 433.884 193.636 433.865 193.704 433.852L194.132 435.879C193.996 435.921 193.804 435.97 193.557 436.026C193.31 436.085 193.01 436.121 192.656 436.134C192 436.16 191.424 436.072 190.93 435.872C190.44 435.672 190.059 435.361 189.786 434.939C189.513 434.517 189.379 433.984 189.383 433.341V423.83Z" fill="black"/>
<rect x="47.5" y="392.5" width="178" height="50" stroke="black"/>
<path d="M135.293 98.7071C135.683 99.0976 136.317 99.0976 136.707 98.7071L143.071 92.3431C143.462 91.9526 143.462 91.3195 143.071 90.9289C142.681 90.5384 142.047 90.5384 141.657 90.9289L136 96.5858L130.343 90.9289C129.953 90.5384 129.319 90.5384 128.929 90.9289C128.538 91.3195 128.538 91.9526 128.929 92.3431L135.293 98.7071ZM136 64L135 64L135 98L136 98L137 98L137 64L136 64Z" fill="black"/>
<path d="M136.293 166.707C136.683 167.098 137.317 167.098 137.707 166.707L144.071 160.343C144.462 159.953 144.462 159.319 144.071 158.929C143.681 158.538 143.047 158.538 142.657 158.929L137 164.586L131.343 158.929C130.953 158.538 130.319 158.538 129.929 158.929C129.538 159.319 129.538 159.953 129.929 160.343L136.293 166.707ZM137 132L136 132L136 166L137 166L138 166L138 132L137 132Z" fill="black"/>
<path d="M136.293 236.707C136.683 237.098 137.317 237.098 137.707 236.707L144.071 230.343C144.462 229.953 144.462 229.319 144.071 228.929C143.681 228.538 143.047 228.538 142.657 228.929L137 234.586L131.343 228.929C130.953 228.538 130.319 228.538 129.929 228.929C129.538 229.319 129.538 229.953 129.929 230.343L136.293 236.707ZM137 202L136 202L136 236L137 236L138 236L138 202L137 202Z" fill="black"/>
<path d="M1 28V27H0V28H1ZM47.7071 28.7071C48.0976 28.3166 48.0976 27.6834 47.7071 27.2929L41.3431 20.9289C40.9526 20.5384 40.3195 20.5384 39.9289 20.9289C39.5384 21.3195 39.5384 21.9526 39.9289 22.3431L45.5858 28L39.9289 33.6569C39.5384 34.0474 39.5384 34.6805 39.9289 35.0711C40.3195 35.4616 40.9526 35.4616 41.3431 35.0711L47.7071 28.7071ZM1 334.5H0V335.5H1V334.5ZM1 28V29H47V28V27H1V28ZM47 334.5V333.5H1V334.5V335.5H47V334.5ZM1 334.5H2V28H1H0V334.5H1Z" fill="black"/>
<path d="M225 115.862L251 115.862L275.792 115.862L275.792 174" stroke="black" stroke-width="2"/>
<path d="M276 281L276 335L226 335" stroke="black" stroke-width="2"/>
<path d="M136.293 306.707C136.683 307.098 137.317 307.098 137.707 306.707L144.071 300.343C144.462 299.953 144.462 299.319 144.071 298.929C143.681 298.538 143.047 298.538 142.657 298.929L137 304.586L131.343 298.929C130.953 298.538 130.319 298.538 129.929 298.929C129.538 299.319 129.538 299.953 129.929 300.343L136.293 306.707ZM137 272L136 272L136 306L137 306L138 306L138 272L137 272Z" fill="black"/>
<path d="M136.293 391.707C136.683 392.098 137.317 392.098 137.707 391.707L144.071 385.343C144.462 384.953 144.462 384.319 144.071 383.929C143.681 383.538 143.047 383.538 142.657 383.929L137 389.586L131.343 383.929C130.953 383.538 130.319 383.538 129.929 383.929C129.538 384.319 129.538 384.953 129.929 385.343L136.293 391.707ZM137 357L136 357L136 391L137 391L138 391L138 357L137 357Z" fill="black"/>
</svg>
