
<svg width="290" height="443" viewBox="0 0 290 443" fill="none" xmlns="http://www.w3.org/2000/svg">
<path d="M73.125 123H69.0852V109.909H73.304C74.5739 109.909 75.6605 110.171 76.5639 110.695C77.4673 111.215 78.1598 111.963 78.6413 112.939C79.1229 113.911 79.3636 115.074 79.3636 116.429C79.3636 117.793 79.1207 118.967 78.6349 119.951C78.1491 120.931 77.4418 121.685 76.5128 122.214C75.5838 122.738 74.4545 123 73.125 123ZM70.6705 121.594H73.0227C74.1051 121.594 75.0021 121.385 75.7138 120.967C76.4254 120.55 76.956 119.955 77.3054 119.184C77.6548 118.413 77.8295 117.494 77.8295 116.429C77.8295 115.372 77.657 114.462 77.3118 113.7C76.9666 112.933 76.451 112.344 75.7649 111.935C75.0788 111.522 74.2244 111.315 73.2017 111.315H70.6705V121.594ZM84.7074 123.23C84.0852 123.23 83.5206 123.113 83.0135 122.879C82.5064 122.64 82.1037 122.297 81.8054 121.849C81.5071 121.398 81.358 120.852 81.358 120.213C81.358 119.651 81.4688 119.195 81.6903 118.845C81.9119 118.491 82.2081 118.214 82.5788 118.014C82.9496 117.814 83.3587 117.665 83.8061 117.567C84.2578 117.464 84.7116 117.384 85.1676 117.324C85.7642 117.247 86.2479 117.19 86.6186 117.151C86.9936 117.109 87.2663 117.038 87.4368 116.94C87.6115 116.842 87.6989 116.672 87.6989 116.429V116.378C87.6989 115.747 87.5263 115.257 87.1811 114.908C86.8402 114.558 86.3224 114.384 85.6278 114.384C84.9077 114.384 84.343 114.541 83.9339 114.857C83.5249 115.172 83.2372 115.509 83.071 115.866L81.6392 115.355C81.8949 114.759 82.2358 114.294 82.6619 113.962C83.0923 113.625 83.5611 113.391 84.0682 113.259C84.5795 113.122 85.0824 113.054 85.5767 113.054C85.892 113.054 86.2543 113.092 86.6634 113.169C87.0767 113.241 87.4751 113.393 87.8587 113.623C88.2464 113.853 88.5682 114.2 88.8239 114.665C89.0795 115.129 89.2074 115.751 89.2074 116.531V123H87.6989V121.67H87.6222C87.5199 121.884 87.3494 122.112 87.1108 122.354C86.8722 122.597 86.5547 122.804 86.1584 122.974C85.7621 123.145 85.2784 123.23 84.7074 123.23ZM84.9375 121.875C85.5341 121.875 86.0369 121.758 86.446 121.523C86.8594 121.289 87.1705 120.987 87.3793 120.616C87.5923 120.245 87.6989 119.855 87.6989 119.446V118.065C87.6349 118.142 87.4943 118.212 87.277 118.276C87.0639 118.336 86.8168 118.389 86.5355 118.436C86.2585 118.479 85.9879 118.517 85.7237 118.551C85.4638 118.581 85.2528 118.607 85.0909 118.628C84.6989 118.679 84.3324 118.762 83.9915 118.877C83.6548 118.988 83.3821 119.156 83.1733 119.382C82.9688 119.604 82.8665 119.906 82.8665 120.29C82.8665 120.814 83.0604 121.21 83.4482 121.479C83.8402 121.743 84.3366 121.875 84.9375 121.875ZM96.2306 113.182V114.46H91.1426V113.182H96.2306ZM92.6255 110.83H94.1341V120.188C94.1341 120.614 94.1958 120.933 94.3194 121.146C94.4473 121.355 94.6092 121.496 94.8052 121.568C95.0055 121.636 95.2164 121.67 95.438 121.67C95.6042 121.67 95.7406 121.662 95.8471 121.645C95.9537 121.624 96.0389 121.607 96.1028 121.594L96.4096 122.949C96.3074 122.987 96.1646 123.026 95.9814 123.064C95.7981 123.107 95.5659 123.128 95.2846 123.128C94.8585 123.128 94.4409 123.036 94.0318 122.853C93.627 122.67 93.2903 122.391 93.0218 122.016C92.7576 121.641 92.6255 121.168 92.6255 120.597V110.83ZM101.389 123.23C100.767 123.23 100.202 123.113 99.6951 122.879C99.188 122.64 98.7853 122.297 98.487 121.849C98.1887 121.398 98.0396 120.852 98.0396 120.213C98.0396 119.651 98.1504 119.195 98.372 118.845C98.5936 118.491 98.8897 118.214 99.2605 118.014C99.6312 117.814 100.04 117.665 100.488 117.567C100.939 117.464 101.393 117.384 101.849 117.324C102.446 117.247 102.93 117.19 103.3 117.151C103.675 117.109 103.948 117.038 104.118 116.94C104.293 116.842 104.381 116.672 104.381 116.429V116.378C104.381 115.747 104.208 115.257 103.863 114.908C103.522 114.558 103.004 114.384 102.309 114.384C101.589 114.384 101.025 114.541 100.616 114.857C100.206 115.172 99.9189 115.509 99.7527 115.866L98.3208 115.355C98.5765 114.759 98.9174 114.294 99.3436 113.962C99.774 113.625 100.243 113.391 100.75 113.259C101.261 113.122 101.764 113.054 102.258 113.054C102.574 113.054 102.936 113.092 103.345 113.169C103.758 113.241 104.157 113.393 104.54 113.623C104.928 113.853 105.25 114.2 105.506 114.665C105.761 115.129 105.889 115.751 105.889 116.531V123H104.381V121.67H104.304C104.202 121.884 104.031 122.112 103.792 122.354C103.554 122.597 103.236 122.804 102.84 122.974C102.444 123.145 101.96 123.23 101.389 123.23ZM101.619 121.875C102.216 121.875 102.719 121.758 103.128 121.523C103.541 121.289 103.852 120.987 104.061 120.616C104.274 120.245 104.381 119.855 104.381 119.446V118.065C104.317 118.142 104.176 118.212 103.959 118.276C103.746 118.336 103.498 118.389 103.217 118.436C102.94 118.479 102.67 118.517 102.405 118.551C102.145 118.581 101.934 118.607 101.773 118.628C101.381 118.679 101.014 118.762 100.673 118.877C100.336 118.988 100.064 119.156 99.8549 119.382C99.6504 119.604 99.5481 119.906 99.5481 120.29C99.5481 120.814 99.742 121.21 100.13 121.479C100.522 121.743 101.018 121.875 101.619 121.875ZM124.444 114H122.858C122.765 113.544 122.6 113.143 122.366 112.798C122.136 112.453 121.855 112.163 121.522 111.929C121.194 111.69 120.83 111.511 120.429 111.392C120.029 111.273 119.611 111.213 119.176 111.213C118.384 111.213 117.666 111.413 117.022 111.814C116.383 112.214 115.874 112.805 115.495 113.585C115.12 114.364 114.932 115.321 114.932 116.455C114.932 117.588 115.12 118.545 115.495 119.325C115.874 120.104 116.383 120.695 117.022 121.095C117.666 121.496 118.384 121.696 119.176 121.696C119.611 121.696 120.029 121.636 120.429 121.517C120.83 121.398 121.194 121.221 121.522 120.987C121.855 120.748 122.136 120.456 122.366 120.111C122.6 119.761 122.765 119.361 122.858 118.909H124.444C124.324 119.578 124.107 120.177 123.792 120.705C123.476 121.234 123.084 121.683 122.615 122.054C122.147 122.42 121.62 122.7 121.037 122.891C120.457 123.083 119.837 123.179 119.176 123.179C118.06 123.179 117.067 122.906 116.198 122.361C115.328 121.815 114.645 121.04 114.146 120.034C113.647 119.028 113.398 117.835 113.398 116.455C113.398 115.074 113.647 113.881 114.146 112.875C114.645 111.869 115.328 111.094 116.198 110.548C117.067 110.003 118.06 109.73 119.176 109.73C119.837 109.73 120.457 109.826 121.037 110.018C121.62 110.21 122.147 110.491 122.615 110.862C123.084 111.228 123.476 111.675 123.792 112.204C124.107 112.728 124.324 113.327 124.444 114ZM130.789 123.205C129.903 123.205 129.125 122.994 128.456 122.572C127.791 122.15 127.271 121.56 126.896 120.801C126.526 120.043 126.34 119.156 126.34 118.142C126.34 117.119 126.526 116.227 126.896 115.464C127.271 114.701 127.791 114.109 128.456 113.687C129.125 113.265 129.903 113.054 130.789 113.054C131.676 113.054 132.451 113.265 133.116 113.687C133.785 114.109 134.305 114.701 134.676 115.464C135.051 116.227 135.238 117.119 135.238 118.142C135.238 119.156 135.051 120.043 134.676 120.801C134.305 121.56 133.785 122.15 133.116 122.572C132.451 122.994 131.676 123.205 130.789 123.205ZM130.789 121.849C131.463 121.849 132.017 121.677 132.451 121.332C132.886 120.987 133.208 120.533 133.416 119.97C133.625 119.408 133.73 118.798 133.73 118.142C133.73 117.486 133.625 116.874 133.416 116.308C133.208 115.741 132.886 115.283 132.451 114.933C132.017 114.584 131.463 114.409 130.789 114.409C130.116 114.409 129.562 114.584 129.127 114.933C128.693 115.283 128.371 115.741 128.162 116.308C127.953 116.874 127.849 117.486 127.849 118.142C127.849 118.798 127.953 119.408 128.162 119.97C128.371 120.533 128.693 120.987 129.127 121.332C129.562 121.677 130.116 121.849 130.789 121.849ZM139.049 109.909V123H137.541V109.909H139.049ZM143.321 109.909V123H141.812V109.909H143.321ZM150.2 123.205C149.254 123.205 148.438 122.996 147.752 122.578C147.07 122.156 146.544 121.568 146.173 120.814C145.807 120.055 145.624 119.173 145.624 118.168C145.624 117.162 145.807 116.276 146.173 115.509C146.544 114.737 147.06 114.136 147.72 113.706C148.385 113.271 149.161 113.054 150.047 113.054C150.558 113.054 151.063 113.139 151.562 113.31C152.06 113.48 152.514 113.757 152.923 114.141C153.332 114.52 153.658 115.023 153.901 115.649C154.144 116.276 154.266 117.047 154.266 117.963V118.602H146.697V117.298H152.732C152.732 116.744 152.621 116.25 152.399 115.815C152.182 115.381 151.871 115.038 151.466 114.786C151.065 114.535 150.592 114.409 150.047 114.409C149.446 114.409 148.926 114.558 148.487 114.857C148.053 115.151 147.718 115.534 147.484 116.007C147.249 116.48 147.132 116.987 147.132 117.528V118.398C147.132 119.139 147.26 119.768 147.516 120.283C147.776 120.795 148.136 121.185 148.596 121.453C149.056 121.717 149.591 121.849 150.2 121.849C150.597 121.849 150.955 121.794 151.274 121.683C151.598 121.568 151.877 121.398 152.112 121.172C152.346 120.942 152.527 120.656 152.655 120.315L154.112 120.724C153.959 121.219 153.701 121.653 153.339 122.028C152.977 122.399 152.529 122.689 151.996 122.898C151.464 123.102 150.865 123.205 150.2 123.205ZM160.549 123.205C159.629 123.205 158.836 122.987 158.171 122.553C157.506 122.118 156.995 121.519 156.637 120.756C156.279 119.994 156.1 119.122 156.1 118.142C156.1 117.145 156.283 116.265 156.65 115.502C157.021 114.735 157.536 114.136 158.197 113.706C158.862 113.271 159.637 113.054 160.523 113.054C161.214 113.054 161.836 113.182 162.39 113.438C162.944 113.693 163.398 114.051 163.751 114.511C164.105 114.972 164.325 115.509 164.41 116.122H162.901C162.786 115.675 162.531 115.278 162.134 114.933C161.742 114.584 161.214 114.409 160.549 114.409C159.961 114.409 159.445 114.562 159.002 114.869C158.563 115.172 158.22 115.6 157.973 116.154C157.73 116.704 157.609 117.349 157.609 118.091C157.609 118.849 157.728 119.51 157.967 120.072C158.21 120.635 158.55 121.072 158.989 121.383C159.433 121.694 159.952 121.849 160.549 121.849C160.941 121.849 161.297 121.781 161.616 121.645C161.936 121.509 162.207 121.312 162.428 121.057C162.65 120.801 162.808 120.494 162.901 120.136H164.41C164.325 120.716 164.114 121.238 163.777 121.702C163.445 122.163 163.004 122.529 162.454 122.802C161.908 123.07 161.273 123.205 160.549 123.205ZM170.885 113.182V114.46H165.797V113.182H170.885ZM167.28 110.83H168.788V120.188C168.788 120.614 168.85 120.933 168.974 121.146C169.102 121.355 169.263 121.496 169.46 121.568C169.66 121.636 169.871 121.67 170.092 121.67C170.259 121.67 170.395 121.662 170.501 121.645C170.608 121.624 170.693 121.607 170.757 121.594L171.064 122.949C170.962 122.987 170.819 123.026 170.636 123.064C170.452 123.107 170.22 123.128 169.939 123.128C169.513 123.128 169.095 123.036 168.686 122.853C168.281 122.67 167.945 122.391 167.676 122.016C167.412 121.641 167.28 121.168 167.28 120.597V110.83ZM173.154 123V113.182H174.663V123H173.154ZM173.921 111.545C173.627 111.545 173.374 111.445 173.161 111.245C172.952 111.045 172.847 110.804 172.847 110.523C172.847 110.241 172.952 110.001 173.161 109.8C173.374 109.6 173.627 109.5 173.921 109.5C174.215 109.5 174.467 109.6 174.675 109.8C174.888 110.001 174.995 110.241 174.995 110.523C174.995 110.804 174.888 111.045 174.675 111.245C174.467 111.445 174.215 111.545 173.921 111.545ZM181.414 123.205C180.528 123.205 179.75 122.994 179.081 122.572C178.416 122.15 177.896 121.56 177.521 120.801C177.151 120.043 176.965 119.156 176.965 118.142C176.965 117.119 177.151 116.227 177.521 115.464C177.896 114.701 178.416 114.109 179.081 113.687C179.75 113.265 180.528 113.054 181.414 113.054C182.301 113.054 183.076 113.265 183.741 113.687C184.41 114.109 184.93 114.701 185.301 115.464C185.676 116.227 185.863 117.119 185.863 118.142C185.863 119.156 185.676 120.043 185.301 120.801C184.93 121.56 184.41 122.15 183.741 122.572C183.076 122.994 182.301 123.205 181.414 123.205ZM181.414 121.849C182.088 121.849 182.642 121.677 183.076 121.332C183.511 120.987 183.833 120.533 184.041 119.97C184.25 119.408 184.355 118.798 184.355 118.142C184.355 117.486 184.25 116.874 184.041 116.308C183.833 115.741 183.511 115.283 183.076 114.933C182.642 114.584 182.088 114.409 181.414 114.409C180.741 114.409 180.187 114.584 179.752 114.933C179.318 115.283 178.996 115.741 178.787 116.308C178.578 116.874 178.474 117.486 178.474 118.142C178.474 118.798 178.578 119.408 178.787 119.97C178.996 120.533 179.318 120.987 179.752 121.332C180.187 121.677 180.741 121.849 181.414 121.849ZM189.674 117.094V123H188.166V113.182H189.623V114.716H189.751C189.981 114.217 190.331 113.817 190.799 113.514C191.268 113.207 191.873 113.054 192.615 113.054C193.279 113.054 193.861 113.19 194.36 113.463C194.858 113.732 195.246 114.141 195.523 114.69C195.8 115.236 195.939 115.926 195.939 116.761V123H194.43V116.864C194.43 116.092 194.23 115.491 193.829 115.061C193.429 114.626 192.879 114.409 192.18 114.409C191.699 114.409 191.268 114.513 190.889 114.722C190.514 114.931 190.218 115.236 190 115.636C189.783 116.037 189.674 116.523 189.674 117.094Z" fill="black"/>
<rect x="46" y="98.5" width="178" height="35" stroke="black"/>
<path d="M87.1526 28V14.9091H91.5759C92.5986 14.9091 93.4381 15.0838 94.0944 15.4332C94.7506 15.7784 95.2364 16.2536 95.5518 16.8587C95.8671 17.4638 96.0248 18.152 96.0248 18.9233C96.0248 19.6946 95.8671 20.3786 95.5518 20.9751C95.2364 21.5717 94.7528 22.0405 94.1008 22.3814C93.4488 22.718 92.6157 22.8864 91.6015 22.8864H88.0219V21.4545H91.5503C92.2492 21.4545 92.8117 21.3523 93.2378 21.1477C93.6682 20.9432 93.9793 20.6534 94.1711 20.2784C94.3671 19.8991 94.4651 19.4474 94.4651 18.9233C94.4651 18.3991 94.3671 17.9411 94.1711 17.549C93.9751 17.157 93.6618 16.8544 93.2314 16.6413C92.801 16.424 92.2322 16.3153 91.5248 16.3153H88.7378V28H87.1526ZM93.3145 22.1193L96.5361 28H94.6952L91.5248 22.1193H93.3145ZM102.473 28.2045C101.527 28.2045 100.711 27.9957 100.025 27.5781C99.3428 27.1562 98.8165 26.5682 98.4458 25.8139C98.0793 25.0554 97.896 24.1733 97.896 23.1676C97.896 22.1619 98.0793 21.2756 98.4458 20.5085C98.8165 19.7372 99.3321 19.1364 99.9926 18.706C100.657 18.2713 101.433 18.054 102.319 18.054C102.831 18.054 103.336 18.1392 103.834 18.3097C104.333 18.4801 104.787 18.7571 105.196 19.1406C105.605 19.5199 105.931 20.0227 106.174 20.6491C106.417 21.2756 106.538 22.0469 106.538 22.9631V23.6023H98.9699V22.2983H105.004C105.004 21.7443 104.893 21.25 104.672 20.8153C104.454 20.3807 104.143 20.0376 103.738 19.7862C103.338 19.5348 102.865 19.4091 102.319 19.4091C101.718 19.4091 101.199 19.5582 100.76 19.8565C100.325 20.1506 99.9905 20.5341 99.7561 21.0071C99.5218 21.4801 99.4046 21.9872 99.4046 22.5284V23.3977C99.4046 24.1392 99.5324 24.7678 99.7881 25.2834C100.048 25.7947 100.408 26.1847 100.868 26.4531C101.329 26.7173 101.863 26.8494 102.473 26.8494C102.869 26.8494 103.227 26.794 103.547 26.6832C103.87 26.5682 104.15 26.3977 104.384 26.1719C104.618 25.9418 104.799 25.6562 104.927 25.3153L106.385 25.7244C106.231 26.2188 105.973 26.6534 105.611 27.0284C105.249 27.3991 104.802 27.6889 104.269 27.8977C103.736 28.1023 103.138 28.2045 102.473 28.2045ZM113.205 18.1818V19.4602H107.912V18.1818H113.205ZM109.498 28V16.8267C109.498 16.2642 109.63 15.7955 109.894 15.4205C110.158 15.0455 110.501 14.7642 110.923 14.5767C111.345 14.3892 111.79 14.2955 112.259 14.2955C112.63 14.2955 112.932 14.3253 113.167 14.3849C113.401 14.4446 113.576 14.5 113.691 14.5511L113.256 15.8551C113.179 15.8295 113.073 15.7976 112.937 15.7592C112.804 15.7209 112.63 15.7017 112.412 15.7017C111.914 15.7017 111.554 15.8274 111.332 16.0788C111.115 16.3303 111.006 16.6989 111.006 17.1847V28H109.498ZM115.319 28V18.1818H116.828V28H115.319ZM116.086 16.5455C115.792 16.5455 115.539 16.4453 115.326 16.245C115.117 16.0447 115.012 15.804 115.012 15.5227C115.012 15.2415 115.117 15.0007 115.326 14.8004C115.539 14.6001 115.792 14.5 116.086 14.5C116.38 14.5 116.632 14.6001 116.84 14.8004C117.054 15.0007 117.16 15.2415 117.16 15.5227C117.16 15.804 117.054 16.0447 116.84 16.245C116.632 16.4453 116.38 16.5455 116.086 16.5455ZM121.099 22.0938V28H119.591V18.1818H121.048V19.7159H121.176C121.406 19.2173 121.755 18.8168 122.224 18.5142C122.693 18.2074 123.298 18.054 124.04 18.054C124.704 18.054 125.286 18.1903 125.785 18.4631C126.283 18.7315 126.671 19.1406 126.948 19.6903C127.225 20.2358 127.363 20.9261 127.363 21.7614V28H125.855V21.8636C125.855 21.0923 125.655 20.4915 125.254 20.0611C124.853 19.6264 124.304 19.4091 123.605 19.4091C123.123 19.4091 122.693 19.5135 122.314 19.7223C121.939 19.9311 121.642 20.2358 121.425 20.6364C121.208 21.0369 121.099 21.5227 121.099 22.0938ZM130.12 28V18.1818H131.628V28H130.12ZM130.887 16.5455C130.593 16.5455 130.339 16.4453 130.126 16.245C129.918 16.0447 129.813 15.804 129.813 15.5227C129.813 15.2415 129.918 15.0007 130.126 14.8004C130.339 14.6001 130.593 14.5 130.887 14.5C131.181 14.5 131.432 14.6001 131.641 14.8004C131.854 15.0007 131.961 15.2415 131.961 15.5227C131.961 15.804 131.854 16.0447 131.641 16.245C131.432 16.4453 131.181 16.5455 130.887 16.5455ZM135.9 22.0938V28H134.391V18.1818H135.849V19.7159H135.977C136.207 19.2173 136.556 18.8168 137.025 18.5142C137.494 18.2074 138.099 18.054 138.84 18.054C139.505 18.054 140.087 18.1903 140.585 18.4631C141.084 18.7315 141.472 19.1406 141.749 19.6903C142.026 20.2358 142.164 20.9261 142.164 21.7614V28H140.656V21.8636C140.656 21.0923 140.455 20.4915 140.055 20.0611C139.654 19.6264 139.104 19.4091 138.406 19.4091C137.924 19.4091 137.494 19.5135 137.114 19.7223C136.739 19.9311 136.443 20.2358 136.226 20.6364C136.009 21.0369 135.9 21.5227 135.9 22.0938ZM148.884 31.8864C148.155 31.8864 147.529 31.7926 147.005 31.6051C146.48 31.4219 146.044 31.179 145.694 30.8764C145.349 30.5781 145.074 30.2585 144.87 29.9176L146.071 29.0739C146.208 29.2528 146.38 29.4574 146.589 29.6875C146.798 29.9219 147.083 30.1243 147.446 30.2947C147.812 30.4695 148.291 30.5568 148.884 30.5568C149.676 30.5568 150.331 30.3651 150.846 29.9815C151.362 29.598 151.62 28.9972 151.62 28.179V26.1847H151.492C151.381 26.3636 151.223 26.5852 151.019 26.8494C150.818 27.1094 150.529 27.3416 150.149 27.5462C149.774 27.7464 149.267 27.8466 148.628 27.8466C147.835 27.8466 147.124 27.6591 146.493 27.2841C145.867 26.9091 145.37 26.3636 145.004 25.6477C144.642 24.9318 144.46 24.0625 144.46 23.0398C144.46 22.0341 144.637 21.1584 144.991 20.4126C145.345 19.6626 145.837 19.0831 146.468 18.674C147.098 18.2607 147.827 18.054 148.654 18.054C149.293 18.054 149.8 18.1605 150.175 18.3736C150.554 18.5824 150.844 18.821 151.044 19.0895C151.249 19.3537 151.407 19.571 151.517 19.7415H151.671V18.1818H153.128V28.2812C153.128 29.125 152.936 29.8111 152.553 30.3395C152.174 30.8722 151.662 31.2621 151.019 31.5092C150.38 31.7607 149.668 31.8864 148.884 31.8864ZM148.833 26.4915C149.438 26.4915 149.949 26.353 150.367 26.076C150.784 25.799 151.102 25.4006 151.319 24.8807C151.536 24.3608 151.645 23.7386 151.645 23.0142C151.645 22.3068 151.539 21.6825 151.326 21.1413C151.112 20.6001 150.797 20.1761 150.38 19.8693C149.962 19.5625 149.446 19.4091 148.833 19.4091C148.193 19.4091 147.661 19.571 147.235 19.8949C146.813 20.2187 146.495 20.6534 146.282 21.1989C146.073 21.7443 145.969 22.3494 145.969 23.0142C145.969 23.696 146.076 24.299 146.289 24.8232C146.506 25.343 146.826 25.7521 147.247 26.0504C147.674 26.3445 148.202 26.4915 148.833 26.4915ZM165.222 18.1818V19.4602H160.134V18.1818H165.222ZM161.617 15.8295H163.125V25.1875C163.125 25.6136 163.187 25.9332 163.311 26.1463C163.438 26.3551 163.6 26.4957 163.796 26.5682C163.997 26.6364 164.208 26.6705 164.429 26.6705C164.595 26.6705 164.732 26.6619 164.838 26.6449C164.945 26.6236 165.03 26.6065 165.094 26.5938L165.401 27.9489C165.299 27.9872 165.156 28.0256 164.973 28.0639C164.789 28.1065 164.557 28.1278 164.276 28.1278C163.85 28.1278 163.432 28.0362 163.023 27.853C162.618 27.6697 162.282 27.3906 162.013 27.0156C161.749 26.6406 161.617 26.1676 161.617 25.5966V15.8295ZM169.21 22.0938V28H167.702V14.9091H169.21V19.7159H169.338C169.568 19.2088 169.914 18.8061 170.374 18.5078C170.838 18.2053 171.456 18.054 172.228 18.054C172.897 18.054 173.483 18.1882 173.985 18.4567C174.488 18.7209 174.878 19.1278 175.155 19.6776C175.436 20.223 175.577 20.9176 175.577 21.7614V28H174.068V21.8636C174.068 21.0838 173.866 20.4808 173.461 20.0547C173.061 19.6243 172.505 19.4091 171.793 19.4091C171.299 19.4091 170.855 19.5135 170.463 19.7223C170.076 19.9311 169.769 20.2358 169.543 20.6364C169.321 21.0369 169.21 21.5227 169.21 22.0938ZM182.453 28.2045C181.507 28.2045 180.691 27.9957 180.005 27.5781C179.323 27.1562 178.797 26.5682 178.426 25.8139C178.06 25.0554 177.877 24.1733 177.877 23.1676C177.877 22.1619 178.06 21.2756 178.426 20.5085C178.797 19.7372 179.313 19.1364 179.973 18.706C180.638 18.2713 181.413 18.054 182.3 18.054C182.811 18.054 183.316 18.1392 183.815 18.3097C184.313 18.4801 184.767 18.7571 185.176 19.1406C185.585 19.5199 185.911 20.0227 186.154 20.6491C186.397 21.2756 186.519 22.0469 186.519 22.9631V23.6023H178.95V22.2983H184.984C184.984 21.7443 184.874 21.25 184.652 20.8153C184.435 20.3807 184.124 20.0376 183.719 19.7862C183.318 19.5348 182.845 19.4091 182.3 19.4091C181.699 19.4091 181.179 19.5582 180.74 19.8565C180.305 20.1506 179.971 20.5341 179.737 21.0071C179.502 21.4801 179.385 21.9872 179.385 22.5284V23.3977C179.385 24.1392 179.513 24.7678 179.769 25.2834C180.028 25.7947 180.389 26.1847 180.849 26.4531C181.309 26.7173 181.844 26.8494 182.453 26.8494C182.85 26.8494 183.207 26.794 183.527 26.6832C183.851 26.5682 184.13 26.3977 184.364 26.1719C184.599 25.9418 184.78 25.6562 184.908 25.3153L186.365 25.7244C186.212 26.2188 185.954 26.6534 185.592 27.0284C185.229 27.3991 184.782 27.6889 184.249 27.8977C183.717 28.1023 183.118 28.2045 182.453 28.2045ZM72.9615 36.9091V50H71.3762V36.9091H72.9615ZM77.4439 44.0938V50H75.9354V40.1818H77.3928V41.7159H77.5206C77.7507 41.2173 78.1001 40.8168 78.5689 40.5142C79.0376 40.2074 79.6428 40.054 80.3842 40.054C81.049 40.054 81.6307 40.1903 82.1293 40.4631C82.6278 40.7315 83.0156 41.1406 83.2926 41.6903C83.5696 42.2358 83.7081 42.9261 83.7081 43.7614V50H82.1996V43.8636C82.1996 43.0923 81.9993 42.4915 81.5987 42.0611C81.1982 41.6264 80.6484 41.4091 79.9496 41.4091C79.468 41.4091 79.0376 41.5135 78.6584 41.7223C78.2834 41.9311 77.9872 42.2358 77.7699 42.6364C77.5526 43.0369 77.4439 43.5227 77.4439 44.0938ZM90.7346 40.1818V41.4602H85.6465V40.1818H90.7346ZM87.1294 37.8295H88.638V47.1875C88.638 47.6136 88.6998 47.9332 88.8233 48.1463C88.9512 48.3551 89.1131 48.4957 89.3091 48.5682C89.5094 48.6364 89.7203 48.6705 89.9419 48.6705C90.1081 48.6705 90.2445 48.6619 90.351 48.6449C90.4576 48.6236 90.5428 48.6065 90.6067 48.5938L90.9135 49.9489C90.8113 49.9872 90.6685 50.0256 90.4853 50.0639C90.302 50.1065 90.0698 50.1278 89.7885 50.1278C89.3624 50.1278 88.9448 50.0362 88.5357 49.853C88.1309 49.6697 87.7942 49.3906 87.5257 49.0156C87.2615 48.6406 87.1294 48.1676 87.1294 47.5966V37.8295ZM97.0147 50.2045C96.0687 50.2045 95.2527 49.9957 94.5666 49.5781C93.8848 49.1562 93.3585 48.5682 92.9877 47.8139C92.6213 47.0554 92.438 46.1733 92.438 45.1676C92.438 44.1619 92.6213 43.2756 92.9877 42.5085C93.3585 41.7372 93.8741 41.1364 94.5346 40.706C95.1994 40.2713 95.975 40.054 96.8613 40.054C97.3727 40.054 97.8777 40.1392 98.3762 40.3097C98.8748 40.4801 99.3287 40.7571 99.7377 41.1406C100.147 41.5199 100.473 42.0227 100.716 42.6491C100.959 43.2756 101.08 44.0469 101.08 44.9631V45.6023H93.5119V44.2983H99.546C99.546 43.7443 99.4352 43.25 99.2136 42.8153C98.9963 42.3807 98.6852 42.0376 98.2804 41.7862C97.8798 41.5348 97.4068 41.4091 96.8613 41.4091C96.2605 41.4091 95.7406 41.5582 95.3017 41.8565C94.867 42.1506 94.5325 42.5341 94.2981 43.0071C94.0637 43.4801 93.9466 43.9872 93.9466 44.5284V45.3977C93.9466 46.1392 94.0744 46.7678 94.3301 47.2834C94.59 47.7947 94.9501 48.1847 95.4103 48.4531C95.8706 48.7173 96.4054 48.8494 97.0147 48.8494C97.411 48.8494 97.769 48.794 98.0886 48.6832C98.4125 48.5682 98.6916 48.3977 98.926 48.1719C99.1603 47.9418 99.3414 47.6562 99.4693 47.3153L100.927 47.7244C100.773 48.2188 100.515 48.6534 100.153 49.0284C99.791 49.3991 99.3436 49.6889 98.8109 49.8977C98.2782 50.1023 97.6795 50.2045 97.0147 50.2045ZM103.375 50V40.1818H104.832V41.6648H104.934C105.113 41.179 105.437 40.7848 105.906 40.4822C106.375 40.1797 106.903 40.0284 107.491 40.0284C107.602 40.0284 107.741 40.0305 107.907 40.0348C108.073 40.0391 108.199 40.0455 108.284 40.054V41.5881C108.233 41.5753 108.116 41.5561 107.932 41.5305C107.753 41.5007 107.564 41.4858 107.363 41.4858C106.886 41.4858 106.46 41.5859 106.085 41.7862C105.714 41.9822 105.42 42.255 105.203 42.6044C104.99 42.9496 104.883 43.3437 104.883 43.7869V50H103.375ZM118.399 40.1818L114.769 50H113.235L109.604 40.1818H111.24L113.95 48.0057H114.053L116.763 40.1818H118.399ZM120.39 50V40.1818H121.899V50H120.39ZM121.157 38.5455C120.863 38.5455 120.61 38.4453 120.397 38.245C120.188 38.0447 120.084 37.804 120.084 37.5227C120.084 37.2415 120.188 37.0007 120.397 36.8004C120.61 36.6001 120.863 36.5 121.157 36.5C121.452 36.5 121.703 36.6001 121.912 36.8004C122.125 37.0007 122.231 37.2415 122.231 37.5227C122.231 37.804 122.125 38.0447 121.912 38.245C121.703 38.4453 121.452 38.5455 121.157 38.5455ZM128.778 50.2045C127.832 50.2045 127.016 49.9957 126.33 49.5781C125.648 49.1562 125.122 48.5682 124.751 47.8139C124.385 47.0554 124.202 46.1733 124.202 45.1676C124.202 44.1619 124.385 43.2756 124.751 42.5085C125.122 41.7372 125.638 41.1364 126.298 40.706C126.963 40.2713 127.739 40.054 128.625 40.054C129.136 40.054 129.641 40.1392 130.14 40.3097C130.638 40.4801 131.092 40.7571 131.501 41.1406C131.911 41.5199 132.237 42.0227 132.479 42.6491C132.722 43.2756 132.844 44.0469 132.844 44.9631V45.6023H125.276V44.2983H131.31C131.31 43.7443 131.199 43.25 130.977 42.8153C130.76 42.3807 130.449 42.0376 130.044 41.7862C129.643 41.5348 129.17 41.4091 128.625 41.4091C128.024 41.4091 127.504 41.5582 127.065 41.8565C126.631 42.1506 126.296 42.5341 126.062 43.0071C125.827 43.4801 125.71 43.9872 125.71 44.5284V45.3977C125.71 46.1392 125.838 46.7678 126.094 47.2834C126.354 47.7947 126.714 48.1847 127.174 48.4531C127.634 48.7173 128.169 48.8494 128.778 48.8494C129.175 48.8494 129.533 48.794 129.852 48.6832C130.176 48.5682 130.455 48.3977 130.69 48.1719C130.924 47.9418 131.105 47.6562 131.233 47.3153L132.69 47.7244C132.537 48.2188 132.279 48.6534 131.917 49.0284C131.555 49.3991 131.107 49.6889 130.575 49.8977C130.042 50.1023 129.443 50.2045 128.778 50.2045ZM137.363 50L134.371 40.1818H135.957L138.079 47.6989H138.181L140.278 40.1818H141.888L143.96 47.6733H144.062L146.184 40.1818H147.769L144.778 50H143.295L141.147 42.4574H140.994L138.846 50H137.363ZM163.979 41C163.839 40.5696 163.653 40.1839 163.423 39.843C163.197 39.4979 162.927 39.2038 162.612 38.9609C162.3 38.718 161.947 38.5327 161.55 38.4048C161.154 38.277 160.719 38.2131 160.246 38.2131C159.471 38.2131 158.766 38.4134 158.131 38.8139C157.496 39.2145 156.991 39.8047 156.616 40.5845C156.241 41.3643 156.053 42.321 156.053 43.4545C156.053 44.5881 156.243 45.5447 156.622 46.3246C157.001 47.1044 157.515 47.6946 158.163 48.0952C158.81 48.4957 159.539 48.696 160.349 48.696C161.099 48.696 161.759 48.5362 162.33 48.2166C162.906 47.8928 163.353 47.4368 163.673 46.8487C163.996 46.2564 164.158 45.5597 164.158 44.7585L164.644 44.8608H160.707V43.4545H165.692V44.8608C165.692 45.9389 165.462 46.8764 165.002 47.6733C164.546 48.4702 163.915 49.0881 163.11 49.527C162.309 49.9616 161.388 50.179 160.349 50.179C159.19 50.179 158.171 49.9062 157.293 49.3608C156.42 48.8153 155.738 48.0398 155.248 47.0341C154.762 46.0284 154.519 44.8352 154.519 43.4545C154.519 42.419 154.658 41.4879 154.935 40.6612C155.216 39.8303 155.612 39.1229 156.124 38.5391C156.635 37.9553 157.24 37.5078 157.939 37.1967C158.638 36.8857 159.407 36.7301 160.246 36.7301C160.937 36.7301 161.58 36.8345 162.177 37.0433C162.778 37.2479 163.312 37.5398 163.781 37.919C164.254 38.294 164.648 38.7436 164.964 39.2678C165.279 39.7876 165.496 40.3651 165.616 41H163.979ZM174.39 45.9858V40.1818H175.899V50H174.39V48.3381H174.288C174.058 48.8366 173.7 49.2607 173.214 49.6101C172.729 49.9553 172.115 50.1278 171.373 50.1278C170.76 50.1278 170.214 49.9936 169.737 49.7251C169.26 49.4524 168.885 49.0433 168.612 48.4979C168.339 47.9482 168.203 47.2557 168.203 46.4205V40.1818H169.711V46.3182C169.711 47.0341 169.912 47.6051 170.312 48.0312C170.717 48.4574 171.233 48.6705 171.859 48.6705C172.234 48.6705 172.616 48.5746 173.003 48.3828C173.395 48.1911 173.724 47.897 173.988 47.5007C174.256 47.1044 174.39 46.5994 174.39 45.9858ZM178.662 50V40.1818H180.17V50H178.662ZM179.429 38.5455C179.135 38.5455 178.881 38.4453 178.668 38.245C178.46 38.0447 178.355 37.804 178.355 37.5227C178.355 37.2415 178.46 37.0007 178.668 36.8004C178.881 36.6001 179.135 36.5 179.429 36.5C179.723 36.5 179.974 36.6001 180.183 36.8004C180.396 37.0007 180.503 37.2415 180.503 37.5227C180.503 37.804 180.396 38.0447 180.183 38.245C179.974 38.4453 179.723 38.5455 179.429 38.5455ZM186.641 50.2045C185.823 50.2045 185.1 49.9979 184.474 49.5845C183.847 49.1669 183.357 48.5788 183.004 47.8203C182.65 47.0575 182.473 46.1562 182.473 45.1165C182.473 44.0852 182.65 43.1903 183.004 42.4318C183.357 41.6733 183.85 41.0874 184.48 40.674C185.111 40.2607 185.84 40.054 186.666 40.054C187.306 40.054 187.811 40.1605 188.181 40.3736C188.556 40.5824 188.842 40.821 189.038 41.0895C189.238 41.3537 189.394 41.571 189.504 41.7415H189.632V36.9091H191.141V50H189.683V48.4915H189.504C189.394 48.6705 189.236 48.8963 189.031 49.169C188.827 49.4375 188.535 49.6783 188.156 49.8913C187.776 50.1001 187.271 50.2045 186.641 50.2045ZM186.845 48.8494C187.45 48.8494 187.962 48.6918 188.379 48.3764C188.797 48.0568 189.115 47.6158 189.332 47.0533C189.549 46.4865 189.658 45.8324 189.658 45.0909C189.658 44.358 189.551 43.7166 189.338 43.1669C189.125 42.6129 188.81 42.1825 188.392 41.8757C187.975 41.5646 187.459 41.4091 186.845 41.4091C186.206 41.4091 185.673 41.5732 185.247 41.9013C184.825 42.2251 184.508 42.6662 184.295 43.2244C184.086 43.7784 183.982 44.4006 183.982 45.0909C183.982 45.7898 184.088 46.4247 184.301 46.9957C184.519 47.5625 184.838 48.0142 185.26 48.3509C185.686 48.6832 186.215 48.8494 186.845 48.8494ZM198.23 50.2045C197.284 50.2045 196.468 49.9957 195.781 49.5781C195.1 49.1562 194.573 48.5682 194.203 47.8139C193.836 47.0554 193.653 46.1733 193.653 45.1676C193.653 44.1619 193.836 43.2756 194.203 42.5085C194.573 41.7372 195.089 41.1364 195.749 40.706C196.414 40.2713 197.19 40.054 198.076 40.054C198.588 40.054 199.093 40.1392 199.591 40.3097C200.09 40.4801 200.544 40.7571 200.953 41.1406C201.362 41.5199 201.688 42.0227 201.931 42.6491C202.173 43.2756 202.295 44.0469 202.295 44.9631V45.6023H194.727V44.2983H200.761C200.761 43.7443 200.65 43.25 200.428 42.8153C200.211 42.3807 199.9 42.0376 199.495 41.7862C199.095 41.5348 198.622 41.4091 198.076 41.4091C197.475 41.4091 196.955 41.5582 196.517 41.8565C196.082 42.1506 195.747 42.5341 195.513 43.0071C195.279 43.4801 195.161 43.9872 195.161 44.5284V45.3977C195.161 46.1392 195.289 46.7678 195.545 47.2834C195.805 47.7947 196.165 48.1847 196.625 48.4531C197.085 48.7173 197.62 48.8494 198.23 48.8494C198.626 48.8494 198.984 48.794 199.303 48.6832C199.627 48.5682 199.906 48.3977 200.141 48.1719C200.375 47.9418 200.556 47.6562 200.684 47.3153L202.142 47.7244C201.988 48.2188 201.73 48.6534 201.368 49.0284C201.006 49.3991 200.558 49.6889 200.026 49.8977C199.493 50.1023 198.894 50.2045 198.23 50.2045Z" fill="black"/>
<rect x="47" y="0.5" width="178" height="63" stroke="black"/>
<path d="M283.591 186.585V188.477L272.724 192.926V193.08L283.591 197.528V199.42H270.5V197.938H280.446V197.81L270.5 193.719V192.287L280.446 188.196V188.068H270.5V186.585H283.591ZM270.295 206.511C270.295 205.565 270.504 204.749 270.922 204.063C271.344 203.381 271.932 202.855 272.686 202.484C273.445 202.117 274.327 201.934 275.332 201.934C276.338 201.934 277.224 202.117 277.991 202.484C278.763 202.855 279.364 203.37 279.794 204.031C280.229 204.695 280.446 205.471 280.446 206.357C280.446 206.869 280.361 207.374 280.19 207.872C280.02 208.371 279.743 208.825 279.359 209.234C278.98 209.643 278.477 209.969 277.851 210.212C277.224 210.455 276.453 210.576 275.537 210.576H274.898V203.008H276.202V209.042C276.756 209.042 277.25 208.931 277.685 208.71C278.119 208.492 278.462 208.181 278.714 207.776C278.965 207.376 279.091 206.903 279.091 206.357C279.091 205.757 278.942 205.237 278.643 204.798C278.349 204.363 277.966 204.029 277.493 203.794C277.02 203.56 276.513 203.443 275.972 203.443H275.102C274.361 203.443 273.732 203.57 273.217 203.826C272.705 204.086 272.315 204.446 272.047 204.906C271.783 205.367 271.651 205.901 271.651 206.511C271.651 206.907 271.706 207.265 271.817 207.585C271.932 207.909 272.102 208.188 272.328 208.422C272.558 208.656 272.844 208.838 273.185 208.965L272.776 210.423C272.281 210.269 271.847 210.012 271.472 209.649C271.101 209.287 270.811 208.84 270.602 208.307C270.398 207.774 270.295 207.176 270.295 206.511ZM270.5 212.871H280.318V214.328H278.784V214.456C279.308 214.661 279.715 214.991 280.005 215.447C280.299 215.903 280.446 216.45 280.446 217.09C280.446 217.737 280.299 218.276 280.005 218.707C279.715 219.142 279.308 219.48 278.784 219.723V219.825C279.291 220.077 279.694 220.454 279.992 220.957C280.295 221.46 280.446 222.063 280.446 222.766C280.446 223.644 280.171 224.362 279.621 224.92C279.076 225.478 278.226 225.757 277.071 225.757H270.5V224.249H277.071C277.795 224.249 278.313 224.051 278.624 223.654C278.935 223.258 279.091 222.791 279.091 222.254C279.091 221.564 278.882 221.029 278.464 220.65C278.051 220.271 277.527 220.081 276.892 220.081H270.5V218.547H277.224C277.783 218.547 278.232 218.366 278.573 218.004C278.918 217.642 279.091 217.175 279.091 216.604C279.091 216.212 278.987 215.845 278.778 215.504C278.569 215.168 278.279 214.895 277.908 214.686C277.542 214.482 277.118 214.379 276.636 214.379H270.5V212.871ZM270.295 232.504C270.295 231.618 270.506 230.84 270.928 230.171C271.35 229.506 271.94 228.986 272.699 228.611C273.457 228.241 274.344 228.055 275.358 228.055C276.381 228.055 277.273 228.241 278.036 228.611C278.799 228.986 279.391 229.506 279.813 230.171C280.235 230.84 280.446 231.618 280.446 232.504C280.446 233.39 280.235 234.166 279.813 234.831C279.391 235.5 278.799 236.02 278.036 236.39C277.273 236.765 276.381 236.953 275.358 236.953C274.344 236.953 273.457 236.765 272.699 236.39C271.94 236.02 271.35 235.5 270.928 234.831C270.506 234.166 270.295 233.39 270.295 232.504ZM271.651 232.504C271.651 233.177 271.823 233.731 272.168 234.166C272.513 234.601 272.967 234.922 273.53 235.131C274.092 235.34 274.702 235.444 275.358 235.444C276.014 235.444 276.626 235.34 277.192 235.131C277.759 234.922 278.217 234.601 278.567 234.166C278.916 233.731 279.091 233.177 279.091 232.504C279.091 231.831 278.916 231.277 278.567 230.842C278.217 230.407 277.759 230.086 277.192 229.877C276.626 229.668 276.014 229.564 275.358 229.564C274.702 229.564 274.092 229.668 273.53 229.877C272.967 230.086 272.513 230.407 272.168 230.842C271.823 231.277 271.651 231.831 271.651 232.504ZM270.5 239.256H280.318V240.764H270.5V239.256ZM281.955 240.023C281.955 239.729 282.055 239.475 282.255 239.262C282.455 239.053 282.696 238.949 282.977 238.949C283.259 238.949 283.499 239.053 283.7 239.262C283.9 239.475 284 239.729 284 240.023C284 240.317 283.9 240.568 283.7 240.777C283.499 240.99 283.259 241.097 282.977 241.097C282.696 241.097 282.455 240.99 282.255 240.777C282.055 240.568 281.955 240.317 281.955 240.023ZM276.406 245.036H270.5V243.527H280.318V244.985H278.784V245.112C279.283 245.343 279.683 245.692 279.986 246.161C280.293 246.629 280.446 247.235 280.446 247.976C280.446 248.641 280.31 249.222 280.037 249.721C279.768 250.22 279.359 250.607 278.81 250.884C278.264 251.161 277.574 251.3 276.739 251.3H270.5V249.791H276.636C277.408 249.791 278.009 249.591 278.439 249.191C278.874 248.79 279.091 248.24 279.091 247.541C279.091 247.06 278.987 246.629 278.778 246.25C278.569 245.875 278.264 245.579 277.864 245.362C277.463 245.144 276.977 245.036 276.406 245.036ZM266.614 258.02C266.614 257.291 266.707 256.664 266.895 256.14C267.078 255.616 267.321 255.179 267.624 254.83C267.922 254.485 268.241 254.21 268.582 254.005L269.426 255.207C269.247 255.343 269.043 255.516 268.812 255.725C268.578 255.934 268.376 256.219 268.205 256.581C268.031 256.948 267.943 257.427 267.943 258.02C267.943 258.812 268.135 259.466 268.518 259.982C268.902 260.498 269.503 260.755 270.321 260.755H272.315V260.627C272.136 260.517 271.915 260.359 271.651 260.154C271.391 259.954 271.158 259.664 270.954 259.285C270.754 258.91 270.653 258.403 270.653 257.764C270.653 256.971 270.841 256.26 271.216 255.629C271.591 255.002 272.136 254.506 272.852 254.14C273.568 253.777 274.438 253.596 275.46 253.596C276.466 253.596 277.342 253.773 278.087 254.127C278.837 254.48 279.417 254.973 279.826 255.603C280.239 256.234 280.446 256.963 280.446 257.789C280.446 258.429 280.339 258.936 280.126 259.311C279.918 259.69 279.679 259.98 279.411 260.18C279.146 260.385 278.929 260.542 278.759 260.653V260.806H280.318V262.264H270.219C269.375 262.264 268.689 262.072 268.161 261.689C267.628 261.309 267.238 260.798 266.991 260.154C266.739 259.515 266.614 258.804 266.614 258.02ZM272.009 257.968C272.009 258.574 272.147 259.085 272.424 259.502C272.701 259.92 273.099 260.238 273.619 260.455C274.139 260.672 274.761 260.781 275.486 260.781C276.193 260.781 276.817 260.674 277.359 260.461C277.9 260.248 278.324 259.933 278.631 259.515C278.938 259.098 279.091 258.582 279.091 257.968C279.091 257.329 278.929 256.797 278.605 256.37C278.281 255.949 277.847 255.631 277.301 255.418C276.756 255.209 276.151 255.105 275.486 255.105C274.804 255.105 274.201 255.211 273.677 255.424C273.157 255.642 272.748 255.961 272.45 256.383C272.156 256.809 272.009 257.338 272.009 257.968Z" fill="black"/>
<rect x="289" y="173.5" width="107" height="27" transform="rotate(90 289 173.5)" stroke="black"/>
<path d="M80.6705 177.909V191H79.0852V177.909H80.6705ZM85.1529 185.094V191H83.6444V181.182H85.1017V182.716H85.2296C85.4597 182.217 85.8091 181.817 86.2779 181.514C86.7466 181.207 87.3517 181.054 88.0932 181.054C88.758 181.054 89.3397 181.19 89.8382 181.463C90.3368 181.732 90.7246 182.141 91.0016 182.69C91.2786 183.236 91.4171 183.926 91.4171 184.761V191H89.9086V184.864C89.9086 184.092 89.7083 183.491 89.3077 183.061C88.9071 182.626 88.3574 182.409 87.6586 182.409C87.177 182.409 86.7466 182.513 86.3674 182.722C85.9924 182.931 85.6962 183.236 85.4789 183.636C85.2615 184.037 85.1529 184.523 85.1529 185.094ZM94.1737 191V181.182H95.6822V191H94.1737ZM94.9407 179.545C94.6467 179.545 94.3931 179.445 94.18 179.245C93.9712 179.045 93.8668 178.804 93.8668 178.523C93.8668 178.241 93.9712 178.001 94.18 177.8C94.3931 177.6 94.6467 177.5 94.9407 177.5C95.2347 177.5 95.4862 177.6 95.695 177.8C95.908 178.001 96.0146 178.241 96.0146 178.523C96.0146 178.804 95.908 179.045 95.695 179.245C95.4862 179.445 95.2347 179.545 94.9407 179.545ZM102.715 181.182V182.46H97.627V181.182H102.715ZM99.1099 178.83H100.618V188.188C100.618 188.614 100.68 188.933 100.804 189.146C100.932 189.355 101.094 189.496 101.29 189.568C101.49 189.636 101.701 189.67 101.922 189.67C102.089 189.67 102.225 189.662 102.331 189.645C102.438 189.624 102.523 189.607 102.587 189.594L102.894 190.949C102.792 190.987 102.649 191.026 102.466 191.064C102.282 191.107 102.05 191.128 101.769 191.128C101.343 191.128 100.925 191.036 100.516 190.853C100.111 190.67 99.7747 190.391 99.5062 190.016C99.242 189.641 99.1099 189.168 99.1099 188.597V178.83ZM104.984 191V181.182H106.493V191H104.984ZM105.751 179.545C105.457 179.545 105.204 179.445 104.991 179.245C104.782 179.045 104.677 178.804 104.677 178.523C104.677 178.241 104.782 178.001 104.991 177.8C105.204 177.6 105.457 177.5 105.751 177.5C106.045 177.5 106.297 177.6 106.506 177.8C106.719 178.001 106.825 178.241 106.825 178.523C106.825 178.804 106.719 179.045 106.506 179.245C106.297 179.445 106.045 179.545 105.751 179.545ZM112.145 191.23C111.523 191.23 110.958 191.113 110.451 190.879C109.944 190.64 109.541 190.297 109.243 189.849C108.945 189.398 108.795 188.852 108.795 188.213C108.795 187.651 108.906 187.195 109.128 186.845C109.349 186.491 109.646 186.214 110.016 186.014C110.387 185.814 110.796 185.665 111.244 185.567C111.695 185.464 112.149 185.384 112.605 185.324C113.202 185.247 113.685 185.19 114.056 185.151C114.431 185.109 114.704 185.038 114.874 184.94C115.049 184.842 115.136 184.672 115.136 184.429V184.378C115.136 183.747 114.964 183.257 114.619 182.908C114.278 182.558 113.76 182.384 113.065 182.384C112.345 182.384 111.781 182.541 111.371 182.857C110.962 183.172 110.675 183.509 110.509 183.866L109.077 183.355C109.332 182.759 109.673 182.294 110.099 181.962C110.53 181.625 110.999 181.391 111.506 181.259C112.017 181.122 112.52 181.054 113.014 181.054C113.33 181.054 113.692 181.092 114.101 181.169C114.514 181.241 114.913 181.393 115.296 181.623C115.684 181.853 116.006 182.2 116.261 182.665C116.517 183.129 116.645 183.751 116.645 184.531V191H115.136V189.67H115.06C114.957 189.884 114.787 190.112 114.548 190.354C114.31 190.597 113.992 190.804 113.596 190.974C113.2 191.145 112.716 191.23 112.145 191.23ZM112.375 189.875C112.972 189.875 113.474 189.758 113.884 189.523C114.297 189.289 114.608 188.987 114.817 188.616C115.03 188.245 115.136 187.855 115.136 187.446V186.065C115.072 186.142 114.932 186.212 114.714 186.276C114.501 186.336 114.254 186.389 113.973 186.436C113.696 186.479 113.425 186.517 113.161 186.551C112.901 186.581 112.69 186.607 112.528 186.628C112.136 186.679 111.77 186.762 111.429 186.877C111.092 186.988 110.82 187.156 110.611 187.382C110.406 187.604 110.304 187.906 110.304 188.29C110.304 188.814 110.498 189.21 110.886 189.479C111.278 189.743 111.774 189.875 112.375 189.875ZM120.907 177.909V191H119.398V177.909H120.907ZM139.471 182H137.886C137.792 181.544 137.628 181.143 137.393 180.798C137.163 180.453 136.882 180.163 136.55 179.929C136.222 179.69 135.857 179.511 135.457 179.392C135.056 179.273 134.638 179.213 134.204 179.213C133.411 179.213 132.693 179.413 132.05 179.814C131.411 180.214 130.901 180.805 130.522 181.585C130.147 182.364 129.96 183.321 129.96 184.455C129.96 185.588 130.147 186.545 130.522 187.325C130.901 188.104 131.411 188.695 132.05 189.095C132.693 189.496 133.411 189.696 134.204 189.696C134.638 189.696 135.056 189.636 135.457 189.517C135.857 189.398 136.222 189.221 136.55 188.987C136.882 188.748 137.163 188.456 137.393 188.111C137.628 187.761 137.792 187.361 137.886 186.909H139.471C139.352 187.578 139.134 188.177 138.819 188.705C138.504 189.234 138.112 189.683 137.643 190.054C137.174 190.42 136.648 190.7 136.064 190.891C135.484 191.083 134.864 191.179 134.204 191.179C133.087 191.179 132.094 190.906 131.225 190.361C130.356 189.815 129.672 189.04 129.173 188.034C128.675 187.028 128.425 185.835 128.425 184.455C128.425 183.074 128.675 181.881 129.173 180.875C129.672 179.869 130.356 179.094 131.225 178.548C132.094 178.003 133.087 177.73 134.204 177.73C134.864 177.73 135.484 177.826 136.064 178.018C136.648 178.21 137.174 178.491 137.643 178.862C138.112 179.228 138.504 179.675 138.819 180.204C139.134 180.728 139.352 181.327 139.471 182ZM145.817 191.205C144.93 191.205 144.153 190.994 143.483 190.572C142.819 190.15 142.299 189.56 141.924 188.801C141.553 188.043 141.368 187.156 141.368 186.142C141.368 185.119 141.553 184.227 141.924 183.464C142.299 182.701 142.819 182.109 143.483 181.687C144.153 181.265 144.93 181.054 145.817 181.054C146.703 181.054 147.479 181.265 148.143 181.687C148.812 182.109 149.332 182.701 149.703 183.464C150.078 184.227 150.265 185.119 150.265 186.142C150.265 187.156 150.078 188.043 149.703 188.801C149.332 189.56 148.812 190.15 148.143 190.572C147.479 190.994 146.703 191.205 145.817 191.205ZM145.817 189.849C146.49 189.849 147.044 189.677 147.479 189.332C147.913 188.987 148.235 188.533 148.444 187.97C148.653 187.408 148.757 186.798 148.757 186.142C148.757 185.486 148.653 184.874 148.444 184.308C148.235 183.741 147.913 183.283 147.479 182.933C147.044 182.584 146.49 182.409 145.817 182.409C145.143 182.409 144.589 182.584 144.155 182.933C143.72 183.283 143.398 183.741 143.189 184.308C142.981 184.874 142.876 185.486 142.876 186.142C142.876 186.798 142.981 187.408 143.189 187.97C143.398 188.533 143.72 188.987 144.155 189.332C144.589 189.677 145.143 189.849 145.817 189.849ZM156.276 191.205C155.457 191.205 154.735 190.998 154.109 190.585C153.482 190.167 152.992 189.579 152.638 188.82C152.285 188.058 152.108 187.156 152.108 186.116C152.108 185.085 152.285 184.19 152.638 183.432C152.992 182.673 153.484 182.087 154.115 181.674C154.746 181.261 155.474 181.054 156.301 181.054C156.94 181.054 157.445 181.161 157.816 181.374C158.191 181.582 158.477 181.821 158.673 182.089C158.873 182.354 159.028 182.571 159.139 182.741H159.267V177.909H160.776V191H159.318V189.491H159.139C159.028 189.67 158.871 189.896 158.666 190.169C158.462 190.437 158.17 190.678 157.79 190.891C157.411 191.1 156.906 191.205 156.276 191.205ZM156.48 189.849C157.085 189.849 157.597 189.692 158.014 189.376C158.432 189.057 158.749 188.616 158.967 188.053C159.184 187.487 159.293 186.832 159.293 186.091C159.293 185.358 159.186 184.717 158.973 184.167C158.76 183.613 158.445 183.183 158.027 182.876C157.609 182.565 157.094 182.409 156.48 182.409C155.841 182.409 155.308 182.573 154.882 182.901C154.46 183.225 154.143 183.666 153.93 184.224C153.721 184.778 153.616 185.401 153.616 186.091C153.616 186.79 153.723 187.425 153.936 187.996C154.153 188.562 154.473 189.014 154.895 189.351C155.321 189.683 155.849 189.849 156.48 189.849ZM163.748 191V181.182H165.256V191H163.748ZM164.515 179.545C164.221 179.545 163.967 179.445 163.754 179.245C163.545 179.045 163.441 178.804 163.441 178.523C163.441 178.241 163.545 178.001 163.754 177.8C163.967 177.6 164.221 177.5 164.515 177.5C164.809 177.5 165.06 177.6 165.269 177.8C165.482 178.001 165.589 178.241 165.589 178.523C165.589 178.804 165.482 179.045 165.269 179.245C165.06 179.445 164.809 179.545 164.515 179.545ZM169.528 185.094V191H168.019V181.182H169.477V182.716H169.605C169.835 182.217 170.184 181.817 170.653 181.514C171.122 181.207 171.727 181.054 172.468 181.054C173.133 181.054 173.715 181.19 174.213 181.463C174.712 181.732 175.1 182.141 175.377 182.69C175.654 183.236 175.792 183.926 175.792 184.761V191H174.284V184.864C174.284 184.092 174.083 183.491 173.683 183.061C173.282 182.626 172.732 182.409 172.034 182.409C171.552 182.409 171.122 182.513 170.742 182.722C170.367 182.931 170.071 183.236 169.854 183.636C169.637 184.037 169.528 184.523 169.528 185.094ZM182.512 194.886C181.783 194.886 181.157 194.793 180.632 194.605C180.108 194.422 179.672 194.179 179.322 193.876C178.977 193.578 178.702 193.259 178.498 192.918L179.699 192.074C179.836 192.253 180.008 192.457 180.217 192.688C180.426 192.922 180.711 193.124 181.074 193.295C181.44 193.469 181.919 193.557 182.512 193.557C183.304 193.557 183.958 193.365 184.474 192.982C184.99 192.598 185.248 191.997 185.248 191.179V189.185H185.12C185.009 189.364 184.851 189.585 184.647 189.849C184.446 190.109 184.157 190.342 183.777 190.546C183.402 190.746 182.895 190.847 182.256 190.847C181.463 190.847 180.752 190.659 180.121 190.284C179.495 189.909 178.998 189.364 178.632 188.648C178.27 187.932 178.088 187.062 178.088 186.04C178.088 185.034 178.265 184.158 178.619 183.413C178.973 182.663 179.465 182.083 180.096 181.674C180.726 181.261 181.455 181.054 182.282 181.054C182.921 181.054 183.428 181.161 183.803 181.374C184.182 181.582 184.472 181.821 184.672 182.089C184.877 182.354 185.034 182.571 185.145 182.741H185.299V181.182H186.756V191.281C186.756 192.125 186.564 192.811 186.181 193.339C185.801 193.872 185.29 194.262 184.647 194.509C184.007 194.761 183.296 194.886 182.512 194.886ZM182.461 189.491C183.066 189.491 183.577 189.353 183.995 189.076C184.412 188.799 184.73 188.401 184.947 187.881C185.164 187.361 185.273 186.739 185.273 186.014C185.273 185.307 185.167 184.683 184.953 184.141C184.74 183.6 184.425 183.176 184.007 182.869C183.59 182.562 183.074 182.409 182.461 182.409C181.821 182.409 181.289 182.571 180.863 182.895C180.441 183.219 180.123 183.653 179.91 184.199C179.701 184.744 179.597 185.349 179.597 186.014C179.597 186.696 179.703 187.299 179.917 187.823C180.134 188.343 180.453 188.752 180.875 189.05C181.301 189.344 181.83 189.491 182.461 189.491Z" fill="black"/>
<rect x="47" y="166.5" width="178" height="35" stroke="black"/>
<path d="M66.0852 261V247.909H73.9347V249.315H67.6705V253.739H73.3466V255.145H67.6705V261H66.0852ZM79.7131 261.205C78.8267 261.205 78.049 260.994 77.38 260.572C76.7152 260.15 76.1953 259.56 75.8203 258.801C75.4496 258.043 75.2642 257.156 75.2642 256.142C75.2642 255.119 75.4496 254.227 75.8203 253.464C76.1953 252.701 76.7152 252.109 77.38 251.687C78.049 251.265 78.8267 251.054 79.7131 251.054C80.5994 251.054 81.375 251.265 82.0398 251.687C82.7088 252.109 83.2287 252.701 83.5994 253.464C83.9744 254.227 84.1619 255.119 84.1619 256.142C84.1619 257.156 83.9744 258.043 83.5994 258.801C83.2287 259.56 82.7088 260.15 82.0398 260.572C81.375 260.994 80.5994 261.205 79.7131 261.205ZM79.7131 259.849C80.3864 259.849 80.9403 259.677 81.375 259.332C81.8097 258.987 82.1314 258.533 82.3402 257.97C82.549 257.408 82.6534 256.798 82.6534 256.142C82.6534 255.486 82.549 254.874 82.3402 254.308C82.1314 253.741 81.8097 253.283 81.375 252.933C80.9403 252.584 80.3864 252.409 79.7131 252.409C79.0398 252.409 78.4858 252.584 78.0511 252.933C77.6165 253.283 77.2947 253.741 77.0859 254.308C76.8771 254.874 76.7727 255.486 76.7727 256.142C76.7727 256.798 76.8771 257.408 77.0859 257.97C77.2947 258.533 77.6165 258.987 78.0511 259.332C78.4858 259.677 79.0398 259.849 79.7131 259.849ZM90.4533 261.205C89.5328 261.205 88.7402 260.987 88.0755 260.553C87.4107 260.118 86.8993 259.519 86.5414 258.756C86.1834 257.994 86.0044 257.122 86.0044 256.142C86.0044 255.145 86.1877 254.265 86.5542 253.502C86.9249 252.735 87.4405 252.136 88.101 251.706C88.7658 251.271 89.5414 251.054 90.4277 251.054C91.1181 251.054 91.7402 251.182 92.2942 251.438C92.8482 251.693 93.302 252.051 93.6557 252.511C94.0094 252.972 94.2289 253.509 94.3141 254.122H92.8056C92.6905 253.675 92.4348 253.278 92.0385 252.933C91.6465 252.584 91.1181 252.409 90.4533 252.409C89.8652 252.409 89.3496 252.562 88.9064 252.869C88.4675 253.172 88.1245 253.6 87.8773 254.154C87.6344 254.704 87.513 255.349 87.513 256.091C87.513 256.849 87.6323 257.51 87.8709 258.072C88.1138 258.635 88.4547 259.072 88.8936 259.383C89.3368 259.694 89.8567 259.849 90.4533 259.849C90.8453 259.849 91.2012 259.781 91.5208 259.645C91.8404 259.509 92.111 259.312 92.3326 259.057C92.5542 258.801 92.7118 258.494 92.8056 258.136H94.3141C94.2289 258.716 94.0179 259.238 93.6813 259.702C93.3489 260.163 92.9078 260.529 92.3581 260.802C91.8127 261.07 91.1777 261.205 90.4533 261.205ZM102.707 256.986V251.182H104.215V261H102.707V259.338H102.605C102.374 259.837 102.017 260.261 101.531 260.61C101.045 260.955 100.431 261.128 99.6898 261.128C99.0762 261.128 98.5307 260.994 98.0534 260.725C97.5762 260.452 97.2012 260.043 96.9284 259.498C96.6557 258.948 96.5194 258.256 96.5194 257.42V251.182H98.0279V257.318C98.0279 258.034 98.2282 258.605 98.6287 259.031C99.0336 259.457 99.5492 259.67 100.176 259.67C100.551 259.67 100.932 259.575 101.32 259.383C101.712 259.191 102.04 258.897 102.304 258.501C102.573 258.104 102.707 257.599 102.707 256.986ZM113.933 253.381L112.578 253.764C112.493 253.538 112.367 253.319 112.201 253.106C112.039 252.888 111.817 252.71 111.536 252.569C111.255 252.428 110.895 252.358 110.456 252.358C109.855 252.358 109.354 252.496 108.953 252.773C108.557 253.046 108.359 253.393 108.359 253.815C108.359 254.19 108.495 254.487 108.768 254.704C109.041 254.921 109.467 255.102 110.047 255.247L111.504 255.605C112.382 255.818 113.036 256.144 113.466 256.583C113.897 257.018 114.112 257.578 114.112 258.264C114.112 258.827 113.95 259.33 113.626 259.773C113.306 260.216 112.859 260.565 112.284 260.821C111.708 261.077 111.039 261.205 110.277 261.205C109.275 261.205 108.446 260.987 107.79 260.553C107.134 260.118 106.718 259.483 106.544 258.648L107.975 258.29C108.112 258.818 108.37 259.214 108.749 259.479C109.132 259.743 109.633 259.875 110.251 259.875C110.954 259.875 111.512 259.726 111.926 259.428C112.343 259.125 112.552 258.763 112.552 258.341C112.552 258 112.433 257.714 112.194 257.484C111.956 257.25 111.589 257.075 111.095 256.96L109.458 256.577C108.559 256.364 107.899 256.033 107.477 255.586C107.059 255.134 106.85 254.57 106.85 253.892C106.85 253.338 107.006 252.848 107.317 252.422C107.632 251.996 108.061 251.661 108.602 251.418C109.147 251.175 109.765 251.054 110.456 251.054C111.427 251.054 112.19 251.267 112.744 251.693C113.302 252.119 113.699 252.682 113.933 253.381ZM120.499 261.205C119.553 261.205 118.737 260.996 118.051 260.578C117.369 260.156 116.843 259.568 116.472 258.814C116.106 258.055 115.922 257.173 115.922 256.168C115.922 255.162 116.106 254.276 116.472 253.509C116.843 252.737 117.358 252.136 118.019 251.706C118.684 251.271 119.459 251.054 120.346 251.054C120.857 251.054 121.362 251.139 121.861 251.31C122.359 251.48 122.813 251.757 123.222 252.141C123.631 252.52 123.957 253.023 124.2 253.649C124.443 254.276 124.564 255.047 124.564 255.963V256.602H116.996V255.298H123.03C123.03 254.744 122.92 254.25 122.698 253.815C122.481 253.381 122.17 253.038 121.765 252.786C121.364 252.535 120.891 252.409 120.346 252.409C119.745 252.409 119.225 252.558 118.786 252.857C118.351 253.151 118.017 253.534 117.782 254.007C117.548 254.48 117.431 254.987 117.431 255.528V256.398C117.431 257.139 117.559 257.768 117.814 258.283C118.074 258.795 118.434 259.185 118.895 259.453C119.355 259.717 119.89 259.849 120.499 259.849C120.895 259.849 121.253 259.794 121.573 259.683C121.897 259.568 122.176 259.398 122.41 259.172C122.645 258.942 122.826 258.656 122.954 258.315L124.411 258.724C124.258 259.219 124 259.653 123.638 260.028C123.275 260.399 122.828 260.689 122.295 260.898C121.763 261.102 121.164 261.205 120.499 261.205ZM130.567 261.205C129.748 261.205 129.026 260.998 128.4 260.585C127.773 260.167 127.283 259.579 126.93 258.82C126.576 258.058 126.399 257.156 126.399 256.116C126.399 255.085 126.576 254.19 126.93 253.432C127.283 252.673 127.775 252.087 128.406 251.674C129.037 251.261 129.765 251.054 130.592 251.054C131.231 251.054 131.736 251.161 132.107 251.374C132.482 251.582 132.768 251.821 132.964 252.089C133.164 252.354 133.319 252.571 133.43 252.741H133.558V247.909H135.067V261H133.609V259.491H133.43C133.319 259.67 133.162 259.896 132.957 260.169C132.753 260.437 132.461 260.678 132.081 260.891C131.702 261.1 131.197 261.205 130.567 261.205ZM130.771 259.849C131.376 259.849 131.888 259.692 132.305 259.376C132.723 259.057 133.04 258.616 133.258 258.053C133.475 257.487 133.584 256.832 133.584 256.091C133.584 255.358 133.477 254.717 133.264 254.167C133.051 253.613 132.736 253.183 132.318 252.876C131.9 252.565 131.385 252.409 130.771 252.409C130.132 252.409 129.599 252.573 129.173 252.901C128.751 253.225 128.434 253.666 128.221 254.224C128.012 254.778 127.907 255.401 127.907 256.091C127.907 256.79 128.014 257.425 128.227 257.996C128.444 258.562 128.764 259.014 129.186 259.351C129.612 259.683 130.14 259.849 130.771 259.849ZM153.84 252H152.255C152.161 251.544 151.997 251.143 151.763 250.798C151.532 250.453 151.251 250.163 150.919 249.929C150.591 249.69 150.226 249.511 149.826 249.392C149.425 249.273 149.008 249.213 148.573 249.213C147.78 249.213 147.062 249.413 146.419 249.814C145.78 250.214 145.27 250.805 144.891 251.585C144.516 252.364 144.329 253.321 144.329 254.455C144.329 255.588 144.516 256.545 144.891 257.325C145.27 258.104 145.78 258.695 146.419 259.095C147.062 259.496 147.78 259.696 148.573 259.696C149.008 259.696 149.425 259.636 149.826 259.517C150.226 259.398 150.591 259.221 150.919 258.987C151.251 258.748 151.532 258.456 151.763 258.111C151.997 257.761 152.161 257.361 152.255 256.909H153.84C153.721 257.578 153.503 258.177 153.188 258.705C152.873 259.234 152.481 259.683 152.012 260.054C151.543 260.42 151.017 260.7 150.433 260.891C149.854 261.083 149.233 261.179 148.573 261.179C147.456 261.179 146.464 260.906 145.594 260.361C144.725 259.815 144.041 259.04 143.542 258.034C143.044 257.028 142.795 255.835 142.795 254.455C142.795 253.074 143.044 251.881 143.542 250.875C144.041 249.869 144.725 249.094 145.594 248.548C146.464 248.003 147.456 247.73 148.573 247.73C149.233 247.73 149.854 247.826 150.433 248.018C151.017 248.21 151.543 248.491 152.012 248.862C152.481 249.228 152.873 249.675 153.188 250.204C153.503 250.728 153.721 251.327 153.84 252ZM160.186 261.205C159.299 261.205 158.522 260.994 157.853 260.572C157.188 260.15 156.668 259.56 156.293 258.801C155.922 258.043 155.737 257.156 155.737 256.142C155.737 255.119 155.922 254.227 156.293 253.464C156.668 252.701 157.188 252.109 157.853 251.687C158.522 251.265 159.299 251.054 160.186 251.054C161.072 251.054 161.848 251.265 162.512 251.687C163.181 252.109 163.701 252.701 164.072 253.464C164.447 254.227 164.635 255.119 164.635 256.142C164.635 257.156 164.447 258.043 164.072 258.801C163.701 259.56 163.181 260.15 162.512 260.572C161.848 260.994 161.072 261.205 160.186 261.205ZM160.186 259.849C160.859 259.849 161.413 259.677 161.848 259.332C162.282 258.987 162.604 258.533 162.813 257.97C163.022 257.408 163.126 256.798 163.126 256.142C163.126 255.486 163.022 254.874 162.813 254.308C162.604 253.741 162.282 253.283 161.848 252.933C161.413 252.584 160.859 252.409 160.186 252.409C159.512 252.409 158.958 252.584 158.524 252.933C158.089 253.283 157.767 253.741 157.559 254.308C157.35 254.874 157.245 255.486 157.245 256.142C157.245 256.798 157.35 257.408 157.559 257.97C157.767 258.533 158.089 258.987 158.524 259.332C158.958 259.677 159.512 259.849 160.186 259.849ZM170.645 261.205C169.827 261.205 169.104 260.998 168.478 260.585C167.851 260.167 167.361 259.579 167.008 258.82C166.654 258.058 166.477 257.156 166.477 256.116C166.477 255.085 166.654 254.19 167.008 253.432C167.361 252.673 167.854 252.087 168.484 251.674C169.115 251.261 169.844 251.054 170.67 251.054C171.309 251.054 171.814 251.161 172.185 251.374C172.56 251.582 172.846 251.821 173.042 252.089C173.242 252.354 173.398 252.571 173.508 252.741H173.636V247.909H175.145V261H173.687V259.491H173.508C173.398 259.67 173.24 259.896 173.035 260.169C172.831 260.437 172.539 260.678 172.16 260.891C171.78 261.1 171.275 261.205 170.645 261.205ZM170.849 259.849C171.454 259.849 171.966 259.692 172.383 259.376C172.801 259.057 173.118 258.616 173.336 258.053C173.553 257.487 173.662 256.832 173.662 256.091C173.662 255.358 173.555 254.717 173.342 254.167C173.129 253.613 172.814 253.183 172.396 252.876C171.979 252.565 171.463 252.409 170.849 252.409C170.21 252.409 169.677 252.573 169.251 252.901C168.829 253.225 168.512 253.666 168.299 254.224C168.09 254.778 167.986 255.401 167.986 256.091C167.986 256.79 168.092 257.425 168.305 257.996C168.523 258.562 168.842 259.014 169.264 259.351C169.69 259.683 170.219 259.849 170.849 259.849ZM178.117 261V251.182H179.626V261H178.117ZM178.884 249.545C178.59 249.545 178.336 249.445 178.123 249.245C177.915 249.045 177.81 248.804 177.81 248.523C177.81 248.241 177.915 248.001 178.123 247.8C178.336 247.6 178.59 247.5 178.884 247.5C179.178 247.5 179.43 247.6 179.638 247.8C179.851 248.001 179.958 248.241 179.958 248.523C179.958 248.804 179.851 249.045 179.638 249.245C179.43 249.445 179.178 249.545 178.884 249.545ZM183.897 255.094V261H182.388V251.182H183.846V252.716H183.974C184.204 252.217 184.553 251.817 185.022 251.514C185.491 251.207 186.096 251.054 186.837 251.054C187.502 251.054 188.084 251.19 188.582 251.463C189.081 251.732 189.469 252.141 189.746 252.69C190.023 253.236 190.161 253.926 190.161 254.761V261H188.653V254.864C188.653 254.092 188.452 253.491 188.052 253.061C187.651 252.626 187.102 252.409 186.403 252.409C185.921 252.409 185.491 252.513 185.112 252.722C184.737 252.931 184.44 253.236 184.223 253.636C184.006 254.037 183.897 254.523 183.897 255.094ZM196.881 264.886C196.152 264.886 195.526 264.793 195.002 264.605C194.477 264.422 194.041 264.179 193.691 263.876C193.346 263.578 193.071 263.259 192.867 262.918L194.068 262.074C194.205 262.253 194.377 262.457 194.586 262.688C194.795 262.922 195.08 263.124 195.443 263.295C195.809 263.469 196.289 263.557 196.881 263.557C197.673 263.557 198.328 263.365 198.843 262.982C199.359 262.598 199.617 261.997 199.617 261.179V259.185H199.489C199.378 259.364 199.22 259.585 199.016 259.849C198.816 260.109 198.526 260.342 198.146 260.546C197.771 260.746 197.264 260.847 196.625 260.847C195.833 260.847 195.121 260.659 194.49 260.284C193.864 259.909 193.367 259.364 193.001 258.648C192.639 257.932 192.458 257.062 192.458 256.04C192.458 255.034 192.634 254.158 192.988 253.413C193.342 252.663 193.834 252.083 194.465 251.674C195.095 251.261 195.824 251.054 196.651 251.054C197.29 251.054 197.797 251.161 198.172 251.374C198.551 251.582 198.841 251.821 199.041 252.089C199.246 252.354 199.404 252.571 199.514 252.741H199.668V251.182H201.125V261.281C201.125 262.125 200.933 262.811 200.55 263.339C200.171 263.872 199.659 264.262 199.016 264.509C198.377 264.761 197.665 264.886 196.881 264.886ZM196.83 259.491C197.435 259.491 197.946 259.353 198.364 259.076C198.781 258.799 199.099 258.401 199.316 257.881C199.534 257.361 199.642 256.739 199.642 256.014C199.642 255.307 199.536 254.683 199.323 254.141C199.11 253.6 198.794 253.176 198.377 252.869C197.959 252.562 197.443 252.409 196.83 252.409C196.191 252.409 195.658 252.571 195.232 252.895C194.81 253.219 194.492 253.653 194.279 254.199C194.07 254.744 193.966 255.349 193.966 256.014C193.966 256.696 194.073 257.299 194.286 257.823C194.503 258.343 194.823 258.752 195.244 259.05C195.671 259.344 196.199 259.491 196.83 259.491Z" fill="black"/>
<rect x="47" y="236.5" width="178" height="35" stroke="black"/>
<path d="M86.5607 316.315V314.909H96.3789V316.315H92.2624V328H90.6772V316.315H86.5607ZM100.129 322.094V328H98.6209V314.909H100.129V319.716H100.257C100.487 319.209 100.833 318.806 101.293 318.508C101.757 318.205 102.375 318.054 103.146 318.054C103.816 318.054 104.401 318.188 104.904 318.457C105.407 318.721 105.797 319.128 106.074 319.678C106.355 320.223 106.496 320.918 106.496 321.761V328H104.987V321.864C104.987 321.084 104.785 320.481 104.38 320.055C103.98 319.624 103.423 319.409 102.712 319.409C102.218 319.409 101.774 319.513 101.382 319.722C100.994 319.931 100.688 320.236 100.462 320.636C100.24 321.037 100.129 321.523 100.129 322.094ZM113.372 328.205C112.426 328.205 111.61 327.996 110.924 327.578C110.242 327.156 109.716 326.568 109.345 325.814C108.979 325.055 108.795 324.173 108.795 323.168C108.795 322.162 108.979 321.276 109.345 320.509C109.716 319.737 110.232 319.136 110.892 318.706C111.557 318.271 112.332 318.054 113.219 318.054C113.73 318.054 114.235 318.139 114.734 318.31C115.232 318.48 115.686 318.757 116.095 319.141C116.504 319.52 116.83 320.023 117.073 320.649C117.316 321.276 117.438 322.047 117.438 322.963V323.602H109.869V322.298H115.903C115.903 321.744 115.793 321.25 115.571 320.815C115.354 320.381 115.043 320.038 114.638 319.786C114.237 319.535 113.764 319.409 113.219 319.409C112.618 319.409 112.098 319.558 111.659 319.857C111.224 320.151 110.89 320.534 110.656 321.007C110.421 321.48 110.304 321.987 110.304 322.528V323.398C110.304 324.139 110.432 324.768 110.688 325.283C110.947 325.795 111.308 326.185 111.768 326.453C112.228 326.717 112.763 326.849 113.372 326.849C113.768 326.849 114.126 326.794 114.446 326.683C114.77 326.568 115.049 326.398 115.283 326.172C115.518 325.942 115.699 325.656 115.827 325.315L117.284 325.724C117.131 326.219 116.873 326.653 116.511 327.028C116.148 327.399 115.701 327.689 115.168 327.898C114.636 328.102 114.037 328.205 113.372 328.205ZM123.721 328.205C122.835 328.205 122.057 327.994 121.388 327.572C120.723 327.15 120.203 326.56 119.828 325.801C119.457 325.043 119.272 324.156 119.272 323.142C119.272 322.119 119.457 321.227 119.828 320.464C120.203 319.701 120.723 319.109 121.388 318.687C122.057 318.265 122.835 318.054 123.721 318.054C124.607 318.054 125.383 318.265 126.048 318.687C126.717 319.109 127.237 319.701 127.607 320.464C127.982 321.227 128.17 322.119 128.17 323.142C128.17 324.156 127.982 325.043 127.607 325.801C127.237 326.56 126.717 327.15 126.048 327.572C125.383 327.994 124.607 328.205 123.721 328.205ZM123.721 326.849C124.394 326.849 124.948 326.677 125.383 326.332C125.817 325.987 126.139 325.533 126.348 324.97C126.557 324.408 126.661 323.798 126.661 323.142C126.661 322.486 126.557 321.874 126.348 321.308C126.139 320.741 125.817 320.283 125.383 319.933C124.948 319.584 124.394 319.409 123.721 319.409C123.048 319.409 122.494 319.584 122.059 319.933C121.624 320.283 121.303 320.741 121.094 321.308C120.885 321.874 120.781 322.486 120.781 323.142C120.781 323.798 120.885 324.408 121.094 324.97C121.303 325.533 121.624 325.987 122.059 326.332C122.494 326.677 123.048 326.849 123.721 326.849ZM130.472 328V318.182H131.93V319.665H132.032C132.211 319.179 132.535 318.785 133.004 318.482C133.472 318.18 134.001 318.028 134.589 318.028C134.7 318.028 134.838 318.031 135.004 318.035C135.171 318.039 135.296 318.045 135.382 318.054V319.588C135.33 319.575 135.213 319.556 135.03 319.531C134.851 319.501 134.661 319.486 134.461 319.486C133.984 319.486 133.558 319.586 133.183 319.786C132.812 319.982 132.518 320.255 132.301 320.604C132.088 320.95 131.981 321.344 131.981 321.787V328H130.472ZM140.987 328.205C140.041 328.205 139.225 327.996 138.539 327.578C137.857 327.156 137.331 326.568 136.96 325.814C136.594 325.055 136.411 324.173 136.411 323.168C136.411 322.162 136.594 321.276 136.96 320.509C137.331 319.737 137.847 319.136 138.507 318.706C139.172 318.271 139.948 318.054 140.834 318.054C141.345 318.054 141.85 318.139 142.349 318.31C142.847 318.48 143.301 318.757 143.71 319.141C144.119 319.52 144.445 320.023 144.688 320.649C144.931 321.276 145.053 322.047 145.053 322.963V323.602H137.485V322.298H143.519C143.519 321.744 143.408 321.25 143.186 320.815C142.969 320.381 142.658 320.038 142.253 319.786C141.852 319.535 141.379 319.409 140.834 319.409C140.233 319.409 139.713 319.558 139.274 319.857C138.84 320.151 138.505 320.534 138.271 321.007C138.036 321.48 137.919 321.987 137.919 322.528V323.398C137.919 324.139 138.047 324.768 138.303 325.283C138.563 325.795 138.923 326.185 139.383 326.453C139.843 326.717 140.378 326.849 140.987 326.849C141.384 326.849 141.742 326.794 142.061 326.683C142.385 326.568 142.664 326.398 142.899 326.172C143.133 325.942 143.314 325.656 143.442 325.315L144.899 325.724C144.746 326.219 144.488 326.653 144.126 327.028C143.764 327.399 143.316 327.689 142.784 327.898C142.251 328.102 141.652 328.205 140.987 328.205ZM151.617 318.182V319.46H146.529V318.182H151.617ZM148.012 315.83H149.521V325.188C149.521 325.614 149.583 325.933 149.706 326.146C149.834 326.355 149.996 326.496 150.192 326.568C150.392 326.636 150.603 326.67 150.825 326.67C150.991 326.67 151.127 326.662 151.234 326.645C151.34 326.624 151.426 326.607 151.49 326.594L151.796 327.949C151.694 327.987 151.551 328.026 151.368 328.064C151.185 328.107 150.953 328.128 150.671 328.128C150.245 328.128 149.828 328.036 149.419 327.853C149.014 327.67 148.677 327.391 148.409 327.016C148.144 326.641 148.012 326.168 148.012 325.597V315.83ZM153.887 328V318.182H155.395V328H153.887ZM154.654 316.545C154.36 316.545 154.106 316.445 153.893 316.245C153.684 316.045 153.58 315.804 153.58 315.523C153.58 315.241 153.684 315.001 153.893 314.8C154.106 314.6 154.36 314.5 154.654 314.5C154.948 314.5 155.199 314.6 155.408 314.8C155.621 315.001 155.727 315.241 155.727 315.523C155.727 315.804 155.621 316.045 155.408 316.245C155.199 316.445 154.948 316.545 154.654 316.545ZM162.147 328.205C161.226 328.205 160.434 327.987 159.769 327.553C159.104 327.118 158.593 326.519 158.235 325.756C157.877 324.994 157.698 324.122 157.698 323.142C157.698 322.145 157.881 321.265 158.248 320.502C158.618 319.735 159.134 319.136 159.794 318.706C160.459 318.271 161.235 318.054 162.121 318.054C162.811 318.054 163.434 318.182 163.988 318.438C164.542 318.693 164.995 319.051 165.349 319.511C165.703 319.972 165.922 320.509 166.007 321.122H164.499C164.384 320.675 164.128 320.278 163.732 319.933C163.34 319.584 162.811 319.409 162.147 319.409C161.559 319.409 161.043 319.562 160.6 319.869C160.161 320.172 159.818 320.6 159.571 321.154C159.328 321.704 159.206 322.349 159.206 323.091C159.206 323.849 159.326 324.51 159.564 325.072C159.807 325.635 160.148 326.072 160.587 326.383C161.03 326.694 161.55 326.849 162.147 326.849C162.539 326.849 162.895 326.781 163.214 326.645C163.534 326.509 163.804 326.312 164.026 326.057C164.248 325.801 164.405 325.494 164.499 325.136H166.007C165.922 325.716 165.711 326.238 165.375 326.702C165.042 327.163 164.601 327.529 164.051 327.802C163.506 328.07 162.871 328.205 162.147 328.205ZM171.102 328.23C170.48 328.23 169.915 328.113 169.408 327.879C168.901 327.64 168.498 327.297 168.2 326.849C167.902 326.398 167.752 325.852 167.752 325.213C167.752 324.651 167.863 324.195 168.085 323.845C168.306 323.491 168.603 323.214 168.973 323.014C169.344 322.814 169.753 322.665 170.201 322.567C170.652 322.464 171.106 322.384 171.562 322.324C172.159 322.247 172.642 322.19 173.013 322.151C173.388 322.109 173.661 322.038 173.831 321.94C174.006 321.842 174.093 321.672 174.093 321.429V321.378C174.093 320.747 173.921 320.257 173.576 319.908C173.235 319.558 172.717 319.384 172.022 319.384C171.302 319.384 170.738 319.541 170.328 319.857C169.919 320.172 169.632 320.509 169.466 320.866L168.034 320.355C168.289 319.759 168.63 319.294 169.056 318.962C169.487 318.625 169.956 318.391 170.463 318.259C170.974 318.122 171.477 318.054 171.971 318.054C172.287 318.054 172.649 318.092 173.058 318.169C173.471 318.241 173.87 318.393 174.253 318.623C174.641 318.853 174.963 319.2 175.218 319.665C175.474 320.129 175.602 320.751 175.602 321.531V328H174.093V326.67H174.017C173.914 326.884 173.744 327.112 173.505 327.354C173.267 327.597 172.949 327.804 172.553 327.974C172.157 328.145 171.673 328.23 171.102 328.23ZM171.332 326.875C171.929 326.875 172.431 326.758 172.841 326.523C173.254 326.289 173.565 325.987 173.774 325.616C173.987 325.245 174.093 324.855 174.093 324.446V323.065C174.029 323.142 173.889 323.212 173.672 323.276C173.458 323.336 173.211 323.389 172.93 323.436C172.653 323.479 172.382 323.517 172.118 323.551C171.858 323.581 171.647 323.607 171.485 323.628C171.093 323.679 170.727 323.762 170.386 323.877C170.049 323.988 169.777 324.156 169.568 324.382C169.363 324.604 169.261 324.906 169.261 325.29C169.261 325.814 169.455 326.21 169.843 326.479C170.235 326.743 170.731 326.875 171.332 326.875ZM179.864 314.909V328H178.355V314.909H179.864ZM105.607 340.182C105.53 339.534 105.219 339.031 104.673 338.673C104.128 338.315 103.459 338.136 102.666 338.136C102.087 338.136 101.58 338.23 101.145 338.418C100.715 338.605 100.378 338.863 100.135 339.191C99.8964 339.519 99.7771 339.892 99.7771 340.31C99.7771 340.659 99.8602 340.96 100.026 341.211C100.197 341.458 100.414 341.665 100.678 341.831C100.943 341.993 101.22 342.127 101.509 342.234C101.799 342.336 102.065 342.419 102.308 342.483L103.638 342.841C103.979 342.93 104.358 343.054 104.776 343.212C105.198 343.369 105.6 343.585 105.984 343.857C106.372 344.126 106.691 344.471 106.943 344.893C107.194 345.315 107.32 345.832 107.32 346.446C107.32 347.153 107.134 347.793 106.764 348.364C106.397 348.935 105.86 349.388 105.153 349.725C104.45 350.062 103.595 350.23 102.59 350.23C101.652 350.23 100.84 350.079 100.154 349.776C99.4724 349.474 98.9355 349.052 98.5434 348.511C98.1556 347.969 97.9362 347.341 97.885 346.625H99.5214C99.564 347.119 99.7302 347.528 100.02 347.852C100.314 348.172 100.685 348.411 101.132 348.568C101.584 348.722 102.07 348.798 102.59 348.798C103.195 348.798 103.738 348.7 104.22 348.504C104.701 348.304 105.082 348.027 105.364 347.673C105.645 347.315 105.786 346.898 105.786 346.42C105.786 345.986 105.664 345.632 105.421 345.359C105.178 345.087 104.859 344.865 104.462 344.695C104.066 344.524 103.638 344.375 103.178 344.247L101.567 343.787C100.544 343.493 99.7345 343.073 99.1379 342.528C98.5413 341.982 98.243 341.268 98.243 340.386C98.243 339.653 98.4411 339.014 98.8374 338.469C99.238 337.919 99.7749 337.493 100.448 337.19C101.126 336.884 101.882 336.73 102.717 336.73C103.561 336.73 104.311 336.881 104.967 337.184C105.624 337.482 106.144 337.891 106.527 338.411C106.915 338.931 107.119 339.521 107.141 340.182H105.607ZM112.611 350.23C111.989 350.23 111.424 350.113 110.917 349.879C110.41 349.64 110.007 349.297 109.709 348.849C109.41 348.398 109.261 347.852 109.261 347.213C109.261 346.651 109.372 346.195 109.594 345.845C109.815 345.491 110.111 345.214 110.482 345.014C110.853 344.814 111.262 344.665 111.709 344.567C112.161 344.464 112.615 344.384 113.071 344.324C113.668 344.247 114.151 344.19 114.522 344.151C114.897 344.109 115.17 344.038 115.34 343.94C115.515 343.842 115.602 343.672 115.602 343.429V343.378C115.602 342.747 115.43 342.257 115.084 341.908C114.744 341.558 114.226 341.384 113.531 341.384C112.811 341.384 112.246 341.541 111.837 341.857C111.428 342.172 111.141 342.509 110.974 342.866L109.543 342.355C109.798 341.759 110.139 341.294 110.565 340.962C110.996 340.625 111.464 340.391 111.972 340.259C112.483 340.122 112.986 340.054 113.48 340.054C113.795 340.054 114.158 340.092 114.567 340.169C114.98 340.241 115.378 340.393 115.762 340.623C116.15 340.853 116.472 341.2 116.727 341.665C116.983 342.129 117.111 342.751 117.111 343.531V350H115.602V348.67H115.525C115.423 348.884 115.253 349.112 115.014 349.354C114.775 349.597 114.458 349.804 114.062 349.974C113.665 350.145 113.182 350.23 112.611 350.23ZM112.841 348.875C113.437 348.875 113.94 348.758 114.349 348.523C114.763 348.289 115.074 347.987 115.283 347.616C115.496 347.245 115.602 346.855 115.602 346.446V345.065C115.538 345.142 115.398 345.212 115.18 345.276C114.967 345.336 114.72 345.389 114.439 345.436C114.162 345.479 113.891 345.517 113.627 345.551C113.367 345.581 113.156 345.607 112.994 345.628C112.602 345.679 112.236 345.762 111.895 345.877C111.558 345.988 111.285 346.156 111.077 346.382C110.872 346.604 110.77 346.906 110.77 347.29C110.77 347.814 110.964 348.21 111.351 348.479C111.744 348.743 112.24 348.875 112.841 348.875ZM119.864 350V340.182H121.321V341.716H121.449C121.654 341.192 121.984 340.785 122.44 340.495C122.896 340.201 123.444 340.054 124.083 340.054C124.731 340.054 125.27 340.201 125.7 340.495C126.135 340.785 126.473 341.192 126.716 341.716H126.819C127.07 341.209 127.447 340.806 127.95 340.508C128.453 340.205 129.056 340.054 129.759 340.054C130.637 340.054 131.355 340.329 131.913 340.879C132.471 341.424 132.75 342.274 132.75 343.429V350H131.242V343.429C131.242 342.705 131.044 342.187 130.647 341.876C130.251 341.565 129.785 341.409 129.248 341.409C128.557 341.409 128.022 341.618 127.643 342.036C127.264 342.449 127.074 342.973 127.074 343.608V350H125.54V343.276C125.54 342.717 125.359 342.268 124.997 341.927C124.635 341.582 124.168 341.409 123.597 341.409C123.205 341.409 122.839 341.513 122.498 341.722C122.161 341.931 121.888 342.221 121.679 342.592C121.475 342.958 121.373 343.382 121.373 343.864V350H119.864ZM135.509 353.682V340.182H136.966V341.741H137.145C137.256 341.571 137.409 341.354 137.605 341.089C137.805 340.821 138.091 340.582 138.462 340.374C138.837 340.161 139.344 340.054 139.983 340.054C140.81 340.054 141.538 340.261 142.169 340.674C142.8 341.087 143.292 341.673 143.646 342.432C143.999 343.19 144.176 344.085 144.176 345.116C144.176 346.156 143.999 347.058 143.646 347.82C143.292 348.579 142.802 349.167 142.176 349.585C141.549 349.998 140.827 350.205 140.009 350.205C139.378 350.205 138.873 350.1 138.494 349.891C138.114 349.678 137.823 349.437 137.618 349.169C137.413 348.896 137.256 348.67 137.145 348.491H137.017V353.682H135.509ZM136.992 345.091C136.992 345.832 137.1 346.487 137.318 347.053C137.535 347.616 137.852 348.057 138.27 348.376C138.688 348.692 139.199 348.849 139.804 348.849C140.435 348.849 140.961 348.683 141.383 348.351C141.809 348.014 142.129 347.562 142.342 346.996C142.559 346.425 142.668 345.79 142.668 345.091C142.668 344.401 142.561 343.778 142.348 343.224C142.139 342.666 141.822 342.225 141.396 341.901C140.974 341.573 140.443 341.409 139.804 341.409C139.19 341.409 138.675 341.565 138.257 341.876C137.84 342.183 137.524 342.613 137.311 343.167C137.098 343.717 136.992 344.358 136.992 345.091ZM147.986 336.909V350H146.477V336.909H147.986ZM150.749 350V340.182H152.257V350H150.749ZM151.516 338.545C151.222 338.545 150.968 338.445 150.755 338.245C150.546 338.045 150.442 337.804 150.442 337.523C150.442 337.241 150.546 337.001 150.755 336.8C150.968 336.6 151.222 336.5 151.516 336.5C151.81 336.5 152.061 336.6 152.27 336.8C152.483 337.001 152.59 337.241 152.59 337.523C152.59 337.804 152.483 338.045 152.27 338.245C152.061 338.445 151.81 338.545 151.516 338.545ZM156.529 344.094V350H155.02V340.182H156.478V341.716H156.606C156.836 341.217 157.185 340.817 157.654 340.514C158.123 340.207 158.728 340.054 159.469 340.054C160.134 340.054 160.716 340.19 161.214 340.463C161.713 340.732 162.101 341.141 162.378 341.69C162.655 342.236 162.793 342.926 162.793 343.761V350H161.285V343.864C161.285 343.092 161.084 342.491 160.684 342.061C160.283 341.626 159.733 341.409 159.035 341.409C158.553 341.409 158.123 341.513 157.743 341.722C157.368 341.931 157.072 342.236 156.855 342.636C156.638 343.037 156.529 343.523 156.529 344.094ZM169.513 353.886C168.784 353.886 168.158 353.793 167.633 353.605C167.109 353.422 166.672 353.179 166.323 352.876C165.978 352.578 165.703 352.259 165.498 351.918L166.7 351.074C166.837 351.253 167.009 351.457 167.218 351.688C167.427 351.922 167.712 352.124 168.074 352.295C168.441 352.469 168.92 352.557 169.513 352.557C170.305 352.557 170.959 352.365 171.475 351.982C171.991 351.598 172.248 350.997 172.248 350.179V348.185H172.121C172.01 348.364 171.852 348.585 171.648 348.849C171.447 349.109 171.158 349.342 170.778 349.546C170.403 349.746 169.896 349.847 169.257 349.847C168.464 349.847 167.753 349.659 167.122 349.284C166.496 348.909 165.999 348.364 165.633 347.648C165.271 346.932 165.089 346.062 165.089 345.04C165.089 344.034 165.266 343.158 165.62 342.413C165.974 341.663 166.466 341.083 167.097 340.674C167.727 340.261 168.456 340.054 169.283 340.054C169.922 340.054 170.429 340.161 170.804 340.374C171.183 340.582 171.473 340.821 171.673 341.089C171.878 341.354 172.035 341.571 172.146 341.741H172.3V340.182H173.757V350.281C173.757 351.125 173.565 351.811 173.182 352.339C172.802 352.872 172.291 353.262 171.648 353.509C171.008 353.761 170.297 353.886 169.513 353.886ZM169.462 348.491C170.067 348.491 170.578 348.353 170.996 348.076C171.413 347.799 171.731 347.401 171.948 346.881C172.165 346.361 172.274 345.739 172.274 345.014C172.274 344.307 172.168 343.683 171.954 343.141C171.741 342.6 171.426 342.176 171.008 341.869C170.591 341.562 170.075 341.409 169.462 341.409C168.822 341.409 168.29 341.571 167.864 341.895C167.442 342.219 167.124 342.653 166.911 343.199C166.702 343.744 166.598 344.349 166.598 345.014C166.598 345.696 166.704 346.299 166.918 346.823C167.135 347.343 167.454 347.752 167.876 348.05C168.302 348.344 168.831 348.491 169.462 348.491Z" fill="black"/>
<rect x="47" y="306.5" width="178" height="50" stroke="black"/>
<path d="M106.661 402.315V400.909H116.479V402.315H112.363V414H110.778V402.315H106.661ZM120.23 408.094V414H118.722V400.909H120.23V405.716H120.358C120.588 405.209 120.933 404.806 121.393 404.508C121.858 404.205 122.476 404.054 123.247 404.054C123.916 404.054 124.502 404.188 125.005 404.457C125.508 404.721 125.898 405.128 126.175 405.678C126.456 406.223 126.597 406.918 126.597 407.761V414H125.088V407.864C125.088 407.084 124.886 406.481 124.481 406.055C124.08 405.624 123.524 405.409 122.812 405.409C122.318 405.409 121.875 405.513 121.483 405.722C121.095 405.931 120.788 406.236 120.562 406.636C120.341 407.037 120.23 407.523 120.23 408.094ZM133.473 414.205C132.527 414.205 131.711 413.996 131.025 413.578C130.343 413.156 129.816 412.568 129.446 411.814C129.079 411.055 128.896 410.173 128.896 409.168C128.896 408.162 129.079 407.276 129.446 406.509C129.816 405.737 130.332 405.136 130.993 404.706C131.657 404.271 132.433 404.054 133.319 404.054C133.831 404.054 134.336 404.139 134.834 404.31C135.333 404.48 135.787 404.757 136.196 405.141C136.605 405.52 136.931 406.023 137.174 406.649C137.417 407.276 137.538 408.047 137.538 408.963V409.602H129.97V408.298H136.004C136.004 407.744 135.893 407.25 135.672 406.815C135.454 406.381 135.143 406.038 134.738 405.786C134.338 405.535 133.865 405.409 133.319 405.409C132.718 405.409 132.199 405.558 131.76 405.857C131.325 406.151 130.991 406.534 130.756 407.007C130.522 407.48 130.405 407.987 130.405 408.528V409.398C130.405 410.139 130.532 410.768 130.788 411.283C131.048 411.795 131.408 412.185 131.868 412.453C132.329 412.717 132.863 412.849 133.473 412.849C133.869 412.849 134.227 412.794 134.547 412.683C134.87 412.568 135.15 412.398 135.384 412.172C135.618 411.942 135.799 411.656 135.927 411.315L137.385 411.724C137.231 412.219 136.973 412.653 136.611 413.028C136.249 413.399 135.802 413.689 135.269 413.898C134.736 414.102 134.138 414.205 133.473 414.205ZM143.821 414.205C142.935 414.205 142.157 413.994 141.488 413.572C140.824 413.15 140.304 412.56 139.929 411.801C139.558 411.043 139.373 410.156 139.373 409.142C139.373 408.119 139.558 407.227 139.929 406.464C140.304 405.701 140.824 405.109 141.488 404.687C142.157 404.265 142.935 404.054 143.821 404.054C144.708 404.054 145.483 404.265 146.148 404.687C146.817 405.109 147.337 405.701 147.708 406.464C148.083 407.227 148.27 408.119 148.27 409.142C148.27 410.156 148.083 411.043 147.708 411.801C147.337 412.56 146.817 413.15 146.148 413.572C145.483 413.994 144.708 414.205 143.821 414.205ZM143.821 412.849C144.495 412.849 145.049 412.677 145.483 412.332C145.918 411.987 146.24 411.533 146.449 410.97C146.657 410.408 146.762 409.798 146.762 409.142C146.762 408.486 146.657 407.874 146.449 407.308C146.24 406.741 145.918 406.283 145.483 405.933C145.049 405.584 144.495 405.409 143.821 405.409C143.148 405.409 142.594 405.584 142.16 405.933C141.725 406.283 141.403 406.741 141.194 407.308C140.986 407.874 140.881 408.486 140.881 409.142C140.881 409.798 140.986 410.408 141.194 410.97C141.403 411.533 141.725 411.987 142.16 412.332C142.594 412.677 143.148 412.849 143.821 412.849ZM150.573 414V404.182H152.03V405.665H152.133C152.312 405.179 152.636 404.785 153.104 404.482C153.573 404.18 154.101 404.028 154.69 404.028C154.8 404.028 154.939 404.031 155.105 404.035C155.271 404.039 155.397 404.045 155.482 404.054V405.588C155.431 405.575 155.314 405.556 155.131 405.531C154.952 405.501 154.762 405.486 154.562 405.486C154.084 405.486 153.658 405.586 153.283 405.786C152.913 405.982 152.619 406.255 152.401 406.604C152.188 406.95 152.082 407.344 152.082 407.787V414H150.573ZM158.541 417.682C158.285 417.682 158.057 417.661 157.857 417.618C157.657 417.58 157.518 417.541 157.441 417.503L157.825 416.173C158.191 416.267 158.515 416.301 158.796 416.276C159.078 416.25 159.327 416.124 159.544 415.898C159.766 415.677 159.968 415.317 160.152 414.818L160.433 414.051L156.802 404.182H158.438L161.149 412.006H161.251L163.961 404.182H165.598L161.43 415.432C161.242 415.939 161.01 416.359 160.733 416.691C160.456 417.028 160.134 417.277 159.768 417.439C159.406 417.601 158.997 417.682 158.541 417.682ZM85.4102 436H81.3704V422.909H85.5891C86.859 422.909 87.9457 423.171 88.8491 423.695C89.7525 424.215 90.445 424.963 90.9265 425.939C91.408 426.911 91.6488 428.074 91.6488 429.429C91.6488 430.793 91.4059 431.967 90.9201 432.951C90.4343 433.931 89.7269 434.685 88.7979 435.214C87.869 435.738 86.7397 436 85.4102 436ZM82.9556 434.594H85.3079C86.3903 434.594 87.2873 434.385 87.9989 433.967C88.7106 433.55 89.2411 432.955 89.5906 432.184C89.94 431.413 90.1147 430.494 90.1147 429.429C90.1147 428.372 89.9421 427.462 89.5969 426.7C89.2518 425.933 88.7362 425.344 88.0501 424.935C87.364 424.522 86.5096 424.315 85.4869 424.315H82.9556V434.594ZM98.2198 436.205C97.2738 436.205 96.4577 435.996 95.7717 435.578C95.0898 435.156 94.5636 434.568 94.1928 433.814C93.8263 433.055 93.6431 432.173 93.6431 431.168C93.6431 430.162 93.8263 429.276 94.1928 428.509C94.5636 427.737 95.0792 427.136 95.7397 426.706C96.4045 426.271 97.18 426.054 98.0664 426.054C98.5778 426.054 99.0827 426.139 99.5813 426.31C100.08 426.48 100.534 426.757 100.943 427.141C101.352 427.52 101.678 428.023 101.921 428.649C102.164 429.276 102.285 430.047 102.285 430.963V431.602H94.717V430.298H100.751C100.751 429.744 100.64 429.25 100.419 428.815C100.201 428.381 99.8903 428.038 99.4854 427.786C99.0849 427.535 98.6119 427.409 98.0664 427.409C97.4656 427.409 96.9457 427.558 96.5067 427.857C96.0721 428.151 95.7376 428.534 95.5032 429.007C95.2688 429.48 95.1516 429.987 95.1516 430.528V431.398C95.1516 432.139 95.2795 432.768 95.5352 433.283C95.7951 433.795 96.1552 434.185 96.6154 434.453C97.0756 434.717 97.6104 434.849 98.2198 434.849C98.6161 434.849 98.9741 434.794 99.2937 434.683C99.6175 434.568 99.8967 434.398 100.131 434.172C100.365 433.942 100.547 433.656 100.674 433.315L102.132 433.724C101.978 434.219 101.721 434.653 101.358 435.028C100.996 435.399 100.549 435.689 100.016 435.898C99.4833 436.102 98.8846 436.205 98.2198 436.205ZM112.309 426.182L108.679 436H107.145L103.514 426.182H105.15L107.861 434.006H107.963L110.673 426.182H112.309ZM118.066 436.205C117.119 436.205 116.303 435.996 115.617 435.578C114.936 435.156 114.409 434.568 114.039 433.814C113.672 433.055 113.489 432.173 113.489 431.168C113.489 430.162 113.672 429.276 114.039 428.509C114.409 427.737 114.925 427.136 115.585 426.706C116.25 426.271 117.026 426.054 117.912 426.054C118.423 426.054 118.928 426.139 119.427 426.31C119.926 426.48 120.379 426.757 120.789 427.141C121.198 427.52 121.524 428.023 121.767 428.649C122.009 429.276 122.131 430.047 122.131 430.963V431.602H114.563V430.298H120.597C120.597 429.744 120.486 429.25 120.264 428.815C120.047 428.381 119.736 428.038 119.331 427.786C118.931 427.535 118.458 427.409 117.912 427.409C117.311 427.409 116.791 427.558 116.352 427.857C115.918 428.151 115.583 428.534 115.349 429.007C115.115 429.48 114.997 429.987 114.997 430.528V431.398C114.997 432.139 115.125 432.768 115.381 433.283C115.641 433.795 116.001 434.185 116.461 434.453C116.921 434.717 117.456 434.849 118.066 434.849C118.462 434.849 118.82 434.794 119.139 434.683C119.463 434.568 119.742 434.398 119.977 434.172C120.211 433.942 120.392 433.656 120.52 433.315L121.977 433.724C121.824 434.219 121.566 434.653 121.204 435.028C120.842 435.399 120.394 435.689 119.862 435.898C119.329 436.102 118.73 436.205 118.066 436.205ZM125.934 422.909V436H124.426V422.909H125.934ZM132.686 436.205C131.799 436.205 131.022 435.994 130.353 435.572C129.688 435.15 129.168 434.56 128.793 433.801C128.422 433.043 128.237 432.156 128.237 431.142C128.237 430.119 128.422 429.227 128.793 428.464C129.168 427.701 129.688 427.109 130.353 426.687C131.022 426.265 131.799 426.054 132.686 426.054C133.572 426.054 134.348 426.265 135.012 426.687C135.681 427.109 136.201 427.701 136.572 428.464C136.947 429.227 137.135 430.119 137.135 431.142C137.135 432.156 136.947 433.043 136.572 433.801C136.201 434.56 135.681 435.15 135.012 435.572C134.348 435.994 133.572 436.205 132.686 436.205ZM132.686 434.849C133.359 434.849 133.913 434.677 134.348 434.332C134.782 433.987 135.104 433.533 135.313 432.97C135.522 432.408 135.626 431.798 135.626 431.142C135.626 430.486 135.522 429.874 135.313 429.308C135.104 428.741 134.782 428.283 134.348 427.933C133.913 427.584 133.359 427.409 132.686 427.409C132.012 427.409 131.458 427.584 131.024 427.933C130.589 428.283 130.267 428.741 130.059 429.308C129.85 429.874 129.745 430.486 129.745 431.142C129.745 431.798 129.85 432.408 130.059 432.97C130.267 433.533 130.589 433.987 131.024 434.332C131.458 434.677 132.012 434.849 132.686 434.849ZM139.437 439.682V426.182H140.895V427.741H141.074C141.184 427.571 141.338 427.354 141.534 427.089C141.734 426.821 142.02 426.582 142.39 426.374C142.765 426.161 143.273 426.054 143.912 426.054C144.738 426.054 145.467 426.261 146.098 426.674C146.729 427.087 147.221 427.673 147.574 428.432C147.928 429.19 148.105 430.085 148.105 431.116C148.105 432.156 147.928 433.058 147.574 433.82C147.221 434.579 146.731 435.167 146.104 435.585C145.478 435.998 144.756 436.205 143.937 436.205C143.307 436.205 142.802 436.1 142.422 435.891C142.043 435.678 141.751 435.437 141.547 435.169C141.342 434.896 141.184 434.67 141.074 434.491H140.946V439.682H139.437ZM140.92 431.091C140.92 431.832 141.029 432.487 141.246 433.053C141.464 433.616 141.781 434.057 142.199 434.376C142.616 434.692 143.128 434.849 143.733 434.849C144.363 434.849 144.89 434.683 145.312 434.351C145.738 434.014 146.057 433.562 146.27 432.996C146.488 432.425 146.596 431.79 146.596 431.091C146.596 430.401 146.49 429.778 146.277 429.224C146.068 428.666 145.751 428.225 145.324 427.901C144.903 427.573 144.372 427.409 143.733 427.409C143.119 427.409 142.604 427.565 142.186 427.876C141.768 428.183 141.453 428.613 141.24 429.167C141.027 429.717 140.92 430.358 140.92 431.091ZM150.406 436V426.182H151.863V427.716H151.991C152.196 427.192 152.526 426.785 152.982 426.495C153.438 426.201 153.986 426.054 154.625 426.054C155.273 426.054 155.812 426.201 156.242 426.495C156.677 426.785 157.015 427.192 157.258 427.716H157.361C157.612 427.209 157.989 426.806 158.492 426.508C158.995 426.205 159.598 426.054 160.301 426.054C161.179 426.054 161.897 426.329 162.455 426.879C163.013 427.424 163.292 428.274 163.292 429.429V436H161.784V429.429C161.784 428.705 161.586 428.187 161.189 427.876C160.793 427.565 160.327 427.409 159.79 427.409C159.099 427.409 158.564 427.618 158.185 428.036C157.806 428.449 157.616 428.973 157.616 429.608V436H156.082V429.276C156.082 428.717 155.901 428.268 155.539 427.927C155.177 427.582 154.71 427.409 154.139 427.409C153.747 427.409 153.381 427.513 153.04 427.722C152.703 427.931 152.43 428.221 152.221 428.592C152.017 428.958 151.915 429.382 151.915 429.864V436H150.406ZM170.167 436.205C169.221 436.205 168.405 435.996 167.719 435.578C167.037 435.156 166.511 434.568 166.14 433.814C165.774 433.055 165.59 432.173 165.59 431.168C165.59 430.162 165.774 429.276 166.14 428.509C166.511 427.737 167.026 427.136 167.687 426.706C168.352 426.271 169.127 426.054 170.014 426.054C170.525 426.054 171.03 426.139 171.529 426.31C172.027 426.48 172.481 426.757 172.89 427.141C173.299 427.52 173.625 428.023 173.868 428.649C174.111 429.276 174.232 430.047 174.232 430.963V431.602H166.664V430.298H172.698C172.698 429.744 172.588 429.25 172.366 428.815C172.149 428.381 171.838 428.038 171.433 427.786C171.032 427.535 170.559 427.409 170.014 427.409C169.413 427.409 168.893 427.558 168.454 427.857C168.019 428.151 167.685 428.534 167.45 429.007C167.216 429.48 167.099 429.987 167.099 430.528V431.398C167.099 432.139 167.227 432.768 167.482 433.283C167.742 433.795 168.102 434.185 168.563 434.453C169.023 434.717 169.558 434.849 170.167 434.849C170.563 434.849 170.921 434.794 171.241 434.683C171.565 434.568 171.844 434.398 172.078 434.172C172.313 433.942 172.494 433.656 172.622 433.315L174.079 433.724C173.926 434.219 173.668 434.653 173.306 435.028C172.943 435.399 172.496 435.689 171.963 435.898C171.431 436.102 170.832 436.205 170.167 436.205ZM178.036 430.094V436H176.527V426.182H177.985V427.716H178.112C178.343 427.217 178.692 426.817 179.161 426.514C179.629 426.207 180.235 426.054 180.976 426.054C181.641 426.054 182.222 426.19 182.721 426.463C183.22 426.732 183.607 427.141 183.884 427.69C184.161 428.236 184.3 428.926 184.3 429.761V436H182.791V429.864C182.791 429.092 182.591 428.491 182.191 428.061C181.79 427.626 181.24 427.409 180.541 427.409C180.06 427.409 179.629 427.513 179.25 427.722C178.875 427.931 178.579 428.236 178.362 428.636C178.144 429.037 178.036 429.523 178.036 430.094ZM191.326 426.182V427.46H186.238V426.182H191.326ZM187.721 423.83H189.23V433.188C189.23 433.614 189.292 433.933 189.415 434.146C189.543 434.355 189.705 434.496 189.901 434.568C190.101 434.636 190.312 434.67 190.534 434.67C190.7 434.67 190.836 434.662 190.943 434.645C191.049 434.624 191.135 434.607 191.199 434.594L191.505 435.949C191.403 435.987 191.26 436.026 191.077 436.064C190.894 436.107 190.662 436.128 190.38 436.128C189.954 436.128 189.537 436.036 189.127 435.853C188.723 435.67 188.386 435.391 188.118 435.016C187.853 434.641 187.721 434.168 187.721 433.597V423.83Z" fill="black"/>
<rect x="47" y="392.5" width="178" height="50" stroke="black"/>
<path d="M135.146 98.3536C135.342 98.5488 135.658 98.5488 135.854 98.3536L139.036 95.1716C139.231 94.9763 139.231 94.6597 139.036 94.4645C138.84 94.2692 138.524 94.2692 138.328 94.4645L135.5 97.2929L132.672 94.4645C132.476 94.2692 132.16 94.2692 131.964 94.4645C131.769 94.6597 131.769 94.9763 131.964 95.1716L135.146 98.3536ZM135.5 64L135 64L135 98L135.5 98L136 98L136 64L135.5 64Z" fill="black"/>
<path d="M136.146 166.354C136.342 166.549 136.658 166.549 136.854 166.354L140.036 163.172C140.231 162.976 140.231 162.66 140.036 162.464C139.84 162.269 139.524 162.269 139.328 162.464L136.5 165.293L133.672 162.464C133.476 162.269 133.16 162.269 132.964 162.464C132.769 162.66 132.769 162.976 132.964 163.172L136.146 166.354ZM136.5 132L136 132L136 166L136.5 166L137 166L137 132L136.5 132Z" fill="black"/>
<path d="M136.146 236.354C136.342 236.549 136.658 236.549 136.854 236.354L140.036 233.172C140.231 232.976 140.231 232.66 140.036 232.464C139.84 232.269 139.524 232.269 139.328 232.464L136.5 235.293L133.672 232.464C133.476 232.269 133.16 232.269 132.964 232.464C132.769 232.66 132.769 232.976 132.964 233.172L136.146 236.354ZM136.5 202L136 202L136 236L136.5 236L137 236L137 202L136.5 202Z" fill="black"/>
<path d="M0.5 28V27.5H0V28H0.5ZM46.8536 28.3536C47.0488 28.1583 47.0488 27.8417 46.8536 27.6464L43.6716 24.4645C43.4763 24.2692 43.1597 24.2692 42.9645 24.4645C42.7692 24.6597 42.7692 24.9763 42.9645 25.1716L45.7929 28L42.9645 30.8284C42.7692 31.0237 42.7692 31.3403 42.9645 31.5355C43.1597 31.7308 43.4763 31.7308 43.6716 31.5355L46.8536 28.3536ZM0.5 334.5H0V335H0.5V334.5ZM0.5 28V28.5H46.5V28V27.5H0.5V28ZM46.5 334.5V334H0.5V334.5V335H46.5V334.5ZM0.5 334.5H1V28H0.5H0V334.5H0.5Z" fill="black"/>
<path d="M224.5 115.862L250.5 115.862L275.292 115.862L275.292 174" stroke="black"/>
<path d="M275.5 281L275.5 335L225.5 335" stroke="black"/>
<path d="M136.146 306.354C136.342 306.549 136.658 306.549 136.854 306.354L140.036 303.172C140.231 302.976 140.231 302.66 140.036 302.464C139.84 302.269 139.524 302.269 139.328 302.464L136.5 305.293L133.672 302.464C133.476 302.269 133.16 302.269 132.964 302.464C132.769 302.66 132.769 302.976 132.964 303.172L136.146 306.354ZM136.5 272L136 272L136 306L136.5 306L137 306L137 272L136.5 272Z" fill="black"/>
<path d="M136.146 391.354C136.342 391.549 136.658 391.549 136.854 391.354L140.036 388.172C140.231 387.976 140.231 387.66 140.036 387.464C139.84 387.269 139.524 387.269 139.328 387.464L136.5 390.293L133.672 387.464C133.476 387.269 133.16 387.269 132.964 387.464C132.769 387.66 132.769 387.976 132.964 388.172L136.146 391.354ZM136.5 357L136 357L136 391L136.5 391L137 391L137 357L136.5 357Z" fill="black"/>
</svg>

